<?xml version="1.0" encoding="UTF-8" standalone="no"?><svg xmlns="http://www.w3.org/2000/svg" xmlns:xlink="http://www.w3.org/1999/xlink" contentScriptType="application/ecmascript" contentStyleType="text/css" height="886px" preserveAspectRatio="none" style="width:1213px;height:886px;background:#FFFFFF;" version="1.1" viewBox="0 0 1213 886" width="1213px" zoomAndPan="magnify"><defs><filter height="300%" id="f5ceufdix3upd" width="300%" x="-1" y="-1"><feGaussianBlur result="blurOut" stdDeviation="2.0"/><feColorMatrix in="blurOut" result="blurOut2" type="matrix" values="0 0 0 0 0 0 0 0 0 0 0 0 0 0 0 0 0 0 .4 0"/><feOffset dx="4.0" dy="4.0" in="blurOut2" result="blurOut3"/><feBlend in="SourceGraphic" in2="blurOut3" mode="normal"/></filter></defs><g><text fill="#000000" font-family="sans-serif" font-size="18" lengthAdjust="spacing" textLength="255" x="472.5" y="16.708">Broadcasts - Class Diagram</text><!--MD5=[66c7b72d5fd996439b55bab4eb3f5e0e]
class Broadcast--><rect codeLine="3" fill="#FEFECE" filter="url(#f5ceufdix3upd)" height="86.4141" id="Broadcast" style="stroke:#A80036;stroke-width:1.5;" width="93" x="627" y="27.9531"/><ellipse cx="642" cy="43.9531" fill="#ADD1B2" rx="11" ry="11" style="stroke:#A80036;stroke-width:1.0;"/><path d="M644.3438,39.625 C643.4063,39.1875 642.8125,39.0469 641.9375,39.0469 C639.3125,39.0469 637.3125,41.125 637.3125,43.8438 L637.3125,44.9688 C637.3125,47.5469 639.4219,49.4375 642.3125,49.4375 C643.5313,49.4375 644.6875,49.1406 645.4375,48.5938 C646.0156,48.1875 646.3438,47.7344 646.3438,47.3438 C646.3438,46.8906 645.9531,46.5 645.4844,46.5 C645.2656,46.5 645.0625,46.5781 644.875,46.7656 C644.4219,47.25 644.4219,47.25 644.2344,47.3438 C643.8125,47.6094 643.125,47.7344 642.3594,47.7344 C640.3125,47.7344 639.0156,46.6406 639.0156,44.9375 L639.0156,43.8438 C639.0156,42.0625 640.2656,40.75 642,40.75 C642.5781,40.75 643.1875,40.9063 643.6563,41.1563 C644.1406,41.4375 644.3125,41.6563 644.4063,42.0625 C644.4688,42.4688 644.5,42.5938 644.6406,42.7188 C644.7813,42.8594 645.0156,42.9688 645.2344,42.9688 C645.5,42.9688 645.7656,42.8281 645.9375,42.6094 C646.0469,42.4531 646.0781,42.2656 646.0781,41.8438 L646.0781,40.4219 C646.0781,39.9844 646.0625,39.8594 645.9688,39.7031 C645.8125,39.4375 645.5313,39.2969 645.2344,39.2969 C644.9375,39.2969 644.7344,39.3906 644.5156,39.7031 L644.3438,39.625 Z " fill="#000000"/><text fill="#000000" font-family="sans-serif" font-size="12" lengthAdjust="spacing" textLength="61" x="656" y="48.1074">Broadcast</text><line style="stroke:#A80036;stroke-width:1.5;" x1="628" x2="719" y1="59.9531" y2="59.9531"/><text fill="#000000" font-family="sans-serif" font-size="11" lengthAdjust="spacing" textLength="48" x="633" y="74.1636">id: string</text><line style="stroke:#A80036;stroke-width:1.5;" x1="628" x2="719" y1="80.7578" y2="80.7578"/><text fill="#000000" font-family="sans-serif" font-size="11" lengthAdjust="spacing" textLength="36" x="633" y="94.9683">send()</text><text fill="#000000" font-family="sans-serif" font-size="11" lengthAdjust="spacing" textLength="45" x="633" y="107.7729">cancel()</text><!--MD5=[6a4bf54674a26136bd95edad553eae04]
class SARBroadcast--><rect codeLine="8" fill="#FEFECE" filter="url(#f5ceufdix3upd)" height="48" id="SARBroadcast" style="stroke:#A80036;stroke-width:1.5;" width="116" x="116.5" y="205.9531"/><ellipse cx="131.5" cy="221.9531" fill="#ADD1B2" rx="11" ry="11" style="stroke:#A80036;stroke-width:1.0;"/><path d="M133.8438,217.625 C132.9063,217.1875 132.3125,217.0469 131.4375,217.0469 C128.8125,217.0469 126.8125,219.125 126.8125,221.8438 L126.8125,222.9688 C126.8125,225.5469 128.9219,227.4375 131.8125,227.4375 C133.0313,227.4375 134.1875,227.1406 134.9375,226.5938 C135.5156,226.1875 135.8438,225.7344 135.8438,225.3438 C135.8438,224.8906 135.4531,224.5 134.9844,224.5 C134.7656,224.5 134.5625,224.5781 134.375,224.7656 C133.9219,225.25 133.9219,225.25 133.7344,225.3438 C133.3125,225.6094 132.625,225.7344 131.8594,225.7344 C129.8125,225.7344 128.5156,224.6406 128.5156,222.9375 L128.5156,221.8438 C128.5156,220.0625 129.7656,218.75 131.5,218.75 C132.0781,218.75 132.6875,218.9063 133.1563,219.1563 C133.6406,219.4375 133.8125,219.6563 133.9063,220.0625 C133.9688,220.4688 134,220.5938 134.1406,220.7188 C134.2813,220.8594 134.5156,220.9688 134.7344,220.9688 C135,220.9688 135.2656,220.8281 135.4375,220.6094 C135.5469,220.4531 135.5781,220.2656 135.5781,219.8438 L135.5781,218.4219 C135.5781,217.9844 135.5625,217.8594 135.4688,217.7031 C135.3125,217.4375 135.0313,217.2969 134.7344,217.2969 C134.4375,217.2969 134.2344,217.3906 134.0156,217.7031 L133.8438,217.625 Z " fill="#000000"/><text fill="#000000" font-family="sans-serif" font-size="12" lengthAdjust="spacing" textLength="84" x="145.5" y="226.1074">SARBroadcast</text><line style="stroke:#A80036;stroke-width:1.5;" x1="117.5" x2="231.5" y1="237.9531" y2="237.9531"/><line style="stroke:#A80036;stroke-width:1.5;" x1="117.5" x2="231.5" y1="245.9531" y2="245.9531"/><!--MD5=[59982b7b7c2f6d277251daf1f7ffe2c4]
class MetBroadcast--><rect codeLine="9" fill="#FEFECE" filter="url(#f5ceufdix3upd)" height="48" id="MetBroadcast" style="stroke:#A80036;stroke-width:1.5;" width="115" x="278" y="205.9531"/><ellipse cx="293" cy="221.9531" fill="#ADD1B2" rx="11" ry="11" style="stroke:#A80036;stroke-width:1.0;"/><path d="M295.3438,217.625 C294.4063,217.1875 293.8125,217.0469 292.9375,217.0469 C290.3125,217.0469 288.3125,219.125 288.3125,221.8438 L288.3125,222.9688 C288.3125,225.5469 290.4219,227.4375 293.3125,227.4375 C294.5313,227.4375 295.6875,227.1406 296.4375,226.5938 C297.0156,226.1875 297.3438,225.7344 297.3438,225.3438 C297.3438,224.8906 296.9531,224.5 296.4844,224.5 C296.2656,224.5 296.0625,224.5781 295.875,224.7656 C295.4219,225.25 295.4219,225.25 295.2344,225.3438 C294.8125,225.6094 294.125,225.7344 293.3594,225.7344 C291.3125,225.7344 290.0156,224.6406 290.0156,222.9375 L290.0156,221.8438 C290.0156,220.0625 291.2656,218.75 293,218.75 C293.5781,218.75 294.1875,218.9063 294.6563,219.1563 C295.1406,219.4375 295.3125,219.6563 295.4063,220.0625 C295.4688,220.4688 295.5,220.5938 295.6406,220.7188 C295.7813,220.8594 296.0156,220.9688 296.2344,220.9688 C296.5,220.9688 296.7656,220.8281 296.9375,220.6094 C297.0469,220.4531 297.0781,220.2656 297.0781,219.8438 L297.0781,218.4219 C297.0781,217.9844 297.0625,217.8594 296.9688,217.7031 C296.8125,217.4375 296.5313,217.2969 296.2344,217.2969 C295.9375,217.2969 295.7344,217.3906 295.5156,217.7031 L295.3438,217.625 Z " fill="#000000"/><text fill="#000000" font-family="sans-serif" font-size="12" lengthAdjust="spacing" textLength="83" x="307" y="226.1074">MetBroadcast</text><line style="stroke:#A80036;stroke-width:1.5;" x1="279" x2="392" y1="237.9531" y2="237.9531"/><line style="stroke:#A80036;stroke-width:1.5;" x1="279" x2="392" y1="245.9531" y2="245.9531"/><!--MD5=[a58030872057f2eaffea5a541be2457b]
class NavWarningBroadcast--><rect codeLine="10" fill="#FEFECE" filter="url(#f5ceufdix3upd)" height="48" id="NavWarningBroadcast" style="stroke:#A80036;stroke-width:1.5;" width="164" x="591.5" y="205.9531"/><ellipse cx="606.5" cy="221.9531" fill="#ADD1B2" rx="11" ry="11" style="stroke:#A80036;stroke-width:1.0;"/><path d="M608.8438,217.625 C607.9063,217.1875 607.3125,217.0469 606.4375,217.0469 C603.8125,217.0469 601.8125,219.125 601.8125,221.8438 L601.8125,222.9688 C601.8125,225.5469 603.9219,227.4375 606.8125,227.4375 C608.0313,227.4375 609.1875,227.1406 609.9375,226.5938 C610.5156,226.1875 610.8438,225.7344 610.8438,225.3438 C610.8438,224.8906 610.4531,224.5 609.9844,224.5 C609.7656,224.5 609.5625,224.5781 609.375,224.7656 C608.9219,225.25 608.9219,225.25 608.7344,225.3438 C608.3125,225.6094 607.625,225.7344 606.8594,225.7344 C604.8125,225.7344 603.5156,224.6406 603.5156,222.9375 L603.5156,221.8438 C603.5156,220.0625 604.7656,218.75 606.5,218.75 C607.0781,218.75 607.6875,218.9063 608.1563,219.1563 C608.6406,219.4375 608.8125,219.6563 608.9063,220.0625 C608.9688,220.4688 609,220.5938 609.1406,220.7188 C609.2813,220.8594 609.5156,220.9688 609.7344,220.9688 C610,220.9688 610.2656,220.8281 610.4375,220.6094 C610.5469,220.4531 610.5781,220.2656 610.5781,219.8438 L610.5781,218.4219 C610.5781,217.9844 610.5625,217.8594 610.4688,217.7031 C610.3125,217.4375 610.0313,217.2969 609.7344,217.2969 C609.4375,217.2969 609.2344,217.3906 609.0156,217.7031 L608.8438,217.625 Z " fill="#000000"/><text fill="#000000" font-family="sans-serif" font-size="12" lengthAdjust="spacing" textLength="132" x="620.5" y="226.1074">NavWarningBroadcast</text><line style="stroke:#A80036;stroke-width:1.5;" x1="592.5" x2="754.5" y1="237.9531" y2="237.9531"/><line style="stroke:#A80036;stroke-width:1.5;" x1="592.5" x2="754.5" y1="245.9531" y2="245.9531"/><!--MD5=[b0f80f349ef201573babf084af14ed5c]
class PiracyBroadcast--><rect codeLine="11" fill="#FEFECE" filter="url(#f5ceufdix3upd)" height="48" id="PiracyBroadcast" style="stroke:#A80036;stroke-width:1.5;" width="128" x="428.5" y="205.9531"/><ellipse cx="443.5" cy="221.9531" fill="#ADD1B2" rx="11" ry="11" style="stroke:#A80036;stroke-width:1.0;"/><path d="M445.8438,217.625 C444.9063,217.1875 444.3125,217.0469 443.4375,217.0469 C440.8125,217.0469 438.8125,219.125 438.8125,221.8438 L438.8125,222.9688 C438.8125,225.5469 440.9219,227.4375 443.8125,227.4375 C445.0313,227.4375 446.1875,227.1406 446.9375,226.5938 C447.5156,226.1875 447.8438,225.7344 447.8438,225.3438 C447.8438,224.8906 447.4531,224.5 446.9844,224.5 C446.7656,224.5 446.5625,224.5781 446.375,224.7656 C445.9219,225.25 445.9219,225.25 445.7344,225.3438 C445.3125,225.6094 444.625,225.7344 443.8594,225.7344 C441.8125,225.7344 440.5156,224.6406 440.5156,222.9375 L440.5156,221.8438 C440.5156,220.0625 441.7656,218.75 443.5,218.75 C444.0781,218.75 444.6875,218.9063 445.1563,219.1563 C445.6406,219.4375 445.8125,219.6563 445.9063,220.0625 C445.9688,220.4688 446,220.5938 446.1406,220.7188 C446.2813,220.8594 446.5156,220.9688 446.7344,220.9688 C447,220.9688 447.2656,220.8281 447.4375,220.6094 C447.5469,220.4531 447.5781,220.2656 447.5781,219.8438 L447.5781,218.4219 C447.5781,217.9844 447.5625,217.8594 447.4688,217.7031 C447.3125,217.4375 447.0313,217.2969 446.7344,217.2969 C446.4375,217.2969 446.2344,217.3906 446.0156,217.7031 L445.8438,217.625 Z " fill="#000000"/><text fill="#000000" font-family="sans-serif" font-size="12" lengthAdjust="spacing" textLength="96" x="457.5" y="226.1074">PiracyBroadcast</text><line style="stroke:#A80036;stroke-width:1.5;" x1="429.5" x2="555.5" y1="237.9531" y2="237.9531"/><line style="stroke:#A80036;stroke-width:1.5;" x1="429.5" x2="555.5" y1="245.9531" y2="245.9531"/><!--MD5=[953e9b2fb9eece1b3fc587391ef815bf]
class Priority--><rect codeLine="12" fill="#FEFECE" filter="url(#f5ceufdix3upd)" height="86.4141" id="Priority" style="stroke:#A80036;stroke-width:1.5;" width="73" x="791" y="186.9531"/><ellipse cx="806" cy="202.9531" fill="#EB937F" rx="11" ry="11" style="stroke:#A80036;stroke-width:1.0;"/><path d="M804.7969,203.8281 L806.25,203.8281 L806.25,203.9375 C806.25,204.3438 806.2813,204.5 806.3594,204.6563 C806.5156,204.9063 806.7969,205.0625 807.0938,205.0625 C807.3438,205.0625 807.6094,204.9219 807.7656,204.7031 C807.8906,204.5469 807.9219,204.3906 807.9219,203.9375 L807.9219,202.0156 C807.9219,201.8594 807.9219,201.8125 807.9063,201.6563 C807.8438,201.1875 807.5313,200.875 807.0781,200.875 C806.8281,200.875 806.5625,201.0156 806.3906,201.2344 C806.2813,201.4063 806.25,201.5625 806.25,202.0156 L806.25,202.1406 L804.7969,202.1406 L804.7969,199.7344 L808.7813,199.7344 L808.7813,200.5938 C808.7813,201 808.8125,201.1719 808.8906,201.3281 C809.0625,201.5781 809.3438,201.7344 809.625,201.7344 C809.8906,201.7344 810.1563,201.5938 810.3281,201.375 C810.4375,201.2031 810.4688,201.0625 810.4688,200.5938 L810.4688,198.0469 L802.8438,198.0469 C802.4063,198.0469 802.2813,198.0625 802.125,198.1563 C801.875,198.3125 801.7188,198.6094 801.7188,198.8906 C801.7188,199.1719 801.8594,199.4219 802.0781,199.5938 C802.2344,199.7031 802.4219,199.7344 802.8438,199.7344 L803.0938,199.7344 L803.0938,206.25 L802.8438,206.25 C802.4375,206.25 802.2813,206.2656 802.125,206.375 C801.875,206.5469 801.7188,206.8125 801.7188,207.1094 C801.7188,207.375 801.8594,207.625 802.0781,207.7813 C802.2188,207.9063 802.4531,207.9531 802.8438,207.9531 L810.8438,207.9531 L810.8438,205.375 C810.8438,204.9375 810.8125,204.7969 810.7344,204.6406 C810.5625,204.3906 810.2813,204.2344 810,204.2344 C809.7344,204.2344 809.4688,204.3438 809.2969,204.5938 C809.1875,204.75 809.1563,204.8906 809.1563,205.375 L809.1563,206.25 L804.7969,206.25 L804.7969,203.8281 Z " fill="#000000"/><text fill="#000000" font-family="sans-serif" font-size="12" lengthAdjust="spacing" textLength="41" x="820" y="207.1074">Priority</text><line style="stroke:#A80036;stroke-width:1.5;" x1="792" x2="863" y1="218.9531" y2="218.9531"/><text fill="#000000" font-family="sans-serif" font-size="11" lengthAdjust="spacing" textLength="43" x="797" y="233.1636">SAFETY</text><text fill="#000000" font-family="sans-serif" font-size="11" lengthAdjust="spacing" textLength="54" x="797" y="245.9683">URGENCY</text><text fill="#000000" font-family="sans-serif" font-size="11" lengthAdjust="spacing" textLength="57" x="797" y="258.7729">DISTRESS</text><line style="stroke:#A80036;stroke-width:1.5;" x1="792" x2="863" y1="265.3672" y2="265.3672"/><!--MD5=[e3d83ec5fd90ea9f3f2bfe265cb53458]
class Status--><rect codeLine="17" fill="#FEFECE" filter="url(#f5ceufdix3upd)" height="112.0234" id="Status" style="stroke:#A80036;stroke-width:1.5;" width="82" x="899.5" y="173.9531"/><ellipse cx="920.35" cy="189.9531" fill="#EB937F" rx="11" ry="11" style="stroke:#A80036;stroke-width:1.0;"/><path d="M919.1469,190.8281 L920.6,190.8281 L920.6,190.9375 C920.6,191.3438 920.6313,191.5 920.7094,191.6563 C920.8656,191.9063 921.1469,192.0625 921.4438,192.0625 C921.6938,192.0625 921.9594,191.9219 922.1156,191.7031 C922.2406,191.5469 922.2719,191.3906 922.2719,190.9375 L922.2719,189.0156 C922.2719,188.8594 922.2719,188.8125 922.2563,188.6563 C922.1938,188.1875 921.8813,187.875 921.4281,187.875 C921.1781,187.875 920.9125,188.0156 920.7406,188.2344 C920.6313,188.4063 920.6,188.5625 920.6,189.0156 L920.6,189.1406 L919.1469,189.1406 L919.1469,186.7344 L923.1313,186.7344 L923.1313,187.5938 C923.1313,188 923.1625,188.1719 923.2406,188.3281 C923.4125,188.5781 923.6938,188.7344 923.975,188.7344 C924.2406,188.7344 924.5063,188.5938 924.6781,188.375 C924.7875,188.2031 924.8188,188.0625 924.8188,187.5938 L924.8188,185.0469 L917.1938,185.0469 C916.7563,185.0469 916.6313,185.0625 916.475,185.1563 C916.225,185.3125 916.0688,185.6094 916.0688,185.8906 C916.0688,186.1719 916.2094,186.4219 916.4281,186.5938 C916.5844,186.7031 916.7719,186.7344 917.1938,186.7344 L917.4438,186.7344 L917.4438,193.25 L917.1938,193.25 C916.7875,193.25 916.6313,193.2656 916.475,193.375 C916.225,193.5469 916.0688,193.8125 916.0688,194.1094 C916.0688,194.375 916.2094,194.625 916.4281,194.7813 C916.5688,194.9063 916.8031,194.9531 917.1938,194.9531 L925.1938,194.9531 L925.1938,192.375 C925.1938,191.9375 925.1625,191.7969 925.0844,191.6406 C924.9125,191.3906 924.6313,191.2344 924.35,191.2344 C924.0844,191.2344 923.8188,191.3438 923.6469,191.5938 C923.5375,191.75 923.5063,191.8906 923.5063,192.375 L923.5063,193.25 L919.1469,193.25 L919.1469,190.8281 Z " fill="#000000"/><text fill="#000000" font-family="sans-serif" font-size="12" lengthAdjust="spacing" textLength="37" x="935.65" y="194.1074">Status</text><line style="stroke:#A80036;stroke-width:1.5;" x1="900.5" x2="980.5" y1="205.9531" y2="205.9531"/><text fill="#000000" font-family="sans-serif" font-size="11" lengthAdjust="spacing" textLength="53" x="905.5" y="220.1636">CREATED</text><text fill="#000000" font-family="sans-serif" font-size="11" lengthAdjust="spacing" textLength="70" x="905.5" y="232.9683">SCHEDULED</text><text fill="#000000" font-family="sans-serif" font-size="11" lengthAdjust="spacing" textLength="41" x="905.5" y="245.7729">ACTIVE</text><text fill="#000000" font-family="sans-serif" font-size="11" lengthAdjust="spacing" textLength="52" x="905.5" y="258.5776">FINISHED</text><text fill="#000000" font-family="sans-serif" font-size="11" lengthAdjust="spacing" textLength="67" x="905.5" y="271.3823">CANCELLED</text><line style="stroke:#A80036;stroke-width:1.5;" x1="900.5" x2="980.5" y1="277.9766" y2="277.9766"/><!--MD5=[670ba5afd3835a69cbf81964ee5af7db]
class IntervalHours--><rect codeLine="24" fill="#FEFECE" filter="url(#f5ceufdix3upd)" height="252.875" id="IntervalHours" style="stroke:#A80036;stroke-width:1.5;" width="112" x="1051.5" y="459.9531"/><ellipse cx="1066.5" cy="475.9531" fill="#EB937F" rx="11" ry="11" style="stroke:#A80036;stroke-width:1.0;"/><path d="M1065.2969,476.8281 L1066.75,476.8281 L1066.75,476.9375 C1066.75,477.3438 1066.7813,477.5 1066.8594,477.6563 C1067.0156,477.9063 1067.2969,478.0625 1067.5938,478.0625 C1067.8438,478.0625 1068.1094,477.9219 1068.2656,477.7031 C1068.3906,477.5469 1068.4219,477.3906 1068.4219,476.9375 L1068.4219,475.0156 C1068.4219,474.8594 1068.4219,474.8125 1068.4063,474.6563 C1068.3438,474.1875 1068.0313,473.875 1067.5781,473.875 C1067.3281,473.875 1067.0625,474.0156 1066.8906,474.2344 C1066.7813,474.4063 1066.75,474.5625 1066.75,475.0156 L1066.75,475.1406 L1065.2969,475.1406 L1065.2969,472.7344 L1069.2813,472.7344 L1069.2813,473.5938 C1069.2813,474 1069.3125,474.1719 1069.3906,474.3281 C1069.5625,474.5781 1069.8438,474.7344 1070.125,474.7344 C1070.3906,474.7344 1070.6563,474.5938 1070.8281,474.375 C1070.9375,474.2031 1070.9688,474.0625 1070.9688,473.5938 L1070.9688,471.0469 L1063.3438,471.0469 C1062.9063,471.0469 1062.7813,471.0625 1062.625,471.1563 C1062.375,471.3125 1062.2188,471.6094 1062.2188,471.8906 C1062.2188,472.1719 1062.3594,472.4219 1062.5781,472.5938 C1062.7344,472.7031 1062.9219,472.7344 1063.3438,472.7344 L1063.5938,472.7344 L1063.5938,479.25 L1063.3438,479.25 C1062.9375,479.25 1062.7813,479.2656 1062.625,479.375 C1062.375,479.5469 1062.2188,479.8125 1062.2188,480.1094 C1062.2188,480.375 1062.3594,480.625 1062.5781,480.7813 C1062.7188,480.9063 1062.9531,480.9531 1063.3438,480.9531 L1071.3438,480.9531 L1071.3438,478.375 C1071.3438,477.9375 1071.3125,477.7969 1071.2344,477.6406 C1071.0625,477.3906 1070.7813,477.2344 1070.5,477.2344 C1070.2344,477.2344 1069.9688,477.3438 1069.7969,477.5938 C1069.6875,477.75 1069.6563,477.8906 1069.6563,478.375 L1069.6563,479.25 L1065.2969,479.25 L1065.2969,476.8281 Z " fill="#000000"/><text fill="#000000" font-family="sans-serif" font-size="12" lengthAdjust="spacing" textLength="80" x="1080.5" y="480.1074">IntervalHours</text><line style="stroke:#A80036;stroke-width:1.5;" x1="1052.5" x2="1162.5" y1="491.9531" y2="491.9531"/><text fill="#000000" font-family="sans-serif" font-size="11" lengthAdjust="spacing" textLength="7" x="1057.5" y="506.1636">1</text><text fill="#000000" font-family="sans-serif" font-size="11" lengthAdjust="spacing" textLength="7" x="1057.5" y="518.9683">2</text><text fill="#000000" font-family="sans-serif" font-size="11" lengthAdjust="spacing" textLength="7" x="1057.5" y="531.7729">3</text><text fill="#000000" font-family="sans-serif" font-size="11" lengthAdjust="spacing" textLength="7" x="1057.5" y="544.5776">4</text><text fill="#000000" font-family="sans-serif" font-size="11" lengthAdjust="spacing" textLength="7" x="1057.5" y="557.3823">5</text><text fill="#000000" font-family="sans-serif" font-size="11" lengthAdjust="spacing" textLength="7" x="1057.5" y="570.187">6</text><text fill="#000000" font-family="sans-serif" font-size="11" lengthAdjust="spacing" textLength="14" x="1057.5" y="582.9917">12</text><text fill="#000000" font-family="sans-serif" font-size="11" lengthAdjust="spacing" textLength="14" x="1057.5" y="595.7964">18</text><text fill="#000000" font-family="sans-serif" font-size="11" lengthAdjust="spacing" textLength="14" x="1057.5" y="608.6011">24</text><text fill="#000000" font-family="sans-serif" font-size="11" lengthAdjust="spacing" textLength="14" x="1057.5" y="621.4058">30</text><text fill="#000000" font-family="sans-serif" font-size="11" lengthAdjust="spacing" textLength="14" x="1057.5" y="634.2104">36</text><text fill="#000000" font-family="sans-serif" font-size="11" lengthAdjust="spacing" textLength="14" x="1057.5" y="647.0151">48</text><text fill="#000000" font-family="sans-serif" font-size="11" lengthAdjust="spacing" textLength="14" x="1057.5" y="659.8198">60</text><text fill="#000000" font-family="sans-serif" font-size="11" lengthAdjust="spacing" textLength="14" x="1057.5" y="672.6245">72</text><text fill="#000000" font-family="sans-serif" font-size="11" lengthAdjust="spacing" textLength="14" x="1057.5" y="685.4292">96</text><text fill="#000000" font-family="sans-serif" font-size="11" lengthAdjust="spacing" textLength="21" x="1057.5" y="698.2339">120</text><line style="stroke:#A80036;stroke-width:1.5;" x1="1052.5" x2="1162.5" y1="704.8281" y2="704.8281"/><!--MD5=[9553d9a1cce22c9fed15ebc3950bc0a6]
class Count--><rect codeLine="43" fill="#FEFECE" filter="url(#f5ceufdix3upd)" height="48" id="Count" style="stroke:#A80036;stroke-width:1.5;" width="68" x="1016.5" y="205.9531"/><ellipse cx="1031.5" cy="221.9531" fill="#B4A7E5" rx="11" ry="11" style="stroke:#A80036;stroke-width:1.0;"/><path d="M1032.4531,218.7344 L1034.1719,218.7344 C1034.5625,218.7344 1034.75,218.7031 1034.875,218.625 C1035.1406,218.4688 1035.2813,218.1875 1035.2813,217.8906 C1035.2813,217.625 1035.1719,217.3594 1034.9375,217.1875 C1034.7656,217.0781 1034.625,217.0469 1034.1719,217.0469 L1029.0313,217.0469 C1028.5938,217.0469 1028.4688,217.0625 1028.3125,217.1563 C1028.0625,217.3125 1027.9063,217.6094 1027.9063,217.8906 C1027.9063,218.1719 1028.0469,218.4219 1028.2656,218.5938 C1028.4219,218.7031 1028.6094,218.7344 1029.0313,218.7344 L1030.75,218.7344 L1030.75,225.25 L1029.0313,225.25 C1028.5938,225.25 1028.4688,225.2656 1028.3125,225.375 C1028.0625,225.5313 1027.9063,225.8125 1027.9063,226.1094 C1027.9063,226.3594 1028.0469,226.625 1028.2656,226.7813 C1028.4219,226.9063 1028.625,226.9531 1029.0313,226.9531 L1034.1719,226.9531 C1034.9219,226.9531 1035.2813,226.6719 1035.2813,226.1094 C1035.2813,225.8281 1035.1719,225.5781 1034.9375,225.4063 C1034.7656,225.2813 1034.625,225.25 1034.1719,225.25 L1032.4531,225.25 L1032.4531,218.7344 Z " fill="#000000"/><text fill="#000000" font-family="sans-serif" font-size="12" font-style="italic" lengthAdjust="spacing" textLength="36" x="1045.5" y="226.1074">Count</text><line style="stroke:#A80036;stroke-width:1.5;" x1="1017.5" x2="1083.5" y1="237.9531" y2="237.9531"/><line style="stroke:#A80036;stroke-width:1.5;" x1="1017.5" x2="1083.5" y1="245.9531" y2="245.9531"/><!--MD5=[95c64792ccc6f55bacde95a3f98f7de5]
class Once--><rect codeLine="44" fill="#FEFECE" filter="url(#f5ceufdix3upd)" height="53.9375" id="Once" style="stroke:#A80036;stroke-width:1.5;" width="99" x="870" y="345.9531"/><ellipse cx="885" cy="364.9219" fill="#ADD1B2" rx="11" ry="11" style="stroke:#A80036;stroke-width:1.0;"/><path d="M887.3438,360.5938 C886.4063,360.1563 885.8125,360.0156 884.9375,360.0156 C882.3125,360.0156 880.3125,362.0938 880.3125,364.8125 L880.3125,365.9375 C880.3125,368.5156 882.4219,370.4063 885.3125,370.4063 C886.5313,370.4063 887.6875,370.1094 888.4375,369.5625 C889.0156,369.1563 889.3438,368.7031 889.3438,368.3125 C889.3438,367.8594 888.9531,367.4688 888.4844,367.4688 C888.2656,367.4688 888.0625,367.5469 887.875,367.7344 C887.4219,368.2188 887.4219,368.2188 887.2344,368.3125 C886.8125,368.5781 886.125,368.7031 885.3594,368.7031 C883.3125,368.7031 882.0156,367.6094 882.0156,365.9063 L882.0156,364.8125 C882.0156,363.0313 883.2656,361.7188 885,361.7188 C885.5781,361.7188 886.1875,361.875 886.6563,362.125 C887.1406,362.4063 887.3125,362.625 887.4063,363.0313 C887.4688,363.4375 887.5,363.5625 887.6406,363.6875 C887.7813,363.8281 888.0156,363.9375 888.2344,363.9375 C888.5,363.9375 888.7656,363.7969 888.9375,363.5781 C889.0469,363.4219 889.0781,363.2344 889.0781,362.8125 L889.0781,361.3906 C889.0781,360.9531 889.0625,360.8281 888.9688,360.6719 C888.8125,360.4063 888.5313,360.2656 888.2344,360.2656 C887.9375,360.2656 887.7344,360.3594 887.5156,360.6719 L887.3438,360.5938 Z " fill="#000000"/><text fill="#000000" font-family="sans-serif" font-size="12" font-style="italic" lengthAdjust="spacing" textLength="71" x="897" y="362.0918">«Singleton»</text><text fill="#000000" font-family="sans-serif" font-size="12" lengthAdjust="spacing" textLength="32" x="916.5" y="376.0605">Once</text><line style="stroke:#A80036;stroke-width:1.5;" x1="871" x2="968" y1="383.8906" y2="383.8906"/><line style="stroke:#A80036;stroke-width:1.5;" x1="871" x2="968" y1="391.8906" y2="391.8906"/><!--MD5=[27f4c90d55288e5e3501c0b76be397d1]
class Twice--><rect codeLine="45" fill="#FEFECE" filter="url(#f5ceufdix3upd)" height="48" id="Twice" style="stroke:#A80036;stroke-width:1.5;" width="67" x="1132" y="348.9531"/><ellipse cx="1147" cy="364.9531" fill="#ADD1B2" rx="11" ry="11" style="stroke:#A80036;stroke-width:1.0;"/><path d="M1149.3438,360.625 C1148.4063,360.1875 1147.8125,360.0469 1146.9375,360.0469 C1144.3125,360.0469 1142.3125,362.125 1142.3125,364.8438 L1142.3125,365.9688 C1142.3125,368.5469 1144.4219,370.4375 1147.3125,370.4375 C1148.5313,370.4375 1149.6875,370.1406 1150.4375,369.5938 C1151.0156,369.1875 1151.3438,368.7344 1151.3438,368.3438 C1151.3438,367.8906 1150.9531,367.5 1150.4844,367.5 C1150.2656,367.5 1150.0625,367.5781 1149.875,367.7656 C1149.4219,368.25 1149.4219,368.25 1149.2344,368.3438 C1148.8125,368.6094 1148.125,368.7344 1147.3594,368.7344 C1145.3125,368.7344 1144.0156,367.6406 1144.0156,365.9375 L1144.0156,364.8438 C1144.0156,363.0625 1145.2656,361.75 1147,361.75 C1147.5781,361.75 1148.1875,361.9063 1148.6563,362.1563 C1149.1406,362.4375 1149.3125,362.6563 1149.4063,363.0625 C1149.4688,363.4688 1149.5,363.5938 1149.6406,363.7188 C1149.7813,363.8594 1150.0156,363.9688 1150.2344,363.9688 C1150.5,363.9688 1150.7656,363.8281 1150.9375,363.6094 C1151.0469,363.4531 1151.0781,363.2656 1151.0781,362.8438 L1151.0781,361.4219 C1151.0781,360.9844 1151.0625,360.8594 1150.9688,360.7031 C1150.8125,360.4375 1150.5313,360.2969 1150.2344,360.2969 C1149.9375,360.2969 1149.7344,360.3906 1149.5156,360.7031 L1149.3438,360.625 Z " fill="#000000"/><text fill="#000000" font-family="sans-serif" font-size="12" lengthAdjust="spacing" textLength="35" x="1161" y="369.1074">Twice</text><line style="stroke:#A80036;stroke-width:1.5;" x1="1133" x2="1198" y1="380.9531" y2="380.9531"/><line style="stroke:#A80036;stroke-width:1.5;" x1="1133" x2="1198" y1="388.9531" y2="388.9531"/><!--MD5=[763d40efa2dbdf8cb82b8254934e0166]
class Repeating--><rect codeLine="46" fill="#FEFECE" filter="url(#f5ceufdix3upd)" height="48" id="Repeating" style="stroke:#A80036;stroke-width:1.5;" width="92" x="1004.5" y="348.9531"/><ellipse cx="1019.5" cy="364.9531" fill="#ADD1B2" rx="11" ry="11" style="stroke:#A80036;stroke-width:1.0;"/><path d="M1021.8438,360.625 C1020.9063,360.1875 1020.3125,360.0469 1019.4375,360.0469 C1016.8125,360.0469 1014.8125,362.125 1014.8125,364.8438 L1014.8125,365.9688 C1014.8125,368.5469 1016.9219,370.4375 1019.8125,370.4375 C1021.0313,370.4375 1022.1875,370.1406 1022.9375,369.5938 C1023.5156,369.1875 1023.8438,368.7344 1023.8438,368.3438 C1023.8438,367.8906 1023.4531,367.5 1022.9844,367.5 C1022.7656,367.5 1022.5625,367.5781 1022.375,367.7656 C1021.9219,368.25 1021.9219,368.25 1021.7344,368.3438 C1021.3125,368.6094 1020.625,368.7344 1019.8594,368.7344 C1017.8125,368.7344 1016.5156,367.6406 1016.5156,365.9375 L1016.5156,364.8438 C1016.5156,363.0625 1017.7656,361.75 1019.5,361.75 C1020.0781,361.75 1020.6875,361.9063 1021.1563,362.1563 C1021.6406,362.4375 1021.8125,362.6563 1021.9063,363.0625 C1021.9688,363.4688 1022,363.5938 1022.1406,363.7188 C1022.2813,363.8594 1022.5156,363.9688 1022.7344,363.9688 C1023,363.9688 1023.2656,363.8281 1023.4375,363.6094 C1023.5469,363.4531 1023.5781,363.2656 1023.5781,362.8438 L1023.5781,361.4219 C1023.5781,360.9844 1023.5625,360.8594 1023.4688,360.7031 C1023.3125,360.4375 1023.0313,360.2969 1022.7344,360.2969 C1022.4375,360.2969 1022.2344,360.3906 1022.0156,360.7031 L1021.8438,360.625 Z " fill="#000000"/><text fill="#000000" font-family="sans-serif" font-size="12" lengthAdjust="spacing" textLength="60" x="1033.5" y="369.1074">Repeating</text><line style="stroke:#A80036;stroke-width:1.5;" x1="1005.5" x2="1095.5" y1="380.9531" y2="380.9531"/><line style="stroke:#A80036;stroke-width:1.5;" x1="1005.5" x2="1095.5" y1="388.9531" y2="388.9531"/><!--MD5=[19c58e1c195e071f65e647eea3a11eda]
class MetArea--><rect codeLine="55" fill="#FEFECE" filter="url(#f5ceufdix3upd)" height="60.8047" id="MetArea" style="stroke:#A80036;stroke-width:1.5;" width="125" x="141" y="555.9531"/><ellipse cx="175.35" cy="571.9531" fill="#ADD1B2" rx="11" ry="11" style="stroke:#A80036;stroke-width:1.0;"/><path d="M177.6938,567.625 C176.7563,567.1875 176.1625,567.0469 175.2875,567.0469 C172.6625,567.0469 170.6625,569.125 170.6625,571.8438 L170.6625,572.9688 C170.6625,575.5469 172.7719,577.4375 175.6625,577.4375 C176.8813,577.4375 178.0375,577.1406 178.7875,576.5938 C179.3656,576.1875 179.6938,575.7344 179.6938,575.3438 C179.6938,574.8906 179.3031,574.5 178.8344,574.5 C178.6156,574.5 178.4125,574.5781 178.225,574.7656 C177.7719,575.25 177.7719,575.25 177.5844,575.3438 C177.1625,575.6094 176.475,575.7344 175.7094,575.7344 C173.6625,575.7344 172.3656,574.6406 172.3656,572.9375 L172.3656,571.8438 C172.3656,570.0625 173.6156,568.75 175.35,568.75 C175.9281,568.75 176.5375,568.9063 177.0063,569.1563 C177.4906,569.4375 177.6625,569.6563 177.7563,570.0625 C177.8188,570.4688 177.85,570.5938 177.9906,570.7188 C178.1313,570.8594 178.3656,570.9688 178.5844,570.9688 C178.85,570.9688 179.1156,570.8281 179.2875,570.6094 C179.3969,570.4531 179.4281,570.2656 179.4281,569.8438 L179.4281,568.4219 C179.4281,567.9844 179.4125,567.8594 179.3188,567.7031 C179.1625,567.4375 178.8813,567.2969 178.5844,567.2969 C178.2875,567.2969 178.0844,567.3906 177.8656,567.7031 L177.6938,567.625 Z " fill="#000000"/><text fill="#000000" font-family="sans-serif" font-size="12" lengthAdjust="spacing" textLength="50" x="193.65" y="576.1074">MetArea</text><line style="stroke:#A80036;stroke-width:1.5;" x1="142" x2="265" y1="587.9531" y2="587.9531"/><text fill="#000000" font-family="sans-serif" font-size="11" lengthAdjust="spacing" textLength="113" x="147" y="602.1636">metAreaNo: integer</text><line style="stroke:#A80036;stroke-width:1.5;" x1="142" x2="265" y1="608.7578" y2="608.7578"/><!--MD5=[9affa659e72119d3471adf0766b1bab5]
class NavArea--><rect codeLine="58" fill="#FEFECE" filter="url(#f5ceufdix3upd)" height="60.8047" id="NavArea" style="stroke:#A80036;stroke-width:1.5;" width="123" x="615" y="555.9531"/><ellipse cx="648.45" cy="571.9531" fill="#ADD1B2" rx="11" ry="11" style="stroke:#A80036;stroke-width:1.0;"/><path d="M650.7938,567.625 C649.8563,567.1875 649.2625,567.0469 648.3875,567.0469 C645.7625,567.0469 643.7625,569.125 643.7625,571.8438 L643.7625,572.9688 C643.7625,575.5469 645.8719,577.4375 648.7625,577.4375 C649.9813,577.4375 651.1375,577.1406 651.8875,576.5938 C652.4656,576.1875 652.7938,575.7344 652.7938,575.3438 C652.7938,574.8906 652.4031,574.5 651.9344,574.5 C651.7156,574.5 651.5125,574.5781 651.325,574.7656 C650.8719,575.25 650.8719,575.25 650.6844,575.3438 C650.2625,575.6094 649.575,575.7344 648.8094,575.7344 C646.7625,575.7344 645.4656,574.6406 645.4656,572.9375 L645.4656,571.8438 C645.4656,570.0625 646.7156,568.75 648.45,568.75 C649.0281,568.75 649.6375,568.9063 650.1063,569.1563 C650.5906,569.4375 650.7625,569.6563 650.8563,570.0625 C650.9188,570.4688 650.95,570.5938 651.0906,570.7188 C651.2313,570.8594 651.4656,570.9688 651.6844,570.9688 C651.95,570.9688 652.2156,570.8281 652.3875,570.6094 C652.4969,570.4531 652.5281,570.2656 652.5281,569.8438 L652.5281,568.4219 C652.5281,567.9844 652.5125,567.8594 652.4188,567.7031 C652.2625,567.4375 651.9813,567.2969 651.6844,567.2969 C651.3875,567.2969 651.1844,567.3906 650.9656,567.7031 L650.7938,567.625 Z " fill="#000000"/><text fill="#000000" font-family="sans-serif" font-size="12" lengthAdjust="spacing" textLength="50" x="666.55" y="576.1074">NavArea</text><line style="stroke:#A80036;stroke-width:1.5;" x1="616" x2="737" y1="587.9531" y2="587.9531"/><text fill="#000000" font-family="sans-serif" font-size="11" lengthAdjust="spacing" textLength="111" x="621" y="602.1636">navAreaNo: integer</text><line style="stroke:#A80036;stroke-width:1.5;" x1="616" x2="737" y1="608.7578" y2="608.7578"/><!--MD5=[3465795d537a068d04ef95ff9f5d3463]
class CoastalWarningArea--><rect codeLine="61" fill="#FEFECE" filter="url(#f5ceufdix3upd)" height="60.8047" id="CoastalWarningArea" style="stroke:#A80036;stroke-width:1.5;" width="153" x="427" y="555.9531"/><ellipse cx="442" cy="571.9531" fill="#ADD1B2" rx="11" ry="11" style="stroke:#A80036;stroke-width:1.0;"/><path d="M444.3438,567.625 C443.4063,567.1875 442.8125,567.0469 441.9375,567.0469 C439.3125,567.0469 437.3125,569.125 437.3125,571.8438 L437.3125,572.9688 C437.3125,575.5469 439.4219,577.4375 442.3125,577.4375 C443.5313,577.4375 444.6875,577.1406 445.4375,576.5938 C446.0156,576.1875 446.3438,575.7344 446.3438,575.3438 C446.3438,574.8906 445.9531,574.5 445.4844,574.5 C445.2656,574.5 445.0625,574.5781 444.875,574.7656 C444.4219,575.25 444.4219,575.25 444.2344,575.3438 C443.8125,575.6094 443.125,575.7344 442.3594,575.7344 C440.3125,575.7344 439.0156,574.6406 439.0156,572.9375 L439.0156,571.8438 C439.0156,570.0625 440.2656,568.75 442,568.75 C442.5781,568.75 443.1875,568.9063 443.6563,569.1563 C444.1406,569.4375 444.3125,569.6563 444.4063,570.0625 C444.4688,570.4688 444.5,570.5938 444.6406,570.7188 C444.7813,570.8594 445.0156,570.9688 445.2344,570.9688 C445.5,570.9688 445.7656,570.8281 445.9375,570.6094 C446.0469,570.4531 446.0781,570.2656 446.0781,569.8438 L446.0781,568.4219 C446.0781,567.9844 446.0625,567.8594 445.9688,567.7031 C445.8125,567.4375 445.5313,567.2969 445.2344,567.2969 C444.9375,567.2969 444.7344,567.3906 444.5156,567.7031 L444.3438,567.625 Z " fill="#000000"/><text fill="#000000" font-family="sans-serif" font-size="12" lengthAdjust="spacing" textLength="121" x="456" y="576.1074">CoastalWarningArea</text><line style="stroke:#A80036;stroke-width:1.5;" x1="428" x2="579" y1="587.9531" y2="587.9531"/><text fill="#000000" font-family="sans-serif" font-size="11" lengthAdjust="spacing" textLength="62" x="433" y="602.1636">letter: char</text><line style="stroke:#A80036;stroke-width:1.5;" x1="428" x2="579" y1="608.7578" y2="608.7578"/><!--MD5=[a7f9118cae7621dd25d25149752faef0]
class Circle--><rect codeLine="64" fill="#FEFECE" filter="url(#f5ceufdix3upd)" height="86.4141" id="Circle" style="stroke:#A80036;stroke-width:1.5;" width="117" x="203" y="779.4531"/><ellipse cx="240.95" cy="795.4531" fill="#ADD1B2" rx="11" ry="11" style="stroke:#A80036;stroke-width:1.0;"/><path d="M243.2938,791.125 C242.3563,790.6875 241.7625,790.5469 240.8875,790.5469 C238.2625,790.5469 236.2625,792.625 236.2625,795.3438 L236.2625,796.4688 C236.2625,799.0469 238.3719,800.9375 241.2625,800.9375 C242.4813,800.9375 243.6375,800.6406 244.3875,800.0938 C244.9656,799.6875 245.2938,799.2344 245.2938,798.8438 C245.2938,798.3906 244.9031,798 244.4344,798 C244.2156,798 244.0125,798.0781 243.825,798.2656 C243.3719,798.75 243.3719,798.75 243.1844,798.8438 C242.7625,799.1094 242.075,799.2344 241.3094,799.2344 C239.2625,799.2344 237.9656,798.1406 237.9656,796.4375 L237.9656,795.3438 C237.9656,793.5625 239.2156,792.25 240.95,792.25 C241.5281,792.25 242.1375,792.4063 242.6063,792.6563 C243.0906,792.9375 243.2625,793.1563 243.3563,793.5625 C243.4188,793.9688 243.45,794.0938 243.5906,794.2188 C243.7313,794.3594 243.9656,794.4688 244.1844,794.4688 C244.45,794.4688 244.7156,794.3281 244.8875,794.1094 C244.9969,793.9531 245.0281,793.7656 245.0281,793.3438 L245.0281,791.9219 C245.0281,791.4844 245.0125,791.3594 244.9188,791.2031 C244.7625,790.9375 244.4813,790.7969 244.1844,790.7969 C243.8875,790.7969 243.6844,790.8906 243.4656,791.2031 L243.2938,791.125 Z " fill="#000000"/><text fill="#000000" font-family="sans-serif" font-size="12" lengthAdjust="spacing" textLength="34" x="260.05" y="799.6074">Circle</text><line style="stroke:#A80036;stroke-width:1.5;" x1="204" x2="319" y1="811.4531" y2="811.4531"/><text fill="#000000" font-family="sans-serif" font-size="11" lengthAdjust="spacing" textLength="66" x="209" y="825.6636">lat: decimal</text><text fill="#000000" font-family="sans-serif" font-size="11" lengthAdjust="spacing" textLength="69" x="209" y="838.4683">lon: decimal</text><text fill="#000000" font-family="sans-serif" font-size="11" lengthAdjust="spacing" textLength="105" x="209" y="851.2729">radiusNm: decimal</text><line style="stroke:#A80036;stroke-width:1.5;" x1="204" x2="319" y1="857.8672" y2="857.8672"/><!--MD5=[b5313cd49da22b0744b541f414f8445e]
class Rectangle--><rect codeLine="69" fill="#FEFECE" filter="url(#f5ceufdix3upd)" height="99.2188" id="Rectangle" style="stroke:#A80036;stroke-width:1.5;" width="150" x="355.5" y="772.9531"/><ellipse cx="397.05" cy="788.9531" fill="#ADD1B2" rx="11" ry="11" style="stroke:#A80036;stroke-width:1.0;"/><path d="M399.3938,784.625 C398.4563,784.1875 397.8625,784.0469 396.9875,784.0469 C394.3625,784.0469 392.3625,786.125 392.3625,788.8438 L392.3625,789.9688 C392.3625,792.5469 394.4719,794.4375 397.3625,794.4375 C398.5813,794.4375 399.7375,794.1406 400.4875,793.5938 C401.0656,793.1875 401.3938,792.7344 401.3938,792.3438 C401.3938,791.8906 401.0031,791.5 400.5344,791.5 C400.3156,791.5 400.1125,791.5781 399.925,791.7656 C399.4719,792.25 399.4719,792.25 399.2844,792.3438 C398.8625,792.6094 398.175,792.7344 397.4094,792.7344 C395.3625,792.7344 394.0656,791.6406 394.0656,789.9375 L394.0656,788.8438 C394.0656,787.0625 395.3156,785.75 397.05,785.75 C397.6281,785.75 398.2375,785.9063 398.7063,786.1563 C399.1906,786.4375 399.3625,786.6563 399.4563,787.0625 C399.5188,787.4688 399.55,787.5938 399.6906,787.7188 C399.8313,787.8594 400.0656,787.9688 400.2844,787.9688 C400.55,787.9688 400.8156,787.8281 400.9875,787.6094 C401.0969,787.4531 401.1281,787.2656 401.1281,786.8438 L401.1281,785.4219 C401.1281,784.9844 401.1125,784.8594 401.0188,784.7031 C400.8625,784.4375 400.5813,784.2969 400.2844,784.2969 C399.9875,784.2969 399.7844,784.3906 399.5656,784.7031 L399.3938,784.625 Z " fill="#000000"/><text fill="#000000" font-family="sans-serif" font-size="12" lengthAdjust="spacing" textLength="59" x="416.95" y="793.1074">Rectangle</text><line style="stroke:#A80036;stroke-width:1.5;" x1="356.5" x2="504.5" y1="804.9531" y2="804.9531"/><text fill="#000000" font-family="sans-serif" font-size="11" lengthAdjust="spacing" textLength="90" x="361.5" y="819.1636">minLat: decimal</text><text fill="#000000" font-family="sans-serif" font-size="11" lengthAdjust="spacing" textLength="91" x="361.5" y="831.9683">leftLon: decimal</text><text fill="#000000" font-family="sans-serif" font-size="11" lengthAdjust="spacing" textLength="138" x="361.5" y="844.7729">heightDegrees: decimal</text><text fill="#000000" font-family="sans-serif" font-size="11" lengthAdjust="spacing" textLength="132" x="361.5" y="857.5776">widthDegrees: decimal</text><line style="stroke:#A80036;stroke-width:1.5;" x1="356.5" x2="504.5" y1="864.1719" y2="864.1719"/><!--MD5=[0fdac03f5b0cf4737b65737ce60d2db0]
class Geometry--><rect codeLine="75" fill="#FEFECE" filter="url(#f5ceufdix3upd)" height="48" id="Geometry" style="stroke:#A80036;stroke-width:1.5;" width="91" x="301" y="562.4531"/><ellipse cx="316" cy="578.4531" fill="#B4A7E5" rx="11" ry="11" style="stroke:#A80036;stroke-width:1.0;"/><path d="M316.9531,575.2344 L318.6719,575.2344 C319.0625,575.2344 319.25,575.2031 319.375,575.125 C319.6406,574.9688 319.7813,574.6875 319.7813,574.3906 C319.7813,574.125 319.6719,573.8594 319.4375,573.6875 C319.2656,573.5781 319.125,573.5469 318.6719,573.5469 L313.5313,573.5469 C313.0938,573.5469 312.9688,573.5625 312.8125,573.6563 C312.5625,573.8125 312.4063,574.1094 312.4063,574.3906 C312.4063,574.6719 312.5469,574.9219 312.7656,575.0938 C312.9219,575.2031 313.1094,575.2344 313.5313,575.2344 L315.25,575.2344 L315.25,581.75 L313.5313,581.75 C313.0938,581.75 312.9688,581.7656 312.8125,581.875 C312.5625,582.0313 312.4063,582.3125 312.4063,582.6094 C312.4063,582.8594 312.5469,583.125 312.7656,583.2813 C312.9219,583.4063 313.125,583.4531 313.5313,583.4531 L318.6719,583.4531 C319.4219,583.4531 319.7813,583.1719 319.7813,582.6094 C319.7813,582.3281 319.6719,582.0781 319.4375,581.9063 C319.2656,581.7813 319.125,581.75 318.6719,581.75 L316.9531,581.75 L316.9531,575.2344 Z " fill="#000000"/><text fill="#000000" font-family="sans-serif" font-size="12" font-style="italic" lengthAdjust="spacing" textLength="59" x="330" y="582.6074">Geometry</text><line style="stroke:#A80036;stroke-width:1.5;" x1="302" x2="391" y1="594.4531" y2="594.4531"/><line style="stroke:#A80036;stroke-width:1.5;" x1="302" x2="391" y1="602.4531" y2="602.4531"/><!--MD5=[c4ad16297ce8289e7db10494c550b400]
class All--><rect codeLine="76" fill="#FEFECE" filter="url(#f5ceufdix3upd)" height="53.9375" id="All" style="stroke:#A80036;stroke-width:1.5;" width="99" x="7" y="559.4531"/><ellipse cx="22" cy="578.4219" fill="#ADD1B2" rx="11" ry="11" style="stroke:#A80036;stroke-width:1.0;"/><path d="M24.3438,574.0938 C23.4063,573.6563 22.8125,573.5156 21.9375,573.5156 C19.3125,573.5156 17.3125,575.5938 17.3125,578.3125 L17.3125,579.4375 C17.3125,582.0156 19.4219,583.9063 22.3125,583.9063 C23.5313,583.9063 24.6875,583.6094 25.4375,583.0625 C26.0156,582.6563 26.3438,582.2031 26.3438,581.8125 C26.3438,581.3594 25.9531,580.9688 25.4844,580.9688 C25.2656,580.9688 25.0625,581.0469 24.875,581.2344 C24.4219,581.7188 24.4219,581.7188 24.2344,581.8125 C23.8125,582.0781 23.125,582.2031 22.3594,582.2031 C20.3125,582.2031 19.0156,581.1094 19.0156,579.4063 L19.0156,578.3125 C19.0156,576.5313 20.2656,575.2188 22,575.2188 C22.5781,575.2188 23.1875,575.375 23.6563,575.625 C24.1406,575.9063 24.3125,576.125 24.4063,576.5313 C24.4688,576.9375 24.5,577.0625 24.6406,577.1875 C24.7813,577.3281 25.0156,577.4375 25.2344,577.4375 C25.5,577.4375 25.7656,577.2969 25.9375,577.0781 C26.0469,576.9219 26.0781,576.7344 26.0781,576.3125 L26.0781,574.8906 C26.0781,574.4531 26.0625,574.3281 25.9688,574.1719 C25.8125,573.9063 25.5313,573.7656 25.2344,573.7656 C24.9375,573.7656 24.7344,573.8594 24.5156,574.1719 L24.3438,574.0938 Z " fill="#000000"/><text fill="#000000" font-family="sans-serif" font-size="12" font-style="italic" lengthAdjust="spacing" textLength="71" x="34" y="575.5918">«Singleton»</text><text fill="#000000" font-family="sans-serif" font-size="12" lengthAdjust="spacing" textLength="14" x="62.5" y="589.5605">All</text><line style="stroke:#A80036;stroke-width:1.5;" x1="8" x2="105" y1="597.3906" y2="597.3906"/><line style="stroke:#A80036;stroke-width:1.5;" x1="8" x2="105" y1="605.3906" y2="605.3906"/><!--MD5=[a06e719365adc41d4546becc5217417e]
class NavWarningArea--><rect codeLine="77" fill="#FEFECE" filter="url(#f5ceufdix3upd)" height="48" id="NavWarningArea" style="stroke:#A80036;stroke-width:1.5;" width="133" x="597" y="348.9531"/><ellipse cx="612" cy="364.9531" fill="#B4A7E5" rx="11" ry="11" style="stroke:#A80036;stroke-width:1.0;"/><path d="M612.9531,361.7344 L614.6719,361.7344 C615.0625,361.7344 615.25,361.7031 615.375,361.625 C615.6406,361.4688 615.7813,361.1875 615.7813,360.8906 C615.7813,360.625 615.6719,360.3594 615.4375,360.1875 C615.2656,360.0781 615.125,360.0469 614.6719,360.0469 L609.5313,360.0469 C609.0938,360.0469 608.9688,360.0625 608.8125,360.1563 C608.5625,360.3125 608.4063,360.6094 608.4063,360.8906 C608.4063,361.1719 608.5469,361.4219 608.7656,361.5938 C608.9219,361.7031 609.1094,361.7344 609.5313,361.7344 L611.25,361.7344 L611.25,368.25 L609.5313,368.25 C609.0938,368.25 608.9688,368.2656 608.8125,368.375 C608.5625,368.5313 608.4063,368.8125 608.4063,369.1094 C608.4063,369.3594 608.5469,369.625 608.7656,369.7813 C608.9219,369.9063 609.125,369.9531 609.5313,369.9531 L614.6719,369.9531 C615.4219,369.9531 615.7813,369.6719 615.7813,369.1094 C615.7813,368.8281 615.6719,368.5781 615.4375,368.4063 C615.2656,368.2813 615.125,368.25 614.6719,368.25 L612.9531,368.25 L612.9531,361.7344 Z " fill="#000000"/><text fill="#000000" font-family="sans-serif" font-size="12" font-style="italic" lengthAdjust="spacing" textLength="101" x="626" y="369.1074">NavWarningArea</text><line style="stroke:#A80036;stroke-width:1.5;" x1="598" x2="729" y1="380.9531" y2="380.9531"/><line style="stroke:#A80036;stroke-width:1.5;" x1="598" x2="729" y1="388.9531" y2="388.9531"/><!--MD5=[86a2e65f32dc21e863b5d95996722836]
class MeteorologicalArea--><rect codeLine="78" fill="#FEFECE" filter="url(#f5ceufdix3upd)" height="48" id="MeteorologicalArea" style="stroke:#A80036;stroke-width:1.5;" width="145" x="274" y="348.9531"/><ellipse cx="289" cy="364.9531" fill="#B4A7E5" rx="11" ry="11" style="stroke:#A80036;stroke-width:1.0;"/><path d="M289.9531,361.7344 L291.6719,361.7344 C292.0625,361.7344 292.25,361.7031 292.375,361.625 C292.6406,361.4688 292.7813,361.1875 292.7813,360.8906 C292.7813,360.625 292.6719,360.3594 292.4375,360.1875 C292.2656,360.0781 292.125,360.0469 291.6719,360.0469 L286.5313,360.0469 C286.0938,360.0469 285.9688,360.0625 285.8125,360.1563 C285.5625,360.3125 285.4063,360.6094 285.4063,360.8906 C285.4063,361.1719 285.5469,361.4219 285.7656,361.5938 C285.9219,361.7031 286.1094,361.7344 286.5313,361.7344 L288.25,361.7344 L288.25,368.25 L286.5313,368.25 C286.0938,368.25 285.9688,368.2656 285.8125,368.375 C285.5625,368.5313 285.4063,368.8125 285.4063,369.1094 C285.4063,369.3594 285.5469,369.625 285.7656,369.7813 C285.9219,369.9063 286.125,369.9531 286.5313,369.9531 L291.6719,369.9531 C292.4219,369.9531 292.7813,369.6719 292.7813,369.1094 C292.7813,368.8281 292.6719,368.5781 292.4375,368.4063 C292.2656,368.2813 292.125,368.25 291.6719,368.25 L289.9531,368.25 L289.9531,361.7344 Z " fill="#000000"/><text fill="#000000" font-family="sans-serif" font-size="12" font-style="italic" lengthAdjust="spacing" textLength="113" x="303" y="369.1074">MeteorologicalArea</text><line style="stroke:#A80036;stroke-width:1.5;" x1="275" x2="418" y1="380.9531" y2="380.9531"/><line style="stroke:#A80036;stroke-width:1.5;" x1="275" x2="418" y1="388.9531" y2="388.9531"/><!--MD5=[e615d4eea6739a92124a957e179f4b2f]
class SearchAndRescueArea--><rect codeLine="79" fill="#FEFECE" filter="url(#f5ceufdix3upd)" height="48" id="SearchAndRescueArea" style="stroke:#A80036;stroke-width:1.5;" width="168" x="70.5" y="348.9531"/><ellipse cx="85.5" cy="364.9531" fill="#B4A7E5" rx="11" ry="11" style="stroke:#A80036;stroke-width:1.0;"/><path d="M86.4531,361.7344 L88.1719,361.7344 C88.5625,361.7344 88.75,361.7031 88.875,361.625 C89.1406,361.4688 89.2813,361.1875 89.2813,360.8906 C89.2813,360.625 89.1719,360.3594 88.9375,360.1875 C88.7656,360.0781 88.625,360.0469 88.1719,360.0469 L83.0313,360.0469 C82.5938,360.0469 82.4688,360.0625 82.3125,360.1563 C82.0625,360.3125 81.9063,360.6094 81.9063,360.8906 C81.9063,361.1719 82.0469,361.4219 82.2656,361.5938 C82.4219,361.7031 82.6094,361.7344 83.0313,361.7344 L84.75,361.7344 L84.75,368.25 L83.0313,368.25 C82.5938,368.25 82.4688,368.2656 82.3125,368.375 C82.0625,368.5313 81.9063,368.8125 81.9063,369.1094 C81.9063,369.3594 82.0469,369.625 82.2656,369.7813 C82.4219,369.9063 82.625,369.9531 83.0313,369.9531 L88.1719,369.9531 C88.9219,369.9531 89.2813,369.6719 89.2813,369.1094 C89.2813,368.8281 89.1719,368.5781 88.9375,368.4063 C88.7656,368.2813 88.625,368.25 88.1719,368.25 L86.4531,368.25 L86.4531,361.7344 Z " fill="#000000"/><text fill="#000000" font-family="sans-serif" font-size="12" font-style="italic" lengthAdjust="spacing" textLength="136" x="99.5" y="369.1074">SearchAndRescueArea</text><line style="stroke:#A80036;stroke-width:1.5;" x1="71.5" x2="237.5" y1="380.9531" y2="380.9531"/><line style="stroke:#A80036;stroke-width:1.5;" x1="71.5" x2="237.5" y1="388.9531" y2="388.9531"/><!--MD5=[055ddbfea4b1833aebdfb6fe95c0dcc8]
class PiracyArea--><rect codeLine="80" fill="#FEFECE" filter="url(#f5ceufdix3upd)" height="48" id="PiracyArea" style="stroke:#A80036;stroke-width:1.5;" width="95" x="455" y="348.9531"/><ellipse cx="470" cy="364.9531" fill="#B4A7E5" rx="11" ry="11" style="stroke:#A80036;stroke-width:1.0;"/><path d="M470.9531,361.7344 L472.6719,361.7344 C473.0625,361.7344 473.25,361.7031 473.375,361.625 C473.6406,361.4688 473.7813,361.1875 473.7813,360.8906 C473.7813,360.625 473.6719,360.3594 473.4375,360.1875 C473.2656,360.0781 473.125,360.0469 472.6719,360.0469 L467.5313,360.0469 C467.0938,360.0469 466.9688,360.0625 466.8125,360.1563 C466.5625,360.3125 466.4063,360.6094 466.4063,360.8906 C466.4063,361.1719 466.5469,361.4219 466.7656,361.5938 C466.9219,361.7031 467.1094,361.7344 467.5313,361.7344 L469.25,361.7344 L469.25,368.25 L467.5313,368.25 C467.0938,368.25 466.9688,368.2656 466.8125,368.375 C466.5625,368.5313 466.4063,368.8125 466.4063,369.1094 C466.4063,369.3594 466.5469,369.625 466.7656,369.7813 C466.9219,369.9063 467.125,369.9531 467.5313,369.9531 L472.6719,369.9531 C473.4219,369.9531 473.7813,369.6719 473.7813,369.1094 C473.7813,368.8281 473.6719,368.5781 473.4375,368.4063 C473.2656,368.2813 473.125,368.25 472.6719,368.25 L470.9531,368.25 L470.9531,361.7344 Z " fill="#000000"/><text fill="#000000" font-family="sans-serif" font-size="12" font-style="italic" lengthAdjust="spacing" textLength="63" x="484" y="369.1074">PiracyArea</text><line style="stroke:#A80036;stroke-width:1.5;" x1="456" x2="549" y1="380.9531" y2="380.9531"/><line style="stroke:#A80036;stroke-width:1.5;" x1="456" x2="549" y1="388.9531" y2="388.9531"/><!--MD5=[0e8ddb359dd6dc1d0c9218ca7624b7d1]
link Broadcast to Count--><path codeLine="48" d="M720.214,78.9511 C786.299,90.4801 908.995,117.9911 998.5,173.9531 C1011.76,182.2431 1023.93,194.7101 1033.15,205.6801 " fill="none" id="Broadcast-Count" style="stroke:#A80036;stroke-width:1.0;"/><text fill="#000000" font-family="sans-serif" font-size="13" lengthAdjust="spacing" textLength="8" x="1019.9459" y="195.0185">1</text><!--MD5=[0e20b611874b1ec95f57461c7ea64492]
reverse link Count to Once--><path codeLine="49" d="M1015.07,269.0881 C992.504,293.3761 963.858,324.2091 943.838,345.7571 " fill="none" id="Count-backto-Once" style="stroke:#A80036;stroke-width:1.0;"/><polygon fill="none" points="1010.13,264.1241,1028.87,254.2361,1020.38,273.6531,1010.13,264.1241" style="stroke:#A80036;stroke-width:1.0;"/><!--MD5=[1fece98f4e35a2465fb66fdf809b1f53]
reverse link Count to Twice--><path codeLine="50" d="M1082.38,270.0461 C1102.98,295.2931 1129.08,327.2951 1146.48,348.6351 " fill="none" id="Count-backto-Twice" style="stroke:#A80036;stroke-width:1.0;"/><polygon fill="none" points="1076.71,274.1591,1069.49,254.2361,1087.56,265.3111,1076.71,274.1591" style="stroke:#A80036;stroke-width:1.0;"/><!--MD5=[be6a17015dfdff15e160031d262ff065]
reverse link Count to Repeating--><path codeLine="51" d="M1050.5,274.4591 C1050.5,298.9331 1050.5,328.5201 1050.5,348.6351 " fill="none" id="Count-backto-Repeating" style="stroke:#A80036;stroke-width:1.0;"/><polygon fill="none" points="1043.5,274.2361,1050.5,254.2361,1057.5,274.2361,1043.5,274.2361" style="stroke:#A80036;stroke-width:1.0;"/><!--MD5=[392970163f86d4837750809b65b1f32f]
link Twice to IntervalHours--><path codeLine="52" d="M1159.18,396.9901 C1154.81,412.9421 1148.6,435.5711 1142,459.6391 " fill="none" id="Twice-IntervalHours" style="stroke:#A80036;stroke-width:1.0;"/><text fill="#000000" font-family="sans-serif" font-size="13" lengthAdjust="spacing" textLength="7" x="1149.6636" y="417.1554">*</text><text fill="#000000" font-family="sans-serif" font-size="13" lengthAdjust="spacing" textLength="8" x="1135.7633" y="448.9484">1</text><!--MD5=[8cb6c3c5ff2b929e1aa3488ebf7f2ee4]
link Repeating to IntervalHours--><path codeLine="53" d="M1056.71,396.9901 C1061.01,412.9421 1067.11,435.5711 1073.59,459.6391 " fill="none" id="Repeating-IntervalHours" style="stroke:#A80036;stroke-width:1.0;"/><text fill="#000000" font-family="sans-serif" font-size="13" lengthAdjust="spacing" textLength="7" x="1050.4044" y="417.1554">*</text><text fill="#000000" font-family="sans-serif" font-size="13" lengthAdjust="spacing" textLength="8" x="1063.3983" y="448.9484">1</text><!--MD5=[f39eadd4855fdcbb82e8bd0cd4f0eba6]
reverse link Geometry to Circle--><path codeLine="82" d="M331.211,629.5441 C315.807,671.9481 292.175,737.0071 276.776,779.3991 " fill="none" id="Geometry-backto-Circle" style="stroke:#A80036;stroke-width:1.0;"/><polygon fill="none" points="324.631,627.1541,338.039,610.7451,337.79,631.9331,324.631,627.1541" style="stroke:#A80036;stroke-width:1.0;"/><!--MD5=[d84596a069ebff60e908a9a07554cf04]
reverse link Geometry to Rectangle--><path codeLine="83" d="M361.677,629.7311 C376.118,669.9591 397.833,730.4531 412.998,772.6972 " fill="none" id="Geometry-backto-Rectangle" style="stroke:#A80036;stroke-width:1.0;"/><polygon fill="none" points="355.03,631.9341,354.861,610.7451,368.207,627.2041,355.03,631.9341" style="stroke:#A80036;stroke-width:1.0;"/><!--MD5=[57d8e39296350b64ee86f15e9e67f1c6]
reverse link NavWarningArea to NavArea--><path codeLine="85" d="M666.149,417.0571 C668.687,458.3411 672.449,519.5421 674.67,555.6761 " fill="none" id="NavWarningArea-backto-NavArea" style="stroke:#A80036;stroke-width:1.0;"/><polygon fill="none" points="659.156,417.3821,664.916,396.9901,673.13,416.5231,659.156,417.3821" style="stroke:#A80036;stroke-width:1.0;"/><!--MD5=[32794669c7bc6d3073cad72b04d59458]
reverse link NavWarningArea to CoastalWarningArea--><path codeLine="86" d="M633.196,413.2401 C621.947,427.8751 609.105,444.6461 597.5,459.9531 C572.748,492.6001 544.611,530.2361 525.624,555.7121 " fill="none" id="NavWarningArea-backto-CoastalWarningArea" style="stroke:#A80036;stroke-width:1.0;"/><polygon fill="none" points="627.752,408.8361,645.498,397.2571,638.846,417.3761,627.752,408.8361" style="stroke:#A80036;stroke-width:1.0;"/><!--MD5=[09ecf36fec88a76aff1a3838a070139a]
reverse link NavWarningArea to Geometry--><path codeLine="87" d="M577.61,399.4961 C509.215,420.4181 422.795,448.3861 409.5,459.9531 C378.049,487.3171 360.505,534.1201 352.322,562.1841 " fill="none" id="NavWarningArea-backto-Geometry" style="stroke:#A80036;stroke-width:1.0;"/><polygon fill="none" points="575.627,392.7821,596.798,393.6651,579.697,406.1781,575.627,392.7821" style="stroke:#A80036;stroke-width:1.0;"/><!--MD5=[0565048e001d0c7cf4b748a21429e91d]
reverse link MeteorologicalArea to Geometry--><path codeLine="89" d="M346.5,417.0891 C346.5,461.0781 346.5,527.6581 346.5,562.4451 " fill="none" id="MeteorologicalArea-backto-Geometry" style="stroke:#A80036;stroke-width:1.0;"/><polygon fill="none" points="339.5,416.9901,346.5,396.9901,353.5,416.9901,339.5,416.9901" style="stroke:#A80036;stroke-width:1.0;"/><!--MD5=[21ee1635963be7fb7862cac567bd5642]
reverse link MeteorologicalArea to CoastalWarningArea--><path codeLine="90" d="M375.579,413.1261 C406.192,454.3661 453.708,518.3761 481.396,555.6761 " fill="none" id="MeteorologicalArea-backto-CoastalWarningArea" style="stroke:#A80036;stroke-width:1.0;"/><polygon fill="none" points="369.901,417.2211,363.601,396.9901,381.142,408.8771,369.901,417.2211" style="stroke:#A80036;stroke-width:1.0;"/><!--MD5=[2c1863a9b2b3f470c967154d26f0654e]
reverse link MeteorologicalArea to MetArea--><path codeLine="91" d="M316.772,413.4081 C306.074,427.8981 294.048,444.5311 283.5,459.9531 C261.401,492.2641 237.44,530.2851 221.561,555.9411 " fill="none" id="MeteorologicalArea-backto-MetArea" style="stroke:#A80036;stroke-width:1.0;"/><polygon fill="none" points="311.415,408.8821,328.974,397.0211,322.644,417.2431,311.415,408.8821" style="stroke:#A80036;stroke-width:1.0;"/><!--MD5=[2ae774435c05f45cdce83b2c9240f1e9]
reverse link SearchAndRescueArea to Geometry--><path codeLine="93" d="M218.183,407.2621 C240.814,421.3141 265.191,439.2461 283.5,459.9531 C310.63,490.6361 329.284,535.0961 338.902,562.0371 " fill="none" id="SearchAndRescueArea-backto-Geometry" style="stroke:#A80036;stroke-width:1.0;"/><polygon fill="none" points="214.602,413.2771,200.953,397.0691,221.73,401.2271,214.602,413.2771" style="stroke:#A80036;stroke-width:1.0;"/><!--MD5=[422153560474385e40bb4776b2e86df8]
reverse link SearchAndRescueArea to All--><path codeLine="94" d="M135.323,415.3411 C115.574,457.9621 85.3945,523.0941 68.6897,559.1461 " fill="none" id="SearchAndRescueArea-backto-All" style="stroke:#A80036;stroke-width:1.0;"/><polygon fill="none" points="129.066,412.1931,143.826,396.9901,141.769,418.0791,129.066,412.1931" style="stroke:#A80036;stroke-width:1.0;"/><!--MD5=[0aefb5a2eb7e0fbdde90d233e1f7208a]
reverse link PiracyArea to Geometry--><path codeLine="96" d="M456.917,410.1891 C440.668,424.5521 423.053,441.9331 409.5,459.9531 C385.028,492.4911 365.674,535.9841 355.175,562.2921 " fill="none" id="PiracyArea-backto-Geometry" style="stroke:#A80036;stroke-width:1.0;"/><polygon fill="none" points="452.439,404.8091,472.204,397.1711,461.516,415.4681,452.439,404.8091" style="stroke:#A80036;stroke-width:1.0;"/><!--MD5=[728e772a94ab6d5e712abe62516d7079]
reverse link PiracyArea to CoastalWarningArea--><path codeLine="97" d="M502.704,417.0571 C502.899,458.3411 503.188,519.5421 503.359,555.6761 " fill="none" id="PiracyArea-backto-CoastalWarningArea" style="stroke:#A80036;stroke-width:1.0;"/><polygon fill="none" points="495.704,417.0231,502.609,396.9901,509.704,416.9561,495.704,417.0231" style="stroke:#A80036;stroke-width:1.0;"/><!--MD5=[698e6b055fcce6ce8179d73af3e6a297]
reverse link PiracyArea to NavArea--><path codeLine="98" d="M547.554,410.2401 C564.218,424.7781 582.648,442.2641 597.5,459.9531 C622.912,490.2191 646.253,529.3101 660.869,555.7621 " fill="none" id="PiracyArea-backto-NavArea" style="stroke:#A80036;stroke-width:1.0;"/><polygon fill="none" points="543.017,415.5701,532.294,397.2941,552.074,404.8941,543.017,415.5701" style="stroke:#A80036;stroke-width:1.0;"/><!--MD5=[96c1a08896d4d12a89253ac7bae99037]
reverse link Broadcast to SARBroadcast--><path codeLine="100" d="M606.883,81.5211 C523.418,95.0421 377.18,123.8561 260.5,173.9531 C241.121,182.2741 221.175,194.7431 205.377,205.7061 " fill="none" id="Broadcast-backto-SARBroadcast" style="stroke:#A80036;stroke-width:1.0;"/><polygon fill="none" points="605.85,74.5971,626.694,78.4091,608.023,88.4271,605.85,74.5971" style="stroke:#A80036;stroke-width:1.0;"/><!--MD5=[6c02c0956757dbf633185e7dc2815c7f]
reverse link Broadcast to MetBroadcast--><path codeLine="101" d="M607.446,92.1881 C552.93,110.1391 474.427,138.9171 410.5,173.9531 C393.933,183.0331 376.844,195.3011 363.17,205.9471 " fill="none" id="Broadcast-backto-MetBroadcast" style="stroke:#A80036;stroke-width:1.0;"/><polygon fill="none" points="605.545,85.4451,626.729,85.9601,609.848,98.7681,605.545,85.4451" style="stroke:#A80036;stroke-width:1.0;"/><!--MD5=[f1df5e9071dd3422e1c93b9689c96ec7]
reverse link Broadcast to PiracyBroadcast--><path codeLine="102" d="M611.428,125.7941 C579.893,153.1481 543.232,184.9481 519.042,205.9311 " fill="none" id="Broadcast-backto-PiracyBroadcast" style="stroke:#A80036;stroke-width:1.0;"/><polygon fill="none" points="607.193,120.2011,626.888,112.3841,616.366,130.7771,607.193,120.2011" style="stroke:#A80036;stroke-width:1.0;"/><!--MD5=[7bd39685d352537638f5264ab11cdcce]
reverse link Broadcast to NavWarningBroadcast--><path codeLine="103" d="M673.5,134.3591 C673.5,159.4951 673.5,186.9301 673.5,205.7501 " fill="none" id="Broadcast-backto-NavWarningBroadcast" style="stroke:#A80036;stroke-width:1.0;"/><polygon fill="none" points="666.5,134.0261,673.5,114.0261,680.5,134.0261,666.5,134.0261" style="stroke:#A80036;stroke-width:1.0;"/><!--MD5=[f6058b357c2ac0387d5e949fbe66891b]
link SARBroadcast to SearchAndRescueArea--><path codeLine="105" d="M171.197,254.2361 C167.492,280.3611 161.515,322.4961 157.807,348.6351 " fill="none" id="SARBroadcast-SearchAndRescueArea" style="stroke:#A80036;stroke-width:1.0;"/><text fill="#000000" font-family="sans-serif" font-size="13" lengthAdjust="spacing" textLength="8" x="149.6381" y="337.9626">1</text><!--MD5=[c601aa00e3e5ffcefa28cd25e3f99f59]
link MetBroadcast to MeteorologicalArea--><path codeLine="106" d="M337.316,254.2361 C339.355,280.3611 342.642,322.4961 344.681,348.6351 " fill="none" id="MetBroadcast-MeteorologicalArea" style="stroke:#A80036;stroke-width:1.0;"/><text fill="#000000" font-family="sans-serif" font-size="13" lengthAdjust="spacing" textLength="8" x="335.2626" y="337.9626">1</text><!--MD5=[f076b2a5d0c1a0b5afdfb865f3773092]
link NavWarningBroadcast to NavWarningArea--><path codeLine="107" d="M671.849,254.2361 C669.996,280.3611 667.008,322.4961 665.154,348.6351 " fill="none" id="NavWarningBroadcast-NavWarningArea" style="stroke:#A80036;stroke-width:1.0;"/><text fill="#000000" font-family="sans-serif" font-size="13" lengthAdjust="spacing" textLength="8" x="656.5822" y="337.9626">1</text><!--MD5=[efab2a9bc19153a1db00c8519ef3b69c]
link PiracyBroadcast to PiracyArea--><path codeLine="108" d="M494.151,254.2361 C496.004,280.3611 498.992,322.4961 500.846,348.6351 " fill="none" id="PiracyBroadcast-PiracyArea" style="stroke:#A80036;stroke-width:1.0;"/><text fill="#000000" font-family="sans-serif" font-size="13" lengthAdjust="spacing" textLength="8" x="491.4678" y="337.9626">1</text><!--MD5=[2f1074c9e04f2b54e1d72c1773aea458]
link Broadcast to Priority--><path codeLine="110" d="M714.769,114.0261 C738.468,138.1871 767.97,168.2641 790.849,191.5881 " fill="none" id="Broadcast-Priority" style="stroke:#A80036;stroke-width:1.0;"/><text fill="#000000" font-family="sans-serif" font-size="13" lengthAdjust="spacing" textLength="7" x="714.0245" y="134.4459">*</text><text fill="#000000" font-family="sans-serif" font-size="13" lengthAdjust="spacing" textLength="8" x="775.0999" y="179.8852">1</text><!--MD5=[92c65f22e65b7c95b9ee91ed06746ac2]
link Broadcast to Status--><path codeLine="111" d="M720.266,90.1941 C763.893,108.2731 829.828,138.3641 881.5,173.9531 C887.497,178.0831 893.492,182.8051 899.239,187.7071 " fill="none" id="Broadcast-Status" style="stroke:#A80036;stroke-width:1.0;"/><text fill="#000000" font-family="sans-serif" font-size="13" lengthAdjust="spacing" textLength="7" x="727.963" y="89.0373">*</text><text fill="#000000" font-family="sans-serif" font-size="13" lengthAdjust="spacing" textLength="8" x="883.4598" y="176.2333">1</text><!--MD5=[fd659fe8edcdc75b86f8869bd82c6214]
@startuml
title Broadcasts - Class Diagram

class Broadcast {
  id: string
  send()
  cancel()
}
class SARBroadcast
class MetBroadcast
class NavWarningBroadcast
class PiracyBroadcast
enum Priority {
  SAFETY
  URGENCY
  DISTRESS
}
enum Status {
  CREATED
  SCHEDULED
  ACTIVE
  FINISHED
  CANCELLED
}
enum IntervalHours {
  1
  2
  3
  4
  5
  6
  12
  18
  24
  30
  36
  48
  60
  72
  96
  120
}

interface Count 
class Once <<Singleton>> 
class Twice
class Repeating

Broadcast - - "1" Count
Count <|- - Once
Count <|- - Twice
Count <|- - Repeating
Twice "*" - - "1" IntervalHours
Repeating "*" - - "1" IntervalHours

class MetArea {
  metAreaNo: integer
}
class NavArea {
  navAreaNo: integer
}
class CoastalWarningArea {
  letter: char
}
class Circle {
  lat: decimal
  lon: decimal
  radiusNm: decimal
}
class Rectangle {
  minLat: decimal
  leftLon: decimal
  heightDegrees: decimal
  widthDegrees: decimal
}
interface Geometry
class All <<Singleton>>
interface NavWarningArea
interface MeteorologicalArea
interface SearchAndRescueArea
interface PiracyArea

Geometry <|- - Circle
Geometry <|- - Rectangle

NavWarningArea <|- - NavArea
NavWarningArea <|- - CoastalWarningArea
NavWarningArea <|- - Geometry

MeteorologicalArea <|- - Geometry
MeteorologicalArea <|- - CoastalWarningArea
MeteorologicalArea <|- - MetArea

SearchAndRescueArea <|- - Geometry
SearchAndRescueArea <|- - All

PiracyArea <|- - Geometry
PiracyArea <|- - CoastalWarningArea
PiracyArea <|- - NavArea

Broadcast <|- - SARBroadcast
Broadcast <|- - MetBroadcast
Broadcast <|- - PiracyBroadcast
Broadcast <|- - NavWarningBroadcast

SARBroadcast  - - "1" SearchAndRescueArea
MetBroadcast  - - "1" MeteorologicalArea
NavWarningBroadcast  - - "1" NavWarningArea
PiracyBroadcast - - "1" PiracyArea

Broadcast "*" - - "1" Priority
Broadcast "*" - - "1" Status
@enduml

PlantUML version 1.2021.15(Tue Nov 30 16:45:34 UTC 2021)
(GPL source distribution)
Java Runtime: Java(TM) SE Runtime Environment
JVM: Java HotSpot(TM) 64-Bit Server VM
Default Encoding: UTF-8
Language: en
Country: US
--></g></svg>