<?xml version="1.0" encoding="UTF-8" standalone="no"?><svg xmlns="http://www.w3.org/2000/svg" xmlns:xlink="http://www.w3.org/1999/xlink" contentScriptType="application/ecmascript" contentStyleType="text/css" height="848px" preserveAspectRatio="none" style="width:1219px;height:848px;background:#FFFFFF;" version="1.1" viewBox="0 0 1219 848" width="1219px" zoomAndPan="magnify"><defs><filter height="300%" id="fxt1a79n30fhb" width="300%" x="-1" y="-1"><feGaussianBlur result="blurOut" stdDeviation="2.0"/><feColorMatrix in="blurOut" result="blurOut2" type="matrix" values="0 0 0 0 0 0 0 0 0 0 0 0 0 0 0 0 0 0 .4 0"/><feOffset dx="4.0" dy="4.0" in="blurOut2" result="blurOut3"/><feBlend in="SourceGraphic" in2="blurOut3" mode="normal"/></filter></defs><g><text fill="#000000" font-family="sans-serif" font-size="18" lengthAdjust="spacing" textLength="255" x="475.5" y="16.708">Broadcasts - Class Diagram</text><!--MD5=[66c7b72d5fd996439b55bab4eb3f5e0e]
class Broadcast--><rect codeLine="3" fill="#FEFECE" filter="url(#fxt1a79n30fhb)" height="48" id="Broadcast" style="stroke:#A80036;stroke-width:1.5;" width="93" x="633" y="27.9531"/><ellipse cx="648" cy="43.9531" fill="#ADD1B2" rx="11" ry="11" style="stroke:#A80036;stroke-width:1.0;"/><path d="M650.3438,39.625 C649.4063,39.1875 648.8125,39.0469 647.9375,39.0469 C645.3125,39.0469 643.3125,41.125 643.3125,43.8438 L643.3125,44.9688 C643.3125,47.5469 645.4219,49.4375 648.3125,49.4375 C649.5313,49.4375 650.6875,49.1406 651.4375,48.5938 C652.0156,48.1875 652.3438,47.7344 652.3438,47.3438 C652.3438,46.8906 651.9531,46.5 651.4844,46.5 C651.2656,46.5 651.0625,46.5781 650.875,46.7656 C650.4219,47.25 650.4219,47.25 650.2344,47.3438 C649.8125,47.6094 649.125,47.7344 648.3594,47.7344 C646.3125,47.7344 645.0156,46.6406 645.0156,44.9375 L645.0156,43.8438 C645.0156,42.0625 646.2656,40.75 648,40.75 C648.5781,40.75 649.1875,40.9063 649.6563,41.1563 C650.1406,41.4375 650.3125,41.6563 650.4063,42.0625 C650.4688,42.4688 650.5,42.5938 650.6406,42.7188 C650.7813,42.8594 651.0156,42.9688 651.2344,42.9688 C651.5,42.9688 651.7656,42.8281 651.9375,42.6094 C652.0469,42.4531 652.0781,42.2656 652.0781,41.8438 L652.0781,40.4219 C652.0781,39.9844 652.0625,39.8594 651.9688,39.7031 C651.8125,39.4375 651.5313,39.2969 651.2344,39.2969 C650.9375,39.2969 650.7344,39.3906 650.5156,39.7031 L650.3438,39.625 Z " fill="#000000"/><text fill="#000000" font-family="sans-serif" font-size="12" lengthAdjust="spacing" textLength="61" x="662" y="48.1074">Broadcast</text><line style="stroke:#A80036;stroke-width:1.5;" x1="634" x2="725" y1="59.9531" y2="59.9531"/><line style="stroke:#A80036;stroke-width:1.5;" x1="634" x2="725" y1="67.9531" y2="67.9531"/><!--MD5=[6a4bf54674a26136bd95edad553eae04]
class SARBroadcast--><rect codeLine="4" fill="#FEFECE" filter="url(#fxt1a79n30fhb)" height="48" id="SARBroadcast" style="stroke:#A80036;stroke-width:1.5;" width="116" x="116.5" y="167.9531"/><ellipse cx="131.5" cy="183.9531" fill="#ADD1B2" rx="11" ry="11" style="stroke:#A80036;stroke-width:1.0;"/><path d="M133.8438,179.625 C132.9063,179.1875 132.3125,179.0469 131.4375,179.0469 C128.8125,179.0469 126.8125,181.125 126.8125,183.8438 L126.8125,184.9688 C126.8125,187.5469 128.9219,189.4375 131.8125,189.4375 C133.0313,189.4375 134.1875,189.1406 134.9375,188.5938 C135.5156,188.1875 135.8438,187.7344 135.8438,187.3438 C135.8438,186.8906 135.4531,186.5 134.9844,186.5 C134.7656,186.5 134.5625,186.5781 134.375,186.7656 C133.9219,187.25 133.9219,187.25 133.7344,187.3438 C133.3125,187.6094 132.625,187.7344 131.8594,187.7344 C129.8125,187.7344 128.5156,186.6406 128.5156,184.9375 L128.5156,183.8438 C128.5156,182.0625 129.7656,180.75 131.5,180.75 C132.0781,180.75 132.6875,180.9063 133.1563,181.1563 C133.6406,181.4375 133.8125,181.6563 133.9063,182.0625 C133.9688,182.4688 134,182.5938 134.1406,182.7188 C134.2813,182.8594 134.5156,182.9688 134.7344,182.9688 C135,182.9688 135.2656,182.8281 135.4375,182.6094 C135.5469,182.4531 135.5781,182.2656 135.5781,181.8438 L135.5781,180.4219 C135.5781,179.9844 135.5625,179.8594 135.4688,179.7031 C135.3125,179.4375 135.0313,179.2969 134.7344,179.2969 C134.4375,179.2969 134.2344,179.3906 134.0156,179.7031 L133.8438,179.625 Z " fill="#000000"/><text fill="#000000" font-family="sans-serif" font-size="12" lengthAdjust="spacing" textLength="84" x="145.5" y="188.1074">SARBroadcast</text><line style="stroke:#A80036;stroke-width:1.5;" x1="117.5" x2="231.5" y1="199.9531" y2="199.9531"/><line style="stroke:#A80036;stroke-width:1.5;" x1="117.5" x2="231.5" y1="207.9531" y2="207.9531"/><!--MD5=[59982b7b7c2f6d277251daf1f7ffe2c4]
class MetBroadcast--><rect codeLine="5" fill="#FEFECE" filter="url(#fxt1a79n30fhb)" height="48" id="MetBroadcast" style="stroke:#A80036;stroke-width:1.5;" width="115" x="284" y="167.9531"/><ellipse cx="299" cy="183.9531" fill="#ADD1B2" rx="11" ry="11" style="stroke:#A80036;stroke-width:1.0;"/><path d="M301.3438,179.625 C300.4063,179.1875 299.8125,179.0469 298.9375,179.0469 C296.3125,179.0469 294.3125,181.125 294.3125,183.8438 L294.3125,184.9688 C294.3125,187.5469 296.4219,189.4375 299.3125,189.4375 C300.5313,189.4375 301.6875,189.1406 302.4375,188.5938 C303.0156,188.1875 303.3438,187.7344 303.3438,187.3438 C303.3438,186.8906 302.9531,186.5 302.4844,186.5 C302.2656,186.5 302.0625,186.5781 301.875,186.7656 C301.4219,187.25 301.4219,187.25 301.2344,187.3438 C300.8125,187.6094 300.125,187.7344 299.3594,187.7344 C297.3125,187.7344 296.0156,186.6406 296.0156,184.9375 L296.0156,183.8438 C296.0156,182.0625 297.2656,180.75 299,180.75 C299.5781,180.75 300.1875,180.9063 300.6563,181.1563 C301.1406,181.4375 301.3125,181.6563 301.4063,182.0625 C301.4688,182.4688 301.5,182.5938 301.6406,182.7188 C301.7813,182.8594 302.0156,182.9688 302.2344,182.9688 C302.5,182.9688 302.7656,182.8281 302.9375,182.6094 C303.0469,182.4531 303.0781,182.2656 303.0781,181.8438 L303.0781,180.4219 C303.0781,179.9844 303.0625,179.8594 302.9688,179.7031 C302.8125,179.4375 302.5313,179.2969 302.2344,179.2969 C301.9375,179.2969 301.7344,179.3906 301.5156,179.7031 L301.3438,179.625 Z " fill="#000000"/><text fill="#000000" font-family="sans-serif" font-size="12" lengthAdjust="spacing" textLength="83" x="313" y="188.1074">MetBroadcast</text><line style="stroke:#A80036;stroke-width:1.5;" x1="285" x2="398" y1="199.9531" y2="199.9531"/><line style="stroke:#A80036;stroke-width:1.5;" x1="285" x2="398" y1="207.9531" y2="207.9531"/><!--MD5=[a58030872057f2eaffea5a541be2457b]
class NavWarningBroadcast--><rect codeLine="6" fill="#FEFECE" filter="url(#fxt1a79n30fhb)" height="48" id="NavWarningBroadcast" style="stroke:#A80036;stroke-width:1.5;" width="164" x="597.5" y="167.9531"/><ellipse cx="612.5" cy="183.9531" fill="#ADD1B2" rx="11" ry="11" style="stroke:#A80036;stroke-width:1.0;"/><path d="M614.8438,179.625 C613.9063,179.1875 613.3125,179.0469 612.4375,179.0469 C609.8125,179.0469 607.8125,181.125 607.8125,183.8438 L607.8125,184.9688 C607.8125,187.5469 609.9219,189.4375 612.8125,189.4375 C614.0313,189.4375 615.1875,189.1406 615.9375,188.5938 C616.5156,188.1875 616.8438,187.7344 616.8438,187.3438 C616.8438,186.8906 616.4531,186.5 615.9844,186.5 C615.7656,186.5 615.5625,186.5781 615.375,186.7656 C614.9219,187.25 614.9219,187.25 614.7344,187.3438 C614.3125,187.6094 613.625,187.7344 612.8594,187.7344 C610.8125,187.7344 609.5156,186.6406 609.5156,184.9375 L609.5156,183.8438 C609.5156,182.0625 610.7656,180.75 612.5,180.75 C613.0781,180.75 613.6875,180.9063 614.1563,181.1563 C614.6406,181.4375 614.8125,181.6563 614.9063,182.0625 C614.9688,182.4688 615,182.5938 615.1406,182.7188 C615.2813,182.8594 615.5156,182.9688 615.7344,182.9688 C616,182.9688 616.2656,182.8281 616.4375,182.6094 C616.5469,182.4531 616.5781,182.2656 616.5781,181.8438 L616.5781,180.4219 C616.5781,179.9844 616.5625,179.8594 616.4688,179.7031 C616.3125,179.4375 616.0313,179.2969 615.7344,179.2969 C615.4375,179.2969 615.2344,179.3906 615.0156,179.7031 L614.8438,179.625 Z " fill="#000000"/><text fill="#000000" font-family="sans-serif" font-size="12" lengthAdjust="spacing" textLength="132" x="626.5" y="188.1074">NavWarningBroadcast</text><line style="stroke:#A80036;stroke-width:1.5;" x1="598.5" x2="760.5" y1="199.9531" y2="199.9531"/><line style="stroke:#A80036;stroke-width:1.5;" x1="598.5" x2="760.5" y1="207.9531" y2="207.9531"/><!--MD5=[b0f80f349ef201573babf084af14ed5c]
class PiracyBroadcast--><rect codeLine="7" fill="#FEFECE" filter="url(#fxt1a79n30fhb)" height="48" id="PiracyBroadcast" style="stroke:#A80036;stroke-width:1.5;" width="128" x="434.5" y="167.9531"/><ellipse cx="449.5" cy="183.9531" fill="#ADD1B2" rx="11" ry="11" style="stroke:#A80036;stroke-width:1.0;"/><path d="M451.8438,179.625 C450.9063,179.1875 450.3125,179.0469 449.4375,179.0469 C446.8125,179.0469 444.8125,181.125 444.8125,183.8438 L444.8125,184.9688 C444.8125,187.5469 446.9219,189.4375 449.8125,189.4375 C451.0313,189.4375 452.1875,189.1406 452.9375,188.5938 C453.5156,188.1875 453.8438,187.7344 453.8438,187.3438 C453.8438,186.8906 453.4531,186.5 452.9844,186.5 C452.7656,186.5 452.5625,186.5781 452.375,186.7656 C451.9219,187.25 451.9219,187.25 451.7344,187.3438 C451.3125,187.6094 450.625,187.7344 449.8594,187.7344 C447.8125,187.7344 446.5156,186.6406 446.5156,184.9375 L446.5156,183.8438 C446.5156,182.0625 447.7656,180.75 449.5,180.75 C450.0781,180.75 450.6875,180.9063 451.1563,181.1563 C451.6406,181.4375 451.8125,181.6563 451.9063,182.0625 C451.9688,182.4688 452,182.5938 452.1406,182.7188 C452.2813,182.8594 452.5156,182.9688 452.7344,182.9688 C453,182.9688 453.2656,182.8281 453.4375,182.6094 C453.5469,182.4531 453.5781,182.2656 453.5781,181.8438 L453.5781,180.4219 C453.5781,179.9844 453.5625,179.8594 453.4688,179.7031 C453.3125,179.4375 453.0313,179.2969 452.7344,179.2969 C452.4375,179.2969 452.2344,179.3906 452.0156,179.7031 L451.8438,179.625 Z " fill="#000000"/><text fill="#000000" font-family="sans-serif" font-size="12" lengthAdjust="spacing" textLength="96" x="463.5" y="188.1074">PiracyBroadcast</text><line style="stroke:#A80036;stroke-width:1.5;" x1="435.5" x2="561.5" y1="199.9531" y2="199.9531"/><line style="stroke:#A80036;stroke-width:1.5;" x1="435.5" x2="561.5" y1="207.9531" y2="207.9531"/><!--MD5=[953e9b2fb9eece1b3fc587391ef815bf]
class Priority--><rect codeLine="8" fill="#FEFECE" filter="url(#fxt1a79n30fhb)" height="86.4141" id="Priority" style="stroke:#A80036;stroke-width:1.5;" width="73" x="797" y="148.9531"/><ellipse cx="812" cy="164.9531" fill="#EB937F" rx="11" ry="11" style="stroke:#A80036;stroke-width:1.0;"/><path d="M810.7969,165.8281 L812.25,165.8281 L812.25,165.9375 C812.25,166.3438 812.2813,166.5 812.3594,166.6563 C812.5156,166.9063 812.7969,167.0625 813.0938,167.0625 C813.3438,167.0625 813.6094,166.9219 813.7656,166.7031 C813.8906,166.5469 813.9219,166.3906 813.9219,165.9375 L813.9219,164.0156 C813.9219,163.8594 813.9219,163.8125 813.9063,163.6563 C813.8438,163.1875 813.5313,162.875 813.0781,162.875 C812.8281,162.875 812.5625,163.0156 812.3906,163.2344 C812.2813,163.4063 812.25,163.5625 812.25,164.0156 L812.25,164.1406 L810.7969,164.1406 L810.7969,161.7344 L814.7813,161.7344 L814.7813,162.5938 C814.7813,163 814.8125,163.1719 814.8906,163.3281 C815.0625,163.5781 815.3438,163.7344 815.625,163.7344 C815.8906,163.7344 816.1563,163.5938 816.3281,163.375 C816.4375,163.2031 816.4688,163.0625 816.4688,162.5938 L816.4688,160.0469 L808.8438,160.0469 C808.4063,160.0469 808.2813,160.0625 808.125,160.1563 C807.875,160.3125 807.7188,160.6094 807.7188,160.8906 C807.7188,161.1719 807.8594,161.4219 808.0781,161.5938 C808.2344,161.7031 808.4219,161.7344 808.8438,161.7344 L809.0938,161.7344 L809.0938,168.25 L808.8438,168.25 C808.4375,168.25 808.2813,168.2656 808.125,168.375 C807.875,168.5469 807.7188,168.8125 807.7188,169.1094 C807.7188,169.375 807.8594,169.625 808.0781,169.7813 C808.2188,169.9063 808.4531,169.9531 808.8438,169.9531 L816.8438,169.9531 L816.8438,167.375 C816.8438,166.9375 816.8125,166.7969 816.7344,166.6406 C816.5625,166.3906 816.2813,166.2344 816,166.2344 C815.7344,166.2344 815.4688,166.3438 815.2969,166.5938 C815.1875,166.75 815.1563,166.8906 815.1563,167.375 L815.1563,168.25 L810.7969,168.25 L810.7969,165.8281 Z " fill="#000000"/><text fill="#000000" font-family="sans-serif" font-size="12" lengthAdjust="spacing" textLength="41" x="826" y="169.1074">Priority</text><line style="stroke:#A80036;stroke-width:1.5;" x1="798" x2="869" y1="180.9531" y2="180.9531"/><text fill="#000000" font-family="sans-serif" font-size="11" lengthAdjust="spacing" textLength="43" x="803" y="195.1636">SAFETY</text><text fill="#000000" font-family="sans-serif" font-size="11" lengthAdjust="spacing" textLength="54" x="803" y="207.9683">URGENCY</text><text fill="#000000" font-family="sans-serif" font-size="11" lengthAdjust="spacing" textLength="57" x="803" y="220.7729">DISTRESS</text><line style="stroke:#A80036;stroke-width:1.5;" x1="798" x2="869" y1="227.3672" y2="227.3672"/><!--MD5=[e3d83ec5fd90ea9f3f2bfe265cb53458]
class Status--><rect codeLine="13" fill="#FEFECE" filter="url(#fxt1a79n30fhb)" height="112.0234" id="Status" style="stroke:#A80036;stroke-width:1.5;" width="82" x="905.5" y="135.9531"/><ellipse cx="926.35" cy="151.9531" fill="#EB937F" rx="11" ry="11" style="stroke:#A80036;stroke-width:1.0;"/><path d="M925.1469,152.8281 L926.6,152.8281 L926.6,152.9375 C926.6,153.3438 926.6313,153.5 926.7094,153.6563 C926.8656,153.9063 927.1469,154.0625 927.4438,154.0625 C927.6938,154.0625 927.9594,153.9219 928.1156,153.7031 C928.2406,153.5469 928.2719,153.3906 928.2719,152.9375 L928.2719,151.0156 C928.2719,150.8594 928.2719,150.8125 928.2563,150.6563 C928.1938,150.1875 927.8813,149.875 927.4281,149.875 C927.1781,149.875 926.9125,150.0156 926.7406,150.2344 C926.6313,150.4063 926.6,150.5625 926.6,151.0156 L926.6,151.1406 L925.1469,151.1406 L925.1469,148.7344 L929.1313,148.7344 L929.1313,149.5938 C929.1313,150 929.1625,150.1719 929.2406,150.3281 C929.4125,150.5781 929.6938,150.7344 929.975,150.7344 C930.2406,150.7344 930.5063,150.5938 930.6781,150.375 C930.7875,150.2031 930.8188,150.0625 930.8188,149.5938 L930.8188,147.0469 L923.1938,147.0469 C922.7563,147.0469 922.6313,147.0625 922.475,147.1563 C922.225,147.3125 922.0688,147.6094 922.0688,147.8906 C922.0688,148.1719 922.2094,148.4219 922.4281,148.5938 C922.5844,148.7031 922.7719,148.7344 923.1938,148.7344 L923.4438,148.7344 L923.4438,155.25 L923.1938,155.25 C922.7875,155.25 922.6313,155.2656 922.475,155.375 C922.225,155.5469 922.0688,155.8125 922.0688,156.1094 C922.0688,156.375 922.2094,156.625 922.4281,156.7813 C922.5688,156.9063 922.8031,156.9531 923.1938,156.9531 L931.1938,156.9531 L931.1938,154.375 C931.1938,153.9375 931.1625,153.7969 931.0844,153.6406 C930.9125,153.3906 930.6313,153.2344 930.35,153.2344 C930.0844,153.2344 929.8188,153.3438 929.6469,153.5938 C929.5375,153.75 929.5063,153.8906 929.5063,154.375 L929.5063,155.25 L925.1469,155.25 L925.1469,152.8281 Z " fill="#000000"/><text fill="#000000" font-family="sans-serif" font-size="12" lengthAdjust="spacing" textLength="37" x="941.65" y="156.1074">Status</text><line style="stroke:#A80036;stroke-width:1.5;" x1="906.5" x2="986.5" y1="167.9531" y2="167.9531"/><text fill="#000000" font-family="sans-serif" font-size="11" lengthAdjust="spacing" textLength="53" x="911.5" y="182.1636">CREATED</text><text fill="#000000" font-family="sans-serif" font-size="11" lengthAdjust="spacing" textLength="70" x="911.5" y="194.9683">SCHEDULED</text><text fill="#000000" font-family="sans-serif" font-size="11" lengthAdjust="spacing" textLength="41" x="911.5" y="207.7729">ACTIVE</text><text fill="#000000" font-family="sans-serif" font-size="11" lengthAdjust="spacing" textLength="52" x="911.5" y="220.5776">FINISHED</text><text fill="#000000" font-family="sans-serif" font-size="11" lengthAdjust="spacing" textLength="67" x="911.5" y="233.3823">CANCELLED</text><line style="stroke:#A80036;stroke-width:1.5;" x1="906.5" x2="986.5" y1="239.9766" y2="239.9766"/><!--MD5=[670ba5afd3835a69cbf81964ee5af7db]
class IntervalHours--><rect codeLine="20" fill="#FEFECE" filter="url(#fxt1a79n30fhb)" height="252.875" id="IntervalHours" style="stroke:#A80036;stroke-width:1.5;" width="112" x="1057.5" y="421.9531"/><ellipse cx="1072.5" cy="437.9531" fill="#EB937F" rx="11" ry="11" style="stroke:#A80036;stroke-width:1.0;"/><path d="M1071.2969,438.8281 L1072.75,438.8281 L1072.75,438.9375 C1072.75,439.3438 1072.7813,439.5 1072.8594,439.6563 C1073.0156,439.9063 1073.2969,440.0625 1073.5938,440.0625 C1073.8438,440.0625 1074.1094,439.9219 1074.2656,439.7031 C1074.3906,439.5469 1074.4219,439.3906 1074.4219,438.9375 L1074.4219,437.0156 C1074.4219,436.8594 1074.4219,436.8125 1074.4063,436.6563 C1074.3438,436.1875 1074.0313,435.875 1073.5781,435.875 C1073.3281,435.875 1073.0625,436.0156 1072.8906,436.2344 C1072.7813,436.4063 1072.75,436.5625 1072.75,437.0156 L1072.75,437.1406 L1071.2969,437.1406 L1071.2969,434.7344 L1075.2813,434.7344 L1075.2813,435.5938 C1075.2813,436 1075.3125,436.1719 1075.3906,436.3281 C1075.5625,436.5781 1075.8438,436.7344 1076.125,436.7344 C1076.3906,436.7344 1076.6563,436.5938 1076.8281,436.375 C1076.9375,436.2031 1076.9688,436.0625 1076.9688,435.5938 L1076.9688,433.0469 L1069.3438,433.0469 C1068.9063,433.0469 1068.7813,433.0625 1068.625,433.1563 C1068.375,433.3125 1068.2188,433.6094 1068.2188,433.8906 C1068.2188,434.1719 1068.3594,434.4219 1068.5781,434.5938 C1068.7344,434.7031 1068.9219,434.7344 1069.3438,434.7344 L1069.5938,434.7344 L1069.5938,441.25 L1069.3438,441.25 C1068.9375,441.25 1068.7813,441.2656 1068.625,441.375 C1068.375,441.5469 1068.2188,441.8125 1068.2188,442.1094 C1068.2188,442.375 1068.3594,442.625 1068.5781,442.7813 C1068.7188,442.9063 1068.9531,442.9531 1069.3438,442.9531 L1077.3438,442.9531 L1077.3438,440.375 C1077.3438,439.9375 1077.3125,439.7969 1077.2344,439.6406 C1077.0625,439.3906 1076.7813,439.2344 1076.5,439.2344 C1076.2344,439.2344 1075.9688,439.3438 1075.7969,439.5938 C1075.6875,439.75 1075.6563,439.8906 1075.6563,440.375 L1075.6563,441.25 L1071.2969,441.25 L1071.2969,438.8281 Z " fill="#000000"/><text fill="#000000" font-family="sans-serif" font-size="12" lengthAdjust="spacing" textLength="80" x="1086.5" y="442.1074">IntervalHours</text><line style="stroke:#A80036;stroke-width:1.5;" x1="1058.5" x2="1168.5" y1="453.9531" y2="453.9531"/><text fill="#000000" font-family="sans-serif" font-size="11" lengthAdjust="spacing" textLength="7" x="1063.5" y="468.1636">1</text><text fill="#000000" font-family="sans-serif" font-size="11" lengthAdjust="spacing" textLength="7" x="1063.5" y="480.9683">2</text><text fill="#000000" font-family="sans-serif" font-size="11" lengthAdjust="spacing" textLength="7" x="1063.5" y="493.7729">3</text><text fill="#000000" font-family="sans-serif" font-size="11" lengthAdjust="spacing" textLength="7" x="1063.5" y="506.5776">4</text><text fill="#000000" font-family="sans-serif" font-size="11" lengthAdjust="spacing" textLength="7" x="1063.5" y="519.3823">5</text><text fill="#000000" font-family="sans-serif" font-size="11" lengthAdjust="spacing" textLength="7" x="1063.5" y="532.187">6</text><text fill="#000000" font-family="sans-serif" font-size="11" lengthAdjust="spacing" textLength="14" x="1063.5" y="544.9917">12</text><text fill="#000000" font-family="sans-serif" font-size="11" lengthAdjust="spacing" textLength="14" x="1063.5" y="557.7964">18</text><text fill="#000000" font-family="sans-serif" font-size="11" lengthAdjust="spacing" textLength="14" x="1063.5" y="570.6011">24</text><text fill="#000000" font-family="sans-serif" font-size="11" lengthAdjust="spacing" textLength="14" x="1063.5" y="583.4058">30</text><text fill="#000000" font-family="sans-serif" font-size="11" lengthAdjust="spacing" textLength="14" x="1063.5" y="596.2104">36</text><text fill="#000000" font-family="sans-serif" font-size="11" lengthAdjust="spacing" textLength="14" x="1063.5" y="609.0151">48</text><text fill="#000000" font-family="sans-serif" font-size="11" lengthAdjust="spacing" textLength="14" x="1063.5" y="621.8198">60</text><text fill="#000000" font-family="sans-serif" font-size="11" lengthAdjust="spacing" textLength="14" x="1063.5" y="634.6245">72</text><text fill="#000000" font-family="sans-serif" font-size="11" lengthAdjust="spacing" textLength="14" x="1063.5" y="647.4292">96</text><text fill="#000000" font-family="sans-serif" font-size="11" lengthAdjust="spacing" textLength="21" x="1063.5" y="660.2339">120</text><line style="stroke:#A80036;stroke-width:1.5;" x1="1058.5" x2="1168.5" y1="666.8281" y2="666.8281"/><!--MD5=[9553d9a1cce22c9fed15ebc3950bc0a6]
class Count--><rect codeLine="39" fill="#FEFECE" filter="url(#fxt1a79n30fhb)" height="48" id="Count" style="stroke:#A80036;stroke-width:1.5;" width="68" x="1022.5" y="167.9531"/><ellipse cx="1037.5" cy="183.9531" fill="#B4A7E5" rx="11" ry="11" style="stroke:#A80036;stroke-width:1.0;"/><path d="M1038.4531,180.7344 L1040.1719,180.7344 C1040.5625,180.7344 1040.75,180.7031 1040.875,180.625 C1041.1406,180.4688 1041.2813,180.1875 1041.2813,179.8906 C1041.2813,179.625 1041.1719,179.3594 1040.9375,179.1875 C1040.7656,179.0781 1040.625,179.0469 1040.1719,179.0469 L1035.0313,179.0469 C1034.5938,179.0469 1034.4688,179.0625 1034.3125,179.1563 C1034.0625,179.3125 1033.9063,179.6094 1033.9063,179.8906 C1033.9063,180.1719 1034.0469,180.4219 1034.2656,180.5938 C1034.4219,180.7031 1034.6094,180.7344 1035.0313,180.7344 L1036.75,180.7344 L1036.75,187.25 L1035.0313,187.25 C1034.5938,187.25 1034.4688,187.2656 1034.3125,187.375 C1034.0625,187.5313 1033.9063,187.8125 1033.9063,188.1094 C1033.9063,188.3594 1034.0469,188.625 1034.2656,188.7813 C1034.4219,188.9063 1034.625,188.9531 1035.0313,188.9531 L1040.1719,188.9531 C1040.9219,188.9531 1041.2813,188.6719 1041.2813,188.1094 C1041.2813,187.8281 1041.1719,187.5781 1040.9375,187.4063 C1040.7656,187.2813 1040.625,187.25 1040.1719,187.25 L1038.4531,187.25 L1038.4531,180.7344 Z " fill="#000000"/><text fill="#000000" font-family="sans-serif" font-size="12" font-style="italic" lengthAdjust="spacing" textLength="36" x="1051.5" y="188.1074">Count</text><line style="stroke:#A80036;stroke-width:1.5;" x1="1023.5" x2="1089.5" y1="199.9531" y2="199.9531"/><line style="stroke:#A80036;stroke-width:1.5;" x1="1023.5" x2="1089.5" y1="207.9531" y2="207.9531"/><!--MD5=[95c64792ccc6f55bacde95a3f98f7de5]
class Once--><rect codeLine="40" fill="#FEFECE" filter="url(#fxt1a79n30fhb)" height="53.9375" id="Once" style="stroke:#A80036;stroke-width:1.5;" width="99" x="876" y="307.9531"/><ellipse cx="891" cy="326.9219" fill="#ADD1B2" rx="11" ry="11" style="stroke:#A80036;stroke-width:1.0;"/><path d="M893.3438,322.5938 C892.4063,322.1563 891.8125,322.0156 890.9375,322.0156 C888.3125,322.0156 886.3125,324.0938 886.3125,326.8125 L886.3125,327.9375 C886.3125,330.5156 888.4219,332.4063 891.3125,332.4063 C892.5313,332.4063 893.6875,332.1094 894.4375,331.5625 C895.0156,331.1563 895.3438,330.7031 895.3438,330.3125 C895.3438,329.8594 894.9531,329.4688 894.4844,329.4688 C894.2656,329.4688 894.0625,329.5469 893.875,329.7344 C893.4219,330.2188 893.4219,330.2188 893.2344,330.3125 C892.8125,330.5781 892.125,330.7031 891.3594,330.7031 C889.3125,330.7031 888.0156,329.6094 888.0156,327.9063 L888.0156,326.8125 C888.0156,325.0313 889.2656,323.7188 891,323.7188 C891.5781,323.7188 892.1875,323.875 892.6563,324.125 C893.1406,324.4063 893.3125,324.625 893.4063,325.0313 C893.4688,325.4375 893.5,325.5625 893.6406,325.6875 C893.7813,325.8281 894.0156,325.9375 894.2344,325.9375 C894.5,325.9375 894.7656,325.7969 894.9375,325.5781 C895.0469,325.4219 895.0781,325.2344 895.0781,324.8125 L895.0781,323.3906 C895.0781,322.9531 895.0625,322.8281 894.9688,322.6719 C894.8125,322.4063 894.5313,322.2656 894.2344,322.2656 C893.9375,322.2656 893.7344,322.3594 893.5156,322.6719 L893.3438,322.5938 Z " fill="#000000"/><text fill="#000000" font-family="sans-serif" font-size="12" font-style="italic" lengthAdjust="spacing" textLength="71" x="903" y="324.0918">«Singleton»</text><text fill="#000000" font-family="sans-serif" font-size="12" lengthAdjust="spacing" textLength="32" x="922.5" y="338.0605">Once</text><line style="stroke:#A80036;stroke-width:1.5;" x1="877" x2="974" y1="345.8906" y2="345.8906"/><line style="stroke:#A80036;stroke-width:1.5;" x1="877" x2="974" y1="353.8906" y2="353.8906"/><!--MD5=[27f4c90d55288e5e3501c0b76be397d1]
class Twice--><rect codeLine="41" fill="#FEFECE" filter="url(#fxt1a79n30fhb)" height="48" id="Twice" style="stroke:#A80036;stroke-width:1.5;" width="67" x="1138" y="310.9531"/><ellipse cx="1153" cy="326.9531" fill="#ADD1B2" rx="11" ry="11" style="stroke:#A80036;stroke-width:1.0;"/><path d="M1155.3438,322.625 C1154.4063,322.1875 1153.8125,322.0469 1152.9375,322.0469 C1150.3125,322.0469 1148.3125,324.125 1148.3125,326.8438 L1148.3125,327.9688 C1148.3125,330.5469 1150.4219,332.4375 1153.3125,332.4375 C1154.5313,332.4375 1155.6875,332.1406 1156.4375,331.5938 C1157.0156,331.1875 1157.3438,330.7344 1157.3438,330.3438 C1157.3438,329.8906 1156.9531,329.5 1156.4844,329.5 C1156.2656,329.5 1156.0625,329.5781 1155.875,329.7656 C1155.4219,330.25 1155.4219,330.25 1155.2344,330.3438 C1154.8125,330.6094 1154.125,330.7344 1153.3594,330.7344 C1151.3125,330.7344 1150.0156,329.6406 1150.0156,327.9375 L1150.0156,326.8438 C1150.0156,325.0625 1151.2656,323.75 1153,323.75 C1153.5781,323.75 1154.1875,323.9063 1154.6563,324.1563 C1155.1406,324.4375 1155.3125,324.6563 1155.4063,325.0625 C1155.4688,325.4688 1155.5,325.5938 1155.6406,325.7188 C1155.7813,325.8594 1156.0156,325.9688 1156.2344,325.9688 C1156.5,325.9688 1156.7656,325.8281 1156.9375,325.6094 C1157.0469,325.4531 1157.0781,325.2656 1157.0781,324.8438 L1157.0781,323.4219 C1157.0781,322.9844 1157.0625,322.8594 1156.9688,322.7031 C1156.8125,322.4375 1156.5313,322.2969 1156.2344,322.2969 C1155.9375,322.2969 1155.7344,322.3906 1155.5156,322.7031 L1155.3438,322.625 Z " fill="#000000"/><text fill="#000000" font-family="sans-serif" font-size="12" lengthAdjust="spacing" textLength="35" x="1167" y="331.1074">Twice</text><line style="stroke:#A80036;stroke-width:1.5;" x1="1139" x2="1204" y1="342.9531" y2="342.9531"/><line style="stroke:#A80036;stroke-width:1.5;" x1="1139" x2="1204" y1="350.9531" y2="350.9531"/><!--MD5=[763d40efa2dbdf8cb82b8254934e0166]
class Repeating--><rect codeLine="42" fill="#FEFECE" filter="url(#fxt1a79n30fhb)" height="48" id="Repeating" style="stroke:#A80036;stroke-width:1.5;" width="92" x="1010.5" y="310.9531"/><ellipse cx="1025.5" cy="326.9531" fill="#ADD1B2" rx="11" ry="11" style="stroke:#A80036;stroke-width:1.0;"/><path d="M1027.8438,322.625 C1026.9063,322.1875 1026.3125,322.0469 1025.4375,322.0469 C1022.8125,322.0469 1020.8125,324.125 1020.8125,326.8438 L1020.8125,327.9688 C1020.8125,330.5469 1022.9219,332.4375 1025.8125,332.4375 C1027.0313,332.4375 1028.1875,332.1406 1028.9375,331.5938 C1029.5156,331.1875 1029.8438,330.7344 1029.8438,330.3438 C1029.8438,329.8906 1029.4531,329.5 1028.9844,329.5 C1028.7656,329.5 1028.5625,329.5781 1028.375,329.7656 C1027.9219,330.25 1027.9219,330.25 1027.7344,330.3438 C1027.3125,330.6094 1026.625,330.7344 1025.8594,330.7344 C1023.8125,330.7344 1022.5156,329.6406 1022.5156,327.9375 L1022.5156,326.8438 C1022.5156,325.0625 1023.7656,323.75 1025.5,323.75 C1026.0781,323.75 1026.6875,323.9063 1027.1563,324.1563 C1027.6406,324.4375 1027.8125,324.6563 1027.9063,325.0625 C1027.9688,325.4688 1028,325.5938 1028.1406,325.7188 C1028.2813,325.8594 1028.5156,325.9688 1028.7344,325.9688 C1029,325.9688 1029.2656,325.8281 1029.4375,325.6094 C1029.5469,325.4531 1029.5781,325.2656 1029.5781,324.8438 L1029.5781,323.4219 C1029.5781,322.9844 1029.5625,322.8594 1029.4688,322.7031 C1029.3125,322.4375 1029.0313,322.2969 1028.7344,322.2969 C1028.4375,322.2969 1028.2344,322.3906 1028.0156,322.7031 L1027.8438,322.625 Z " fill="#000000"/><text fill="#000000" font-family="sans-serif" font-size="12" lengthAdjust="spacing" textLength="60" x="1039.5" y="331.1074">Repeating</text><line style="stroke:#A80036;stroke-width:1.5;" x1="1011.5" x2="1101.5" y1="342.9531" y2="342.9531"/><line style="stroke:#A80036;stroke-width:1.5;" x1="1011.5" x2="1101.5" y1="350.9531" y2="350.9531"/><!--MD5=[19c58e1c195e071f65e647eea3a11eda]
class MetArea--><rect codeLine="51" fill="#FEFECE" filter="url(#fxt1a79n30fhb)" height="60.8047" id="MetArea" style="stroke:#A80036;stroke-width:1.5;" width="125" x="141" y="517.9531"/><ellipse cx="175.35" cy="533.9531" fill="#ADD1B2" rx="11" ry="11" style="stroke:#A80036;stroke-width:1.0;"/><path d="M177.6938,529.625 C176.7563,529.1875 176.1625,529.0469 175.2875,529.0469 C172.6625,529.0469 170.6625,531.125 170.6625,533.8438 L170.6625,534.9688 C170.6625,537.5469 172.7719,539.4375 175.6625,539.4375 C176.8813,539.4375 178.0375,539.1406 178.7875,538.5938 C179.3656,538.1875 179.6938,537.7344 179.6938,537.3438 C179.6938,536.8906 179.3031,536.5 178.8344,536.5 C178.6156,536.5 178.4125,536.5781 178.225,536.7656 C177.7719,537.25 177.7719,537.25 177.5844,537.3438 C177.1625,537.6094 176.475,537.7344 175.7094,537.7344 C173.6625,537.7344 172.3656,536.6406 172.3656,534.9375 L172.3656,533.8438 C172.3656,532.0625 173.6156,530.75 175.35,530.75 C175.9281,530.75 176.5375,530.9063 177.0063,531.1563 C177.4906,531.4375 177.6625,531.6563 177.7563,532.0625 C177.8188,532.4688 177.85,532.5938 177.9906,532.7188 C178.1313,532.8594 178.3656,532.9688 178.5844,532.9688 C178.85,532.9688 179.1156,532.8281 179.2875,532.6094 C179.3969,532.4531 179.4281,532.2656 179.4281,531.8438 L179.4281,530.4219 C179.4281,529.9844 179.4125,529.8594 179.3188,529.7031 C179.1625,529.4375 178.8813,529.2969 178.5844,529.2969 C178.2875,529.2969 178.0844,529.3906 177.8656,529.7031 L177.6938,529.625 Z " fill="#000000"/><text fill="#000000" font-family="sans-serif" font-size="12" lengthAdjust="spacing" textLength="50" x="193.65" y="538.1074">MetArea</text><line style="stroke:#A80036;stroke-width:1.5;" x1="142" x2="265" y1="549.9531" y2="549.9531"/><text fill="#000000" font-family="sans-serif" font-size="11" lengthAdjust="spacing" textLength="113" x="147" y="564.1636">metAreaNo: integer</text><line style="stroke:#A80036;stroke-width:1.5;" x1="142" x2="265" y1="570.7578" y2="570.7578"/><!--MD5=[9affa659e72119d3471adf0766b1bab5]
class NavArea--><rect codeLine="54" fill="#FEFECE" filter="url(#fxt1a79n30fhb)" height="60.8047" id="NavArea" style="stroke:#A80036;stroke-width:1.5;" width="123" x="615" y="517.9531"/><ellipse cx="648.45" cy="533.9531" fill="#ADD1B2" rx="11" ry="11" style="stroke:#A80036;stroke-width:1.0;"/><path d="M650.7938,529.625 C649.8563,529.1875 649.2625,529.0469 648.3875,529.0469 C645.7625,529.0469 643.7625,531.125 643.7625,533.8438 L643.7625,534.9688 C643.7625,537.5469 645.8719,539.4375 648.7625,539.4375 C649.9813,539.4375 651.1375,539.1406 651.8875,538.5938 C652.4656,538.1875 652.7938,537.7344 652.7938,537.3438 C652.7938,536.8906 652.4031,536.5 651.9344,536.5 C651.7156,536.5 651.5125,536.5781 651.325,536.7656 C650.8719,537.25 650.8719,537.25 650.6844,537.3438 C650.2625,537.6094 649.575,537.7344 648.8094,537.7344 C646.7625,537.7344 645.4656,536.6406 645.4656,534.9375 L645.4656,533.8438 C645.4656,532.0625 646.7156,530.75 648.45,530.75 C649.0281,530.75 649.6375,530.9063 650.1063,531.1563 C650.5906,531.4375 650.7625,531.6563 650.8563,532.0625 C650.9188,532.4688 650.95,532.5938 651.0906,532.7188 C651.2313,532.8594 651.4656,532.9688 651.6844,532.9688 C651.95,532.9688 652.2156,532.8281 652.3875,532.6094 C652.4969,532.4531 652.5281,532.2656 652.5281,531.8438 L652.5281,530.4219 C652.5281,529.9844 652.5125,529.8594 652.4188,529.7031 C652.2625,529.4375 651.9813,529.2969 651.6844,529.2969 C651.3875,529.2969 651.1844,529.3906 650.9656,529.7031 L650.7938,529.625 Z " fill="#000000"/><text fill="#000000" font-family="sans-serif" font-size="12" lengthAdjust="spacing" textLength="50" x="666.55" y="538.1074">NavArea</text><line style="stroke:#A80036;stroke-width:1.5;" x1="616" x2="737" y1="549.9531" y2="549.9531"/><text fill="#000000" font-family="sans-serif" font-size="11" lengthAdjust="spacing" textLength="111" x="621" y="564.1636">navAreaNo: integer</text><line style="stroke:#A80036;stroke-width:1.5;" x1="616" x2="737" y1="570.7578" y2="570.7578"/><!--MD5=[3465795d537a068d04ef95ff9f5d3463]
class CoastalWarningArea--><rect codeLine="57" fill="#FEFECE" filter="url(#fxt1a79n30fhb)" height="60.8047" id="CoastalWarningArea" style="stroke:#A80036;stroke-width:1.5;" width="153" x="427" y="517.9531"/><ellipse cx="442" cy="533.9531" fill="#ADD1B2" rx="11" ry="11" style="stroke:#A80036;stroke-width:1.0;"/><path d="M444.3438,529.625 C443.4063,529.1875 442.8125,529.0469 441.9375,529.0469 C439.3125,529.0469 437.3125,531.125 437.3125,533.8438 L437.3125,534.9688 C437.3125,537.5469 439.4219,539.4375 442.3125,539.4375 C443.5313,539.4375 444.6875,539.1406 445.4375,538.5938 C446.0156,538.1875 446.3438,537.7344 446.3438,537.3438 C446.3438,536.8906 445.9531,536.5 445.4844,536.5 C445.2656,536.5 445.0625,536.5781 444.875,536.7656 C444.4219,537.25 444.4219,537.25 444.2344,537.3438 C443.8125,537.6094 443.125,537.7344 442.3594,537.7344 C440.3125,537.7344 439.0156,536.6406 439.0156,534.9375 L439.0156,533.8438 C439.0156,532.0625 440.2656,530.75 442,530.75 C442.5781,530.75 443.1875,530.9063 443.6563,531.1563 C444.1406,531.4375 444.3125,531.6563 444.4063,532.0625 C444.4688,532.4688 444.5,532.5938 444.6406,532.7188 C444.7813,532.8594 445.0156,532.9688 445.2344,532.9688 C445.5,532.9688 445.7656,532.8281 445.9375,532.6094 C446.0469,532.4531 446.0781,532.2656 446.0781,531.8438 L446.0781,530.4219 C446.0781,529.9844 446.0625,529.8594 445.9688,529.7031 C445.8125,529.4375 445.5313,529.2969 445.2344,529.2969 C444.9375,529.2969 444.7344,529.3906 444.5156,529.7031 L444.3438,529.625 Z " fill="#000000"/><text fill="#000000" font-family="sans-serif" font-size="12" lengthAdjust="spacing" textLength="121" x="456" y="538.1074">CoastalWarningArea</text><line style="stroke:#A80036;stroke-width:1.5;" x1="428" x2="579" y1="549.9531" y2="549.9531"/><text fill="#000000" font-family="sans-serif" font-size="11" lengthAdjust="spacing" textLength="62" x="433" y="564.1636">letter: char</text><line style="stroke:#A80036;stroke-width:1.5;" x1="428" x2="579" y1="570.7578" y2="570.7578"/><!--MD5=[a7f9118cae7621dd25d25149752faef0]
class Circle--><rect codeLine="60" fill="#FEFECE" filter="url(#fxt1a79n30fhb)" height="86.4141" id="Circle" style="stroke:#A80036;stroke-width:1.5;" width="117" x="203" y="741.4531"/><ellipse cx="240.95" cy="757.4531" fill="#ADD1B2" rx="11" ry="11" style="stroke:#A80036;stroke-width:1.0;"/><path d="M243.2938,753.125 C242.3563,752.6875 241.7625,752.5469 240.8875,752.5469 C238.2625,752.5469 236.2625,754.625 236.2625,757.3438 L236.2625,758.4688 C236.2625,761.0469 238.3719,762.9375 241.2625,762.9375 C242.4813,762.9375 243.6375,762.6406 244.3875,762.0938 C244.9656,761.6875 245.2938,761.2344 245.2938,760.8438 C245.2938,760.3906 244.9031,760 244.4344,760 C244.2156,760 244.0125,760.0781 243.825,760.2656 C243.3719,760.75 243.3719,760.75 243.1844,760.8438 C242.7625,761.1094 242.075,761.2344 241.3094,761.2344 C239.2625,761.2344 237.9656,760.1406 237.9656,758.4375 L237.9656,757.3438 C237.9656,755.5625 239.2156,754.25 240.95,754.25 C241.5281,754.25 242.1375,754.4063 242.6063,754.6563 C243.0906,754.9375 243.2625,755.1563 243.3563,755.5625 C243.4188,755.9688 243.45,756.0938 243.5906,756.2188 C243.7313,756.3594 243.9656,756.4688 244.1844,756.4688 C244.45,756.4688 244.7156,756.3281 244.8875,756.1094 C244.9969,755.9531 245.0281,755.7656 245.0281,755.3438 L245.0281,753.9219 C245.0281,753.4844 245.0125,753.3594 244.9188,753.2031 C244.7625,752.9375 244.4813,752.7969 244.1844,752.7969 C243.8875,752.7969 243.6844,752.8906 243.4656,753.2031 L243.2938,753.125 Z " fill="#000000"/><text fill="#000000" font-family="sans-serif" font-size="12" lengthAdjust="spacing" textLength="34" x="260.05" y="761.6074">Circle</text><line style="stroke:#A80036;stroke-width:1.5;" x1="204" x2="319" y1="773.4531" y2="773.4531"/><text fill="#000000" font-family="sans-serif" font-size="11" lengthAdjust="spacing" textLength="66" x="209" y="787.6636">lat: decimal</text><text fill="#000000" font-family="sans-serif" font-size="11" lengthAdjust="spacing" textLength="69" x="209" y="800.4683">lon: decimal</text><text fill="#000000" font-family="sans-serif" font-size="11" lengthAdjust="spacing" textLength="105" x="209" y="813.2729">radiusNm: decimal</text><line style="stroke:#A80036;stroke-width:1.5;" x1="204" x2="319" y1="819.8672" y2="819.8672"/><!--MD5=[b5313cd49da22b0744b541f414f8445e]
class Rectangle--><rect codeLine="65" fill="#FEFECE" filter="url(#fxt1a79n30fhb)" height="99.2188" id="Rectangle" style="stroke:#A80036;stroke-width:1.5;" width="150" x="355.5" y="734.9531"/><ellipse cx="397.05" cy="750.9531" fill="#ADD1B2" rx="11" ry="11" style="stroke:#A80036;stroke-width:1.0;"/><path d="M399.3938,746.625 C398.4563,746.1875 397.8625,746.0469 396.9875,746.0469 C394.3625,746.0469 392.3625,748.125 392.3625,750.8438 L392.3625,751.9688 C392.3625,754.5469 394.4719,756.4375 397.3625,756.4375 C398.5813,756.4375 399.7375,756.1406 400.4875,755.5938 C401.0656,755.1875 401.3938,754.7344 401.3938,754.3438 C401.3938,753.8906 401.0031,753.5 400.5344,753.5 C400.3156,753.5 400.1125,753.5781 399.925,753.7656 C399.4719,754.25 399.4719,754.25 399.2844,754.3438 C398.8625,754.6094 398.175,754.7344 397.4094,754.7344 C395.3625,754.7344 394.0656,753.6406 394.0656,751.9375 L394.0656,750.8438 C394.0656,749.0625 395.3156,747.75 397.05,747.75 C397.6281,747.75 398.2375,747.9063 398.7063,748.1563 C399.1906,748.4375 399.3625,748.6563 399.4563,749.0625 C399.5188,749.4688 399.55,749.5938 399.6906,749.7188 C399.8313,749.8594 400.0656,749.9688 400.2844,749.9688 C400.55,749.9688 400.8156,749.8281 400.9875,749.6094 C401.0969,749.4531 401.1281,749.2656 401.1281,748.8438 L401.1281,747.4219 C401.1281,746.9844 401.1125,746.8594 401.0188,746.7031 C400.8625,746.4375 400.5813,746.2969 400.2844,746.2969 C399.9875,746.2969 399.7844,746.3906 399.5656,746.7031 L399.3938,746.625 Z " fill="#000000"/><text fill="#000000" font-family="sans-serif" font-size="12" lengthAdjust="spacing" textLength="59" x="416.95" y="755.1074">Rectangle</text><line style="stroke:#A80036;stroke-width:1.5;" x1="356.5" x2="504.5" y1="766.9531" y2="766.9531"/><text fill="#000000" font-family="sans-serif" font-size="11" lengthAdjust="spacing" textLength="90" x="361.5" y="781.1636">minLat: decimal</text><text fill="#000000" font-family="sans-serif" font-size="11" lengthAdjust="spacing" textLength="91" x="361.5" y="793.9683">leftLon: decimal</text><text fill="#000000" font-family="sans-serif" font-size="11" lengthAdjust="spacing" textLength="138" x="361.5" y="806.7729">heightDegrees: decimal</text><text fill="#000000" font-family="sans-serif" font-size="11" lengthAdjust="spacing" textLength="132" x="361.5" y="819.5776">widthDegrees: decimal</text><line style="stroke:#A80036;stroke-width:1.5;" x1="356.5" x2="504.5" y1="826.1719" y2="826.1719"/><!--MD5=[0fdac03f5b0cf4737b65737ce60d2db0]
class Geometry--><rect codeLine="71" fill="#FEFECE" filter="url(#fxt1a79n30fhb)" height="48" id="Geometry" style="stroke:#A80036;stroke-width:1.5;" width="91" x="301" y="524.4531"/><ellipse cx="316" cy="540.4531" fill="#B4A7E5" rx="11" ry="11" style="stroke:#A80036;stroke-width:1.0;"/><path d="M316.9531,537.2344 L318.6719,537.2344 C319.0625,537.2344 319.25,537.2031 319.375,537.125 C319.6406,536.9688 319.7813,536.6875 319.7813,536.3906 C319.7813,536.125 319.6719,535.8594 319.4375,535.6875 C319.2656,535.5781 319.125,535.5469 318.6719,535.5469 L313.5313,535.5469 C313.0938,535.5469 312.9688,535.5625 312.8125,535.6563 C312.5625,535.8125 312.4063,536.1094 312.4063,536.3906 C312.4063,536.6719 312.5469,536.9219 312.7656,537.0938 C312.9219,537.2031 313.1094,537.2344 313.5313,537.2344 L315.25,537.2344 L315.25,543.75 L313.5313,543.75 C313.0938,543.75 312.9688,543.7656 312.8125,543.875 C312.5625,544.0313 312.4063,544.3125 312.4063,544.6094 C312.4063,544.8594 312.5469,545.125 312.7656,545.2813 C312.9219,545.4063 313.125,545.4531 313.5313,545.4531 L318.6719,545.4531 C319.4219,545.4531 319.7813,545.1719 319.7813,544.6094 C319.7813,544.3281 319.6719,544.0781 319.4375,543.9063 C319.2656,543.7813 319.125,543.75 318.6719,543.75 L316.9531,543.75 L316.9531,537.2344 Z " fill="#000000"/><text fill="#000000" font-family="sans-serif" font-size="12" font-style="italic" lengthAdjust="spacing" textLength="59" x="330" y="544.6074">Geometry</text><line style="stroke:#A80036;stroke-width:1.5;" x1="302" x2="391" y1="556.4531" y2="556.4531"/><line style="stroke:#A80036;stroke-width:1.5;" x1="302" x2="391" y1="564.4531" y2="564.4531"/><!--MD5=[c4ad16297ce8289e7db10494c550b400]
class All--><rect codeLine="72" fill="#FEFECE" filter="url(#fxt1a79n30fhb)" height="53.9375" id="All" style="stroke:#A80036;stroke-width:1.5;" width="99" x="7" y="521.4531"/><ellipse cx="22" cy="540.4219" fill="#ADD1B2" rx="11" ry="11" style="stroke:#A80036;stroke-width:1.0;"/><path d="M24.3438,536.0938 C23.4063,535.6563 22.8125,535.5156 21.9375,535.5156 C19.3125,535.5156 17.3125,537.5938 17.3125,540.3125 L17.3125,541.4375 C17.3125,544.0156 19.4219,545.9063 22.3125,545.9063 C23.5313,545.9063 24.6875,545.6094 25.4375,545.0625 C26.0156,544.6563 26.3438,544.2031 26.3438,543.8125 C26.3438,543.3594 25.9531,542.9688 25.4844,542.9688 C25.2656,542.9688 25.0625,543.0469 24.875,543.2344 C24.4219,543.7188 24.4219,543.7188 24.2344,543.8125 C23.8125,544.0781 23.125,544.2031 22.3594,544.2031 C20.3125,544.2031 19.0156,543.1094 19.0156,541.4063 L19.0156,540.3125 C19.0156,538.5313 20.2656,537.2188 22,537.2188 C22.5781,537.2188 23.1875,537.375 23.6563,537.625 C24.1406,537.9063 24.3125,538.125 24.4063,538.5313 C24.4688,538.9375 24.5,539.0625 24.6406,539.1875 C24.7813,539.3281 25.0156,539.4375 25.2344,539.4375 C25.5,539.4375 25.7656,539.2969 25.9375,539.0781 C26.0469,538.9219 26.0781,538.7344 26.0781,538.3125 L26.0781,536.8906 C26.0781,536.4531 26.0625,536.3281 25.9688,536.1719 C25.8125,535.9063 25.5313,535.7656 25.2344,535.7656 C24.9375,535.7656 24.7344,535.8594 24.5156,536.1719 L24.3438,536.0938 Z " fill="#000000"/><text fill="#000000" font-family="sans-serif" font-size="12" font-style="italic" lengthAdjust="spacing" textLength="71" x="34" y="537.5918">«Singleton»</text><text fill="#000000" font-family="sans-serif" font-size="12" lengthAdjust="spacing" textLength="14" x="62.5" y="551.5605">All</text><line style="stroke:#A80036;stroke-width:1.5;" x1="8" x2="105" y1="559.3906" y2="559.3906"/><line style="stroke:#A80036;stroke-width:1.5;" x1="8" x2="105" y1="567.3906" y2="567.3906"/><!--MD5=[4933d6fce662921e221b304845c23bdf]
class NavigationalWarningArea--><rect codeLine="73" fill="#FEFECE" filter="url(#fxt1a79n30fhb)" height="48" id="NavigationalWarningArea" style="stroke:#A80036;stroke-width:1.5;" width="184" x="584.5" y="310.9531"/><ellipse cx="599.5" cy="326.9531" fill="#B4A7E5" rx="11" ry="11" style="stroke:#A80036;stroke-width:1.0;"/><path d="M600.4531,323.7344 L602.1719,323.7344 C602.5625,323.7344 602.75,323.7031 602.875,323.625 C603.1406,323.4688 603.2813,323.1875 603.2813,322.8906 C603.2813,322.625 603.1719,322.3594 602.9375,322.1875 C602.7656,322.0781 602.625,322.0469 602.1719,322.0469 L597.0313,322.0469 C596.5938,322.0469 596.4688,322.0625 596.3125,322.1563 C596.0625,322.3125 595.9063,322.6094 595.9063,322.8906 C595.9063,323.1719 596.0469,323.4219 596.2656,323.5938 C596.4219,323.7031 596.6094,323.7344 597.0313,323.7344 L598.75,323.7344 L598.75,330.25 L597.0313,330.25 C596.5938,330.25 596.4688,330.2656 596.3125,330.375 C596.0625,330.5313 595.9063,330.8125 595.9063,331.1094 C595.9063,331.3594 596.0469,331.625 596.2656,331.7813 C596.4219,331.9063 596.625,331.9531 597.0313,331.9531 L602.1719,331.9531 C602.9219,331.9531 603.2813,331.6719 603.2813,331.1094 C603.2813,330.8281 603.1719,330.5781 602.9375,330.4063 C602.7656,330.2813 602.625,330.25 602.1719,330.25 L600.4531,330.25 L600.4531,323.7344 Z " fill="#000000"/><text fill="#000000" font-family="sans-serif" font-size="12" font-style="italic" lengthAdjust="spacing" textLength="152" x="613.5" y="331.1074">NavigationalWarningArea</text><line style="stroke:#A80036;stroke-width:1.5;" x1="585.5" x2="767.5" y1="342.9531" y2="342.9531"/><line style="stroke:#A80036;stroke-width:1.5;" x1="585.5" x2="767.5" y1="350.9531" y2="350.9531"/><!--MD5=[86a2e65f32dc21e863b5d95996722836]
class MeteorologicalArea--><rect codeLine="74" fill="#FEFECE" filter="url(#fxt1a79n30fhb)" height="48" id="MeteorologicalArea" style="stroke:#A80036;stroke-width:1.5;" width="145" x="274" y="310.9531"/><ellipse cx="289" cy="326.9531" fill="#B4A7E5" rx="11" ry="11" style="stroke:#A80036;stroke-width:1.0;"/><path d="M289.9531,323.7344 L291.6719,323.7344 C292.0625,323.7344 292.25,323.7031 292.375,323.625 C292.6406,323.4688 292.7813,323.1875 292.7813,322.8906 C292.7813,322.625 292.6719,322.3594 292.4375,322.1875 C292.2656,322.0781 292.125,322.0469 291.6719,322.0469 L286.5313,322.0469 C286.0938,322.0469 285.9688,322.0625 285.8125,322.1563 C285.5625,322.3125 285.4063,322.6094 285.4063,322.8906 C285.4063,323.1719 285.5469,323.4219 285.7656,323.5938 C285.9219,323.7031 286.1094,323.7344 286.5313,323.7344 L288.25,323.7344 L288.25,330.25 L286.5313,330.25 C286.0938,330.25 285.9688,330.2656 285.8125,330.375 C285.5625,330.5313 285.4063,330.8125 285.4063,331.1094 C285.4063,331.3594 285.5469,331.625 285.7656,331.7813 C285.9219,331.9063 286.125,331.9531 286.5313,331.9531 L291.6719,331.9531 C292.4219,331.9531 292.7813,331.6719 292.7813,331.1094 C292.7813,330.8281 292.6719,330.5781 292.4375,330.4063 C292.2656,330.2813 292.125,330.25 291.6719,330.25 L289.9531,330.25 L289.9531,323.7344 Z " fill="#000000"/><text fill="#000000" font-family="sans-serif" font-size="12" font-style="italic" lengthAdjust="spacing" textLength="113" x="303" y="331.1074">MeteorologicalArea</text><line style="stroke:#A80036;stroke-width:1.5;" x1="275" x2="418" y1="342.9531" y2="342.9531"/><line style="stroke:#A80036;stroke-width:1.5;" x1="275" x2="418" y1="350.9531" y2="350.9531"/><!--MD5=[e615d4eea6739a92124a957e179f4b2f]
class SearchAndRescueArea--><rect codeLine="75" fill="#FEFECE" filter="url(#fxt1a79n30fhb)" height="48" id="SearchAndRescueArea" style="stroke:#A80036;stroke-width:1.5;" width="168" x="70.5" y="310.9531"/><ellipse cx="85.5" cy="326.9531" fill="#B4A7E5" rx="11" ry="11" style="stroke:#A80036;stroke-width:1.0;"/><path d="M86.4531,323.7344 L88.1719,323.7344 C88.5625,323.7344 88.75,323.7031 88.875,323.625 C89.1406,323.4688 89.2813,323.1875 89.2813,322.8906 C89.2813,322.625 89.1719,322.3594 88.9375,322.1875 C88.7656,322.0781 88.625,322.0469 88.1719,322.0469 L83.0313,322.0469 C82.5938,322.0469 82.4688,322.0625 82.3125,322.1563 C82.0625,322.3125 81.9063,322.6094 81.9063,322.8906 C81.9063,323.1719 82.0469,323.4219 82.2656,323.5938 C82.4219,323.7031 82.6094,323.7344 83.0313,323.7344 L84.75,323.7344 L84.75,330.25 L83.0313,330.25 C82.5938,330.25 82.4688,330.2656 82.3125,330.375 C82.0625,330.5313 81.9063,330.8125 81.9063,331.1094 C81.9063,331.3594 82.0469,331.625 82.2656,331.7813 C82.4219,331.9063 82.625,331.9531 83.0313,331.9531 L88.1719,331.9531 C88.9219,331.9531 89.2813,331.6719 89.2813,331.1094 C89.2813,330.8281 89.1719,330.5781 88.9375,330.4063 C88.7656,330.2813 88.625,330.25 88.1719,330.25 L86.4531,330.25 L86.4531,323.7344 Z " fill="#000000"/><text fill="#000000" font-family="sans-serif" font-size="12" font-style="italic" lengthAdjust="spacing" textLength="136" x="99.5" y="331.1074">SearchAndRescueArea</text><line style="stroke:#A80036;stroke-width:1.5;" x1="71.5" x2="237.5" y1="342.9531" y2="342.9531"/><line style="stroke:#A80036;stroke-width:1.5;" x1="71.5" x2="237.5" y1="350.9531" y2="350.9531"/><!--MD5=[055ddbfea4b1833aebdfb6fe95c0dcc8]
class PiracyArea--><rect codeLine="76" fill="#FEFECE" filter="url(#fxt1a79n30fhb)" height="48" id="PiracyArea" style="stroke:#A80036;stroke-width:1.5;" width="95" x="454" y="310.9531"/><ellipse cx="469" cy="326.9531" fill="#B4A7E5" rx="11" ry="11" style="stroke:#A80036;stroke-width:1.0;"/><path d="M469.9531,323.7344 L471.6719,323.7344 C472.0625,323.7344 472.25,323.7031 472.375,323.625 C472.6406,323.4688 472.7813,323.1875 472.7813,322.8906 C472.7813,322.625 472.6719,322.3594 472.4375,322.1875 C472.2656,322.0781 472.125,322.0469 471.6719,322.0469 L466.5313,322.0469 C466.0938,322.0469 465.9688,322.0625 465.8125,322.1563 C465.5625,322.3125 465.4063,322.6094 465.4063,322.8906 C465.4063,323.1719 465.5469,323.4219 465.7656,323.5938 C465.9219,323.7031 466.1094,323.7344 466.5313,323.7344 L468.25,323.7344 L468.25,330.25 L466.5313,330.25 C466.0938,330.25 465.9688,330.2656 465.8125,330.375 C465.5625,330.5313 465.4063,330.8125 465.4063,331.1094 C465.4063,331.3594 465.5469,331.625 465.7656,331.7813 C465.9219,331.9063 466.125,331.9531 466.5313,331.9531 L471.6719,331.9531 C472.4219,331.9531 472.7813,331.6719 472.7813,331.1094 C472.7813,330.8281 472.6719,330.5781 472.4375,330.4063 C472.2656,330.2813 472.125,330.25 471.6719,330.25 L469.9531,330.25 L469.9531,323.7344 Z " fill="#000000"/><text fill="#000000" font-family="sans-serif" font-size="12" font-style="italic" lengthAdjust="spacing" textLength="63" x="483" y="331.1074">PiracyArea</text><line style="stroke:#A80036;stroke-width:1.5;" x1="455" x2="548" y1="342.9531" y2="342.9531"/><line style="stroke:#A80036;stroke-width:1.5;" x1="455" x2="548" y1="350.9531" y2="350.9531"/><!--MD5=[0e8ddb359dd6dc1d0c9218ca7624b7d1]
link Broadcast to Count--><path codeLine="44" d="M726.189,56.6771 C792.244,63.6891 914.904,83.2481 1004.5,135.9531 C1018.2,144.0151 1030.57,156.7431 1039.8,167.9251 " fill="none" id="Broadcast-Count" style="stroke:#A80036;stroke-width:1.0;"/><text fill="#000000" font-family="sans-serif" font-size="13" lengthAdjust="spacing" textLength="8" x="1026.4956" y="156.93">1</text><!--MD5=[0e20b611874b1ec95f57461c7ea64492]
reverse link Count to Once--><path codeLine="45" d="M1021.07,231.0881 C998.504,255.3761 969.858,286.2091 949.838,307.7571 " fill="none" id="Count-backto-Once" style="stroke:#A80036;stroke-width:1.0;"/><polygon fill="none" points="1016.13,226.1241,1034.87,216.2361,1026.38,235.6531,1016.13,226.1241" style="stroke:#A80036;stroke-width:1.0;"/><!--MD5=[1fece98f4e35a2465fb66fdf809b1f53]
reverse link Count to Twice--><path codeLine="46" d="M1088.38,232.0461 C1108.98,257.2931 1135.08,289.2951 1152.48,310.6351 " fill="none" id="Count-backto-Twice" style="stroke:#A80036;stroke-width:1.0;"/><polygon fill="none" points="1082.71,236.1591,1075.49,216.2361,1093.56,227.3111,1082.71,236.1591" style="stroke:#A80036;stroke-width:1.0;"/><!--MD5=[be6a17015dfdff15e160031d262ff065]
reverse link Count to Repeating--><path codeLine="47" d="M1056.5,236.4591 C1056.5,260.9331 1056.5,290.5201 1056.5,310.6351 " fill="none" id="Count-backto-Repeating" style="stroke:#A80036;stroke-width:1.0;"/><polygon fill="none" points="1049.5,236.2361,1056.5,216.2361,1063.5,236.2361,1049.5,236.2361" style="stroke:#A80036;stroke-width:1.0;"/><!--MD5=[392970163f86d4837750809b65b1f32f]
link Twice to IntervalHours--><path codeLine="48" d="M1165.18,358.9901 C1160.81,374.9421 1154.6,397.5711 1148,421.6391 " fill="none" id="Twice-IntervalHours" style="stroke:#A80036;stroke-width:1.0;"/><text fill="#000000" font-family="sans-serif" font-size="13" lengthAdjust="spacing" textLength="7" x="1155.6636" y="379.1554">*</text><text fill="#000000" font-family="sans-serif" font-size="13" lengthAdjust="spacing" textLength="8" x="1141.7633" y="410.9484">1</text><!--MD5=[8cb6c3c5ff2b929e1aa3488ebf7f2ee4]
link Repeating to IntervalHours--><path codeLine="49" d="M1062.71,358.9901 C1067.01,374.9421 1073.11,397.5711 1079.59,421.6391 " fill="none" id="Repeating-IntervalHours" style="stroke:#A80036;stroke-width:1.0;"/><text fill="#000000" font-family="sans-serif" font-size="13" lengthAdjust="spacing" textLength="7" x="1056.4044" y="379.1554">*</text><text fill="#000000" font-family="sans-serif" font-size="13" lengthAdjust="spacing" textLength="8" x="1069.3983" y="410.9484">1</text><!--MD5=[f39eadd4855fdcbb82e8bd0cd4f0eba6]
reverse link Geometry to Circle--><path codeLine="78" d="M331.211,591.5441 C315.807,633.9481 292.175,699.0071 276.776,741.3991 " fill="none" id="Geometry-backto-Circle" style="stroke:#A80036;stroke-width:1.0;"/><polygon fill="none" points="324.631,589.1541,338.039,572.7451,337.79,593.9331,324.631,589.1541" style="stroke:#A80036;stroke-width:1.0;"/><!--MD5=[d84596a069ebff60e908a9a07554cf04]
reverse link Geometry to Rectangle--><path codeLine="79" d="M361.677,591.7311 C376.118,631.9591 397.833,692.4531 412.998,734.6972 " fill="none" id="Geometry-backto-Rectangle" style="stroke:#A80036;stroke-width:1.0;"/><polygon fill="none" points="355.03,593.9341,354.861,572.7451,368.207,589.2041,355.03,593.9341" style="stroke:#A80036;stroke-width:1.0;"/><!--MD5=[675a184e5b1d58735f1c09f2cd5abf5c]
reverse link NavigationalWarningArea to NavArea--><path codeLine="81" d="M676.5,379.0571 C676.5,420.3411 676.5,481.5421 676.5,517.6761 " fill="none" id="NavigationalWarningArea-backto-NavArea" style="stroke:#A80036;stroke-width:1.0;"/><polygon fill="none" points="669.5,378.9901,676.5,358.9901,683.5,378.9901,669.5,378.9901" style="stroke:#A80036;stroke-width:1.0;"/><!--MD5=[0ce4321cd7a4723540aaa956992eaedc]
reverse link NavigationalWarningArea to CoastalWarningArea--><path codeLine="82" d="M640.086,373.9411 C626.397,388.6461 610.91,405.8011 597.5,421.9531 C571.068,453.7881 542.885,492.0631 524.349,517.9071 " fill="none" id="NavigationalWarningArea-backto-CoastalWarningArea" style="stroke:#A80036;stroke-width:1.0;"/><polygon fill="none" points="635.245,368.8721,654.052,359.1101,645.437,378.4691,635.245,368.8721" style="stroke:#A80036;stroke-width:1.0;"/><!--MD5=[593f546ce6cae1487c1fbc5a0f9d72f5]
reverse link NavigationalWarningArea to Geometry--><path codeLine="83" d="M564.87,362.6331 C502.959,379.1971 433.701,401.2111 409.5,421.9531 C377.846,449.0821 360.37,495.9641 352.255,524.1061 " fill="none" id="NavigationalWarningArea-backto-Geometry" style="stroke:#A80036;stroke-width:1.0;"/><polygon fill="none" points="563.096,355.8621,584.217,357.5661,566.643,369.4051,563.096,355.8621" style="stroke:#A80036;stroke-width:1.0;"/><!--MD5=[0565048e001d0c7cf4b748a21429e91d]
reverse link MeteorologicalArea to Geometry--><path codeLine="85" d="M346.5,379.0891 C346.5,423.0781 346.5,489.6581 346.5,524.4451 " fill="none" id="MeteorologicalArea-backto-Geometry" style="stroke:#A80036;stroke-width:1.0;"/><polygon fill="none" points="339.5,378.9901,346.5,358.9901,353.5,378.9901,339.5,378.9901" style="stroke:#A80036;stroke-width:1.0;"/><!--MD5=[21ee1635963be7fb7862cac567bd5642]
reverse link MeteorologicalArea to CoastalWarningArea--><path codeLine="86" d="M375.579,375.1261 C406.192,416.3661 453.708,480.3761 481.396,517.6761 " fill="none" id="MeteorologicalArea-backto-CoastalWarningArea" style="stroke:#A80036;stroke-width:1.0;"/><polygon fill="none" points="369.901,379.2211,363.601,358.9901,381.142,370.8771,369.901,379.2211" style="stroke:#A80036;stroke-width:1.0;"/><!--MD5=[2c1863a9b2b3f470c967154d26f0654e]
reverse link MeteorologicalArea to MetArea--><path codeLine="87" d="M316.772,375.4081 C306.074,389.8981 294.048,406.5311 283.5,421.9531 C261.401,454.2641 237.44,492.2851 221.561,517.9411 " fill="none" id="MeteorologicalArea-backto-MetArea" style="stroke:#A80036;stroke-width:1.0;"/><polygon fill="none" points="311.415,370.8821,328.974,359.0211,322.644,379.2431,311.415,370.8821" style="stroke:#A80036;stroke-width:1.0;"/><!--MD5=[2ae774435c05f45cdce83b2c9240f1e9]
reverse link SearchAndRescueArea to Geometry--><path codeLine="89" d="M218.183,369.2621 C240.814,383.3141 265.191,401.2461 283.5,421.9531 C310.63,452.6361 329.284,497.0961 338.902,524.0371 " fill="none" id="SearchAndRescueArea-backto-Geometry" style="stroke:#A80036;stroke-width:1.0;"/><polygon fill="none" points="214.602,375.2771,200.953,359.0691,221.73,363.2271,214.602,375.2771" style="stroke:#A80036;stroke-width:1.0;"/><!--MD5=[422153560474385e40bb4776b2e86df8]
reverse link SearchAndRescueArea to All--><path codeLine="90" d="M135.323,377.3411 C115.574,419.9621 85.3945,485.0941 68.6897,521.1461 " fill="none" id="SearchAndRescueArea-backto-All" style="stroke:#A80036;stroke-width:1.0;"/><polygon fill="none" points="129.066,374.1931,143.826,358.9901,141.769,380.0791,129.066,374.1931" style="stroke:#A80036;stroke-width:1.0;"/><!--MD5=[0aefb5a2eb7e0fbdde90d233e1f7208a]
reverse link PiracyArea to Geometry--><path codeLine="92" d="M456.178,372.4861 C440.175,386.8141 422.857,404.0941 409.5,421.9531 C385.115,454.5561 365.735,498.0291 355.207,524.3161 " fill="none" id="PiracyArea-backto-Geometry" style="stroke:#A80036;stroke-width:1.0;"/><polygon fill="none" points="451.83,366.9931,471.546,359.2311,460.973,377.5941,451.83,366.9931" style="stroke:#A80036;stroke-width:1.0;"/><!--MD5=[728e772a94ab6d5e712abe62516d7079]
reverse link PiracyArea to CoastalWarningArea--><path codeLine="93" d="M501.908,379.0571 C502.298,420.3411 502.877,481.5421 503.218,517.6761 " fill="none" id="PiracyArea-backto-CoastalWarningArea" style="stroke:#A80036;stroke-width:1.0;"/><polygon fill="none" points="494.907,379.0551,501.718,358.9901,508.907,378.9231,494.907,379.0551" style="stroke:#A80036;stroke-width:1.0;"/><!--MD5=[698e6b055fcce6ce8179d73af3e6a297]
reverse link PiracyArea to NavArea--><path codeLine="94" d="M547.054,372.1731 C563.896,386.7031 582.515,404.2011 597.5,421.9531 C622.991,452.1521 646.316,491.2571 660.907,517.7301 " fill="none" id="PiracyArea-backto-NavArea" style="stroke:#A80036;stroke-width:1.0;"/><polygon fill="none" points="542.457,377.4531,531.628,359.2401,551.451,366.7251,542.457,377.4531" style="stroke:#A80036;stroke-width:1.0;"/><!--MD5=[96c1a08896d4d12a89253ac7bae99037]
reverse link Broadcast to SARBroadcast--><path codeLine="96" d="M612.818,59.3011 C529.513,68.8081 383.672,90.6991 266.5,135.9531 C245.669,143.9981 224.152,156.5861 207.17,167.6901 " fill="none" id="Broadcast-backto-SARBroadcast" style="stroke:#A80036;stroke-width:1.0;"/><polygon fill="none" points="612.201,52.3261,632.842,57.1181,613.719,66.2441,612.201,52.3261" style="stroke:#A80036;stroke-width:1.0;"/><!--MD5=[6c02c0956757dbf633185e7dc2815c7f]
reverse link Broadcast to MetBroadcast--><path codeLine="97" d="M612.896,67.5531 C558.284,81.0141 479.927,103.7961 416.5,135.9531 C399.506,144.5691 382.244,156.9271 368.571,167.7481 " fill="none" id="Broadcast-backto-MetBroadcast" style="stroke:#A80036;stroke-width:1.0;"/><polygon fill="none" points="611.505,60.6891,632.584,62.8511,614.757,74.3061,611.505,60.6891" style="stroke:#A80036;stroke-width:1.0;"/><!--MD5=[f1df5e9071dd3422e1c93b9689c96ec7]
reverse link Broadcast to PiracyBroadcast--><path codeLine="98" d="M633.133,88.3051 C600.366,113.2871 557.38,146.0611 528.894,167.7801 " fill="none" id="Broadcast-backto-PiracyBroadcast" style="stroke:#A80036;stroke-width:1.0;"/><polygon fill="none" points="629.056,82.6111,649.205,76.0511,637.544,93.7441,629.056,82.6111" style="stroke:#A80036;stroke-width:1.0;"/><!--MD5=[7bd39685d352537638f5264ab11cdcce]
reverse link Broadcast to NavWarningBroadcast--><path codeLine="99" d="M679.5,96.0871 C679.5,119.7891 679.5,148.2531 679.5,167.7801 " fill="none" id="Broadcast-backto-NavWarningBroadcast" style="stroke:#A80036;stroke-width:1.0;"/><polygon fill="none" points="672.5,96.0511,679.5,76.0511,686.5,96.0511,672.5,96.0511" style="stroke:#A80036;stroke-width:1.0;"/><!--MD5=[f6058b357c2ac0387d5e949fbe66891b]
link SARBroadcast to SearchAndRescueArea--><path codeLine="101" d="M171.197,216.2361 C167.492,242.3611 161.515,284.4961 157.807,310.6351 " fill="none" id="SARBroadcast-SearchAndRescueArea" style="stroke:#A80036;stroke-width:1.0;"/><text fill="#000000" font-family="sans-serif" font-size="13" lengthAdjust="spacing" textLength="8" x="161.4169" y="236.0663">1</text><text fill="#000000" font-family="sans-serif" font-size="13" lengthAdjust="spacing" textLength="8" x="149.6381" y="299.9626">1</text><!--MD5=[c601aa00e3e5ffcefa28cd25e3f99f59]
link MetBroadcast to MeteorologicalArea--><path codeLine="102" d="M342.326,216.2361 C343.252,242.3611 344.746,284.4961 345.673,310.6351 " fill="none" id="MetBroadcast-MeteorologicalArea" style="stroke:#A80036;stroke-width:1.0;"/><text fill="#000000" font-family="sans-serif" font-size="13" lengthAdjust="spacing" textLength="8" x="333.5523" y="236.0663">1</text><text fill="#000000" font-family="sans-serif" font-size="13" lengthAdjust="spacing" textLength="8" x="336.4964" y="299.9626">1</text><!--MD5=[95c60f3220a1573d223bb1e2c775fb02]
link NavWarningBroadcast to NavigationalWarningArea--><path codeLine="103" d="M679.005,216.2361 C678.449,242.3611 677.552,284.4961 676.996,310.6351 " fill="none" id="NavWarningBroadcast-NavigationalWarningArea" style="stroke:#A80036;stroke-width:1.0;"/><text fill="#000000" font-family="sans-serif" font-size="13" lengthAdjust="spacing" textLength="8" x="669.9093" y="236.0663">1</text><text fill="#000000" font-family="sans-serif" font-size="13" lengthAdjust="spacing" textLength="8" x="668.1419" y="299.9626">1</text><!--MD5=[efab2a9bc19153a1db00c8519ef3b69c]
link PiracyBroadcast to PiracyArea--><path codeLine="104" d="M498.995,216.2361 C499.551,242.3611 500.448,284.4961 501.004,310.6351 " fill="none" id="PiracyBroadcast-PiracyArea" style="stroke:#A80036;stroke-width:1.0;"/><text fill="#000000" font-family="sans-serif" font-size="13" lengthAdjust="spacing" textLength="8" x="490.1407" y="236.0663">1</text><text fill="#000000" font-family="sans-serif" font-size="13" lengthAdjust="spacing" textLength="8" x="491.9081" y="299.9626">1</text><!--MD5=[2f1074c9e04f2b54e1d72c1773aea458]
link Broadcast to Priority--><path codeLine="106" d="M708.663,76.2741 C728.691,92.5621 755.676,115.0471 778.5,135.9531 C784.574,141.5171 790.877,147.5521 796.953,153.5181 " fill="none" id="Broadcast-Priority" style="stroke:#A80036;stroke-width:1.0;"/><text fill="#000000" font-family="sans-serif" font-size="13" lengthAdjust="spacing" textLength="7" x="707.9184" y="96.1136">*</text><text fill="#000000" font-family="sans-serif" font-size="13" lengthAdjust="spacing" textLength="8" x="780.9703" y="141.5139">1</text><!--MD5=[92c65f22e65b7c95b9ee91ed06746ac2]
link Broadcast to Status--><path codeLine="107" d="M726.049,66.0571 C769.818,79.6091 836.109,103.3741 887.5,135.9531 C893.532,139.7771 899.502,144.2601 905.196,148.9881 " fill="none" id="Broadcast-Status" style="stroke:#A80036;stroke-width:1.0;"/><text fill="#000000" font-family="sans-serif" font-size="13" lengthAdjust="spacing" textLength="7" x="734.0256" y="64.1871">*</text><text fill="#000000" font-family="sans-serif" font-size="13" lengthAdjust="spacing" textLength="8" x="889.4094" y="137.3907">1</text><!--MD5=[d62aeb9b289e18d8fc20c1a5566ca4aa]
@startuml
title Broadcasts - Class Diagram

class Broadcast 
class SARBroadcast
class MetBroadcast
class NavWarningBroadcast
class PiracyBroadcast
enum Priority {
  SAFETY
  URGENCY
  DISTRESS
}
enum Status {
  CREATED
  SCHEDULED
  ACTIVE
  FINISHED
  CANCELLED
}
enum IntervalHours {
  1
  2
  3
  4
  5
  6
  12
  18
  24
  30
  36
  48
  60
  72
  96
  120
}

interface Count 
class Once <<Singleton>> 
class Twice
class Repeating

Broadcast - - "1" Count
Count <|- - Once
Count <|- - Twice
Count <|- - Repeating
Twice "*" - - "1" IntervalHours
Repeating "*" - - "1" IntervalHours

class MetArea {
  metAreaNo: integer
}
class NavArea {
  navAreaNo: integer
}
class CoastalWarningArea {
  letter: char
}
class Circle {
  lat: decimal
  lon: decimal
  radiusNm: decimal
}
class Rectangle {
  minLat: decimal
  leftLon: decimal
  heightDegrees: decimal
  widthDegrees: decimal
}
interface Geometry
class All <<Singleton>>
interface NavigationalWarningArea
interface MeteorologicalArea
interface SearchAndRescueArea
interface PiracyArea

Geometry <|- - Circle
Geometry <|- - Rectangle

NavigationalWarningArea <|- - NavArea
NavigationalWarningArea <|- - CoastalWarningArea
NavigationalWarningArea <|- - Geometry

MeteorologicalArea <|- - Geometry
MeteorologicalArea <|- - CoastalWarningArea
MeteorologicalArea <|- - MetArea

SearchAndRescueArea <|- - Geometry
SearchAndRescueArea <|- - All

PiracyArea <|- - Geometry
PiracyArea <|- - CoastalWarningArea
PiracyArea <|- - NavArea

Broadcast <|- - SARBroadcast
Broadcast <|- - MetBroadcast
Broadcast <|- - PiracyBroadcast
Broadcast <|- - NavWarningBroadcast

SARBroadcast "1" - - "1" SearchAndRescueArea
MetBroadcast "1" - - "1" MeteorologicalArea
NavWarningBroadcast "1" - - "1" NavigationalWarningArea
PiracyBroadcast "1" - - "1" PiracyArea

Broadcast "*" - - "1" Priority
Broadcast "*" - - "1" Status
@enduml

PlantUML version 1.2021.15(Tue Nov 30 16:45:34 UTC 2021)
(GPL source distribution)
Java Runtime: Java(TM) SE Runtime Environment
JVM: Java HotSpot(TM) 64-Bit Server VM
Default Encoding: UTF-8
Language: en
Country: US
--></g></svg>