<?xml version="1.0" encoding="UTF-8" standalone="no"?><svg xmlns="http://www.w3.org/2000/svg" xmlns:xlink="http://www.w3.org/1999/xlink" contentScriptType="application/ecmascript" contentStyleType="text/css" height="919px" preserveAspectRatio="none" style="width:929px;height:919px;background:#FFFFFF;" version="1.1" viewBox="0 0 929 919" width="929px" zoomAndPan="magnify"><defs><filter height="300%" id="flv3gtyybl3cs" width="300%" x="-1" y="-1"><feGaussianBlur result="blurOut" stdDeviation="2.0"/><feColorMatrix in="blurOut" result="blurOut2" type="matrix" values="0 0 0 0 0 0 0 0 0 0 0 0 0 0 0 0 0 0 .4 0"/><feOffset dx="4.0" dy="4.0" in="blurOut2" result="blurOut3"/><feBlend in="SourceGraphic" in2="blurOut3" mode="normal"/></filter></defs><g><text fill="#000000" font-family="sans-serif" font-size="18" lengthAdjust="spacing" textLength="293" x="311.75" y="16.708">MSI Broadcasts - Class Diagram</text><!--MD5=[d0e13ed213eb83238e6841a7b0b939cb]
class MSI--><rect codeLine="3" fill="#FEFECE" filter="url(#flv3gtyybl3cs)" height="124.8281" id="MSI" style="stroke:#A80036;stroke-width:1.5;" width="133" x="424" y="27.9531"/><ellipse cx="475.75" cy="43.9531" fill="#ADD1B2" rx="11" ry="11" style="stroke:#A80036;stroke-width:1.0;"/><path d="M478.0938,39.625 C477.1563,39.1875 476.5625,39.0469 475.6875,39.0469 C473.0625,39.0469 471.0625,41.125 471.0625,43.8438 L471.0625,44.9688 C471.0625,47.5469 473.1719,49.4375 476.0625,49.4375 C477.2813,49.4375 478.4375,49.1406 479.1875,48.5938 C479.7656,48.1875 480.0938,47.7344 480.0938,47.3438 C480.0938,46.8906 479.7031,46.5 479.2344,46.5 C479.0156,46.5 478.8125,46.5781 478.625,46.7656 C478.1719,47.25 478.1719,47.25 477.9844,47.3438 C477.5625,47.6094 476.875,47.7344 476.1094,47.7344 C474.0625,47.7344 472.7656,46.6406 472.7656,44.9375 L472.7656,43.8438 C472.7656,42.0625 474.0156,40.75 475.75,40.75 C476.3281,40.75 476.9375,40.9063 477.4063,41.1563 C477.8906,41.4375 478.0625,41.6563 478.1563,42.0625 C478.2188,42.4688 478.25,42.5938 478.3906,42.7188 C478.5313,42.8594 478.7656,42.9688 478.9844,42.9688 C479.25,42.9688 479.5156,42.8281 479.6875,42.6094 C479.7969,42.4531 479.8281,42.2656 479.8281,41.8438 L479.8281,40.4219 C479.8281,39.9844 479.8125,39.8594 479.7188,39.7031 C479.5625,39.4375 479.2813,39.2969 478.9844,39.2969 C478.6875,39.2969 478.4844,39.3906 478.2656,39.7031 L478.0938,39.625 Z " fill="#000000"/><text fill="#000000" font-family="sans-serif" font-size="12" lengthAdjust="spacing" textLength="21" x="496.25" y="48.1074">MSI</text><line style="stroke:#A80036;stroke-width:1.5;" x1="425" x2="556" y1="59.9531" y2="59.9531"/><text fill="#000000" font-family="sans-serif" font-size="11" lengthAdjust="spacing" textLength="48" x="430" y="74.1636">id: string</text><text fill="#000000" font-family="sans-serif" font-size="11" lengthAdjust="spacing" textLength="83" x="430" y="86.9683">payload: string</text><text fill="#000000" font-family="sans-serif" font-size="11" lengthAdjust="spacing" textLength="121" x="430" y="99.7729">startDate: timestamp</text><text fill="#000000" font-family="sans-serif" font-size="11" lengthAdjust="spacing" textLength="118" x="430" y="112.5776">endDate: timestamp</text><line style="stroke:#A80036;stroke-width:1.5;" x1="425" x2="556" y1="119.1719" y2="119.1719"/><text fill="#000000" font-family="sans-serif" font-size="11" lengthAdjust="spacing" textLength="36" x="430" y="133.3823">send()</text><text fill="#000000" font-family="sans-serif" font-size="11" lengthAdjust="spacing" textLength="45" x="430" y="146.187">cancel()</text><!--MD5=[6a4bf54674a26136bd95edad553eae04]
class SARBroadcast--><rect codeLine="11" fill="#FEFECE" filter="url(#flv3gtyybl3cs)" height="48" id="SARBroadcast" style="stroke:#A80036;stroke-width:1.5;" width="116" x="18.5" y="244.9531"/><ellipse cx="33.5" cy="260.9531" fill="#ADD1B2" rx="11" ry="11" style="stroke:#A80036;stroke-width:1.0;"/><path d="M35.8438,256.625 C34.9063,256.1875 34.3125,256.0469 33.4375,256.0469 C30.8125,256.0469 28.8125,258.125 28.8125,260.8438 L28.8125,261.9688 C28.8125,264.5469 30.9219,266.4375 33.8125,266.4375 C35.0313,266.4375 36.1875,266.1406 36.9375,265.5938 C37.5156,265.1875 37.8438,264.7344 37.8438,264.3438 C37.8438,263.8906 37.4531,263.5 36.9844,263.5 C36.7656,263.5 36.5625,263.5781 36.375,263.7656 C35.9219,264.25 35.9219,264.25 35.7344,264.3438 C35.3125,264.6094 34.625,264.7344 33.8594,264.7344 C31.8125,264.7344 30.5156,263.6406 30.5156,261.9375 L30.5156,260.8438 C30.5156,259.0625 31.7656,257.75 33.5,257.75 C34.0781,257.75 34.6875,257.9063 35.1563,258.1563 C35.6406,258.4375 35.8125,258.6563 35.9063,259.0625 C35.9688,259.4688 36,259.5938 36.1406,259.7188 C36.2813,259.8594 36.5156,259.9688 36.7344,259.9688 C37,259.9688 37.2656,259.8281 37.4375,259.6094 C37.5469,259.4531 37.5781,259.2656 37.5781,258.8438 L37.5781,257.4219 C37.5781,256.9844 37.5625,256.8594 37.4688,256.7031 C37.3125,256.4375 37.0313,256.2969 36.7344,256.2969 C36.4375,256.2969 36.2344,256.3906 36.0156,256.7031 L35.8438,256.625 Z " fill="#000000"/><text fill="#000000" font-family="sans-serif" font-size="12" lengthAdjust="spacing" textLength="84" x="47.5" y="265.1074">SARBroadcast</text><line style="stroke:#A80036;stroke-width:1.5;" x1="19.5" x2="133.5" y1="276.9531" y2="276.9531"/><line style="stroke:#A80036;stroke-width:1.5;" x1="19.5" x2="133.5" y1="284.9531" y2="284.9531"/><!--MD5=[59982b7b7c2f6d277251daf1f7ffe2c4]
class MetBroadcast--><rect codeLine="12" fill="#FEFECE" filter="url(#flv3gtyybl3cs)" height="48" id="MetBroadcast" style="stroke:#A80036;stroke-width:1.5;" width="115" x="369" y="244.9531"/><ellipse cx="384" cy="260.9531" fill="#ADD1B2" rx="11" ry="11" style="stroke:#A80036;stroke-width:1.0;"/><path d="M386.3438,256.625 C385.4063,256.1875 384.8125,256.0469 383.9375,256.0469 C381.3125,256.0469 379.3125,258.125 379.3125,260.8438 L379.3125,261.9688 C379.3125,264.5469 381.4219,266.4375 384.3125,266.4375 C385.5313,266.4375 386.6875,266.1406 387.4375,265.5938 C388.0156,265.1875 388.3438,264.7344 388.3438,264.3438 C388.3438,263.8906 387.9531,263.5 387.4844,263.5 C387.2656,263.5 387.0625,263.5781 386.875,263.7656 C386.4219,264.25 386.4219,264.25 386.2344,264.3438 C385.8125,264.6094 385.125,264.7344 384.3594,264.7344 C382.3125,264.7344 381.0156,263.6406 381.0156,261.9375 L381.0156,260.8438 C381.0156,259.0625 382.2656,257.75 384,257.75 C384.5781,257.75 385.1875,257.9063 385.6563,258.1563 C386.1406,258.4375 386.3125,258.6563 386.4063,259.0625 C386.4688,259.4688 386.5,259.5938 386.6406,259.7188 C386.7813,259.8594 387.0156,259.9688 387.2344,259.9688 C387.5,259.9688 387.7656,259.8281 387.9375,259.6094 C388.0469,259.4531 388.0781,259.2656 388.0781,258.8438 L388.0781,257.4219 C388.0781,256.9844 388.0625,256.8594 387.9688,256.7031 C387.8125,256.4375 387.5313,256.2969 387.2344,256.2969 C386.9375,256.2969 386.7344,256.3906 386.5156,256.7031 L386.3438,256.625 Z " fill="#000000"/><text fill="#000000" font-family="sans-serif" font-size="12" lengthAdjust="spacing" textLength="83" x="398" y="265.1074">MetBroadcast</text><line style="stroke:#A80036;stroke-width:1.5;" x1="370" x2="483" y1="276.9531" y2="276.9531"/><line style="stroke:#A80036;stroke-width:1.5;" x1="370" x2="483" y1="284.9531" y2="284.9531"/><!--MD5=[a58030872057f2eaffea5a541be2457b]
class NavWarningBroadcast--><rect codeLine="13" fill="#FEFECE" filter="url(#flv3gtyybl3cs)" height="48" id="NavWarningBroadcast" style="stroke:#A80036;stroke-width:1.5;" width="164" x="169.5" y="244.9531"/><ellipse cx="184.5" cy="260.9531" fill="#ADD1B2" rx="11" ry="11" style="stroke:#A80036;stroke-width:1.0;"/><path d="M186.8438,256.625 C185.9063,256.1875 185.3125,256.0469 184.4375,256.0469 C181.8125,256.0469 179.8125,258.125 179.8125,260.8438 L179.8125,261.9688 C179.8125,264.5469 181.9219,266.4375 184.8125,266.4375 C186.0313,266.4375 187.1875,266.1406 187.9375,265.5938 C188.5156,265.1875 188.8438,264.7344 188.8438,264.3438 C188.8438,263.8906 188.4531,263.5 187.9844,263.5 C187.7656,263.5 187.5625,263.5781 187.375,263.7656 C186.9219,264.25 186.9219,264.25 186.7344,264.3438 C186.3125,264.6094 185.625,264.7344 184.8594,264.7344 C182.8125,264.7344 181.5156,263.6406 181.5156,261.9375 L181.5156,260.8438 C181.5156,259.0625 182.7656,257.75 184.5,257.75 C185.0781,257.75 185.6875,257.9063 186.1563,258.1563 C186.6406,258.4375 186.8125,258.6563 186.9063,259.0625 C186.9688,259.4688 187,259.5938 187.1406,259.7188 C187.2813,259.8594 187.5156,259.9688 187.7344,259.9688 C188,259.9688 188.2656,259.8281 188.4375,259.6094 C188.5469,259.4531 188.5781,259.2656 188.5781,258.8438 L188.5781,257.4219 C188.5781,256.9844 188.5625,256.8594 188.4688,256.7031 C188.3125,256.4375 188.0313,256.2969 187.7344,256.2969 C187.4375,256.2969 187.2344,256.3906 187.0156,256.7031 L186.8438,256.625 Z " fill="#000000"/><text fill="#000000" font-family="sans-serif" font-size="12" lengthAdjust="spacing" textLength="132" x="198.5" y="265.1074">NavWarningBroadcast</text><line style="stroke:#A80036;stroke-width:1.5;" x1="170.5" x2="332.5" y1="276.9531" y2="276.9531"/><line style="stroke:#A80036;stroke-width:1.5;" x1="170.5" x2="332.5" y1="284.9531" y2="284.9531"/><!--MD5=[953e9b2fb9eece1b3fc587391ef815bf]
class Priority--><rect codeLine="15" fill="#FEFECE" filter="url(#flv3gtyybl3cs)" height="86.4141" id="Priority" style="stroke:#A80036;stroke-width:1.5;" width="73" x="519" y="225.9531"/><ellipse cx="534" cy="241.9531" fill="#EB937F" rx="11" ry="11" style="stroke:#A80036;stroke-width:1.0;"/><path d="M532.7969,242.8281 L534.25,242.8281 L534.25,242.9375 C534.25,243.3438 534.2813,243.5 534.3594,243.6563 C534.5156,243.9063 534.7969,244.0625 535.0938,244.0625 C535.3438,244.0625 535.6094,243.9219 535.7656,243.7031 C535.8906,243.5469 535.9219,243.3906 535.9219,242.9375 L535.9219,241.0156 C535.9219,240.8594 535.9219,240.8125 535.9063,240.6563 C535.8438,240.1875 535.5313,239.875 535.0781,239.875 C534.8281,239.875 534.5625,240.0156 534.3906,240.2344 C534.2813,240.4063 534.25,240.5625 534.25,241.0156 L534.25,241.1406 L532.7969,241.1406 L532.7969,238.7344 L536.7813,238.7344 L536.7813,239.5938 C536.7813,240 536.8125,240.1719 536.8906,240.3281 C537.0625,240.5781 537.3438,240.7344 537.625,240.7344 C537.8906,240.7344 538.1563,240.5938 538.3281,240.375 C538.4375,240.2031 538.4688,240.0625 538.4688,239.5938 L538.4688,237.0469 L530.8438,237.0469 C530.4063,237.0469 530.2813,237.0625 530.125,237.1563 C529.875,237.3125 529.7188,237.6094 529.7188,237.8906 C529.7188,238.1719 529.8594,238.4219 530.0781,238.5938 C530.2344,238.7031 530.4219,238.7344 530.8438,238.7344 L531.0938,238.7344 L531.0938,245.25 L530.8438,245.25 C530.4375,245.25 530.2813,245.2656 530.125,245.375 C529.875,245.5469 529.7188,245.8125 529.7188,246.1094 C529.7188,246.375 529.8594,246.625 530.0781,246.7813 C530.2188,246.9063 530.4531,246.9531 530.8438,246.9531 L538.8438,246.9531 L538.8438,244.375 C538.8438,243.9375 538.8125,243.7969 538.7344,243.6406 C538.5625,243.3906 538.2813,243.2344 538,243.2344 C537.7344,243.2344 537.4688,243.3438 537.2969,243.5938 C537.1875,243.75 537.1563,243.8906 537.1563,244.375 L537.1563,245.25 L532.7969,245.25 L532.7969,242.8281 Z " fill="#000000"/><text fill="#000000" font-family="sans-serif" font-size="12" lengthAdjust="spacing" textLength="41" x="548" y="246.1074">Priority</text><line style="stroke:#A80036;stroke-width:1.5;" x1="520" x2="591" y1="257.9531" y2="257.9531"/><text fill="#000000" font-family="sans-serif" font-size="11" lengthAdjust="spacing" textLength="43" x="525" y="272.1636">SAFETY</text><text fill="#000000" font-family="sans-serif" font-size="11" lengthAdjust="spacing" textLength="54" x="525" y="284.9683">URGENCY</text><text fill="#000000" font-family="sans-serif" font-size="11" lengthAdjust="spacing" textLength="57" x="525" y="297.7729">DISTRESS</text><line style="stroke:#A80036;stroke-width:1.5;" x1="520" x2="591" y1="304.3672" y2="304.3672"/><!--MD5=[e3d83ec5fd90ea9f3f2bfe265cb53458]
class Status--><rect codeLine="20" fill="#FEFECE" filter="url(#flv3gtyybl3cs)" height="112.0234" id="Status" style="stroke:#A80036;stroke-width:1.5;" width="82" x="627.5" y="212.9531"/><ellipse cx="648.35" cy="228.9531" fill="#EB937F" rx="11" ry="11" style="stroke:#A80036;stroke-width:1.0;"/><path d="M647.1469,229.8281 L648.6,229.8281 L648.6,229.9375 C648.6,230.3438 648.6313,230.5 648.7094,230.6563 C648.8656,230.9063 649.1469,231.0625 649.4438,231.0625 C649.6938,231.0625 649.9594,230.9219 650.1156,230.7031 C650.2406,230.5469 650.2719,230.3906 650.2719,229.9375 L650.2719,228.0156 C650.2719,227.8594 650.2719,227.8125 650.2563,227.6563 C650.1938,227.1875 649.8813,226.875 649.4281,226.875 C649.1781,226.875 648.9125,227.0156 648.7406,227.2344 C648.6313,227.4063 648.6,227.5625 648.6,228.0156 L648.6,228.1406 L647.1469,228.1406 L647.1469,225.7344 L651.1313,225.7344 L651.1313,226.5938 C651.1313,227 651.1625,227.1719 651.2406,227.3281 C651.4125,227.5781 651.6938,227.7344 651.975,227.7344 C652.2406,227.7344 652.5063,227.5938 652.6781,227.375 C652.7875,227.2031 652.8188,227.0625 652.8188,226.5938 L652.8188,224.0469 L645.1938,224.0469 C644.7563,224.0469 644.6313,224.0625 644.475,224.1563 C644.225,224.3125 644.0688,224.6094 644.0688,224.8906 C644.0688,225.1719 644.2094,225.4219 644.4281,225.5938 C644.5844,225.7031 644.7719,225.7344 645.1938,225.7344 L645.4438,225.7344 L645.4438,232.25 L645.1938,232.25 C644.7875,232.25 644.6313,232.2656 644.475,232.375 C644.225,232.5469 644.0688,232.8125 644.0688,233.1094 C644.0688,233.375 644.2094,233.625 644.4281,233.7813 C644.5688,233.9063 644.8031,233.9531 645.1938,233.9531 L653.1938,233.9531 L653.1938,231.375 C653.1938,230.9375 653.1625,230.7969 653.0844,230.6406 C652.9125,230.3906 652.6313,230.2344 652.35,230.2344 C652.0844,230.2344 651.8188,230.3438 651.6469,230.5938 C651.5375,230.75 651.5063,230.8906 651.5063,231.375 L651.5063,232.25 L647.1469,232.25 L647.1469,229.8281 Z " fill="#000000"/><text fill="#000000" font-family="sans-serif" font-size="12" lengthAdjust="spacing" textLength="37" x="663.65" y="233.1074">Status</text><line style="stroke:#A80036;stroke-width:1.5;" x1="628.5" x2="708.5" y1="244.9531" y2="244.9531"/><text fill="#000000" font-family="sans-serif" font-size="11" lengthAdjust="spacing" textLength="53" x="633.5" y="259.1636">CREATED</text><text fill="#000000" font-family="sans-serif" font-size="11" lengthAdjust="spacing" textLength="70" x="633.5" y="271.9683">SCHEDULED</text><text fill="#000000" font-family="sans-serif" font-size="11" lengthAdjust="spacing" textLength="41" x="633.5" y="284.7729">ACTIVE</text><text fill="#000000" font-family="sans-serif" font-size="11" lengthAdjust="spacing" textLength="52" x="633.5" y="297.5776">FINISHED</text><text fill="#000000" font-family="sans-serif" font-size="11" lengthAdjust="spacing" textLength="67" x="633.5" y="310.3823">CANCELLED</text><line style="stroke:#A80036;stroke-width:1.5;" x1="628.5" x2="708.5" y1="316.9766" y2="316.9766"/><!--MD5=[670ba5afd3835a69cbf81964ee5af7db]
class IntervalHours--><rect codeLine="27" fill="#FEFECE" filter="url(#flv3gtyybl3cs)" height="252.875" id="IntervalHours" style="stroke:#A80036;stroke-width:1.5;" width="112" x="715.5" y="492.9531"/><ellipse cx="730.5" cy="508.9531" fill="#EB937F" rx="11" ry="11" style="stroke:#A80036;stroke-width:1.0;"/><path d="M729.2969,509.8281 L730.75,509.8281 L730.75,509.9375 C730.75,510.3438 730.7813,510.5 730.8594,510.6563 C731.0156,510.9063 731.2969,511.0625 731.5938,511.0625 C731.8438,511.0625 732.1094,510.9219 732.2656,510.7031 C732.3906,510.5469 732.4219,510.3906 732.4219,509.9375 L732.4219,508.0156 C732.4219,507.8594 732.4219,507.8125 732.4063,507.6563 C732.3438,507.1875 732.0313,506.875 731.5781,506.875 C731.3281,506.875 731.0625,507.0156 730.8906,507.2344 C730.7813,507.4063 730.75,507.5625 730.75,508.0156 L730.75,508.1406 L729.2969,508.1406 L729.2969,505.7344 L733.2813,505.7344 L733.2813,506.5938 C733.2813,507 733.3125,507.1719 733.3906,507.3281 C733.5625,507.5781 733.8438,507.7344 734.125,507.7344 C734.3906,507.7344 734.6563,507.5938 734.8281,507.375 C734.9375,507.2031 734.9688,507.0625 734.9688,506.5938 L734.9688,504.0469 L727.3438,504.0469 C726.9063,504.0469 726.7813,504.0625 726.625,504.1563 C726.375,504.3125 726.2188,504.6094 726.2188,504.8906 C726.2188,505.1719 726.3594,505.4219 726.5781,505.5938 C726.7344,505.7031 726.9219,505.7344 727.3438,505.7344 L727.5938,505.7344 L727.5938,512.25 L727.3438,512.25 C726.9375,512.25 726.7813,512.2656 726.625,512.375 C726.375,512.5469 726.2188,512.8125 726.2188,513.1094 C726.2188,513.375 726.3594,513.625 726.5781,513.7813 C726.7188,513.9063 726.9531,513.9531 727.3438,513.9531 L735.3438,513.9531 L735.3438,511.375 C735.3438,510.9375 735.3125,510.7969 735.2344,510.6406 C735.0625,510.3906 734.7813,510.2344 734.5,510.2344 C734.2344,510.2344 733.9688,510.3438 733.7969,510.5938 C733.6875,510.75 733.6563,510.8906 733.6563,511.375 L733.6563,512.25 L729.2969,512.25 L729.2969,509.8281 Z " fill="#000000"/><text fill="#000000" font-family="sans-serif" font-size="12" lengthAdjust="spacing" textLength="80" x="744.5" y="513.1074">IntervalHours</text><line style="stroke:#A80036;stroke-width:1.5;" x1="716.5" x2="826.5" y1="524.9531" y2="524.9531"/><text fill="#000000" font-family="sans-serif" font-size="11" lengthAdjust="spacing" textLength="7" x="721.5" y="539.1636">1</text><text fill="#000000" font-family="sans-serif" font-size="11" lengthAdjust="spacing" textLength="7" x="721.5" y="551.9683">2</text><text fill="#000000" font-family="sans-serif" font-size="11" lengthAdjust="spacing" textLength="7" x="721.5" y="564.7729">3</text><text fill="#000000" font-family="sans-serif" font-size="11" lengthAdjust="spacing" textLength="7" x="721.5" y="577.5776">4</text><text fill="#000000" font-family="sans-serif" font-size="11" lengthAdjust="spacing" textLength="7" x="721.5" y="590.3823">5</text><text fill="#000000" font-family="sans-serif" font-size="11" lengthAdjust="spacing" textLength="7" x="721.5" y="603.187">6</text><text fill="#000000" font-family="sans-serif" font-size="11" lengthAdjust="spacing" textLength="14" x="721.5" y="615.9917">12</text><text fill="#000000" font-family="sans-serif" font-size="11" lengthAdjust="spacing" textLength="14" x="721.5" y="628.7964">18</text><text fill="#000000" font-family="sans-serif" font-size="11" lengthAdjust="spacing" textLength="14" x="721.5" y="641.6011">24</text><text fill="#000000" font-family="sans-serif" font-size="11" lengthAdjust="spacing" textLength="14" x="721.5" y="654.4058">30</text><text fill="#000000" font-family="sans-serif" font-size="11" lengthAdjust="spacing" textLength="14" x="721.5" y="667.2104">36</text><text fill="#000000" font-family="sans-serif" font-size="11" lengthAdjust="spacing" textLength="14" x="721.5" y="680.0151">48</text><text fill="#000000" font-family="sans-serif" font-size="11" lengthAdjust="spacing" textLength="14" x="721.5" y="692.8198">60</text><text fill="#000000" font-family="sans-serif" font-size="11" lengthAdjust="spacing" textLength="14" x="721.5" y="705.6245">72</text><text fill="#000000" font-family="sans-serif" font-size="11" lengthAdjust="spacing" textLength="14" x="721.5" y="718.4292">96</text><text fill="#000000" font-family="sans-serif" font-size="11" lengthAdjust="spacing" textLength="21" x="721.5" y="731.2339">120</text><line style="stroke:#A80036;stroke-width:1.5;" x1="716.5" x2="826.5" y1="737.8281" y2="737.8281"/><!--MD5=[88c59876449025d50fa0788b08f620b9]
class Repetition--><rect codeLine="46" fill="#FEFECE" filter="url(#flv3gtyybl3cs)" height="48" id="Repetition" style="stroke:#A80036;stroke-width:1.5;" width="93" x="745" y="244.9531"/><ellipse cx="760" cy="260.9531" fill="#B4A7E5" rx="11" ry="11" style="stroke:#A80036;stroke-width:1.0;"/><path d="M760.9531,257.7344 L762.6719,257.7344 C763.0625,257.7344 763.25,257.7031 763.375,257.625 C763.6406,257.4688 763.7813,257.1875 763.7813,256.8906 C763.7813,256.625 763.6719,256.3594 763.4375,256.1875 C763.2656,256.0781 763.125,256.0469 762.6719,256.0469 L757.5313,256.0469 C757.0938,256.0469 756.9688,256.0625 756.8125,256.1563 C756.5625,256.3125 756.4063,256.6094 756.4063,256.8906 C756.4063,257.1719 756.5469,257.4219 756.7656,257.5938 C756.9219,257.7031 757.1094,257.7344 757.5313,257.7344 L759.25,257.7344 L759.25,264.25 L757.5313,264.25 C757.0938,264.25 756.9688,264.2656 756.8125,264.375 C756.5625,264.5313 756.4063,264.8125 756.4063,265.1094 C756.4063,265.3594 756.5469,265.625 756.7656,265.7813 C756.9219,265.9063 757.125,265.9531 757.5313,265.9531 L762.6719,265.9531 C763.4219,265.9531 763.7813,265.6719 763.7813,265.1094 C763.7813,264.8281 763.6719,264.5781 763.4375,264.4063 C763.2656,264.2813 763.125,264.25 762.6719,264.25 L760.9531,264.25 L760.9531,257.7344 Z " fill="#000000"/><text fill="#000000" font-family="sans-serif" font-size="12" font-style="italic" lengthAdjust="spacing" textLength="61" x="774" y="265.1074">Repetition</text><line style="stroke:#A80036;stroke-width:1.5;" x1="746" x2="837" y1="276.9531" y2="276.9531"/><line style="stroke:#A80036;stroke-width:1.5;" x1="746" x2="837" y1="284.9531" y2="284.9531"/><!--MD5=[f1cd75cc2c23c69c0d5db923b69c0ae0]
class OneRepeat--><rect codeLine="47" fill="#FEFECE" filter="url(#flv3gtyybl3cs)" height="48" id="OneRepeat" style="stroke:#A80036;stroke-width:1.5;" width="99" x="592" y="66.4531"/><ellipse cx="607" cy="82.4531" fill="#ADD1B2" rx="11" ry="11" style="stroke:#A80036;stroke-width:1.0;"/><path d="M609.3438,78.125 C608.4063,77.6875 607.8125,77.5469 606.9375,77.5469 C604.3125,77.5469 602.3125,79.625 602.3125,82.3438 L602.3125,83.4688 C602.3125,86.0469 604.4219,87.9375 607.3125,87.9375 C608.5313,87.9375 609.6875,87.6406 610.4375,87.0938 C611.0156,86.6875 611.3438,86.2344 611.3438,85.8438 C611.3438,85.3906 610.9531,85 610.4844,85 C610.2656,85 610.0625,85.0781 609.875,85.2656 C609.4219,85.75 609.4219,85.75 609.2344,85.8438 C608.8125,86.1094 608.125,86.2344 607.3594,86.2344 C605.3125,86.2344 604.0156,85.1406 604.0156,83.4375 L604.0156,82.3438 C604.0156,80.5625 605.2656,79.25 607,79.25 C607.5781,79.25 608.1875,79.4063 608.6563,79.6563 C609.1406,79.9375 609.3125,80.1563 609.4063,80.5625 C609.4688,80.9688 609.5,81.0938 609.6406,81.2188 C609.7813,81.3594 610.0156,81.4688 610.2344,81.4688 C610.5,81.4688 610.7656,81.3281 610.9375,81.1094 C611.0469,80.9531 611.0781,80.7656 611.0781,80.3438 L611.0781,78.9219 C611.0781,78.4844 611.0625,78.3594 610.9688,78.2031 C610.8125,77.9375 610.5313,77.7969 610.2344,77.7969 C609.9375,77.7969 609.7344,77.8906 609.5156,78.2031 L609.3438,78.125 Z " fill="#000000"/><text fill="#000000" font-family="sans-serif" font-size="12" lengthAdjust="spacing" textLength="67" x="621" y="86.6074">OneRepeat</text><line style="stroke:#A80036;stroke-width:1.5;" x1="593" x2="690" y1="98.4531" y2="98.4531"/><line style="stroke:#A80036;stroke-width:1.5;" x1="593" x2="690" y1="106.4531" y2="106.4531"/><!--MD5=[e991e8ea54c6943cd026340d8b1572eb]
class RepeatTillCancelled--><rect codeLine="48" fill="#FEFECE" filter="url(#flv3gtyybl3cs)" height="48" id="RepeatTillCancelled" style="stroke:#A80036;stroke-width:1.5;" width="149" x="625" y="384.9531"/><ellipse cx="640" cy="400.9531" fill="#ADD1B2" rx="11" ry="11" style="stroke:#A80036;stroke-width:1.0;"/><path d="M642.3438,396.625 C641.4063,396.1875 640.8125,396.0469 639.9375,396.0469 C637.3125,396.0469 635.3125,398.125 635.3125,400.8438 L635.3125,401.9688 C635.3125,404.5469 637.4219,406.4375 640.3125,406.4375 C641.5313,406.4375 642.6875,406.1406 643.4375,405.5938 C644.0156,405.1875 644.3438,404.7344 644.3438,404.3438 C644.3438,403.8906 643.9531,403.5 643.4844,403.5 C643.2656,403.5 643.0625,403.5781 642.875,403.7656 C642.4219,404.25 642.4219,404.25 642.2344,404.3438 C641.8125,404.6094 641.125,404.7344 640.3594,404.7344 C638.3125,404.7344 637.0156,403.6406 637.0156,401.9375 L637.0156,400.8438 C637.0156,399.0625 638.2656,397.75 640,397.75 C640.5781,397.75 641.1875,397.9063 641.6563,398.1563 C642.1406,398.4375 642.3125,398.6563 642.4063,399.0625 C642.4688,399.4688 642.5,399.5938 642.6406,399.7188 C642.7813,399.8594 643.0156,399.9688 643.2344,399.9688 C643.5,399.9688 643.7656,399.8281 643.9375,399.6094 C644.0469,399.4531 644.0781,399.2656 644.0781,398.8438 L644.0781,397.4219 C644.0781,396.9844 644.0625,396.8594 643.9688,396.7031 C643.8125,396.4375 643.5313,396.2969 643.2344,396.2969 C642.9375,396.2969 642.7344,396.3906 642.5156,396.7031 L642.3438,396.625 Z " fill="#000000"/><text fill="#000000" font-family="sans-serif" font-size="12" lengthAdjust="spacing" textLength="117" x="654" y="405.1074">RepeatTillCancelled</text><line style="stroke:#A80036;stroke-width:1.5;" x1="626" x2="773" y1="416.9531" y2="416.9531"/><line style="stroke:#A80036;stroke-width:1.5;" x1="626" x2="773" y1="424.9531" y2="424.9531"/><!--MD5=[5cb67dfb29d802bd2827aaf3e983051d]
class RepeatOnce--><rect fill="#FEFECE" filter="url(#flv3gtyybl3cs)" height="48" id="RepeatOnce" style="stroke:#A80036;stroke-width:1.5;" width="106" x="809.5" y="384.9531"/><ellipse cx="824.5" cy="400.9531" fill="#ADD1B2" rx="11" ry="11" style="stroke:#A80036;stroke-width:1.0;"/><path d="M826.8438,396.625 C825.9063,396.1875 825.3125,396.0469 824.4375,396.0469 C821.8125,396.0469 819.8125,398.125 819.8125,400.8438 L819.8125,401.9688 C819.8125,404.5469 821.9219,406.4375 824.8125,406.4375 C826.0313,406.4375 827.1875,406.1406 827.9375,405.5938 C828.5156,405.1875 828.8438,404.7344 828.8438,404.3438 C828.8438,403.8906 828.4531,403.5 827.9844,403.5 C827.7656,403.5 827.5625,403.5781 827.375,403.7656 C826.9219,404.25 826.9219,404.25 826.7344,404.3438 C826.3125,404.6094 825.625,404.7344 824.8594,404.7344 C822.8125,404.7344 821.5156,403.6406 821.5156,401.9375 L821.5156,400.8438 C821.5156,399.0625 822.7656,397.75 824.5,397.75 C825.0781,397.75 825.6875,397.9063 826.1563,398.1563 C826.6406,398.4375 826.8125,398.6563 826.9063,399.0625 C826.9688,399.4688 827,399.5938 827.1406,399.7188 C827.2813,399.8594 827.5156,399.9688 827.7344,399.9688 C828,399.9688 828.2656,399.8281 828.4375,399.6094 C828.5469,399.4531 828.5781,399.2656 828.5781,398.8438 L828.5781,397.4219 C828.5781,396.9844 828.5625,396.8594 828.4688,396.7031 C828.3125,396.4375 828.0313,396.2969 827.7344,396.2969 C827.4375,396.2969 827.2344,396.3906 827.0156,396.7031 L826.8438,396.625 Z " fill="#000000"/><text fill="#000000" font-family="sans-serif" font-size="12" lengthAdjust="spacing" textLength="74" x="838.5" y="405.1074">RepeatOnce</text><line style="stroke:#A80036;stroke-width:1.5;" x1="810.5" x2="914.5" y1="416.9531" y2="416.9531"/><line style="stroke:#A80036;stroke-width:1.5;" x1="810.5" x2="914.5" y1="424.9531" y2="424.9531"/><!--MD5=[19c58e1c195e071f65e647eea3a11eda]
class MetArea--><rect codeLine="56" fill="#FEFECE" filter="url(#flv3gtyybl3cs)" height="60.8047" id="MetArea" style="stroke:#A80036;stroke-width:1.5;" width="125" x="512" y="588.9531"/><ellipse cx="546.35" cy="604.9531" fill="#ADD1B2" rx="11" ry="11" style="stroke:#A80036;stroke-width:1.0;"/><path d="M548.6938,600.625 C547.7563,600.1875 547.1625,600.0469 546.2875,600.0469 C543.6625,600.0469 541.6625,602.125 541.6625,604.8438 L541.6625,605.9688 C541.6625,608.5469 543.7719,610.4375 546.6625,610.4375 C547.8813,610.4375 549.0375,610.1406 549.7875,609.5938 C550.3656,609.1875 550.6938,608.7344 550.6938,608.3438 C550.6938,607.8906 550.3031,607.5 549.8344,607.5 C549.6156,607.5 549.4125,607.5781 549.225,607.7656 C548.7719,608.25 548.7719,608.25 548.5844,608.3438 C548.1625,608.6094 547.475,608.7344 546.7094,608.7344 C544.6625,608.7344 543.3656,607.6406 543.3656,605.9375 L543.3656,604.8438 C543.3656,603.0625 544.6156,601.75 546.35,601.75 C546.9281,601.75 547.5375,601.9063 548.0063,602.1563 C548.4906,602.4375 548.6625,602.6563 548.7563,603.0625 C548.8188,603.4688 548.85,603.5938 548.9906,603.7188 C549.1313,603.8594 549.3656,603.9688 549.5844,603.9688 C549.85,603.9688 550.1156,603.8281 550.2875,603.6094 C550.3969,603.4531 550.4281,603.2656 550.4281,602.8438 L550.4281,601.4219 C550.4281,600.9844 550.4125,600.8594 550.3188,600.7031 C550.1625,600.4375 549.8813,600.2969 549.5844,600.2969 C549.2875,600.2969 549.0844,600.3906 548.8656,600.7031 L548.6938,600.625 Z " fill="#000000"/><text fill="#000000" font-family="sans-serif" font-size="12" lengthAdjust="spacing" textLength="50" x="564.65" y="609.1074">MetArea</text><line style="stroke:#A80036;stroke-width:1.5;" x1="513" x2="636" y1="620.9531" y2="620.9531"/><text fill="#000000" font-family="sans-serif" font-size="11" lengthAdjust="spacing" textLength="113" x="518" y="635.1636">metAreaNo: integer</text><line style="stroke:#A80036;stroke-width:1.5;" x1="513" x2="636" y1="641.7578" y2="641.7578"/><!--MD5=[9affa659e72119d3471adf0766b1bab5]
class NavArea--><rect codeLine="59" fill="#FEFECE" filter="url(#flv3gtyybl3cs)" height="60.8047" id="NavArea" style="stroke:#A80036;stroke-width:1.5;" width="123" x="25" y="588.9531"/><ellipse cx="58.45" cy="604.9531" fill="#ADD1B2" rx="11" ry="11" style="stroke:#A80036;stroke-width:1.0;"/><path d="M60.7938,600.625 C59.8563,600.1875 59.2625,600.0469 58.3875,600.0469 C55.7625,600.0469 53.7625,602.125 53.7625,604.8438 L53.7625,605.9688 C53.7625,608.5469 55.8719,610.4375 58.7625,610.4375 C59.9813,610.4375 61.1375,610.1406 61.8875,609.5938 C62.4656,609.1875 62.7938,608.7344 62.7938,608.3438 C62.7938,607.8906 62.4031,607.5 61.9344,607.5 C61.7156,607.5 61.5125,607.5781 61.325,607.7656 C60.8719,608.25 60.8719,608.25 60.6844,608.3438 C60.2625,608.6094 59.575,608.7344 58.8094,608.7344 C56.7625,608.7344 55.4656,607.6406 55.4656,605.9375 L55.4656,604.8438 C55.4656,603.0625 56.7156,601.75 58.45,601.75 C59.0281,601.75 59.6375,601.9063 60.1063,602.1563 C60.5906,602.4375 60.7625,602.6563 60.8563,603.0625 C60.9188,603.4688 60.95,603.5938 61.0906,603.7188 C61.2313,603.8594 61.4656,603.9688 61.6844,603.9688 C61.95,603.9688 62.2156,603.8281 62.3875,603.6094 C62.4969,603.4531 62.5281,603.2656 62.5281,602.8438 L62.5281,601.4219 C62.5281,600.9844 62.5125,600.8594 62.4188,600.7031 C62.2625,600.4375 61.9813,600.2969 61.6844,600.2969 C61.3875,600.2969 61.1844,600.3906 60.9656,600.7031 L60.7938,600.625 Z " fill="#000000"/><text fill="#000000" font-family="sans-serif" font-size="12" lengthAdjust="spacing" textLength="50" x="76.55" y="609.1074">NavArea</text><line style="stroke:#A80036;stroke-width:1.5;" x1="26" x2="147" y1="620.9531" y2="620.9531"/><text fill="#000000" font-family="sans-serif" font-size="11" lengthAdjust="spacing" textLength="111" x="31" y="635.1636">navAreaNo: integer</text><line style="stroke:#A80036;stroke-width:1.5;" x1="26" x2="147" y1="641.7578" y2="641.7578"/><!--MD5=[3465795d537a068d04ef95ff9f5d3463]
class CoastalWarningArea--><rect codeLine="62" fill="#FEFECE" filter="url(#flv3gtyybl3cs)" height="60.8047" id="CoastalWarningArea" style="stroke:#A80036;stroke-width:1.5;" width="153" x="324" y="588.9531"/><ellipse cx="339" cy="604.9531" fill="#ADD1B2" rx="11" ry="11" style="stroke:#A80036;stroke-width:1.0;"/><path d="M341.3438,600.625 C340.4063,600.1875 339.8125,600.0469 338.9375,600.0469 C336.3125,600.0469 334.3125,602.125 334.3125,604.8438 L334.3125,605.9688 C334.3125,608.5469 336.4219,610.4375 339.3125,610.4375 C340.5313,610.4375 341.6875,610.1406 342.4375,609.5938 C343.0156,609.1875 343.3438,608.7344 343.3438,608.3438 C343.3438,607.8906 342.9531,607.5 342.4844,607.5 C342.2656,607.5 342.0625,607.5781 341.875,607.7656 C341.4219,608.25 341.4219,608.25 341.2344,608.3438 C340.8125,608.6094 340.125,608.7344 339.3594,608.7344 C337.3125,608.7344 336.0156,607.6406 336.0156,605.9375 L336.0156,604.8438 C336.0156,603.0625 337.2656,601.75 339,601.75 C339.5781,601.75 340.1875,601.9063 340.6563,602.1563 C341.1406,602.4375 341.3125,602.6563 341.4063,603.0625 C341.4688,603.4688 341.5,603.5938 341.6406,603.7188 C341.7813,603.8594 342.0156,603.9688 342.2344,603.9688 C342.5,603.9688 342.7656,603.8281 342.9375,603.6094 C343.0469,603.4531 343.0781,603.2656 343.0781,602.8438 L343.0781,601.4219 C343.0781,600.9844 343.0625,600.8594 342.9688,600.7031 C342.8125,600.4375 342.5313,600.2969 342.2344,600.2969 C341.9375,600.2969 341.7344,600.3906 341.5156,600.7031 L341.3438,600.625 Z " fill="#000000"/><text fill="#000000" font-family="sans-serif" font-size="12" lengthAdjust="spacing" textLength="121" x="353" y="609.1074">CoastalWarningArea</text><line style="stroke:#A80036;stroke-width:1.5;" x1="325" x2="476" y1="620.9531" y2="620.9531"/><text fill="#000000" font-family="sans-serif" font-size="11" lengthAdjust="spacing" textLength="62" x="330" y="635.1636">letter: char</text><line style="stroke:#A80036;stroke-width:1.5;" x1="325" x2="476" y1="641.7578" y2="641.7578"/><!--MD5=[51f8f994229af8ae2211a1c190bfc9b4]
class SARBroadcastArea--><rect codeLine="66" fill="#FEFECE" filter="url(#flv3gtyybl3cs)" height="48" id="SARBroadcastArea" style="stroke:#A80036;stroke-width:1.5;" width="143" x="7" y="384.9531"/><ellipse cx="22" cy="400.9531" fill="#B4A7E5" rx="11" ry="11" style="stroke:#A80036;stroke-width:1.0;"/><path d="M22.9531,397.7344 L24.6719,397.7344 C25.0625,397.7344 25.25,397.7031 25.375,397.625 C25.6406,397.4688 25.7813,397.1875 25.7813,396.8906 C25.7813,396.625 25.6719,396.3594 25.4375,396.1875 C25.2656,396.0781 25.125,396.0469 24.6719,396.0469 L19.5313,396.0469 C19.0938,396.0469 18.9688,396.0625 18.8125,396.1563 C18.5625,396.3125 18.4063,396.6094 18.4063,396.8906 C18.4063,397.1719 18.5469,397.4219 18.7656,397.5938 C18.9219,397.7031 19.1094,397.7344 19.5313,397.7344 L21.25,397.7344 L21.25,404.25 L19.5313,404.25 C19.0938,404.25 18.9688,404.2656 18.8125,404.375 C18.5625,404.5313 18.4063,404.8125 18.4063,405.1094 C18.4063,405.3594 18.5469,405.625 18.7656,405.7813 C18.9219,405.9063 19.125,405.9531 19.5313,405.9531 L24.6719,405.9531 C25.4219,405.9531 25.7813,405.6719 25.7813,405.1094 C25.7813,404.8281 25.6719,404.5781 25.4375,404.4063 C25.2656,404.2813 25.125,404.25 24.6719,404.25 L22.9531,404.25 L22.9531,397.7344 Z " fill="#000000"/><text fill="#000000" font-family="sans-serif" font-size="12" font-style="italic" lengthAdjust="spacing" textLength="111" x="36" y="405.1074">SARBroadcastArea</text><line style="stroke:#A80036;stroke-width:1.5;" x1="8" x2="149" y1="416.9531" y2="416.9531"/><line style="stroke:#A80036;stroke-width:1.5;" x1="8" x2="149" y1="424.9531" y2="424.9531"/><!--MD5=[a7f9118cae7621dd25d25149752faef0]
class Circle--><rect codeLine="68" fill="#FEFECE" filter="url(#flv3gtyybl3cs)" height="86.4141" id="Circle" style="stroke:#A80036;stroke-width:1.5;" width="117" x="101" y="812.4531"/><ellipse cx="138.95" cy="828.4531" fill="#ADD1B2" rx="11" ry="11" style="stroke:#A80036;stroke-width:1.0;"/><path d="M141.2938,824.125 C140.3563,823.6875 139.7625,823.5469 138.8875,823.5469 C136.2625,823.5469 134.2625,825.625 134.2625,828.3438 L134.2625,829.4688 C134.2625,832.0469 136.3719,833.9375 139.2625,833.9375 C140.4813,833.9375 141.6375,833.6406 142.3875,833.0938 C142.9656,832.6875 143.2938,832.2344 143.2938,831.8438 C143.2938,831.3906 142.9031,831 142.4344,831 C142.2156,831 142.0125,831.0781 141.825,831.2656 C141.3719,831.75 141.3719,831.75 141.1844,831.8438 C140.7625,832.1094 140.075,832.2344 139.3094,832.2344 C137.2625,832.2344 135.9656,831.1406 135.9656,829.4375 L135.9656,828.3438 C135.9656,826.5625 137.2156,825.25 138.95,825.25 C139.5281,825.25 140.1375,825.4063 140.6063,825.6563 C141.0906,825.9375 141.2625,826.1563 141.3563,826.5625 C141.4188,826.9688 141.45,827.0938 141.5906,827.2188 C141.7313,827.3594 141.9656,827.4688 142.1844,827.4688 C142.45,827.4688 142.7156,827.3281 142.8875,827.1094 C142.9969,826.9531 143.0281,826.7656 143.0281,826.3438 L143.0281,824.9219 C143.0281,824.4844 143.0125,824.3594 142.9188,824.2031 C142.7625,823.9375 142.4813,823.7969 142.1844,823.7969 C141.8875,823.7969 141.6844,823.8906 141.4656,824.2031 L141.2938,824.125 Z " fill="#000000"/><text fill="#000000" font-family="sans-serif" font-size="12" lengthAdjust="spacing" textLength="34" x="158.05" y="832.6074">Circle</text><line style="stroke:#A80036;stroke-width:1.5;" x1="102" x2="217" y1="844.4531" y2="844.4531"/><text fill="#000000" font-family="sans-serif" font-size="11" lengthAdjust="spacing" textLength="66" x="107" y="858.6636">lat: decimal</text><text fill="#000000" font-family="sans-serif" font-size="11" lengthAdjust="spacing" textLength="69" x="107" y="871.4683">lon: decimal</text><text fill="#000000" font-family="sans-serif" font-size="11" lengthAdjust="spacing" textLength="105" x="107" y="884.2729">radiusNm: decimal</text><line style="stroke:#A80036;stroke-width:1.5;" x1="102" x2="217" y1="890.8672" y2="890.8672"/><!--MD5=[b5313cd49da22b0744b541f414f8445e]
class Rectangle--><rect codeLine="73" fill="#FEFECE" filter="url(#flv3gtyybl3cs)" height="99.2188" id="Rectangle" style="stroke:#A80036;stroke-width:1.5;" width="150" x="253.5" y="805.9531"/><ellipse cx="295.05" cy="821.9531" fill="#ADD1B2" rx="11" ry="11" style="stroke:#A80036;stroke-width:1.0;"/><path d="M297.3938,817.625 C296.4563,817.1875 295.8625,817.0469 294.9875,817.0469 C292.3625,817.0469 290.3625,819.125 290.3625,821.8438 L290.3625,822.9688 C290.3625,825.5469 292.4719,827.4375 295.3625,827.4375 C296.5813,827.4375 297.7375,827.1406 298.4875,826.5938 C299.0656,826.1875 299.3938,825.7344 299.3938,825.3438 C299.3938,824.8906 299.0031,824.5 298.5344,824.5 C298.3156,824.5 298.1125,824.5781 297.925,824.7656 C297.4719,825.25 297.4719,825.25 297.2844,825.3438 C296.8625,825.6094 296.175,825.7344 295.4094,825.7344 C293.3625,825.7344 292.0656,824.6406 292.0656,822.9375 L292.0656,821.8438 C292.0656,820.0625 293.3156,818.75 295.05,818.75 C295.6281,818.75 296.2375,818.9063 296.7063,819.1563 C297.1906,819.4375 297.3625,819.6563 297.4563,820.0625 C297.5188,820.4688 297.55,820.5938 297.6906,820.7188 C297.8313,820.8594 298.0656,820.9688 298.2844,820.9688 C298.55,820.9688 298.8156,820.8281 298.9875,820.6094 C299.0969,820.4531 299.1281,820.2656 299.1281,819.8438 L299.1281,818.4219 C299.1281,817.9844 299.1125,817.8594 299.0188,817.7031 C298.8625,817.4375 298.5813,817.2969 298.2844,817.2969 C297.9875,817.2969 297.7844,817.3906 297.5656,817.7031 L297.3938,817.625 Z " fill="#000000"/><text fill="#000000" font-family="sans-serif" font-size="12" lengthAdjust="spacing" textLength="59" x="314.95" y="826.1074">Rectangle</text><line style="stroke:#A80036;stroke-width:1.5;" x1="254.5" x2="402.5" y1="837.9531" y2="837.9531"/><text fill="#000000" font-family="sans-serif" font-size="11" lengthAdjust="spacing" textLength="90" x="259.5" y="852.1636">minLat: decimal</text><text fill="#000000" font-family="sans-serif" font-size="11" lengthAdjust="spacing" textLength="91" x="259.5" y="864.9683">leftLon: decimal</text><text fill="#000000" font-family="sans-serif" font-size="11" lengthAdjust="spacing" textLength="138" x="259.5" y="877.7729">heightDegrees: decimal</text><text fill="#000000" font-family="sans-serif" font-size="11" lengthAdjust="spacing" textLength="132" x="259.5" y="890.5776">widthDegrees: decimal</text><line style="stroke:#A80036;stroke-width:1.5;" x1="254.5" x2="402.5" y1="897.1719" y2="897.1719"/><!--MD5=[0fdac03f5b0cf4737b65737ce60d2db0]
class Geometry--><rect codeLine="79" fill="#FEFECE" filter="url(#flv3gtyybl3cs)" height="48" id="Geometry" style="stroke:#A80036;stroke-width:1.5;" width="91" x="198" y="595.4531"/><ellipse cx="213" cy="611.4531" fill="#B4A7E5" rx="11" ry="11" style="stroke:#A80036;stroke-width:1.0;"/><path d="M213.9531,608.2344 L215.6719,608.2344 C216.0625,608.2344 216.25,608.2031 216.375,608.125 C216.6406,607.9688 216.7813,607.6875 216.7813,607.3906 C216.7813,607.125 216.6719,606.8594 216.4375,606.6875 C216.2656,606.5781 216.125,606.5469 215.6719,606.5469 L210.5313,606.5469 C210.0938,606.5469 209.9688,606.5625 209.8125,606.6563 C209.5625,606.8125 209.4063,607.1094 209.4063,607.3906 C209.4063,607.6719 209.5469,607.9219 209.7656,608.0938 C209.9219,608.2031 210.1094,608.2344 210.5313,608.2344 L212.25,608.2344 L212.25,614.75 L210.5313,614.75 C210.0938,614.75 209.9688,614.7656 209.8125,614.875 C209.5625,615.0313 209.4063,615.3125 209.4063,615.6094 C209.4063,615.8594 209.5469,616.125 209.7656,616.2813 C209.9219,616.4063 210.125,616.4531 210.5313,616.4531 L215.6719,616.4531 C216.4219,616.4531 216.7813,616.1719 216.7813,615.6094 C216.7813,615.3281 216.6719,615.0781 216.4375,614.9063 C216.2656,614.7813 216.125,614.75 215.6719,614.75 L213.9531,614.75 L213.9531,608.2344 Z " fill="#000000"/><text fill="#000000" font-family="sans-serif" font-size="12" font-style="italic" lengthAdjust="spacing" textLength="59" x="227" y="615.6074">Geometry</text><line style="stroke:#A80036;stroke-width:1.5;" x1="199" x2="288" y1="627.4531" y2="627.4531"/><line style="stroke:#A80036;stroke-width:1.5;" x1="199" x2="288" y1="635.4531" y2="635.4531"/><!--MD5=[a06e719365adc41d4546becc5217417e]
class NavWarningArea--><rect codeLine="80" fill="#FEFECE" filter="url(#flv3gtyybl3cs)" height="48" id="NavWarningArea" style="stroke:#A80036;stroke-width:1.5;" width="133" x="185" y="384.9531"/><ellipse cx="200" cy="400.9531" fill="#B4A7E5" rx="11" ry="11" style="stroke:#A80036;stroke-width:1.0;"/><path d="M200.9531,397.7344 L202.6719,397.7344 C203.0625,397.7344 203.25,397.7031 203.375,397.625 C203.6406,397.4688 203.7813,397.1875 203.7813,396.8906 C203.7813,396.625 203.6719,396.3594 203.4375,396.1875 C203.2656,396.0781 203.125,396.0469 202.6719,396.0469 L197.5313,396.0469 C197.0938,396.0469 196.9688,396.0625 196.8125,396.1563 C196.5625,396.3125 196.4063,396.6094 196.4063,396.8906 C196.4063,397.1719 196.5469,397.4219 196.7656,397.5938 C196.9219,397.7031 197.1094,397.7344 197.5313,397.7344 L199.25,397.7344 L199.25,404.25 L197.5313,404.25 C197.0938,404.25 196.9688,404.2656 196.8125,404.375 C196.5625,404.5313 196.4063,404.8125 196.4063,405.1094 C196.4063,405.3594 196.5469,405.625 196.7656,405.7813 C196.9219,405.9063 197.125,405.9531 197.5313,405.9531 L202.6719,405.9531 C203.4219,405.9531 203.7813,405.6719 203.7813,405.1094 C203.7813,404.8281 203.6719,404.5781 203.4375,404.4063 C203.2656,404.2813 203.125,404.25 202.6719,404.25 L200.9531,404.25 L200.9531,397.7344 Z " fill="#000000"/><text fill="#000000" font-family="sans-serif" font-size="12" font-style="italic" lengthAdjust="spacing" textLength="101" x="214" y="405.1074">NavWarningArea</text><line style="stroke:#A80036;stroke-width:1.5;" x1="186" x2="317" y1="416.9531" y2="416.9531"/><line style="stroke:#A80036;stroke-width:1.5;" x1="186" x2="317" y1="424.9531" y2="424.9531"/><!--MD5=[86a2e65f32dc21e863b5d95996722836]
class MeteorologicalArea--><rect codeLine="81" fill="#FEFECE" filter="url(#flv3gtyybl3cs)" height="48" id="MeteorologicalArea" style="stroke:#A80036;stroke-width:1.5;" width="145" x="354" y="384.9531"/><ellipse cx="369" cy="400.9531" fill="#B4A7E5" rx="11" ry="11" style="stroke:#A80036;stroke-width:1.0;"/><path d="M369.9531,397.7344 L371.6719,397.7344 C372.0625,397.7344 372.25,397.7031 372.375,397.625 C372.6406,397.4688 372.7813,397.1875 372.7813,396.8906 C372.7813,396.625 372.6719,396.3594 372.4375,396.1875 C372.2656,396.0781 372.125,396.0469 371.6719,396.0469 L366.5313,396.0469 C366.0938,396.0469 365.9688,396.0625 365.8125,396.1563 C365.5625,396.3125 365.4063,396.6094 365.4063,396.8906 C365.4063,397.1719 365.5469,397.4219 365.7656,397.5938 C365.9219,397.7031 366.1094,397.7344 366.5313,397.7344 L368.25,397.7344 L368.25,404.25 L366.5313,404.25 C366.0938,404.25 365.9688,404.2656 365.8125,404.375 C365.5625,404.5313 365.4063,404.8125 365.4063,405.1094 C365.4063,405.3594 365.5469,405.625 365.7656,405.7813 C365.9219,405.9063 366.125,405.9531 366.5313,405.9531 L371.6719,405.9531 C372.4219,405.9531 372.7813,405.6719 372.7813,405.1094 C372.7813,404.8281 372.6719,404.5781 372.4375,404.4063 C372.2656,404.2813 372.125,404.25 371.6719,404.25 L369.9531,404.25 L369.9531,397.7344 Z " fill="#000000"/><text fill="#000000" font-family="sans-serif" font-size="12" font-style="italic" lengthAdjust="spacing" textLength="113" x="383" y="405.1074">MeteorologicalArea</text><line style="stroke:#A80036;stroke-width:1.5;" x1="355" x2="498" y1="416.9531" y2="416.9531"/><line style="stroke:#A80036;stroke-width:1.5;" x1="355" x2="498" y1="424.9531" y2="424.9531"/><!--MD5=[dc02eab49d64f78f93a9f0cf45333858]
link MSI to Repetition--><path codeLine="50" d="M557.36,142.6851 C563.046,146.3361 568.802,149.8111 574.5,152.9531 C638.099,188.0251 664.173,175.6681 726.5,212.9531 C741.342,221.8321 756.195,234.0831 767.948,244.7701 " fill="none" id="MSI-Repetition" style="stroke:#A80036;stroke-width:1.0;"/><text fill="#000000" font-family="sans-serif" font-size="13" lengthAdjust="spacing" textLength="24" x="734.8378" y="233.7353">0..1</text><!--MD5=[68eac3220d6a798a1b9122ea5c12b509]
reverse link Repetition to RepeatOnce--><path codeLine="51" d="M812.579,310.9241 C824.986,335.0381 840.224,364.6551 850.577,384.7801 " fill="none" id="Repetition-backto-RepeatOnce" style="stroke:#A80036;stroke-width:1.0;"/><polygon fill="none" points="806.309,314.0381,803.384,293.0511,818.758,307.6331,806.309,314.0381" style="stroke:#A80036;stroke-width:1.0;"/><!--MD5=[c4aa100a13e262c74a559aea2ac46557]
reverse link Repetition to RepeatTillCancelled--><path codeLine="52" d="M764.9,309.8531 C748.698,334.1561 728.564,364.3561 714.949,384.7801 " fill="none" id="Repetition-backto-RepeatTillCancelled" style="stroke:#A80036;stroke-width:1.0;"/><polygon fill="none" points="759.183,305.8091,776.101,293.0511,770.832,313.5751,759.183,305.8091" style="stroke:#A80036;stroke-width:1.0;"/><!--MD5=[13ea0c9280f4470953279b5924882ff1]
link RepeatOnce to IntervalHours--><path codeLine="53" d="M852.414,433.0631 C845.704,448.4371 836.305,469.9721 826.278,492.9451 " fill="none" id="RepeatOnce-IntervalHours" style="stroke:#A80036;stroke-width:1.0;"/><text fill="#000000" font-family="sans-serif" font-size="13" lengthAdjust="spacing" textLength="8" x="821.3723" y="481.8538">1</text><!--MD5=[a8e660f3ff581e8ae2bbb1e0f37eb4fb]
link RepeatTillCancelled to IntervalHours--><path codeLine="54" d="M707.48,433.0631 C712.789,448.4371 720.226,469.9721 728.159,492.9451 " fill="none" id="RepeatTillCancelled-IntervalHours" style="stroke:#A80036;stroke-width:1.0;"/><text fill="#000000" font-family="sans-serif" font-size="13" lengthAdjust="spacing" textLength="8" x="717.2742" y="481.8538">1</text><!--MD5=[f39eadd4855fdcbb82e8bd0cd4f0eba6]
reverse link Geometry to Circle--><path codeLine="83" d="M228.287,662.8331 C213.062,705.2441 189.779,770.1041 174.596,812.3991 " fill="none" id="Geometry-backto-Circle" style="stroke:#A80036;stroke-width:1.0;"/><polygon fill="none" points="221.793,660.2041,235.139,643.7451,234.97,664.9341,221.793,660.2041" style="stroke:#A80036;stroke-width:1.0;"/><!--MD5=[d84596a069ebff60e908a9a07554cf04]
reverse link Geometry to Rectangle--><path codeLine="84" d="M258.857,662.7311 C273.47,702.9591 295.444,763.4531 310.79,805.6972 " fill="none" id="Geometry-backto-Rectangle" style="stroke:#A80036;stroke-width:1.0;"/><polygon fill="none" points="252.21,664.9331,251.961,643.7451,265.369,660.1541,252.21,664.9331" style="stroke:#A80036;stroke-width:1.0;"/><!--MD5=[57d8e39296350b64ee86f15e9e67f1c6]
reverse link NavWarningArea to NavArea--><path codeLine="86" d="M217.709,448.4031 C205.755,462.2791 192.342,478.1661 180.5,492.9531 C154.72,525.1441 126.532,563.1871 107.815,588.8821 " fill="none" id="NavWarningArea-backto-NavArea" style="stroke:#A80036;stroke-width:1.0;"/><polygon fill="none" points="212.491,443.7361,230.889,433.2241,223.061,452.9151,212.491,443.7361" style="stroke:#A80036;stroke-width:1.0;"/><!--MD5=[32794669c7bc6d3073cad72b04d59458]
reverse link NavWarningArea to CoastalWarningArea--><path codeLine="87" d="M279.77,449.5121 C308.785,490.1131 353.269,552.3611 379.366,588.8791 " fill="none" id="NavWarningArea-backto-CoastalWarningArea" style="stroke:#A80036;stroke-width:1.0;"/><polygon fill="none" points="273.948,453.4051,268.015,433.0631,285.339,445.2651,273.948,453.4051" style="stroke:#A80036;stroke-width:1.0;"/><!--MD5=[09ecf36fec88a76aff1a3838a070139a]
reverse link NavWarningArea to Geometry--><path codeLine="88" d="M249.844,453.1081 C248.189,496.2521 245.706,560.9711 244.391,595.2401 " fill="none" id="NavWarningArea-backto-Geometry" style="stroke:#A80036;stroke-width:1.0;"/><polygon fill="none" points="242.852,452.7801,250.613,433.0631,256.841,453.3161,242.852,452.7801" style="stroke:#A80036;stroke-width:1.0;"/><!--MD5=[0565048e001d0c7cf4b748a21429e91d]
reverse link MeteorologicalArea to Geometry--><path codeLine="90" d="M365.329,443.7551 C344.842,457.1551 323.033,473.9291 306.5,492.9531 C279.633,523.8671 260.897,568.2551 251.191,595.1181 " fill="none" id="MeteorologicalArea-backto-Geometry" style="stroke:#A80036;stroke-width:1.0;"/><polygon fill="none" points="361.773,437.7231,382.452,433.0981,369.171,449.6091,361.773,437.7231" style="stroke:#A80036;stroke-width:1.0;"/><!--MD5=[21ee1635963be7fb7862cac567bd5642]
reverse link MeteorologicalArea to CoastalWarningArea--><path codeLine="91" d="M421.118,453.1161 C416.054,493.7201 408.609,553.4261 404.188,588.8791 " fill="none" id="MeteorologicalArea-backto-CoastalWarningArea" style="stroke:#A80036;stroke-width:1.0;"/><polygon fill="none" points="414.197,452.0431,423.618,433.0631,428.089,453.7751,414.197,452.0431" style="stroke:#A80036;stroke-width:1.0;"/><!--MD5=[2c1863a9b2b3f470c967154d26f0654e]
reverse link MeteorologicalArea to MetArea--><path codeLine="92" d="M459.711,448.5391 C471.106,462.2791 483.7,478.0451 494.5,492.9531 C517.541,524.7581 541.424,563.0391 557.026,588.8921 " fill="none" id="MeteorologicalArea-backto-MetArea" style="stroke:#A80036;stroke-width:1.0;"/><polygon fill="none" points="454.135,452.7851,446.609,432.9771,464.845,443.7681,454.135,452.7851" style="stroke:#A80036;stroke-width:1.0;"/><!--MD5=[45e69262132f29a6673b584ee32daa9e]
reverse link SARBroadcastArea to Geometry--><path codeLine="94" d="M121.433,446.8591 C136.218,460.5861 152.35,476.7741 165.5,492.9531 C192.36,525.9991 217.183,568.9571 231.316,595.0781 " fill="none" id="SARBroadcastArea-backto-Geometry" style="stroke:#A80036;stroke-width:1.0;"/><polygon fill="none" points="116.283,451.6401,106.1233,433.0451,125.662,441.2461,116.283,451.6401" style="stroke:#A80036;stroke-width:1.0;"/><!--MD5=[7f0ef054806ca6871a7cfee4a734c37e]
reverse link SARBroadcastArea to NavArea--><path codeLine="95" d="M80.1561,453.1161 C81.7141,493.7201 84.0049,553.4261 85.3653,588.8791 " fill="none" id="SARBroadcastArea-backto-NavArea" style="stroke:#A80036;stroke-width:1.0;"/><polygon fill="none" points="73.1588,453.3161,79.3867,433.0631,87.1485,452.7801,73.1588,453.3161" style="stroke:#A80036;stroke-width:1.0;"/><!--MD5=[faf15ea1ffad2e2c15f81db67920c38c]
reverse link MSI to SARBroadcast--><path codeLine="97" d="M404.341,114.8051 C334.042,135.6091 233.33,169.4691 151.5,212.9531 C134.817,221.8181 117.718,234.0681 104.0673,244.7571 " fill="none" id="MSI-backto-SARBroadcast" style="stroke:#A80036;stroke-width:1.0;"/><polygon fill="none" points="402.613,108.0181,423.772,109.1581,406.52,121.4621,402.613,108.0181" style="stroke:#A80036;stroke-width:1.0;"/><!--MD5=[d25800ff29f21df095ae31d6bdc6ff96]
reverse link MSI to MetBroadcast--><path codeLine="98" d="M461.242,172.1421 C451.652,198.5881 441.732,225.9461 434.959,244.6231 " fill="none" id="MSI-backto-MetBroadcast" style="stroke:#A80036;stroke-width:1.0;"/><polygon fill="none" points="454.717,169.6001,468.116,153.1841,467.879,174.3721,454.717,169.6001" style="stroke:#A80036;stroke-width:1.0;"/><!--MD5=[6c18035a3954f9de6db20bc48d148147]
reverse link MSI to NavWarningBroadcast--><path codeLine="99" d="M407.793,152.5311 C364.656,184.3881 314.432,221.4781 282.803,244.8361 " fill="none" id="MSI-backto-NavWarningBroadcast" style="stroke:#A80036;stroke-width:1.0;"/><polygon fill="none" points="403.678,146.8681,423.925,140.6181,411.995,158.1301,403.678,146.8681" style="stroke:#A80036;stroke-width:1.0;"/><!--MD5=[1a29621155987e86a6aca1a0dcb5a11b]
link SARBroadcast to SARBroadcastArea--><path codeLine="101" d="M76.8348,293.0511 C77.2039,318.5251 77.7945,359.2751 78.1642,384.7801 " fill="none" id="SARBroadcast-SARBroadcastArea" style="stroke:#A80036;stroke-width:1.0;"/><text fill="#000000" font-family="sans-serif" font-size="13" lengthAdjust="spacing" textLength="24" x="51.0032" y="373.7478">0..1</text><!--MD5=[c601aa00e3e5ffcefa28cd25e3f99f59]
link MetBroadcast to MeteorologicalArea--><path codeLine="102" d="M426.5,293.0511 C426.5,318.5251 426.5,359.2751 426.5,384.7801 " fill="none" id="MetBroadcast-MeteorologicalArea" style="stroke:#A80036;stroke-width:1.0;"/><text fill="#000000" font-family="sans-serif" font-size="13" lengthAdjust="spacing" textLength="8" x="417.475" y="373.7478">1</text><!--MD5=[f076b2a5d0c1a0b5afdfb865f3773092]
link NavWarningBroadcast to NavWarningArea--><path codeLine="103" d="M251.5,293.0511 C251.5,318.5251 251.5,359.2751 251.5,384.7801 " fill="none" id="NavWarningBroadcast-NavWarningArea" style="stroke:#A80036;stroke-width:1.0;"/><text fill="#000000" font-family="sans-serif" font-size="13" lengthAdjust="spacing" textLength="8" x="242.475" y="373.7478">1</text><!--MD5=[4de7a76290e7abbea2b38f7760031aaf]
link MSI to Priority--><path codeLine="105" d="M513.234,153.1841 C522.093,177.2411 532.02,204.1971 540.026,225.9361 " fill="none" id="MSI-Priority" style="stroke:#A80036;stroke-width:1.0;"/><text fill="#000000" font-family="sans-serif" font-size="13" lengthAdjust="spacing" textLength="8" x="528.9223" y="214.9295">1</text><!--MD5=[66d906ee9ccde799097e4cc339fce60e]
link MSI to Status--><path codeLine="106" d="M552.756,153.1841 C577.519,177.7381 605.326,205.3121 627.478,227.2771 " fill="none" id="MSI-Status" style="stroke:#A80036;stroke-width:1.0;"/><text fill="#000000" font-family="sans-serif" font-size="13" lengthAdjust="spacing" textLength="8" x="611.4585" y="215.5943">1</text><!--MD5=[009ebfd6c6a47753e13ba9374e698cb7]
@startuml
title MSI Broadcasts - Class Diagram

class MSI {
  id: string
  payload: string
  startDate: timestamp
  endDate: timestamp
  send()
  cancel()
}
class SARBroadcast
class MetBroadcast
class NavWarningBroadcast

enum Priority {
  SAFETY
  URGENCY
  DISTRESS
}
enum Status {
  CREATED
  SCHEDULED
  ACTIVE
  FINISHED
  CANCELLED
}
enum IntervalHours {
  1
  2
  3
  4
  5
  6
  12
  18
  24
  30
  36
  48
  60
  72
  96
  120
}

interface Repetition 
class OneRepeat
class RepeatTillCancelled

MSI - - "0..1" Repetition
Repetition <|- - RepeatOnce
Repetition <|- - RepeatTillCancelled
RepeatOnce - - "1" IntervalHours
RepeatTillCancelled  - - "1" IntervalHours

class MetArea {
  metAreaNo: integer
}
class NavArea {
  navAreaNo: integer
}
class CoastalWarningArea {
  letter: char
}

interface SARBroadcastArea

class Circle {
  lat: decimal
  lon: decimal
  radiusNm: decimal
}
class Rectangle {
  minLat: decimal
  leftLon: decimal
  heightDegrees: decimal
  widthDegrees: decimal
}
interface Geometry
interface NavWarningArea
interface MeteorologicalArea

Geometry <|- - Circle
Geometry <|- - Rectangle

NavWarningArea <|- - NavArea
NavWarningArea <|- - CoastalWarningArea
NavWarningArea <|- - Geometry

MeteorologicalArea <|- - Geometry
MeteorologicalArea <|- - CoastalWarningArea
MeteorologicalArea <|- - MetArea

SARBroadcastArea <|- - Geometry
SARBroadcastArea <|- - NavArea

MSI <|- - SARBroadcast
MSI <|- - MetBroadcast
MSI <|- - NavWarningBroadcast

SARBroadcast  - - "0..1" SARBroadcastArea
MetBroadcast  - - "1" MeteorologicalArea
NavWarningBroadcast  - - "1" NavWarningArea

MSI - - "1" Priority
MSI - - "1" Status
@enduml

PlantUML version 1.2021.16beta2(Unknown compile time)
(GPL source distribution)
Java Runtime: Java(TM) SE Runtime Environment
JVM: Java HotSpot(TM) 64-Bit Server VM
Default Encoding: UTF-8
Language: en
Country: US
--></g></svg>