<?xml version="1.0" encoding="UTF-8" standalone="no"?><svg xmlns="http://www.w3.org/2000/svg" xmlns:xlink="http://www.w3.org/1999/xlink" contentScriptType="application/ecmascript" contentStyleType="text/css" height="970px" preserveAspectRatio="none" style="width:965px;height:970px;background:#FFFFFF;" version="1.1" viewBox="0 0 965 970" width="965px" zoomAndPan="magnify"><defs><filter height="300%" id="f1o2eslclg3pp1" width="300%" x="-1" y="-1"><feGaussianBlur result="blurOut" stdDeviation="2.0"/><feColorMatrix in="blurOut" result="blurOut2" type="matrix" values="0 0 0 0 0 0 0 0 0 0 0 0 0 0 0 0 0 0 .4 0"/><feOffset dx="4.0" dy="4.0" in="blurOut2" result="blurOut3"/><feBlend in="SourceGraphic" in2="blurOut3" mode="normal"/></filter></defs><g><text fill="#000000" font-family="sans-serif" font-size="18" lengthAdjust="spacing" textLength="293" x="329.5" y="16.708">MSI Broadcasts - Class Diagram</text><!--MD5=[d0e13ed213eb83238e6841a7b0b939cb]
class MSI--><rect codeLine="3" fill="#FEFECE" filter="url(#f1o2eslclg3pp1)" height="124.8281" id="MSI" style="stroke:#A80036;stroke-width:1.5;" width="133" x="429" y="27.9531"/><ellipse cx="480.75" cy="43.9531" fill="#ADD1B2" rx="11" ry="11" style="stroke:#A80036;stroke-width:1.0;"/><path d="M483.0938,39.625 C482.1563,39.1875 481.5625,39.0469 480.6875,39.0469 C478.0625,39.0469 476.0625,41.125 476.0625,43.8438 L476.0625,44.9688 C476.0625,47.5469 478.1719,49.4375 481.0625,49.4375 C482.2813,49.4375 483.4375,49.1406 484.1875,48.5938 C484.7656,48.1875 485.0938,47.7344 485.0938,47.3438 C485.0938,46.8906 484.7031,46.5 484.2344,46.5 C484.0156,46.5 483.8125,46.5781 483.625,46.7656 C483.1719,47.25 483.1719,47.25 482.9844,47.3438 C482.5625,47.6094 481.875,47.7344 481.1094,47.7344 C479.0625,47.7344 477.7656,46.6406 477.7656,44.9375 L477.7656,43.8438 C477.7656,42.0625 479.0156,40.75 480.75,40.75 C481.3281,40.75 481.9375,40.9063 482.4063,41.1563 C482.8906,41.4375 483.0625,41.6563 483.1563,42.0625 C483.2188,42.4688 483.25,42.5938 483.3906,42.7188 C483.5313,42.8594 483.7656,42.9688 483.9844,42.9688 C484.25,42.9688 484.5156,42.8281 484.6875,42.6094 C484.7969,42.4531 484.8281,42.2656 484.8281,41.8438 L484.8281,40.4219 C484.8281,39.9844 484.8125,39.8594 484.7188,39.7031 C484.5625,39.4375 484.2813,39.2969 483.9844,39.2969 C483.6875,39.2969 483.4844,39.3906 483.2656,39.7031 L483.0938,39.625 Z " fill="#000000"/><text fill="#000000" font-family="sans-serif" font-size="12" lengthAdjust="spacing" textLength="21" x="501.25" y="48.1074">MSI</text><line style="stroke:#A80036;stroke-width:1.5;" x1="430" x2="561" y1="59.9531" y2="59.9531"/><text fill="#000000" font-family="sans-serif" font-size="11" lengthAdjust="spacing" textLength="48" x="435" y="74.1636">id: string</text><text fill="#000000" font-family="sans-serif" font-size="11" lengthAdjust="spacing" textLength="83" x="435" y="86.9683">payload: string</text><text fill="#000000" font-family="sans-serif" font-size="11" lengthAdjust="spacing" textLength="121" x="435" y="99.7729">startDate: timestamp</text><text fill="#000000" font-family="sans-serif" font-size="11" lengthAdjust="spacing" textLength="118" x="435" y="112.5776">endDate: timestamp</text><line style="stroke:#A80036;stroke-width:1.5;" x1="430" x2="561" y1="119.1719" y2="119.1719"/><text fill="#000000" font-family="sans-serif" font-size="11" lengthAdjust="spacing" textLength="36" x="435" y="133.3823">send()</text><text fill="#000000" font-family="sans-serif" font-size="11" lengthAdjust="spacing" textLength="45" x="435" y="146.187">cancel()</text><!--MD5=[6a4bf54674a26136bd95edad553eae04]
class SARBroadcast--><rect codeLine="11" fill="#FEFECE" filter="url(#f1o2eslclg3pp1)" height="48" id="SARBroadcast" style="stroke:#A80036;stroke-width:1.5;" width="116" x="18.5" y="244.9531"/><ellipse cx="33.5" cy="260.9531" fill="#ADD1B2" rx="11" ry="11" style="stroke:#A80036;stroke-width:1.0;"/><path d="M35.8438,256.625 C34.9063,256.1875 34.3125,256.0469 33.4375,256.0469 C30.8125,256.0469 28.8125,258.125 28.8125,260.8438 L28.8125,261.9688 C28.8125,264.5469 30.9219,266.4375 33.8125,266.4375 C35.0313,266.4375 36.1875,266.1406 36.9375,265.5938 C37.5156,265.1875 37.8438,264.7344 37.8438,264.3438 C37.8438,263.8906 37.4531,263.5 36.9844,263.5 C36.7656,263.5 36.5625,263.5781 36.375,263.7656 C35.9219,264.25 35.9219,264.25 35.7344,264.3438 C35.3125,264.6094 34.625,264.7344 33.8594,264.7344 C31.8125,264.7344 30.5156,263.6406 30.5156,261.9375 L30.5156,260.8438 C30.5156,259.0625 31.7656,257.75 33.5,257.75 C34.0781,257.75 34.6875,257.9063 35.1563,258.1563 C35.6406,258.4375 35.8125,258.6563 35.9063,259.0625 C35.9688,259.4688 36,259.5938 36.1406,259.7188 C36.2813,259.8594 36.5156,259.9688 36.7344,259.9688 C37,259.9688 37.2656,259.8281 37.4375,259.6094 C37.5469,259.4531 37.5781,259.2656 37.5781,258.8438 L37.5781,257.4219 C37.5781,256.9844 37.5625,256.8594 37.4688,256.7031 C37.3125,256.4375 37.0313,256.2969 36.7344,256.2969 C36.4375,256.2969 36.2344,256.3906 36.0156,256.7031 L35.8438,256.625 Z " fill="#000000"/><text fill="#000000" font-family="sans-serif" font-size="12" lengthAdjust="spacing" textLength="84" x="47.5" y="265.1074">SARBroadcast</text><line style="stroke:#A80036;stroke-width:1.5;" x1="19.5" x2="133.5" y1="276.9531" y2="276.9531"/><line style="stroke:#A80036;stroke-width:1.5;" x1="19.5" x2="133.5" y1="284.9531" y2="284.9531"/><!--MD5=[59982b7b7c2f6d277251daf1f7ffe2c4]
class MetBroadcast--><rect codeLine="12" fill="#FEFECE" filter="url(#f1o2eslclg3pp1)" height="60.8047" id="MetBroadcast" style="stroke:#A80036;stroke-width:1.5;" width="122" x="368.5" y="238.4531"/><ellipse cx="386.65" cy="254.4531" fill="#ADD1B2" rx="11" ry="11" style="stroke:#A80036;stroke-width:1.0;"/><path d="M388.9938,250.125 C388.0563,249.6875 387.4625,249.5469 386.5875,249.5469 C383.9625,249.5469 381.9625,251.625 381.9625,254.3438 L381.9625,255.4688 C381.9625,258.0469 384.0719,259.9375 386.9625,259.9375 C388.1813,259.9375 389.3375,259.6406 390.0875,259.0938 C390.6656,258.6875 390.9938,258.2344 390.9938,257.8438 C390.9938,257.3906 390.6031,257 390.1344,257 C389.9156,257 389.7125,257.0781 389.525,257.2656 C389.0719,257.75 389.0719,257.75 388.8844,257.8438 C388.4625,258.1094 387.775,258.2344 387.0094,258.2344 C384.9625,258.2344 383.6656,257.1406 383.6656,255.4375 L383.6656,254.3438 C383.6656,252.5625 384.9156,251.25 386.65,251.25 C387.2281,251.25 387.8375,251.4063 388.3063,251.6563 C388.7906,251.9375 388.9625,252.1563 389.0563,252.5625 C389.1188,252.9688 389.15,253.0938 389.2906,253.2188 C389.4313,253.3594 389.6656,253.4688 389.8844,253.4688 C390.15,253.4688 390.4156,253.3281 390.5875,253.1094 C390.6969,252.9531 390.7281,252.7656 390.7281,252.3438 L390.7281,250.9219 C390.7281,250.4844 390.7125,250.3594 390.6188,250.2031 C390.4625,249.9375 390.1813,249.7969 389.8844,249.7969 C389.5875,249.7969 389.3844,249.8906 389.1656,250.2031 L388.9938,250.125 Z " fill="#000000"/><text fill="#000000" font-family="sans-serif" font-size="12" lengthAdjust="spacing" textLength="83" x="401.35" y="258.6074">MetBroadcast</text><line style="stroke:#A80036;stroke-width:1.5;" x1="369.5" x2="489.5" y1="270.4531" y2="270.4531"/><text fill="#000000" font-family="sans-serif" font-size="11" lengthAdjust="spacing" textLength="110" x="374.5" y="284.6636">isForecast: boolean</text><line style="stroke:#A80036;stroke-width:1.5;" x1="369.5" x2="489.5" y1="291.2578" y2="291.2578"/><!--MD5=[a58030872057f2eaffea5a541be2457b]
class NavWarningBroadcast--><rect codeLine="15" fill="#FEFECE" filter="url(#f1o2eslclg3pp1)" height="60.8047" id="NavWarningBroadcast" style="stroke:#A80036;stroke-width:1.5;" width="164" x="169.5" y="238.4531"/><ellipse cx="184.5" cy="254.4531" fill="#ADD1B2" rx="11" ry="11" style="stroke:#A80036;stroke-width:1.0;"/><path d="M186.8438,250.125 C185.9063,249.6875 185.3125,249.5469 184.4375,249.5469 C181.8125,249.5469 179.8125,251.625 179.8125,254.3438 L179.8125,255.4688 C179.8125,258.0469 181.9219,259.9375 184.8125,259.9375 C186.0313,259.9375 187.1875,259.6406 187.9375,259.0938 C188.5156,258.6875 188.8438,258.2344 188.8438,257.8438 C188.8438,257.3906 188.4531,257 187.9844,257 C187.7656,257 187.5625,257.0781 187.375,257.2656 C186.9219,257.75 186.9219,257.75 186.7344,257.8438 C186.3125,258.1094 185.625,258.2344 184.8594,258.2344 C182.8125,258.2344 181.5156,257.1406 181.5156,255.4375 L181.5156,254.3438 C181.5156,252.5625 182.7656,251.25 184.5,251.25 C185.0781,251.25 185.6875,251.4063 186.1563,251.6563 C186.6406,251.9375 186.8125,252.1563 186.9063,252.5625 C186.9688,252.9688 187,253.0938 187.1406,253.2188 C187.2813,253.3594 187.5156,253.4688 187.7344,253.4688 C188,253.4688 188.2656,253.3281 188.4375,253.1094 C188.5469,252.9531 188.5781,252.7656 188.5781,252.3438 L188.5781,250.9219 C188.5781,250.4844 188.5625,250.3594 188.4688,250.2031 C188.3125,249.9375 188.0313,249.7969 187.7344,249.7969 C187.4375,249.7969 187.2344,249.8906 187.0156,250.2031 L186.8438,250.125 Z " fill="#000000"/><text fill="#000000" font-family="sans-serif" font-size="12" lengthAdjust="spacing" textLength="132" x="198.5" y="258.6074">NavWarningBroadcast</text><line style="stroke:#A80036;stroke-width:1.5;" x1="170.5" x2="332.5" y1="270.4531" y2="270.4531"/><text fill="#000000" font-family="sans-serif" font-size="11" lengthAdjust="spacing" textLength="141" x="175.5" y="284.6636">isPiracyWarning: boolean</text><line style="stroke:#A80036;stroke-width:1.5;" x1="170.5" x2="332.5" y1="291.2578" y2="291.2578"/><!--MD5=[953e9b2fb9eece1b3fc587391ef815bf]
class Priority--><rect codeLine="19" fill="#FEFECE" filter="url(#f1o2eslclg3pp1)" height="86.4141" id="Priority" style="stroke:#A80036;stroke-width:1.5;" width="73" x="526" y="225.9531"/><ellipse cx="541" cy="241.9531" fill="#EB937F" rx="11" ry="11" style="stroke:#A80036;stroke-width:1.0;"/><path d="M539.7969,242.8281 L541.25,242.8281 L541.25,242.9375 C541.25,243.3438 541.2813,243.5 541.3594,243.6563 C541.5156,243.9063 541.7969,244.0625 542.0938,244.0625 C542.3438,244.0625 542.6094,243.9219 542.7656,243.7031 C542.8906,243.5469 542.9219,243.3906 542.9219,242.9375 L542.9219,241.0156 C542.9219,240.8594 542.9219,240.8125 542.9063,240.6563 C542.8438,240.1875 542.5313,239.875 542.0781,239.875 C541.8281,239.875 541.5625,240.0156 541.3906,240.2344 C541.2813,240.4063 541.25,240.5625 541.25,241.0156 L541.25,241.1406 L539.7969,241.1406 L539.7969,238.7344 L543.7813,238.7344 L543.7813,239.5938 C543.7813,240 543.8125,240.1719 543.8906,240.3281 C544.0625,240.5781 544.3438,240.7344 544.625,240.7344 C544.8906,240.7344 545.1563,240.5938 545.3281,240.375 C545.4375,240.2031 545.4688,240.0625 545.4688,239.5938 L545.4688,237.0469 L537.8438,237.0469 C537.4063,237.0469 537.2813,237.0625 537.125,237.1563 C536.875,237.3125 536.7188,237.6094 536.7188,237.8906 C536.7188,238.1719 536.8594,238.4219 537.0781,238.5938 C537.2344,238.7031 537.4219,238.7344 537.8438,238.7344 L538.0938,238.7344 L538.0938,245.25 L537.8438,245.25 C537.4375,245.25 537.2813,245.2656 537.125,245.375 C536.875,245.5469 536.7188,245.8125 536.7188,246.1094 C536.7188,246.375 536.8594,246.625 537.0781,246.7813 C537.2188,246.9063 537.4531,246.9531 537.8438,246.9531 L545.8438,246.9531 L545.8438,244.375 C545.8438,243.9375 545.8125,243.7969 545.7344,243.6406 C545.5625,243.3906 545.2813,243.2344 545,243.2344 C544.7344,243.2344 544.4688,243.3438 544.2969,243.5938 C544.1875,243.75 544.1563,243.8906 544.1563,244.375 L544.1563,245.25 L539.7969,245.25 L539.7969,242.8281 Z " fill="#000000"/><text fill="#000000" font-family="sans-serif" font-size="12" lengthAdjust="spacing" textLength="41" x="555" y="246.1074">Priority</text><line style="stroke:#A80036;stroke-width:1.5;" x1="527" x2="598" y1="257.9531" y2="257.9531"/><text fill="#000000" font-family="sans-serif" font-size="11" lengthAdjust="spacing" textLength="43" x="532" y="272.1636">SAFETY</text><text fill="#000000" font-family="sans-serif" font-size="11" lengthAdjust="spacing" textLength="54" x="532" y="284.9683">URGENCY</text><text fill="#000000" font-family="sans-serif" font-size="11" lengthAdjust="spacing" textLength="57" x="532" y="297.7729">DISTRESS</text><line style="stroke:#A80036;stroke-width:1.5;" x1="527" x2="598" y1="304.3672" y2="304.3672"/><!--MD5=[e3d83ec5fd90ea9f3f2bfe265cb53458]
class Status--><rect codeLine="24" fill="#FEFECE" filter="url(#f1o2eslclg3pp1)" height="112.0234" id="Status" style="stroke:#A80036;stroke-width:1.5;" width="82" x="634.5" y="212.9531"/><ellipse cx="655.35" cy="228.9531" fill="#EB937F" rx="11" ry="11" style="stroke:#A80036;stroke-width:1.0;"/><path d="M654.1469,229.8281 L655.6,229.8281 L655.6,229.9375 C655.6,230.3438 655.6313,230.5 655.7094,230.6563 C655.8656,230.9063 656.1469,231.0625 656.4438,231.0625 C656.6938,231.0625 656.9594,230.9219 657.1156,230.7031 C657.2406,230.5469 657.2719,230.3906 657.2719,229.9375 L657.2719,228.0156 C657.2719,227.8594 657.2719,227.8125 657.2563,227.6563 C657.1938,227.1875 656.8813,226.875 656.4281,226.875 C656.1781,226.875 655.9125,227.0156 655.7406,227.2344 C655.6313,227.4063 655.6,227.5625 655.6,228.0156 L655.6,228.1406 L654.1469,228.1406 L654.1469,225.7344 L658.1313,225.7344 L658.1313,226.5938 C658.1313,227 658.1625,227.1719 658.2406,227.3281 C658.4125,227.5781 658.6938,227.7344 658.975,227.7344 C659.2406,227.7344 659.5063,227.5938 659.6781,227.375 C659.7875,227.2031 659.8188,227.0625 659.8188,226.5938 L659.8188,224.0469 L652.1938,224.0469 C651.7563,224.0469 651.6313,224.0625 651.475,224.1563 C651.225,224.3125 651.0688,224.6094 651.0688,224.8906 C651.0688,225.1719 651.2094,225.4219 651.4281,225.5938 C651.5844,225.7031 651.7719,225.7344 652.1938,225.7344 L652.4438,225.7344 L652.4438,232.25 L652.1938,232.25 C651.7875,232.25 651.6313,232.2656 651.475,232.375 C651.225,232.5469 651.0688,232.8125 651.0688,233.1094 C651.0688,233.375 651.2094,233.625 651.4281,233.7813 C651.5688,233.9063 651.8031,233.9531 652.1938,233.9531 L660.1938,233.9531 L660.1938,231.375 C660.1938,230.9375 660.1625,230.7969 660.0844,230.6406 C659.9125,230.3906 659.6313,230.2344 659.35,230.2344 C659.0844,230.2344 658.8188,230.3438 658.6469,230.5938 C658.5375,230.75 658.5063,230.8906 658.5063,231.375 L658.5063,232.25 L654.1469,232.25 L654.1469,229.8281 Z " fill="#000000"/><text fill="#000000" font-family="sans-serif" font-size="12" lengthAdjust="spacing" textLength="37" x="670.65" y="233.1074">Status</text><line style="stroke:#A80036;stroke-width:1.5;" x1="635.5" x2="715.5" y1="244.9531" y2="244.9531"/><text fill="#000000" font-family="sans-serif" font-size="11" lengthAdjust="spacing" textLength="53" x="640.5" y="259.1636">CREATED</text><text fill="#000000" font-family="sans-serif" font-size="11" lengthAdjust="spacing" textLength="70" x="640.5" y="271.9683">SCHEDULED</text><text fill="#000000" font-family="sans-serif" font-size="11" lengthAdjust="spacing" textLength="41" x="640.5" y="284.7729">ACTIVE</text><text fill="#000000" font-family="sans-serif" font-size="11" lengthAdjust="spacing" textLength="52" x="640.5" y="297.5776">FINISHED</text><text fill="#000000" font-family="sans-serif" font-size="11" lengthAdjust="spacing" textLength="67" x="640.5" y="310.3823">CANCELLED</text><line style="stroke:#A80036;stroke-width:1.5;" x1="635.5" x2="715.5" y1="316.9766" y2="316.9766"/><!--MD5=[670ba5afd3835a69cbf81964ee5af7db]
class IntervalHours--><rect codeLine="31" fill="#FEFECE" filter="url(#f1o2eslclg3pp1)" height="252.875" id="IntervalHours" style="stroke:#A80036;stroke-width:1.5;" width="112" x="736.5" y="492.9531"/><ellipse cx="751.5" cy="508.9531" fill="#EB937F" rx="11" ry="11" style="stroke:#A80036;stroke-width:1.0;"/><path d="M750.2969,509.8281 L751.75,509.8281 L751.75,509.9375 C751.75,510.3438 751.7813,510.5 751.8594,510.6563 C752.0156,510.9063 752.2969,511.0625 752.5938,511.0625 C752.8438,511.0625 753.1094,510.9219 753.2656,510.7031 C753.3906,510.5469 753.4219,510.3906 753.4219,509.9375 L753.4219,508.0156 C753.4219,507.8594 753.4219,507.8125 753.4063,507.6563 C753.3438,507.1875 753.0313,506.875 752.5781,506.875 C752.3281,506.875 752.0625,507.0156 751.8906,507.2344 C751.7813,507.4063 751.75,507.5625 751.75,508.0156 L751.75,508.1406 L750.2969,508.1406 L750.2969,505.7344 L754.2813,505.7344 L754.2813,506.5938 C754.2813,507 754.3125,507.1719 754.3906,507.3281 C754.5625,507.5781 754.8438,507.7344 755.125,507.7344 C755.3906,507.7344 755.6563,507.5938 755.8281,507.375 C755.9375,507.2031 755.9688,507.0625 755.9688,506.5938 L755.9688,504.0469 L748.3438,504.0469 C747.9063,504.0469 747.7813,504.0625 747.625,504.1563 C747.375,504.3125 747.2188,504.6094 747.2188,504.8906 C747.2188,505.1719 747.3594,505.4219 747.5781,505.5938 C747.7344,505.7031 747.9219,505.7344 748.3438,505.7344 L748.5938,505.7344 L748.5938,512.25 L748.3438,512.25 C747.9375,512.25 747.7813,512.2656 747.625,512.375 C747.375,512.5469 747.2188,512.8125 747.2188,513.1094 C747.2188,513.375 747.3594,513.625 747.5781,513.7813 C747.7188,513.9063 747.9531,513.9531 748.3438,513.9531 L756.3438,513.9531 L756.3438,511.375 C756.3438,510.9375 756.3125,510.7969 756.2344,510.6406 C756.0625,510.3906 755.7813,510.2344 755.5,510.2344 C755.2344,510.2344 754.9688,510.3438 754.7969,510.5938 C754.6875,510.75 754.6563,510.8906 754.6563,511.375 L754.6563,512.25 L750.2969,512.25 L750.2969,509.8281 Z " fill="#000000"/><text fill="#000000" font-family="sans-serif" font-size="12" lengthAdjust="spacing" textLength="80" x="765.5" y="513.1074">IntervalHours</text><line style="stroke:#A80036;stroke-width:1.5;" x1="737.5" x2="847.5" y1="524.9531" y2="524.9531"/><text fill="#000000" font-family="sans-serif" font-size="11" lengthAdjust="spacing" textLength="7" x="742.5" y="539.1636">1</text><text fill="#000000" font-family="sans-serif" font-size="11" lengthAdjust="spacing" textLength="7" x="742.5" y="551.9683">2</text><text fill="#000000" font-family="sans-serif" font-size="11" lengthAdjust="spacing" textLength="7" x="742.5" y="564.7729">3</text><text fill="#000000" font-family="sans-serif" font-size="11" lengthAdjust="spacing" textLength="7" x="742.5" y="577.5776">4</text><text fill="#000000" font-family="sans-serif" font-size="11" lengthAdjust="spacing" textLength="7" x="742.5" y="590.3823">5</text><text fill="#000000" font-family="sans-serif" font-size="11" lengthAdjust="spacing" textLength="7" x="742.5" y="603.187">6</text><text fill="#000000" font-family="sans-serif" font-size="11" lengthAdjust="spacing" textLength="14" x="742.5" y="615.9917">12</text><text fill="#000000" font-family="sans-serif" font-size="11" lengthAdjust="spacing" textLength="14" x="742.5" y="628.7964">18</text><text fill="#000000" font-family="sans-serif" font-size="11" lengthAdjust="spacing" textLength="14" x="742.5" y="641.6011">24</text><text fill="#000000" font-family="sans-serif" font-size="11" lengthAdjust="spacing" textLength="14" x="742.5" y="654.4058">30</text><text fill="#000000" font-family="sans-serif" font-size="11" lengthAdjust="spacing" textLength="14" x="742.5" y="667.2104">36</text><text fill="#000000" font-family="sans-serif" font-size="11" lengthAdjust="spacing" textLength="14" x="742.5" y="680.0151">48</text><text fill="#000000" font-family="sans-serif" font-size="11" lengthAdjust="spacing" textLength="14" x="742.5" y="692.8198">60</text><text fill="#000000" font-family="sans-serif" font-size="11" lengthAdjust="spacing" textLength="14" x="742.5" y="705.6245">72</text><text fill="#000000" font-family="sans-serif" font-size="11" lengthAdjust="spacing" textLength="14" x="742.5" y="718.4292">96</text><text fill="#000000" font-family="sans-serif" font-size="11" lengthAdjust="spacing" textLength="21" x="742.5" y="731.2339">120</text><line style="stroke:#A80036;stroke-width:1.5;" x1="737.5" x2="847.5" y1="737.8281" y2="737.8281"/><!--MD5=[88c59876449025d50fa0788b08f620b9]
class Repetition--><rect codeLine="50" fill="#FEFECE" filter="url(#f1o2eslclg3pp1)" height="48" id="Repetition" style="stroke:#A80036;stroke-width:1.5;" width="93" x="752" y="244.9531"/><ellipse cx="767" cy="260.9531" fill="#B4A7E5" rx="11" ry="11" style="stroke:#A80036;stroke-width:1.0;"/><path d="M767.9531,257.7344 L769.6719,257.7344 C770.0625,257.7344 770.25,257.7031 770.375,257.625 C770.6406,257.4688 770.7813,257.1875 770.7813,256.8906 C770.7813,256.625 770.6719,256.3594 770.4375,256.1875 C770.2656,256.0781 770.125,256.0469 769.6719,256.0469 L764.5313,256.0469 C764.0938,256.0469 763.9688,256.0625 763.8125,256.1563 C763.5625,256.3125 763.4063,256.6094 763.4063,256.8906 C763.4063,257.1719 763.5469,257.4219 763.7656,257.5938 C763.9219,257.7031 764.1094,257.7344 764.5313,257.7344 L766.25,257.7344 L766.25,264.25 L764.5313,264.25 C764.0938,264.25 763.9688,264.2656 763.8125,264.375 C763.5625,264.5313 763.4063,264.8125 763.4063,265.1094 C763.4063,265.3594 763.5469,265.625 763.7656,265.7813 C763.9219,265.9063 764.125,265.9531 764.5313,265.9531 L769.6719,265.9531 C770.4219,265.9531 770.7813,265.6719 770.7813,265.1094 C770.7813,264.8281 770.6719,264.5781 770.4375,264.4063 C770.2656,264.2813 770.125,264.25 769.6719,264.25 L767.9531,264.25 L767.9531,257.7344 Z " fill="#000000"/><text fill="#000000" font-family="sans-serif" font-size="12" font-style="italic" lengthAdjust="spacing" textLength="61" x="781" y="265.1074">Repetition</text><line style="stroke:#A80036;stroke-width:1.5;" x1="753" x2="844" y1="276.9531" y2="276.9531"/><line style="stroke:#A80036;stroke-width:1.5;" x1="753" x2="844" y1="284.9531" y2="284.9531"/><!--MD5=[5cb67dfb29d802bd2827aaf3e983051d]
class RepeatOnce--><rect codeLine="51" fill="#FEFECE" filter="url(#f1o2eslclg3pp1)" height="48" id="RepeatOnce" style="stroke:#A80036;stroke-width:1.5;" width="106" x="660.5" y="384.9531"/><ellipse cx="675.5" cy="400.9531" fill="#ADD1B2" rx="11" ry="11" style="stroke:#A80036;stroke-width:1.0;"/><path d="M677.8438,396.625 C676.9063,396.1875 676.3125,396.0469 675.4375,396.0469 C672.8125,396.0469 670.8125,398.125 670.8125,400.8438 L670.8125,401.9688 C670.8125,404.5469 672.9219,406.4375 675.8125,406.4375 C677.0313,406.4375 678.1875,406.1406 678.9375,405.5938 C679.5156,405.1875 679.8438,404.7344 679.8438,404.3438 C679.8438,403.8906 679.4531,403.5 678.9844,403.5 C678.7656,403.5 678.5625,403.5781 678.375,403.7656 C677.9219,404.25 677.9219,404.25 677.7344,404.3438 C677.3125,404.6094 676.625,404.7344 675.8594,404.7344 C673.8125,404.7344 672.5156,403.6406 672.5156,401.9375 L672.5156,400.8438 C672.5156,399.0625 673.7656,397.75 675.5,397.75 C676.0781,397.75 676.6875,397.9063 677.1563,398.1563 C677.6406,398.4375 677.8125,398.6563 677.9063,399.0625 C677.9688,399.4688 678,399.5938 678.1406,399.7188 C678.2813,399.8594 678.5156,399.9688 678.7344,399.9688 C679,399.9688 679.2656,399.8281 679.4375,399.6094 C679.5469,399.4531 679.5781,399.2656 679.5781,398.8438 L679.5781,397.4219 C679.5781,396.9844 679.5625,396.8594 679.4688,396.7031 C679.3125,396.4375 679.0313,396.2969 678.7344,396.2969 C678.4375,396.2969 678.2344,396.3906 678.0156,396.7031 L677.8438,396.625 Z " fill="#000000"/><text fill="#000000" font-family="sans-serif" font-size="12" lengthAdjust="spacing" textLength="74" x="689.5" y="405.1074">RepeatOnce</text><line style="stroke:#A80036;stroke-width:1.5;" x1="661.5" x2="765.5" y1="416.9531" y2="416.9531"/><line style="stroke:#A80036;stroke-width:1.5;" x1="661.5" x2="765.5" y1="424.9531" y2="424.9531"/><!--MD5=[e991e8ea54c6943cd026340d8b1572eb]
class RepeatTillCancelled--><rect codeLine="52" fill="#FEFECE" filter="url(#f1o2eslclg3pp1)" height="48" id="RepeatTillCancelled" style="stroke:#A80036;stroke-width:1.5;" width="149" x="802" y="384.9531"/><ellipse cx="817" cy="400.9531" fill="#ADD1B2" rx="11" ry="11" style="stroke:#A80036;stroke-width:1.0;"/><path d="M819.3438,396.625 C818.4063,396.1875 817.8125,396.0469 816.9375,396.0469 C814.3125,396.0469 812.3125,398.125 812.3125,400.8438 L812.3125,401.9688 C812.3125,404.5469 814.4219,406.4375 817.3125,406.4375 C818.5313,406.4375 819.6875,406.1406 820.4375,405.5938 C821.0156,405.1875 821.3438,404.7344 821.3438,404.3438 C821.3438,403.8906 820.9531,403.5 820.4844,403.5 C820.2656,403.5 820.0625,403.5781 819.875,403.7656 C819.4219,404.25 819.4219,404.25 819.2344,404.3438 C818.8125,404.6094 818.125,404.7344 817.3594,404.7344 C815.3125,404.7344 814.0156,403.6406 814.0156,401.9375 L814.0156,400.8438 C814.0156,399.0625 815.2656,397.75 817,397.75 C817.5781,397.75 818.1875,397.9063 818.6563,398.1563 C819.1406,398.4375 819.3125,398.6563 819.4063,399.0625 C819.4688,399.4688 819.5,399.5938 819.6406,399.7188 C819.7813,399.8594 820.0156,399.9688 820.2344,399.9688 C820.5,399.9688 820.7656,399.8281 820.9375,399.6094 C821.0469,399.4531 821.0781,399.2656 821.0781,398.8438 L821.0781,397.4219 C821.0781,396.9844 821.0625,396.8594 820.9688,396.7031 C820.8125,396.4375 820.5313,396.2969 820.2344,396.2969 C819.9375,396.2969 819.7344,396.3906 819.5156,396.7031 L819.3438,396.625 Z " fill="#000000"/><text fill="#000000" font-family="sans-serif" font-size="12" lengthAdjust="spacing" textLength="117" x="831" y="405.1074">RepeatTillCancelled</text><line style="stroke:#A80036;stroke-width:1.5;" x1="803" x2="950" y1="416.9531" y2="416.9531"/><line style="stroke:#A80036;stroke-width:1.5;" x1="803" x2="950" y1="424.9531" y2="424.9531"/><!--MD5=[19c58e1c195e071f65e647eea3a11eda]
class MetArea--><rect codeLine="60" fill="#FEFECE" filter="url(#f1o2eslclg3pp1)" height="60.8047" id="MetArea" style="stroke:#A80036;stroke-width:1.5;" width="125" x="530" y="588.9531"/><ellipse cx="564.35" cy="604.9531" fill="#ADD1B2" rx="11" ry="11" style="stroke:#A80036;stroke-width:1.0;"/><path d="M566.6938,600.625 C565.7563,600.1875 565.1625,600.0469 564.2875,600.0469 C561.6625,600.0469 559.6625,602.125 559.6625,604.8438 L559.6625,605.9688 C559.6625,608.5469 561.7719,610.4375 564.6625,610.4375 C565.8813,610.4375 567.0375,610.1406 567.7875,609.5938 C568.3656,609.1875 568.6938,608.7344 568.6938,608.3438 C568.6938,607.8906 568.3031,607.5 567.8344,607.5 C567.6156,607.5 567.4125,607.5781 567.225,607.7656 C566.7719,608.25 566.7719,608.25 566.5844,608.3438 C566.1625,608.6094 565.475,608.7344 564.7094,608.7344 C562.6625,608.7344 561.3656,607.6406 561.3656,605.9375 L561.3656,604.8438 C561.3656,603.0625 562.6156,601.75 564.35,601.75 C564.9281,601.75 565.5375,601.9063 566.0063,602.1563 C566.4906,602.4375 566.6625,602.6563 566.7563,603.0625 C566.8188,603.4688 566.85,603.5938 566.9906,603.7188 C567.1313,603.8594 567.3656,603.9688 567.5844,603.9688 C567.85,603.9688 568.1156,603.8281 568.2875,603.6094 C568.3969,603.4531 568.4281,603.2656 568.4281,602.8438 L568.4281,601.4219 C568.4281,600.9844 568.4125,600.8594 568.3188,600.7031 C568.1625,600.4375 567.8813,600.2969 567.5844,600.2969 C567.2875,600.2969 567.0844,600.3906 566.8656,600.7031 L566.6938,600.625 Z " fill="#000000"/><text fill="#000000" font-family="sans-serif" font-size="12" lengthAdjust="spacing" textLength="50" x="582.65" y="609.1074">MetArea</text><line style="stroke:#A80036;stroke-width:1.5;" x1="531" x2="654" y1="620.9531" y2="620.9531"/><text fill="#000000" font-family="sans-serif" font-size="11" lengthAdjust="spacing" textLength="113" x="536" y="635.1636">metAreaNo: integer</text><line style="stroke:#A80036;stroke-width:1.5;" x1="531" x2="654" y1="641.7578" y2="641.7578"/><!--MD5=[9affa659e72119d3471adf0766b1bab5]
class NavArea--><rect codeLine="63" fill="#FEFECE" filter="url(#f1o2eslclg3pp1)" height="60.8047" id="NavArea" style="stroke:#A80036;stroke-width:1.5;" width="123" x="23" y="588.9531"/><ellipse cx="56.45" cy="604.9531" fill="#ADD1B2" rx="11" ry="11" style="stroke:#A80036;stroke-width:1.0;"/><path d="M58.7938,600.625 C57.8563,600.1875 57.2625,600.0469 56.3875,600.0469 C53.7625,600.0469 51.7625,602.125 51.7625,604.8438 L51.7625,605.9688 C51.7625,608.5469 53.8719,610.4375 56.7625,610.4375 C57.9813,610.4375 59.1375,610.1406 59.8875,609.5938 C60.4656,609.1875 60.7938,608.7344 60.7938,608.3438 C60.7938,607.8906 60.4031,607.5 59.9344,607.5 C59.7156,607.5 59.5125,607.5781 59.325,607.7656 C58.8719,608.25 58.8719,608.25 58.6844,608.3438 C58.2625,608.6094 57.575,608.7344 56.8094,608.7344 C54.7625,608.7344 53.4656,607.6406 53.4656,605.9375 L53.4656,604.8438 C53.4656,603.0625 54.7156,601.75 56.45,601.75 C57.0281,601.75 57.6375,601.9063 58.1063,602.1563 C58.5906,602.4375 58.7625,602.6563 58.8563,603.0625 C58.9188,603.4688 58.95,603.5938 59.0906,603.7188 C59.2313,603.8594 59.4656,603.9688 59.6844,603.9688 C59.95,603.9688 60.2156,603.8281 60.3875,603.6094 C60.4969,603.4531 60.5281,603.2656 60.5281,602.8438 L60.5281,601.4219 C60.5281,600.9844 60.5125,600.8594 60.4188,600.7031 C60.2625,600.4375 59.9813,600.2969 59.6844,600.2969 C59.3875,600.2969 59.1844,600.3906 58.9656,600.7031 L58.7938,600.625 Z " fill="#000000"/><text fill="#000000" font-family="sans-serif" font-size="12" lengthAdjust="spacing" textLength="50" x="74.55" y="609.1074">NavArea</text><line style="stroke:#A80036;stroke-width:1.5;" x1="24" x2="145" y1="620.9531" y2="620.9531"/><text fill="#000000" font-family="sans-serif" font-size="11" lengthAdjust="spacing" textLength="111" x="29" y="635.1636">navAreaNo: integer</text><line style="stroke:#A80036;stroke-width:1.5;" x1="24" x2="145" y1="641.7578" y2="641.7578"/><!--MD5=[3465795d537a068d04ef95ff9f5d3463]
class CoastalWarningArea--><rect codeLine="66" fill="#FEFECE" filter="url(#f1o2eslclg3pp1)" height="73.6094" id="CoastalWarningArea" style="stroke:#A80036;stroke-width:1.5;" width="153" x="342" y="582.4531"/><ellipse cx="357" cy="598.4531" fill="#ADD1B2" rx="11" ry="11" style="stroke:#A80036;stroke-width:1.0;"/><path d="M359.3438,594.125 C358.4063,593.6875 357.8125,593.5469 356.9375,593.5469 C354.3125,593.5469 352.3125,595.625 352.3125,598.3438 L352.3125,599.4688 C352.3125,602.0469 354.4219,603.9375 357.3125,603.9375 C358.5313,603.9375 359.6875,603.6406 360.4375,603.0938 C361.0156,602.6875 361.3438,602.2344 361.3438,601.8438 C361.3438,601.3906 360.9531,601 360.4844,601 C360.2656,601 360.0625,601.0781 359.875,601.2656 C359.4219,601.75 359.4219,601.75 359.2344,601.8438 C358.8125,602.1094 358.125,602.2344 357.3594,602.2344 C355.3125,602.2344 354.0156,601.1406 354.0156,599.4375 L354.0156,598.3438 C354.0156,596.5625 355.2656,595.25 357,595.25 C357.5781,595.25 358.1875,595.4063 358.6563,595.6563 C359.1406,595.9375 359.3125,596.1563 359.4063,596.5625 C359.4688,596.9688 359.5,597.0938 359.6406,597.2188 C359.7813,597.3594 360.0156,597.4688 360.2344,597.4688 C360.5,597.4688 360.7656,597.3281 360.9375,597.1094 C361.0469,596.9531 361.0781,596.7656 361.0781,596.3438 L361.0781,594.9219 C361.0781,594.4844 361.0625,594.3594 360.9688,594.2031 C360.8125,593.9375 360.5313,593.7969 360.2344,593.7969 C359.9375,593.7969 359.7344,593.8906 359.5156,594.2031 L359.3438,594.125 Z " fill="#000000"/><text fill="#000000" font-family="sans-serif" font-size="12" lengthAdjust="spacing" textLength="121" x="371" y="602.6074">CoastalWarningArea</text><line style="stroke:#A80036;stroke-width:1.5;" x1="343" x2="494" y1="614.4531" y2="614.4531"/><text fill="#000000" font-family="sans-serif" font-size="11" lengthAdjust="spacing" textLength="111" x="348" y="628.6636">navAreaNo: integer</text><text fill="#000000" font-family="sans-serif" font-size="11" lengthAdjust="spacing" textLength="62" x="348" y="641.4683">letter: char</text><line style="stroke:#A80036;stroke-width:1.5;" x1="343" x2="494" y1="648.0625" y2="648.0625"/><!--MD5=[93bb61fe5a88b9a94b2d06480bc0ec5a]
class SubjectIndicator--><rect codeLine="71" fill="#FEFECE" filter="url(#f1o2eslclg3pp1)" height="150.4375" id="SubjectIndicator" style="stroke:#A80036;stroke-width:1.5;" width="246" x="348.5" y="805.9531"/><ellipse cx="418.75" cy="821.9531" fill="#EB937F" rx="11" ry="11" style="stroke:#A80036;stroke-width:1.0;"/><path d="M417.5469,822.8281 L419,822.8281 L419,822.9375 C419,823.3438 419.0313,823.5 419.1094,823.6563 C419.2656,823.9063 419.5469,824.0625 419.8438,824.0625 C420.0938,824.0625 420.3594,823.9219 420.5156,823.7031 C420.6406,823.5469 420.6719,823.3906 420.6719,822.9375 L420.6719,821.0156 C420.6719,820.8594 420.6719,820.8125 420.6563,820.6563 C420.5938,820.1875 420.2813,819.875 419.8281,819.875 C419.5781,819.875 419.3125,820.0156 419.1406,820.2344 C419.0313,820.4063 419,820.5625 419,821.0156 L419,821.1406 L417.5469,821.1406 L417.5469,818.7344 L421.5313,818.7344 L421.5313,819.5938 C421.5313,820 421.5625,820.1719 421.6406,820.3281 C421.8125,820.5781 422.0938,820.7344 422.375,820.7344 C422.6406,820.7344 422.9063,820.5938 423.0781,820.375 C423.1875,820.2031 423.2188,820.0625 423.2188,819.5938 L423.2188,817.0469 L415.5938,817.0469 C415.1563,817.0469 415.0313,817.0625 414.875,817.1563 C414.625,817.3125 414.4688,817.6094 414.4688,817.8906 C414.4688,818.1719 414.6094,818.4219 414.8281,818.5938 C414.9844,818.7031 415.1719,818.7344 415.5938,818.7344 L415.8438,818.7344 L415.8438,825.25 L415.5938,825.25 C415.1875,825.25 415.0313,825.2656 414.875,825.375 C414.625,825.5469 414.4688,825.8125 414.4688,826.1094 C414.4688,826.375 414.6094,826.625 414.8281,826.7813 C414.9688,826.9063 415.2031,826.9531 415.5938,826.9531 L423.5938,826.9531 L423.5938,824.375 C423.5938,823.9375 423.5625,823.7969 423.4844,823.6406 C423.3125,823.3906 423.0313,823.2344 422.75,823.2344 C422.4844,823.2344 422.2188,823.3438 422.0469,823.5938 C421.9375,823.75 421.9063,823.8906 421.9063,824.375 L421.9063,825.25 L417.5469,825.25 L417.5469,822.8281 Z " fill="#000000"/><text fill="#000000" font-family="sans-serif" font-size="12" lengthAdjust="spacing" textLength="97" x="439.25" y="826.1074">SubjectIndicator</text><line style="stroke:#A80036;stroke-width:1.5;" x1="349.5" x2="593.5" y1="837.9531" y2="837.9531"/><text fill="#000000" font-family="sans-serif" font-size="11" lengthAdjust="spacing" textLength="153" x="354.5" y="852.1636">NAVIGATIONAL_WARNINGS</text><text fill="#000000" font-family="sans-serif" font-size="11" lengthAdjust="spacing" textLength="172" x="354.5" y="864.9683">METEOROLOGICAL_WARNINGS</text><text fill="#000000" font-family="sans-serif" font-size="11" lengthAdjust="spacing" textLength="75" x="354.5" y="877.7729">ICE_REPORTS</text><text fill="#000000" font-family="sans-serif" font-size="11" lengthAdjust="spacing" textLength="199" x="354.5" y="890.5776">SAR_INFO_AND_PIRACY_WARNINGS</text><text fill="#000000" font-family="sans-serif" font-size="11" lengthAdjust="spacing" textLength="178" x="354.5" y="903.3823">METEOROLOGICAL_FORECASTS</text><text fill="#000000" font-family="sans-serif" font-size="11" lengthAdjust="spacing" textLength="117" x="354.5" y="916.187">SATNAV_MESSAGES</text><text fill="#000000" font-family="sans-serif" font-size="11" lengthAdjust="spacing" textLength="234" x="354.5" y="928.9917">OTHER_ELECTRONIC_NAVAID_MESSAGES</text><text fill="#000000" font-family="sans-serif" font-size="11" lengthAdjust="spacing" textLength="197" x="354.5" y="941.7964">OTHER_NAVIGATIONAL_WARNINGS</text><line style="stroke:#A80036;stroke-width:1.5;" x1="349.5" x2="593.5" y1="948.3906" y2="948.3906"/><!--MD5=[51f8f994229af8ae2211a1c190bfc9b4]
class SARBroadcastArea--><rect codeLine="83" fill="#FEFECE" filter="url(#f1o2eslclg3pp1)" height="48" id="SARBroadcastArea" style="stroke:#A80036;stroke-width:1.5;" width="143" x="7" y="384.9531"/><ellipse cx="22" cy="400.9531" fill="#B4A7E5" rx="11" ry="11" style="stroke:#A80036;stroke-width:1.0;"/><path d="M22.9531,397.7344 L24.6719,397.7344 C25.0625,397.7344 25.25,397.7031 25.375,397.625 C25.6406,397.4688 25.7813,397.1875 25.7813,396.8906 C25.7813,396.625 25.6719,396.3594 25.4375,396.1875 C25.2656,396.0781 25.125,396.0469 24.6719,396.0469 L19.5313,396.0469 C19.0938,396.0469 18.9688,396.0625 18.8125,396.1563 C18.5625,396.3125 18.4063,396.6094 18.4063,396.8906 C18.4063,397.1719 18.5469,397.4219 18.7656,397.5938 C18.9219,397.7031 19.1094,397.7344 19.5313,397.7344 L21.25,397.7344 L21.25,404.25 L19.5313,404.25 C19.0938,404.25 18.9688,404.2656 18.8125,404.375 C18.5625,404.5313 18.4063,404.8125 18.4063,405.1094 C18.4063,405.3594 18.5469,405.625 18.7656,405.7813 C18.9219,405.9063 19.125,405.9531 19.5313,405.9531 L24.6719,405.9531 C25.4219,405.9531 25.7813,405.6719 25.7813,405.1094 C25.7813,404.8281 25.6719,404.5781 25.4375,404.4063 C25.2656,404.2813 25.125,404.25 24.6719,404.25 L22.9531,404.25 L22.9531,397.7344 Z " fill="#000000"/><text fill="#000000" font-family="sans-serif" font-size="12" font-style="italic" lengthAdjust="spacing" textLength="111" x="36" y="405.1074">SARBroadcastArea</text><line style="stroke:#A80036;stroke-width:1.5;" x1="8" x2="149" y1="416.9531" y2="416.9531"/><line style="stroke:#A80036;stroke-width:1.5;" x1="8" x2="149" y1="424.9531" y2="424.9531"/><!--MD5=[a7f9118cae7621dd25d25149752faef0]
class Circle--><rect codeLine="85" fill="#FEFECE" filter="url(#f1o2eslclg3pp1)" height="86.4141" id="Circle" style="stroke:#A80036;stroke-width:1.5;" width="117" x="11" y="837.9531"/><ellipse cx="48.95" cy="853.9531" fill="#ADD1B2" rx="11" ry="11" style="stroke:#A80036;stroke-width:1.0;"/><path d="M51.2938,849.625 C50.3563,849.1875 49.7625,849.0469 48.8875,849.0469 C46.2625,849.0469 44.2625,851.125 44.2625,853.8438 L44.2625,854.9688 C44.2625,857.5469 46.3719,859.4375 49.2625,859.4375 C50.4813,859.4375 51.6375,859.1406 52.3875,858.5938 C52.9656,858.1875 53.2938,857.7344 53.2938,857.3438 C53.2938,856.8906 52.9031,856.5 52.4344,856.5 C52.2156,856.5 52.0125,856.5781 51.825,856.7656 C51.3719,857.25 51.3719,857.25 51.1844,857.3438 C50.7625,857.6094 50.075,857.7344 49.3094,857.7344 C47.2625,857.7344 45.9656,856.6406 45.9656,854.9375 L45.9656,853.8438 C45.9656,852.0625 47.2156,850.75 48.95,850.75 C49.5281,850.75 50.1375,850.9063 50.6063,851.1563 C51.0906,851.4375 51.2625,851.6563 51.3563,852.0625 C51.4188,852.4688 51.45,852.5938 51.5906,852.7188 C51.7313,852.8594 51.9656,852.9688 52.1844,852.9688 C52.45,852.9688 52.7156,852.8281 52.8875,852.6094 C52.9969,852.4531 53.0281,852.2656 53.0281,851.8438 L53.0281,850.4219 C53.0281,849.9844 53.0125,849.8594 52.9188,849.7031 C52.7625,849.4375 52.4813,849.2969 52.1844,849.2969 C51.8875,849.2969 51.6844,849.3906 51.4656,849.7031 L51.2938,849.625 Z " fill="#000000"/><text fill="#000000" font-family="sans-serif" font-size="12" lengthAdjust="spacing" textLength="34" x="68.05" y="858.1074">Circle</text><line style="stroke:#A80036;stroke-width:1.5;" x1="12" x2="127" y1="869.9531" y2="869.9531"/><text fill="#000000" font-family="sans-serif" font-size="11" lengthAdjust="spacing" textLength="66" x="17" y="884.1636">lat: decimal</text><text fill="#000000" font-family="sans-serif" font-size="11" lengthAdjust="spacing" textLength="69" x="17" y="896.9683">lon: decimal</text><text fill="#000000" font-family="sans-serif" font-size="11" lengthAdjust="spacing" textLength="105" x="17" y="909.7729">radiusNm: decimal</text><line style="stroke:#A80036;stroke-width:1.5;" x1="12" x2="127" y1="916.3672" y2="916.3672"/><!--MD5=[b5313cd49da22b0744b541f414f8445e]
class Rectangle--><rect codeLine="90" fill="#FEFECE" filter="url(#f1o2eslclg3pp1)" height="99.2188" id="Rectangle" style="stroke:#A80036;stroke-width:1.5;" width="150" x="163.5" y="831.4531"/><ellipse cx="205.05" cy="847.4531" fill="#ADD1B2" rx="11" ry="11" style="stroke:#A80036;stroke-width:1.0;"/><path d="M207.3938,843.125 C206.4563,842.6875 205.8625,842.5469 204.9875,842.5469 C202.3625,842.5469 200.3625,844.625 200.3625,847.3438 L200.3625,848.4688 C200.3625,851.0469 202.4719,852.9375 205.3625,852.9375 C206.5813,852.9375 207.7375,852.6406 208.4875,852.0938 C209.0656,851.6875 209.3938,851.2344 209.3938,850.8438 C209.3938,850.3906 209.0031,850 208.5344,850 C208.3156,850 208.1125,850.0781 207.925,850.2656 C207.4719,850.75 207.4719,850.75 207.2844,850.8438 C206.8625,851.1094 206.175,851.2344 205.4094,851.2344 C203.3625,851.2344 202.0656,850.1406 202.0656,848.4375 L202.0656,847.3438 C202.0656,845.5625 203.3156,844.25 205.05,844.25 C205.6281,844.25 206.2375,844.4063 206.7063,844.6563 C207.1906,844.9375 207.3625,845.1563 207.4563,845.5625 C207.5188,845.9688 207.55,846.0938 207.6906,846.2188 C207.8313,846.3594 208.0656,846.4688 208.2844,846.4688 C208.55,846.4688 208.8156,846.3281 208.9875,846.1094 C209.0969,845.9531 209.1281,845.7656 209.1281,845.3438 L209.1281,843.9219 C209.1281,843.4844 209.1125,843.3594 209.0188,843.2031 C208.8625,842.9375 208.5813,842.7969 208.2844,842.7969 C207.9875,842.7969 207.7844,842.8906 207.5656,843.2031 L207.3938,843.125 Z " fill="#000000"/><text fill="#000000" font-family="sans-serif" font-size="12" lengthAdjust="spacing" textLength="59" x="224.95" y="851.6074">Rectangle</text><line style="stroke:#A80036;stroke-width:1.5;" x1="164.5" x2="312.5" y1="863.4531" y2="863.4531"/><text fill="#000000" font-family="sans-serif" font-size="11" lengthAdjust="spacing" textLength="90" x="169.5" y="877.6636">minLat: decimal</text><text fill="#000000" font-family="sans-serif" font-size="11" lengthAdjust="spacing" textLength="91" x="169.5" y="890.4683">leftLon: decimal</text><text fill="#000000" font-family="sans-serif" font-size="11" lengthAdjust="spacing" textLength="138" x="169.5" y="903.2729">heightDegrees: decimal</text><text fill="#000000" font-family="sans-serif" font-size="11" lengthAdjust="spacing" textLength="132" x="169.5" y="916.0776">widthDegrees: decimal</text><line style="stroke:#A80036;stroke-width:1.5;" x1="164.5" x2="312.5" y1="922.6719" y2="922.6719"/><!--MD5=[0fdac03f5b0cf4737b65737ce60d2db0]
class Geometry--><rect codeLine="96" fill="#FEFECE" filter="url(#f1o2eslclg3pp1)" height="48" id="Geometry" style="stroke:#A80036;stroke-width:1.5;" width="91" x="193" y="595.4531"/><ellipse cx="208" cy="611.4531" fill="#B4A7E5" rx="11" ry="11" style="stroke:#A80036;stroke-width:1.0;"/><path d="M208.9531,608.2344 L210.6719,608.2344 C211.0625,608.2344 211.25,608.2031 211.375,608.125 C211.6406,607.9688 211.7813,607.6875 211.7813,607.3906 C211.7813,607.125 211.6719,606.8594 211.4375,606.6875 C211.2656,606.5781 211.125,606.5469 210.6719,606.5469 L205.5313,606.5469 C205.0938,606.5469 204.9688,606.5625 204.8125,606.6563 C204.5625,606.8125 204.4063,607.1094 204.4063,607.3906 C204.4063,607.6719 204.5469,607.9219 204.7656,608.0938 C204.9219,608.2031 205.1094,608.2344 205.5313,608.2344 L207.25,608.2344 L207.25,614.75 L205.5313,614.75 C205.0938,614.75 204.9688,614.7656 204.8125,614.875 C204.5625,615.0313 204.4063,615.3125 204.4063,615.6094 C204.4063,615.8594 204.5469,616.125 204.7656,616.2813 C204.9219,616.4063 205.125,616.4531 205.5313,616.4531 L210.6719,616.4531 C211.4219,616.4531 211.7813,616.1719 211.7813,615.6094 C211.7813,615.3281 211.6719,615.0781 211.4375,614.9063 C211.2656,614.7813 211.125,614.75 210.6719,614.75 L208.9531,614.75 L208.9531,608.2344 Z " fill="#000000"/><text fill="#000000" font-family="sans-serif" font-size="12" font-style="italic" lengthAdjust="spacing" textLength="59" x="222" y="615.6074">Geometry</text><line style="stroke:#A80036;stroke-width:1.5;" x1="194" x2="283" y1="627.4531" y2="627.4531"/><line style="stroke:#A80036;stroke-width:1.5;" x1="194" x2="283" y1="635.4531" y2="635.4531"/><!--MD5=[a06e719365adc41d4546becc5217417e]
class NavWarningArea--><rect codeLine="97" fill="#FEFECE" filter="url(#f1o2eslclg3pp1)" height="48" id="NavWarningArea" style="stroke:#A80036;stroke-width:1.5;" width="133" x="185" y="384.9531"/><ellipse cx="200" cy="400.9531" fill="#B4A7E5" rx="11" ry="11" style="stroke:#A80036;stroke-width:1.0;"/><path d="M200.9531,397.7344 L202.6719,397.7344 C203.0625,397.7344 203.25,397.7031 203.375,397.625 C203.6406,397.4688 203.7813,397.1875 203.7813,396.8906 C203.7813,396.625 203.6719,396.3594 203.4375,396.1875 C203.2656,396.0781 203.125,396.0469 202.6719,396.0469 L197.5313,396.0469 C197.0938,396.0469 196.9688,396.0625 196.8125,396.1563 C196.5625,396.3125 196.4063,396.6094 196.4063,396.8906 C196.4063,397.1719 196.5469,397.4219 196.7656,397.5938 C196.9219,397.7031 197.1094,397.7344 197.5313,397.7344 L199.25,397.7344 L199.25,404.25 L197.5313,404.25 C197.0938,404.25 196.9688,404.2656 196.8125,404.375 C196.5625,404.5313 196.4063,404.8125 196.4063,405.1094 C196.4063,405.3594 196.5469,405.625 196.7656,405.7813 C196.9219,405.9063 197.125,405.9531 197.5313,405.9531 L202.6719,405.9531 C203.4219,405.9531 203.7813,405.6719 203.7813,405.1094 C203.7813,404.8281 203.6719,404.5781 203.4375,404.4063 C203.2656,404.2813 203.125,404.25 202.6719,404.25 L200.9531,404.25 L200.9531,397.7344 Z " fill="#000000"/><text fill="#000000" font-family="sans-serif" font-size="12" font-style="italic" lengthAdjust="spacing" textLength="101" x="214" y="405.1074">NavWarningArea</text><line style="stroke:#A80036;stroke-width:1.5;" x1="186" x2="317" y1="416.9531" y2="416.9531"/><line style="stroke:#A80036;stroke-width:1.5;" x1="186" x2="317" y1="424.9531" y2="424.9531"/><!--MD5=[86a2e65f32dc21e863b5d95996722836]
class MeteorologicalArea--><rect codeLine="98" fill="#FEFECE" filter="url(#f1o2eslclg3pp1)" height="48" id="MeteorologicalArea" style="stroke:#A80036;stroke-width:1.5;" width="145" x="355" y="384.9531"/><ellipse cx="370" cy="400.9531" fill="#B4A7E5" rx="11" ry="11" style="stroke:#A80036;stroke-width:1.0;"/><path d="M370.9531,397.7344 L372.6719,397.7344 C373.0625,397.7344 373.25,397.7031 373.375,397.625 C373.6406,397.4688 373.7813,397.1875 373.7813,396.8906 C373.7813,396.625 373.6719,396.3594 373.4375,396.1875 C373.2656,396.0781 373.125,396.0469 372.6719,396.0469 L367.5313,396.0469 C367.0938,396.0469 366.9688,396.0625 366.8125,396.1563 C366.5625,396.3125 366.4063,396.6094 366.4063,396.8906 C366.4063,397.1719 366.5469,397.4219 366.7656,397.5938 C366.9219,397.7031 367.1094,397.7344 367.5313,397.7344 L369.25,397.7344 L369.25,404.25 L367.5313,404.25 C367.0938,404.25 366.9688,404.2656 366.8125,404.375 C366.5625,404.5313 366.4063,404.8125 366.4063,405.1094 C366.4063,405.3594 366.5469,405.625 366.7656,405.7813 C366.9219,405.9063 367.125,405.9531 367.5313,405.9531 L372.6719,405.9531 C373.4219,405.9531 373.7813,405.6719 373.7813,405.1094 C373.7813,404.8281 373.6719,404.5781 373.4375,404.4063 C373.2656,404.2813 373.125,404.25 372.6719,404.25 L370.9531,404.25 L370.9531,397.7344 Z " fill="#000000"/><text fill="#000000" font-family="sans-serif" font-size="12" font-style="italic" lengthAdjust="spacing" textLength="113" x="384" y="405.1074">MeteorologicalArea</text><line style="stroke:#A80036;stroke-width:1.5;" x1="356" x2="499" y1="416.9531" y2="416.9531"/><line style="stroke:#A80036;stroke-width:1.5;" x1="356" x2="499" y1="424.9531" y2="424.9531"/><!--MD5=[dc02eab49d64f78f93a9f0cf45333858]
link MSI to Repetition--><path codeLine="54" d="M562.168,120.4461 C611.19,142.9501 678.559,176.3941 733.5,212.9531 C747.653,222.3711 762.207,234.4261 773.946,244.8491 " fill="none" id="MSI-Repetition" style="stroke:#A80036;stroke-width:1.0;"/><text fill="#000000" font-family="sans-serif" font-size="13" lengthAdjust="spacing" textLength="24" x="740.579" y="233.8345">0..1</text><!--MD5=[68eac3220d6a798a1b9122ea5c12b509]
reverse link Repetition to RepeatOnce--><path codeLine="55" d="M773.704,310.2091 C758.773,334.4511 740.292,364.4561 727.774,384.7801 " fill="none" id="Repetition-backto-RepeatOnce" style="stroke:#A80036;stroke-width:1.0;"/><polygon fill="none" points="767.824,306.4091,784.273,293.0511,779.744,313.7511,767.824,306.4091" style="stroke:#A80036;stroke-width:1.0;"/><!--MD5=[c4aa100a13e262c74a559aea2ac46557]
reverse link Repetition to RepeatTillCancelled--><path codeLine="56" d="M821.455,310.5661 C835.121,334.7451 851.971,364.5561 863.402,384.7801 " fill="none" id="Repetition-backto-RepeatTillCancelled" style="stroke:#A80036;stroke-width:1.0;"/><polygon fill="none" points="815.303,313.9071,811.555,293.0511,827.491,307.0181,815.303,313.9071" style="stroke:#A80036;stroke-width:1.0;"/><!--MD5=[13ea0c9280f4470953279b5924882ff1]
link RepeatOnce to IntervalHours--><path codeLine="57" d="M722.256,433.0631 C728.081,448.4371 736.241,469.9721 744.945,492.9451 " fill="none" id="RepeatOnce-IntervalHours" style="stroke:#A80036;stroke-width:1.0;"/><text fill="#000000" font-family="sans-serif" font-size="13" lengthAdjust="spacing" textLength="8" x="733.8034" y="481.8538">1</text><!--MD5=[a8e660f3ff581e8ae2bbb1e0f37eb4fb]
link RepeatTillCancelled to IntervalHours--><path codeLine="58" d="M867.19,433.0631 C860.996,448.4371 852.32,469.9721 843.064,492.9451 " fill="none" id="RepeatTillCancelled-IntervalHours" style="stroke:#A80036;stroke-width:1.0;"/><text fill="#000000" font-family="sans-serif" font-size="13" lengthAdjust="spacing" textLength="8" x="837.9015" y="481.8538">1</text><!--MD5=[fab4c7b744660b1021fb1342bc906395]
link CoastalWarningArea to SubjectIndicator--><path codeLine="81" d="M425.869,656.5351 C433.72,694.9721 446.366,756.8921 456.357,805.8081 " fill="none" id="CoastalWarningArea-SubjectIndicator" style="stroke:#A80036;stroke-width:1.0;"/><text fill="#000000" font-family="sans-serif" font-size="13" lengthAdjust="spacing" textLength="8" x="446.5324" y="794.9834">1</text><!--MD5=[f39eadd4855fdcbb82e8bd0cd4f0eba6]
reverse link Geometry to Circle--><path codeLine="100" d="M215.152,661.2191 C200.712,685.9971 181.545,718.1191 163.5,745.9531 C143.172,777.3081 118.925,811.8081 100.1489,837.9481 " fill="none" id="Geometry-backto-Circle" style="stroke:#A80036;stroke-width:1.0;"/><polygon fill="none" points="209.101,657.7001,225.177,643.8951,221.219,664.7121,209.101,657.7001" style="stroke:#A80036;stroke-width:1.0;"/><!--MD5=[d84596a069ebff60e908a9a07554cf04]
reverse link Geometry to Rectangle--><path codeLine="101" d="M238.5,663.7731 C238.5,709.9521 238.5,782.9201 238.5,831.1101 " fill="none" id="Geometry-backto-Rectangle" style="stroke:#A80036;stroke-width:1.0;"/><polygon fill="none" points="231.5,663.4821,238.5,643.4821,245.5,663.4821,231.5,663.4821" style="stroke:#A80036;stroke-width:1.0;"/><!--MD5=[57d8e39296350b64ee86f15e9e67f1c6]
reverse link NavWarningArea to NavArea--><path codeLine="103" d="M215.093,447.8791 C202.227,461.7541 187.885,477.7751 175.5,492.9531 C149.638,524.6491 122.406,562.9501 104.5483,588.8381 " fill="none" id="NavWarningArea-backto-NavArea" style="stroke:#A80036;stroke-width:1.0;"/><polygon fill="none" points="210.011,443.0641,228.809,433.2841,220.213,452.6521,210.011,443.0641" style="stroke:#A80036;stroke-width:1.0;"/><!--MD5=[32794669c7bc6d3073cad72b04d59458]
reverse link NavWarningArea to CoastalWarningArea--><path codeLine="104" d="M282.67,448.8691 C313.316,487.1301 359.714,545.0591 389.564,582.3271 " fill="none" id="NavWarningArea-backto-CoastalWarningArea" style="stroke:#A80036;stroke-width:1.0;"/><polygon fill="none" points="277.05,453.0491,270.01,433.0631,287.977,444.2971,277.05,453.0491" style="stroke:#A80036;stroke-width:1.0;"/><!--MD5=[09ecf36fec88a76aff1a3838a070139a]
reverse link NavWarningArea to Geometry--><path codeLine="105" d="M248.809,453.1081 C246.119,496.2521 242.084,560.9711 239.947,595.2401 " fill="none" id="NavWarningArea-backto-Geometry" style="stroke:#A80036;stroke-width:1.0;"/><polygon fill="none" points="241.828,452.5881,250.059,433.0631,255.801,453.4601,241.828,452.5881" style="stroke:#A80036;stroke-width:1.0;"/><!--MD5=[0565048e001d0c7cf4b748a21429e91d]
reverse link MeteorologicalArea to Geometry--><path codeLine="107" d="M377.833,445.2301 C360.02,459.0681 340.42,475.7481 324.5,492.9531 C294.542,525.3281 267.072,568.8711 251.593,595.2331 " fill="none" id="MeteorologicalArea-backto-Geometry" style="stroke:#A80036;stroke-width:1.0;"/><polygon fill="none" points="373.675,439.5981,393.859,433.1481,382.103,450.7771,373.675,439.5981" style="stroke:#A80036;stroke-width:1.0;"/><!--MD5=[21ee1635963be7fb7862cac567bd5642]
reverse link MeteorologicalArea to CoastalWarningArea--><path codeLine="108" d="M425.639,453.0711 C423.99,491.2691 421.61,546.3991 420.059,582.3271 " fill="none" id="MeteorologicalArea-backto-CoastalWarningArea" style="stroke:#A80036;stroke-width:1.0;"/><polygon fill="none" points="418.646,452.7421,426.502,433.0631,432.633,453.3461,418.646,452.7421" style="stroke:#A80036;stroke-width:1.0;"/><!--MD5=[2c1863a9b2b3f470c967154d26f0654e]
reverse link MeteorologicalArea to MetArea--><path codeLine="109" d="M469.286,447.0731 C483.717,460.8211 499.509,476.9661 512.5,492.9531 C537.432,523.6331 561.138,562.4681 576.178,588.7521 " fill="none" id="MeteorologicalArea-backto-MetArea" style="stroke:#A80036;stroke-width:1.0;"/><polygon fill="none" points="464.256,451.9551,454.36,433.2181,473.78,441.6941,464.256,451.9551" style="stroke:#A80036;stroke-width:1.0;"/><!--MD5=[45e69262132f29a6673b584ee32daa9e]
reverse link SARBroadcastArea to Geometry--><path codeLine="111" d="M120.545,446.8661 C134.999,460.5941 150.741,476.7811 163.5,492.9531 C189.598,526.0321 213.386,568.9811 226.886,595.0911 " fill="none" id="SARBroadcastArea-backto-Geometry" style="stroke:#A80036;stroke-width:1.0;"/><polygon fill="none" points="115.523,451.7571,105.5678,433.0511,125.015,441.4661,115.523,451.7571" style="stroke:#A80036;stroke-width:1.0;"/><!--MD5=[7f0ef054806ca6871a7cfee4a734c37e]
reverse link SARBroadcastArea to NavArea--><path codeLine="112" d="M79.7421,453.1161 C80.9106,493.7201 82.6287,553.4261 83.649,588.8791 " fill="none" id="SARBroadcastArea-backto-NavArea" style="stroke:#A80036;stroke-width:1.0;"/><polygon fill="none" points="72.7433,453.2561,79.165,433.0631,86.7375,452.8531,72.7433,453.2561" style="stroke:#A80036;stroke-width:1.0;"/><!--MD5=[faf15ea1ffad2e2c15f81db67920c38c]
reverse link MSI to SARBroadcast--><path codeLine="114" d="M409.496,114.1871 C338.089,134.8351 235.063,168.7951 151.5,212.9531 C134.797,221.7791 117.696,234.0261 104.0492,244.7231 " fill="none" id="MSI-backto-SARBroadcast" style="stroke:#A80036;stroke-width:1.0;"/><polygon fill="none" points="407.604,107.4471,428.755,108.7191,411.428,120.9151,407.604,107.4471" style="stroke:#A80036;stroke-width:1.0;"/><!--MD5=[d25800ff29f21df095ae31d6bdc6ff96]
reverse link MSI to MetBroadcast--><path codeLine="115" d="M465.305,172.2031 C456.505,195.7361 447.437,219.9861 440.628,238.1931 " fill="none" id="MSI-backto-MetBroadcast" style="stroke:#A80036;stroke-width:1.0;"/><polygon fill="none" points="458.855,169.4651,472.416,153.1841,471.968,174.3691,458.855,169.4651" style="stroke:#A80036;stroke-width:1.0;"/><!--MD5=[6c18035a3954f9de6db20bc48d148147]
reverse link MSI to NavWarningBroadcast--><path codeLine="116" d="M412.514,151.4821 C372.039,180.7601 325.159,214.6711 292.46,238.3241 " fill="none" id="MSI-backto-NavWarningBroadcast" style="stroke:#A80036;stroke-width:1.0;"/><polygon fill="none" points="408.518,145.7331,428.826,139.6821,416.724,157.0761,408.518,145.7331" style="stroke:#A80036;stroke-width:1.0;"/><!--MD5=[1a29621155987e86a6aca1a0dcb5a11b]
link SARBroadcast to SARBroadcastArea--><path codeLine="118" d="M76.8348,293.0511 C77.2039,318.5251 77.7945,359.2751 78.1642,384.7801 " fill="none" id="SARBroadcast-SARBroadcastArea" style="stroke:#A80036;stroke-width:1.0;"/><text fill="#000000" font-family="sans-serif" font-size="13" lengthAdjust="spacing" textLength="24" x="51.0032" y="373.7478">0..1</text><!--MD5=[c601aa00e3e5ffcefa28cd25e3f99f59]
link MetBroadcast to MeteorologicalArea--><path codeLine="119" d="M429.071,299.5571 C428.701,325.0591 428.175,361.3571 427.836,384.7861 " fill="none" id="MetBroadcast-MeteorologicalArea" style="stroke:#A80036;stroke-width:1.0;"/><text fill="#000000" font-family="sans-serif" font-size="13" lengthAdjust="spacing" textLength="8" x="418.8971" y="373.7554">1</text><!--MD5=[f076b2a5d0c1a0b5afdfb865f3773092]
link NavWarningBroadcast to NavWarningArea--><path codeLine="120" d="M251.5,299.5571 C251.5,325.0591 251.5,361.3571 251.5,384.7861 " fill="none" id="NavWarningBroadcast-NavWarningArea" style="stroke:#A80036;stroke-width:1.0;"/><text fill="#000000" font-family="sans-serif" font-size="13" lengthAdjust="spacing" textLength="8" x="242.475" y="373.7554">1</text><!--MD5=[4de7a76290e7abbea2b38f7760031aaf]
link MSI to Priority--><path codeLine="122" d="M518.933,153.1841 C528.065,177.2411 538.298,204.1971 546.55,225.9361 " fill="none" id="MSI-Priority" style="stroke:#A80036;stroke-width:1.0;"/><text fill="#000000" font-family="sans-serif" font-size="13" lengthAdjust="spacing" textLength="8" x="535.3705" y="214.9295">1</text><!--MD5=[66d906ee9ccde799097e4cc339fce60e]
link MSI to Status--><path codeLine="123" d="M558.455,153.1841 C583.598,177.8381 611.844,205.5351 634.289,227.5431 " fill="none" id="MSI-Status" style="stroke:#A80036;stroke-width:1.0;"/><text fill="#000000" font-family="sans-serif" font-size="13" lengthAdjust="spacing" textLength="8" x="618.5184" y="216.213">1</text><!--MD5=[576f8526de5c36759c3390d409fe7507]
@startuml
title MSI Broadcasts - Class Diagram

class MSI {
  id: string
  payload: string
  startDate: timestamp
  endDate: timestamp
  send()
  cancel()
}
class SARBroadcast
class MetBroadcast {
  isForecast: boolean
}
class NavWarningBroadcast {
  isPiracyWarning: boolean
}

enum Priority {
  SAFETY
  URGENCY
  DISTRESS
}
enum Status {
  CREATED
  SCHEDULED
  ACTIVE
  FINISHED
  CANCELLED
}
enum IntervalHours {
  1
  2
  3
  4
  5
  6
  12
  18
  24
  30
  36
  48
  60
  72
  96
  120
}

interface Repetition 
class RepeatOnce
class RepeatTillCancelled

MSI - - "0..1" Repetition
Repetition <|- - RepeatOnce
Repetition <|- - RepeatTillCancelled
RepeatOnce - - "1" IntervalHours
RepeatTillCancelled  - - "1" IntervalHours

class MetArea {
  metAreaNo: integer
}
class NavArea {
  navAreaNo: integer
}
class CoastalWarningArea {
  navAreaNo: integer
  letter: char
}

enum SubjectIndicator {
  NAVIGATIONAL_WARNINGS
  METEOROLOGICAL_WARNINGS
  ICE_REPORTS
  SAR_INFO_AND_PIRACY_WARNINGS
  METEOROLOGICAL_FORECASTS
  SATNAV_MESSAGES
  OTHER_ELECTRONIC_NAVAID_MESSAGES
  OTHER_NAVIGATIONAL_WARNINGS
}
CoastalWarningArea - - "1" SubjectIndicator
 
interface SARBroadcastArea

class Circle {
  lat: decimal
  lon: decimal
  radiusNm: decimal
}
class Rectangle {
  minLat: decimal
  leftLon: decimal
  heightDegrees: decimal
  widthDegrees: decimal
}
interface Geometry
interface NavWarningArea
interface MeteorologicalArea

Geometry <|- - Circle
Geometry <|- - Rectangle

NavWarningArea <|- - NavArea
NavWarningArea <|- - CoastalWarningArea
NavWarningArea <|- - Geometry

MeteorologicalArea <|- - Geometry
MeteorologicalArea <|- - CoastalWarningArea
MeteorologicalArea <|- - MetArea

SARBroadcastArea <|- - Geometry
SARBroadcastArea <|- - NavArea

MSI <|- - SARBroadcast
MSI <|- - MetBroadcast
MSI <|- - NavWarningBroadcast

SARBroadcast  - - "0..1" SARBroadcastArea
MetBroadcast  - - "1" MeteorologicalArea
NavWarningBroadcast  - - "1" NavWarningArea

MSI - - "1" Priority
MSI - - "1" Status
@enduml

PlantUML version 1.2021.16beta2(Unknown compile time)
(GPL source distribution)
Java Runtime: Java(TM) SE Runtime Environment
JVM: Java HotSpot(TM) 64-Bit Server VM
Default Encoding: UTF-8
Language: en
Country: US
--></g></svg>