<?xml version="1.0" encoding="UTF-8" standalone="no"?><svg xmlns="http://www.w3.org/2000/svg" xmlns:xlink="http://www.w3.org/1999/xlink" contentScriptType="application/ecmascript" contentStyleType="text/css" height="919px" preserveAspectRatio="none" style="width:1102px;height:919px;background:#FFFFFF;" version="1.1" viewBox="0 0 1102 919" width="1102px" zoomAndPan="magnify"><defs><filter height="300%" id="f1xie4v3d7ers6" width="300%" x="-1" y="-1"><feGaussianBlur result="blurOut" stdDeviation="2.0"/><feColorMatrix in="blurOut" result="blurOut2" type="matrix" values="0 0 0 0 0 0 0 0 0 0 0 0 0 0 0 0 0 0 .4 0"/><feOffset dx="4.0" dy="4.0" in="blurOut2" result="blurOut3"/><feBlend in="SourceGraphic" in2="blurOut3" mode="normal"/></filter></defs><g><text fill="#000000" font-family="sans-serif" font-size="18" lengthAdjust="spacing" textLength="293" x="398.25" y="16.708">MSI Broadcasts - Class Diagram</text><!--MD5=[66c7b72d5fd996439b55bab4eb3f5e0e]
class Broadcast--><rect codeLine="3" fill="#FEFECE" filter="url(#f1xie4v3d7ers6)" height="124.8281" id="Broadcast" style="stroke:#A80036;stroke-width:1.5;" width="184" x="479" y="27.9531"/><ellipse cx="536.25" cy="43.9531" fill="#ADD1B2" rx="11" ry="11" style="stroke:#A80036;stroke-width:1.0;"/><path d="M538.5938,39.625 C537.6563,39.1875 537.0625,39.0469 536.1875,39.0469 C533.5625,39.0469 531.5625,41.125 531.5625,43.8438 L531.5625,44.9688 C531.5625,47.5469 533.6719,49.4375 536.5625,49.4375 C537.7813,49.4375 538.9375,49.1406 539.6875,48.5938 C540.2656,48.1875 540.5938,47.7344 540.5938,47.3438 C540.5938,46.8906 540.2031,46.5 539.7344,46.5 C539.5156,46.5 539.3125,46.5781 539.125,46.7656 C538.6719,47.25 538.6719,47.25 538.4844,47.3438 C538.0625,47.6094 537.375,47.7344 536.6094,47.7344 C534.5625,47.7344 533.2656,46.6406 533.2656,44.9375 L533.2656,43.8438 C533.2656,42.0625 534.5156,40.75 536.25,40.75 C536.8281,40.75 537.4375,40.9063 537.9063,41.1563 C538.3906,41.4375 538.5625,41.6563 538.6563,42.0625 C538.7188,42.4688 538.75,42.5938 538.8906,42.7188 C539.0313,42.8594 539.2656,42.9688 539.4844,42.9688 C539.75,42.9688 540.0156,42.8281 540.1875,42.6094 C540.2969,42.4531 540.3281,42.2656 540.3281,41.8438 L540.3281,40.4219 C540.3281,39.9844 540.3125,39.8594 540.2188,39.7031 C540.0625,39.4375 539.7813,39.2969 539.4844,39.2969 C539.1875,39.2969 538.9844,39.3906 538.7656,39.7031 L538.5938,39.625 Z " fill="#000000"/><text fill="#000000" font-family="sans-serif" font-size="12" lengthAdjust="spacing" textLength="61" x="556.75" y="48.1074">Broadcast</text><line style="stroke:#A80036;stroke-width:1.5;" x1="480" x2="662" y1="59.9531" y2="59.9531"/><text fill="#000000" font-family="sans-serif" font-size="11" lengthAdjust="spacing" textLength="48" x="485" y="74.1636">id: string</text><text fill="#000000" font-family="sans-serif" font-size="11" lengthAdjust="spacing" textLength="83" x="485" y="86.9683">payload: string</text><text fill="#000000" font-family="sans-serif" font-size="11" lengthAdjust="spacing" textLength="171" x="485" y="99.7729">startDateInclusive: timestamp</text><text fill="#000000" font-family="sans-serif" font-size="11" lengthAdjust="spacing" textLength="172" x="485" y="112.5776">endDateExclusive: timestamp</text><line style="stroke:#A80036;stroke-width:1.5;" x1="480" x2="662" y1="119.1719" y2="119.1719"/><text fill="#000000" font-family="sans-serif" font-size="11" lengthAdjust="spacing" textLength="36" x="485" y="133.3823">send()</text><text fill="#000000" font-family="sans-serif" font-size="11" lengthAdjust="spacing" textLength="45" x="485" y="146.187">cancel()</text><!--MD5=[6a4bf54674a26136bd95edad553eae04]
class SARBroadcast--><rect codeLine="11" fill="#FEFECE" filter="url(#f1xie4v3d7ers6)" height="48" id="SARBroadcast" style="stroke:#A80036;stroke-width:1.5;" width="116" x="7" y="384.9531"/><ellipse cx="22" cy="400.9531" fill="#ADD1B2" rx="11" ry="11" style="stroke:#A80036;stroke-width:1.0;"/><path d="M24.3438,396.625 C23.4063,396.1875 22.8125,396.0469 21.9375,396.0469 C19.3125,396.0469 17.3125,398.125 17.3125,400.8438 L17.3125,401.9688 C17.3125,404.5469 19.4219,406.4375 22.3125,406.4375 C23.5313,406.4375 24.6875,406.1406 25.4375,405.5938 C26.0156,405.1875 26.3438,404.7344 26.3438,404.3438 C26.3438,403.8906 25.9531,403.5 25.4844,403.5 C25.2656,403.5 25.0625,403.5781 24.875,403.7656 C24.4219,404.25 24.4219,404.25 24.2344,404.3438 C23.8125,404.6094 23.125,404.7344 22.3594,404.7344 C20.3125,404.7344 19.0156,403.6406 19.0156,401.9375 L19.0156,400.8438 C19.0156,399.0625 20.2656,397.75 22,397.75 C22.5781,397.75 23.1875,397.9063 23.6563,398.1563 C24.1406,398.4375 24.3125,398.6563 24.4063,399.0625 C24.4688,399.4688 24.5,399.5938 24.6406,399.7188 C24.7813,399.8594 25.0156,399.9688 25.2344,399.9688 C25.5,399.9688 25.7656,399.8281 25.9375,399.6094 C26.0469,399.4531 26.0781,399.2656 26.0781,398.8438 L26.0781,397.4219 C26.0781,396.9844 26.0625,396.8594 25.9688,396.7031 C25.8125,396.4375 25.5313,396.2969 25.2344,396.2969 C24.9375,396.2969 24.7344,396.3906 24.5156,396.7031 L24.3438,396.625 Z " fill="#000000"/><text fill="#000000" font-family="sans-serif" font-size="12" lengthAdjust="spacing" textLength="84" x="36" y="405.1074">SARBroadcast</text><line style="stroke:#A80036;stroke-width:1.5;" x1="8" x2="122" y1="416.9531" y2="416.9531"/><line style="stroke:#A80036;stroke-width:1.5;" x1="8" x2="122" y1="424.9531" y2="424.9531"/><!--MD5=[59982b7b7c2f6d277251daf1f7ffe2c4]
class MetBroadcast--><rect codeLine="12" fill="#FEFECE" filter="url(#f1xie4v3d7ers6)" height="48" id="MetBroadcast" style="stroke:#A80036;stroke-width:1.5;" width="115" x="157.5" y="244.9531"/><ellipse cx="172.5" cy="260.9531" fill="#ADD1B2" rx="11" ry="11" style="stroke:#A80036;stroke-width:1.0;"/><path d="M174.8438,256.625 C173.9063,256.1875 173.3125,256.0469 172.4375,256.0469 C169.8125,256.0469 167.8125,258.125 167.8125,260.8438 L167.8125,261.9688 C167.8125,264.5469 169.9219,266.4375 172.8125,266.4375 C174.0313,266.4375 175.1875,266.1406 175.9375,265.5938 C176.5156,265.1875 176.8438,264.7344 176.8438,264.3438 C176.8438,263.8906 176.4531,263.5 175.9844,263.5 C175.7656,263.5 175.5625,263.5781 175.375,263.7656 C174.9219,264.25 174.9219,264.25 174.7344,264.3438 C174.3125,264.6094 173.625,264.7344 172.8594,264.7344 C170.8125,264.7344 169.5156,263.6406 169.5156,261.9375 L169.5156,260.8438 C169.5156,259.0625 170.7656,257.75 172.5,257.75 C173.0781,257.75 173.6875,257.9063 174.1563,258.1563 C174.6406,258.4375 174.8125,258.6563 174.9063,259.0625 C174.9688,259.4688 175,259.5938 175.1406,259.7188 C175.2813,259.8594 175.5156,259.9688 175.7344,259.9688 C176,259.9688 176.2656,259.8281 176.4375,259.6094 C176.5469,259.4531 176.5781,259.2656 176.5781,258.8438 L176.5781,257.4219 C176.5781,256.9844 176.5625,256.8594 176.4688,256.7031 C176.3125,256.4375 176.0313,256.2969 175.7344,256.2969 C175.4375,256.2969 175.2344,256.3906 175.0156,256.7031 L174.8438,256.625 Z " fill="#000000"/><text fill="#000000" font-family="sans-serif" font-size="12" lengthAdjust="spacing" textLength="83" x="186.5" y="265.1074">MetBroadcast</text><line style="stroke:#A80036;stroke-width:1.5;" x1="158.5" x2="271.5" y1="276.9531" y2="276.9531"/><line style="stroke:#A80036;stroke-width:1.5;" x1="158.5" x2="271.5" y1="284.9531" y2="284.9531"/><!--MD5=[a58030872057f2eaffea5a541be2457b]
class NavWarningBroadcast--><rect codeLine="13" fill="#FEFECE" filter="url(#f1xie4v3d7ers6)" height="48" id="NavWarningBroadcast" style="stroke:#A80036;stroke-width:1.5;" width="164" x="308" y="244.9531"/><ellipse cx="323" cy="260.9531" fill="#ADD1B2" rx="11" ry="11" style="stroke:#A80036;stroke-width:1.0;"/><path d="M325.3438,256.625 C324.4063,256.1875 323.8125,256.0469 322.9375,256.0469 C320.3125,256.0469 318.3125,258.125 318.3125,260.8438 L318.3125,261.9688 C318.3125,264.5469 320.4219,266.4375 323.3125,266.4375 C324.5313,266.4375 325.6875,266.1406 326.4375,265.5938 C327.0156,265.1875 327.3438,264.7344 327.3438,264.3438 C327.3438,263.8906 326.9531,263.5 326.4844,263.5 C326.2656,263.5 326.0625,263.5781 325.875,263.7656 C325.4219,264.25 325.4219,264.25 325.2344,264.3438 C324.8125,264.6094 324.125,264.7344 323.3594,264.7344 C321.3125,264.7344 320.0156,263.6406 320.0156,261.9375 L320.0156,260.8438 C320.0156,259.0625 321.2656,257.75 323,257.75 C323.5781,257.75 324.1875,257.9063 324.6563,258.1563 C325.1406,258.4375 325.3125,258.6563 325.4063,259.0625 C325.4688,259.4688 325.5,259.5938 325.6406,259.7188 C325.7813,259.8594 326.0156,259.9688 326.2344,259.9688 C326.5,259.9688 326.7656,259.8281 326.9375,259.6094 C327.0469,259.4531 327.0781,259.2656 327.0781,258.8438 L327.0781,257.4219 C327.0781,256.9844 327.0625,256.8594 326.9688,256.7031 C326.8125,256.4375 326.5313,256.2969 326.2344,256.2969 C325.9375,256.2969 325.7344,256.3906 325.5156,256.7031 L325.3438,256.625 Z " fill="#000000"/><text fill="#000000" font-family="sans-serif" font-size="12" lengthAdjust="spacing" textLength="132" x="337" y="265.1074">NavWarningBroadcast</text><line style="stroke:#A80036;stroke-width:1.5;" x1="309" x2="471" y1="276.9531" y2="276.9531"/><line style="stroke:#A80036;stroke-width:1.5;" x1="309" x2="471" y1="284.9531" y2="284.9531"/><!--MD5=[b0f80f349ef201573babf084af14ed5c]
class PiracyBroadcast--><rect codeLine="14" fill="#FEFECE" filter="url(#f1xie4v3d7ers6)" height="48" id="PiracyBroadcast" style="stroke:#A80036;stroke-width:1.5;" width="128" x="507" y="244.9531"/><ellipse cx="522" cy="260.9531" fill="#ADD1B2" rx="11" ry="11" style="stroke:#A80036;stroke-width:1.0;"/><path d="M524.3438,256.625 C523.4063,256.1875 522.8125,256.0469 521.9375,256.0469 C519.3125,256.0469 517.3125,258.125 517.3125,260.8438 L517.3125,261.9688 C517.3125,264.5469 519.4219,266.4375 522.3125,266.4375 C523.5313,266.4375 524.6875,266.1406 525.4375,265.5938 C526.0156,265.1875 526.3438,264.7344 526.3438,264.3438 C526.3438,263.8906 525.9531,263.5 525.4844,263.5 C525.2656,263.5 525.0625,263.5781 524.875,263.7656 C524.4219,264.25 524.4219,264.25 524.2344,264.3438 C523.8125,264.6094 523.125,264.7344 522.3594,264.7344 C520.3125,264.7344 519.0156,263.6406 519.0156,261.9375 L519.0156,260.8438 C519.0156,259.0625 520.2656,257.75 522,257.75 C522.5781,257.75 523.1875,257.9063 523.6563,258.1563 C524.1406,258.4375 524.3125,258.6563 524.4063,259.0625 C524.4688,259.4688 524.5,259.5938 524.6406,259.7188 C524.7813,259.8594 525.0156,259.9688 525.2344,259.9688 C525.5,259.9688 525.7656,259.8281 525.9375,259.6094 C526.0469,259.4531 526.0781,259.2656 526.0781,258.8438 L526.0781,257.4219 C526.0781,256.9844 526.0625,256.8594 525.9688,256.7031 C525.8125,256.4375 525.5313,256.2969 525.2344,256.2969 C524.9375,256.2969 524.7344,256.3906 524.5156,256.7031 L524.3438,256.625 Z " fill="#000000"/><text fill="#000000" font-family="sans-serif" font-size="12" lengthAdjust="spacing" textLength="96" x="536" y="265.1074">PiracyBroadcast</text><line style="stroke:#A80036;stroke-width:1.5;" x1="508" x2="634" y1="276.9531" y2="276.9531"/><line style="stroke:#A80036;stroke-width:1.5;" x1="508" x2="634" y1="284.9531" y2="284.9531"/><!--MD5=[953e9b2fb9eece1b3fc587391ef815bf]
class Priority--><rect codeLine="15" fill="#FEFECE" filter="url(#f1xie4v3d7ers6)" height="86.4141" id="Priority" style="stroke:#A80036;stroke-width:1.5;" width="73" x="670.5" y="225.9531"/><ellipse cx="685.5" cy="241.9531" fill="#EB937F" rx="11" ry="11" style="stroke:#A80036;stroke-width:1.0;"/><path d="M684.2969,242.8281 L685.75,242.8281 L685.75,242.9375 C685.75,243.3438 685.7813,243.5 685.8594,243.6563 C686.0156,243.9063 686.2969,244.0625 686.5938,244.0625 C686.8438,244.0625 687.1094,243.9219 687.2656,243.7031 C687.3906,243.5469 687.4219,243.3906 687.4219,242.9375 L687.4219,241.0156 C687.4219,240.8594 687.4219,240.8125 687.4063,240.6563 C687.3438,240.1875 687.0313,239.875 686.5781,239.875 C686.3281,239.875 686.0625,240.0156 685.8906,240.2344 C685.7813,240.4063 685.75,240.5625 685.75,241.0156 L685.75,241.1406 L684.2969,241.1406 L684.2969,238.7344 L688.2813,238.7344 L688.2813,239.5938 C688.2813,240 688.3125,240.1719 688.3906,240.3281 C688.5625,240.5781 688.8438,240.7344 689.125,240.7344 C689.3906,240.7344 689.6563,240.5938 689.8281,240.375 C689.9375,240.2031 689.9688,240.0625 689.9688,239.5938 L689.9688,237.0469 L682.3438,237.0469 C681.9063,237.0469 681.7813,237.0625 681.625,237.1563 C681.375,237.3125 681.2188,237.6094 681.2188,237.8906 C681.2188,238.1719 681.3594,238.4219 681.5781,238.5938 C681.7344,238.7031 681.9219,238.7344 682.3438,238.7344 L682.5938,238.7344 L682.5938,245.25 L682.3438,245.25 C681.9375,245.25 681.7813,245.2656 681.625,245.375 C681.375,245.5469 681.2188,245.8125 681.2188,246.1094 C681.2188,246.375 681.3594,246.625 681.5781,246.7813 C681.7188,246.9063 681.9531,246.9531 682.3438,246.9531 L690.3438,246.9531 L690.3438,244.375 C690.3438,243.9375 690.3125,243.7969 690.2344,243.6406 C690.0625,243.3906 689.7813,243.2344 689.5,243.2344 C689.2344,243.2344 688.9688,243.3438 688.7969,243.5938 C688.6875,243.75 688.6563,243.8906 688.6563,244.375 L688.6563,245.25 L684.2969,245.25 L684.2969,242.8281 Z " fill="#000000"/><text fill="#000000" font-family="sans-serif" font-size="12" lengthAdjust="spacing" textLength="41" x="699.5" y="246.1074">Priority</text><line style="stroke:#A80036;stroke-width:1.5;" x1="671.5" x2="742.5" y1="257.9531" y2="257.9531"/><text fill="#000000" font-family="sans-serif" font-size="11" lengthAdjust="spacing" textLength="43" x="676.5" y="272.1636">SAFETY</text><text fill="#000000" font-family="sans-serif" font-size="11" lengthAdjust="spacing" textLength="54" x="676.5" y="284.9683">URGENCY</text><text fill="#000000" font-family="sans-serif" font-size="11" lengthAdjust="spacing" textLength="57" x="676.5" y="297.7729">DISTRESS</text><line style="stroke:#A80036;stroke-width:1.5;" x1="671.5" x2="742.5" y1="304.3672" y2="304.3672"/><!--MD5=[e3d83ec5fd90ea9f3f2bfe265cb53458]
class Status--><rect codeLine="20" fill="#FEFECE" filter="url(#f1xie4v3d7ers6)" height="112.0234" id="Status" style="stroke:#A80036;stroke-width:1.5;" width="82" x="779" y="212.9531"/><ellipse cx="799.85" cy="228.9531" fill="#EB937F" rx="11" ry="11" style="stroke:#A80036;stroke-width:1.0;"/><path d="M798.6469,229.8281 L800.1,229.8281 L800.1,229.9375 C800.1,230.3438 800.1313,230.5 800.2094,230.6563 C800.3656,230.9063 800.6469,231.0625 800.9438,231.0625 C801.1938,231.0625 801.4594,230.9219 801.6156,230.7031 C801.7406,230.5469 801.7719,230.3906 801.7719,229.9375 L801.7719,228.0156 C801.7719,227.8594 801.7719,227.8125 801.7563,227.6563 C801.6938,227.1875 801.3813,226.875 800.9281,226.875 C800.6781,226.875 800.4125,227.0156 800.2406,227.2344 C800.1313,227.4063 800.1,227.5625 800.1,228.0156 L800.1,228.1406 L798.6469,228.1406 L798.6469,225.7344 L802.6313,225.7344 L802.6313,226.5938 C802.6313,227 802.6625,227.1719 802.7406,227.3281 C802.9125,227.5781 803.1938,227.7344 803.475,227.7344 C803.7406,227.7344 804.0063,227.5938 804.1781,227.375 C804.2875,227.2031 804.3188,227.0625 804.3188,226.5938 L804.3188,224.0469 L796.6938,224.0469 C796.2563,224.0469 796.1313,224.0625 795.975,224.1563 C795.725,224.3125 795.5688,224.6094 795.5688,224.8906 C795.5688,225.1719 795.7094,225.4219 795.9281,225.5938 C796.0844,225.7031 796.2719,225.7344 796.6938,225.7344 L796.9438,225.7344 L796.9438,232.25 L796.6938,232.25 C796.2875,232.25 796.1313,232.2656 795.975,232.375 C795.725,232.5469 795.5688,232.8125 795.5688,233.1094 C795.5688,233.375 795.7094,233.625 795.9281,233.7813 C796.0688,233.9063 796.3031,233.9531 796.6938,233.9531 L804.6938,233.9531 L804.6938,231.375 C804.6938,230.9375 804.6625,230.7969 804.5844,230.6406 C804.4125,230.3906 804.1313,230.2344 803.85,230.2344 C803.5844,230.2344 803.3188,230.3438 803.1469,230.5938 C803.0375,230.75 803.0063,230.8906 803.0063,231.375 L803.0063,232.25 L798.6469,232.25 L798.6469,229.8281 Z " fill="#000000"/><text fill="#000000" font-family="sans-serif" font-size="12" lengthAdjust="spacing" textLength="37" x="815.15" y="233.1074">Status</text><line style="stroke:#A80036;stroke-width:1.5;" x1="780" x2="860" y1="244.9531" y2="244.9531"/><text fill="#000000" font-family="sans-serif" font-size="11" lengthAdjust="spacing" textLength="53" x="785" y="259.1636">CREATED</text><text fill="#000000" font-family="sans-serif" font-size="11" lengthAdjust="spacing" textLength="70" x="785" y="271.9683">SCHEDULED</text><text fill="#000000" font-family="sans-serif" font-size="11" lengthAdjust="spacing" textLength="41" x="785" y="284.7729">ACTIVE</text><text fill="#000000" font-family="sans-serif" font-size="11" lengthAdjust="spacing" textLength="52" x="785" y="297.5776">FINISHED</text><text fill="#000000" font-family="sans-serif" font-size="11" lengthAdjust="spacing" textLength="67" x="785" y="310.3823">CANCELLED</text><line style="stroke:#A80036;stroke-width:1.5;" x1="780" x2="860" y1="316.9766" y2="316.9766"/><!--MD5=[670ba5afd3835a69cbf81964ee5af7db]
class IntervalHours--><rect codeLine="27" fill="#FEFECE" filter="url(#f1xie4v3d7ers6)" height="252.875" id="IntervalHours" style="stroke:#A80036;stroke-width:1.5;" width="112" x="886" y="492.9531"/><ellipse cx="901" cy="508.9531" fill="#EB937F" rx="11" ry="11" style="stroke:#A80036;stroke-width:1.0;"/><path d="M899.7969,509.8281 L901.25,509.8281 L901.25,509.9375 C901.25,510.3438 901.2813,510.5 901.3594,510.6563 C901.5156,510.9063 901.7969,511.0625 902.0938,511.0625 C902.3438,511.0625 902.6094,510.9219 902.7656,510.7031 C902.8906,510.5469 902.9219,510.3906 902.9219,509.9375 L902.9219,508.0156 C902.9219,507.8594 902.9219,507.8125 902.9063,507.6563 C902.8438,507.1875 902.5313,506.875 902.0781,506.875 C901.8281,506.875 901.5625,507.0156 901.3906,507.2344 C901.2813,507.4063 901.25,507.5625 901.25,508.0156 L901.25,508.1406 L899.7969,508.1406 L899.7969,505.7344 L903.7813,505.7344 L903.7813,506.5938 C903.7813,507 903.8125,507.1719 903.8906,507.3281 C904.0625,507.5781 904.3438,507.7344 904.625,507.7344 C904.8906,507.7344 905.1563,507.5938 905.3281,507.375 C905.4375,507.2031 905.4688,507.0625 905.4688,506.5938 L905.4688,504.0469 L897.8438,504.0469 C897.4063,504.0469 897.2813,504.0625 897.125,504.1563 C896.875,504.3125 896.7188,504.6094 896.7188,504.8906 C896.7188,505.1719 896.8594,505.4219 897.0781,505.5938 C897.2344,505.7031 897.4219,505.7344 897.8438,505.7344 L898.0938,505.7344 L898.0938,512.25 L897.8438,512.25 C897.4375,512.25 897.2813,512.2656 897.125,512.375 C896.875,512.5469 896.7188,512.8125 896.7188,513.1094 C896.7188,513.375 896.8594,513.625 897.0781,513.7813 C897.2188,513.9063 897.4531,513.9531 897.8438,513.9531 L905.8438,513.9531 L905.8438,511.375 C905.8438,510.9375 905.8125,510.7969 905.7344,510.6406 C905.5625,510.3906 905.2813,510.2344 905,510.2344 C904.7344,510.2344 904.4688,510.3438 904.2969,510.5938 C904.1875,510.75 904.1563,510.8906 904.1563,511.375 L904.1563,512.25 L899.7969,512.25 L899.7969,509.8281 Z " fill="#000000"/><text fill="#000000" font-family="sans-serif" font-size="12" lengthAdjust="spacing" textLength="80" x="915" y="513.1074">IntervalHours</text><line style="stroke:#A80036;stroke-width:1.5;" x1="887" x2="997" y1="524.9531" y2="524.9531"/><text fill="#000000" font-family="sans-serif" font-size="11" lengthAdjust="spacing" textLength="7" x="892" y="539.1636">1</text><text fill="#000000" font-family="sans-serif" font-size="11" lengthAdjust="spacing" textLength="7" x="892" y="551.9683">2</text><text fill="#000000" font-family="sans-serif" font-size="11" lengthAdjust="spacing" textLength="7" x="892" y="564.7729">3</text><text fill="#000000" font-family="sans-serif" font-size="11" lengthAdjust="spacing" textLength="7" x="892" y="577.5776">4</text><text fill="#000000" font-family="sans-serif" font-size="11" lengthAdjust="spacing" textLength="7" x="892" y="590.3823">5</text><text fill="#000000" font-family="sans-serif" font-size="11" lengthAdjust="spacing" textLength="7" x="892" y="603.187">6</text><text fill="#000000" font-family="sans-serif" font-size="11" lengthAdjust="spacing" textLength="14" x="892" y="615.9917">12</text><text fill="#000000" font-family="sans-serif" font-size="11" lengthAdjust="spacing" textLength="14" x="892" y="628.7964">18</text><text fill="#000000" font-family="sans-serif" font-size="11" lengthAdjust="spacing" textLength="14" x="892" y="641.6011">24</text><text fill="#000000" font-family="sans-serif" font-size="11" lengthAdjust="spacing" textLength="14" x="892" y="654.4058">30</text><text fill="#000000" font-family="sans-serif" font-size="11" lengthAdjust="spacing" textLength="14" x="892" y="667.2104">36</text><text fill="#000000" font-family="sans-serif" font-size="11" lengthAdjust="spacing" textLength="14" x="892" y="680.0151">48</text><text fill="#000000" font-family="sans-serif" font-size="11" lengthAdjust="spacing" textLength="14" x="892" y="692.8198">60</text><text fill="#000000" font-family="sans-serif" font-size="11" lengthAdjust="spacing" textLength="14" x="892" y="705.6245">72</text><text fill="#000000" font-family="sans-serif" font-size="11" lengthAdjust="spacing" textLength="14" x="892" y="718.4292">96</text><text fill="#000000" font-family="sans-serif" font-size="11" lengthAdjust="spacing" textLength="21" x="892" y="731.2339">120</text><line style="stroke:#A80036;stroke-width:1.5;" x1="887" x2="997" y1="737.8281" y2="737.8281"/><!--MD5=[88c59876449025d50fa0788b08f620b9]
class Repetition--><rect codeLine="46" fill="#FEFECE" filter="url(#f1xie4v3d7ers6)" height="48" id="Repetition" style="stroke:#A80036;stroke-width:1.5;" width="93" x="896.5" y="244.9531"/><ellipse cx="911.5" cy="260.9531" fill="#B4A7E5" rx="11" ry="11" style="stroke:#A80036;stroke-width:1.0;"/><path d="M912.4531,257.7344 L914.1719,257.7344 C914.5625,257.7344 914.75,257.7031 914.875,257.625 C915.1406,257.4688 915.2813,257.1875 915.2813,256.8906 C915.2813,256.625 915.1719,256.3594 914.9375,256.1875 C914.7656,256.0781 914.625,256.0469 914.1719,256.0469 L909.0313,256.0469 C908.5938,256.0469 908.4688,256.0625 908.3125,256.1563 C908.0625,256.3125 907.9063,256.6094 907.9063,256.8906 C907.9063,257.1719 908.0469,257.4219 908.2656,257.5938 C908.4219,257.7031 908.6094,257.7344 909.0313,257.7344 L910.75,257.7344 L910.75,264.25 L909.0313,264.25 C908.5938,264.25 908.4688,264.2656 908.3125,264.375 C908.0625,264.5313 907.9063,264.8125 907.9063,265.1094 C907.9063,265.3594 908.0469,265.625 908.2656,265.7813 C908.4219,265.9063 908.625,265.9531 909.0313,265.9531 L914.1719,265.9531 C914.9219,265.9531 915.2813,265.6719 915.2813,265.1094 C915.2813,264.8281 915.1719,264.5781 914.9375,264.4063 C914.7656,264.2813 914.625,264.25 914.1719,264.25 L912.4531,264.25 L912.4531,257.7344 Z " fill="#000000"/><text fill="#000000" font-family="sans-serif" font-size="12" font-style="italic" lengthAdjust="spacing" textLength="61" x="925.5" y="265.1074">Repetition</text><line style="stroke:#A80036;stroke-width:1.5;" x1="897.5" x2="988.5" y1="276.9531" y2="276.9531"/><line style="stroke:#A80036;stroke-width:1.5;" x1="897.5" x2="988.5" y1="284.9531" y2="284.9531"/><!--MD5=[27f4c90d55288e5e3501c0b76be397d1]
class Twice--><rect codeLine="47" fill="#FEFECE" filter="url(#f1xie4v3d7ers6)" height="48" id="Twice" style="stroke:#A80036;stroke-width:1.5;" width="67" x="837.5" y="384.9531"/><ellipse cx="852.5" cy="400.9531" fill="#ADD1B2" rx="11" ry="11" style="stroke:#A80036;stroke-width:1.0;"/><path d="M854.8438,396.625 C853.9063,396.1875 853.3125,396.0469 852.4375,396.0469 C849.8125,396.0469 847.8125,398.125 847.8125,400.8438 L847.8125,401.9688 C847.8125,404.5469 849.9219,406.4375 852.8125,406.4375 C854.0313,406.4375 855.1875,406.1406 855.9375,405.5938 C856.5156,405.1875 856.8438,404.7344 856.8438,404.3438 C856.8438,403.8906 856.4531,403.5 855.9844,403.5 C855.7656,403.5 855.5625,403.5781 855.375,403.7656 C854.9219,404.25 854.9219,404.25 854.7344,404.3438 C854.3125,404.6094 853.625,404.7344 852.8594,404.7344 C850.8125,404.7344 849.5156,403.6406 849.5156,401.9375 L849.5156,400.8438 C849.5156,399.0625 850.7656,397.75 852.5,397.75 C853.0781,397.75 853.6875,397.9063 854.1563,398.1563 C854.6406,398.4375 854.8125,398.6563 854.9063,399.0625 C854.9688,399.4688 855,399.5938 855.1406,399.7188 C855.2813,399.8594 855.5156,399.9688 855.7344,399.9688 C856,399.9688 856.2656,399.8281 856.4375,399.6094 C856.5469,399.4531 856.5781,399.2656 856.5781,398.8438 L856.5781,397.4219 C856.5781,396.9844 856.5625,396.8594 856.4688,396.7031 C856.3125,396.4375 856.0313,396.2969 855.7344,396.2969 C855.4375,396.2969 855.2344,396.3906 855.0156,396.7031 L854.8438,396.625 Z " fill="#000000"/><text fill="#000000" font-family="sans-serif" font-size="12" lengthAdjust="spacing" textLength="35" x="866.5" y="405.1074">Twice</text><line style="stroke:#A80036;stroke-width:1.5;" x1="838.5" x2="903.5" y1="416.9531" y2="416.9531"/><line style="stroke:#A80036;stroke-width:1.5;" x1="838.5" x2="903.5" y1="424.9531" y2="424.9531"/><!--MD5=[e991e8ea54c6943cd026340d8b1572eb]
class RepeatTillCancelled--><rect codeLine="48" fill="#FEFECE" filter="url(#f1xie4v3d7ers6)" height="48" id="RepeatTillCancelled" style="stroke:#A80036;stroke-width:1.5;" width="149" x="939.5" y="384.9531"/><ellipse cx="954.5" cy="400.9531" fill="#ADD1B2" rx="11" ry="11" style="stroke:#A80036;stroke-width:1.0;"/><path d="M956.8438,396.625 C955.9063,396.1875 955.3125,396.0469 954.4375,396.0469 C951.8125,396.0469 949.8125,398.125 949.8125,400.8438 L949.8125,401.9688 C949.8125,404.5469 951.9219,406.4375 954.8125,406.4375 C956.0313,406.4375 957.1875,406.1406 957.9375,405.5938 C958.5156,405.1875 958.8438,404.7344 958.8438,404.3438 C958.8438,403.8906 958.4531,403.5 957.9844,403.5 C957.7656,403.5 957.5625,403.5781 957.375,403.7656 C956.9219,404.25 956.9219,404.25 956.7344,404.3438 C956.3125,404.6094 955.625,404.7344 954.8594,404.7344 C952.8125,404.7344 951.5156,403.6406 951.5156,401.9375 L951.5156,400.8438 C951.5156,399.0625 952.7656,397.75 954.5,397.75 C955.0781,397.75 955.6875,397.9063 956.1563,398.1563 C956.6406,398.4375 956.8125,398.6563 956.9063,399.0625 C956.9688,399.4688 957,399.5938 957.1406,399.7188 C957.2813,399.8594 957.5156,399.9688 957.7344,399.9688 C958,399.9688 958.2656,399.8281 958.4375,399.6094 C958.5469,399.4531 958.5781,399.2656 958.5781,398.8438 L958.5781,397.4219 C958.5781,396.9844 958.5625,396.8594 958.4688,396.7031 C958.3125,396.4375 958.0313,396.2969 957.7344,396.2969 C957.4375,396.2969 957.2344,396.3906 957.0156,396.7031 L956.8438,396.625 Z " fill="#000000"/><text fill="#000000" font-family="sans-serif" font-size="12" lengthAdjust="spacing" textLength="117" x="968.5" y="405.1074">RepeatTillCancelled</text><line style="stroke:#A80036;stroke-width:1.5;" x1="940.5" x2="1087.5" y1="416.9531" y2="416.9531"/><line style="stroke:#A80036;stroke-width:1.5;" x1="940.5" x2="1087.5" y1="424.9531" y2="424.9531"/><!--MD5=[19c58e1c195e071f65e647eea3a11eda]
class MetArea--><rect codeLine="56" fill="#FEFECE" filter="url(#f1xie4v3d7ers6)" height="60.8047" id="MetArea" style="stroke:#A80036;stroke-width:1.5;" width="125" x="33.5" y="588.9531"/><ellipse cx="67.85" cy="604.9531" fill="#ADD1B2" rx="11" ry="11" style="stroke:#A80036;stroke-width:1.0;"/><path d="M70.1938,600.625 C69.2563,600.1875 68.6625,600.0469 67.7875,600.0469 C65.1625,600.0469 63.1625,602.125 63.1625,604.8438 L63.1625,605.9688 C63.1625,608.5469 65.2719,610.4375 68.1625,610.4375 C69.3813,610.4375 70.5375,610.1406 71.2875,609.5938 C71.8656,609.1875 72.1938,608.7344 72.1938,608.3438 C72.1938,607.8906 71.8031,607.5 71.3344,607.5 C71.1156,607.5 70.9125,607.5781 70.725,607.7656 C70.2719,608.25 70.2719,608.25 70.0844,608.3438 C69.6625,608.6094 68.975,608.7344 68.2094,608.7344 C66.1625,608.7344 64.8656,607.6406 64.8656,605.9375 L64.8656,604.8438 C64.8656,603.0625 66.1156,601.75 67.85,601.75 C68.4281,601.75 69.0375,601.9063 69.5063,602.1563 C69.9906,602.4375 70.1625,602.6563 70.2563,603.0625 C70.3188,603.4688 70.35,603.5938 70.4906,603.7188 C70.6313,603.8594 70.8656,603.9688 71.0844,603.9688 C71.35,603.9688 71.6156,603.8281 71.7875,603.6094 C71.8969,603.4531 71.9281,603.2656 71.9281,602.8438 L71.9281,601.4219 C71.9281,600.9844 71.9125,600.8594 71.8188,600.7031 C71.6625,600.4375 71.3813,600.2969 71.0844,600.2969 C70.7875,600.2969 70.5844,600.3906 70.3656,600.7031 L70.1938,600.625 Z " fill="#000000"/><text fill="#000000" font-family="sans-serif" font-size="12" lengthAdjust="spacing" textLength="50" x="86.15" y="609.1074">MetArea</text><line style="stroke:#A80036;stroke-width:1.5;" x1="34.5" x2="157.5" y1="620.9531" y2="620.9531"/><text fill="#000000" font-family="sans-serif" font-size="11" lengthAdjust="spacing" textLength="113" x="39.5" y="635.1636">metAreaNo: integer</text><line style="stroke:#A80036;stroke-width:1.5;" x1="34.5" x2="157.5" y1="641.7578" y2="641.7578"/><!--MD5=[9affa659e72119d3471adf0766b1bab5]
class NavArea--><rect codeLine="59" fill="#FEFECE" filter="url(#f1xie4v3d7ers6)" height="60.8047" id="NavArea" style="stroke:#A80036;stroke-width:1.5;" width="123" x="507.5" y="588.9531"/><ellipse cx="540.95" cy="604.9531" fill="#ADD1B2" rx="11" ry="11" style="stroke:#A80036;stroke-width:1.0;"/><path d="M543.2938,600.625 C542.3563,600.1875 541.7625,600.0469 540.8875,600.0469 C538.2625,600.0469 536.2625,602.125 536.2625,604.8438 L536.2625,605.9688 C536.2625,608.5469 538.3719,610.4375 541.2625,610.4375 C542.4813,610.4375 543.6375,610.1406 544.3875,609.5938 C544.9656,609.1875 545.2938,608.7344 545.2938,608.3438 C545.2938,607.8906 544.9031,607.5 544.4344,607.5 C544.2156,607.5 544.0125,607.5781 543.825,607.7656 C543.3719,608.25 543.3719,608.25 543.1844,608.3438 C542.7625,608.6094 542.075,608.7344 541.3094,608.7344 C539.2625,608.7344 537.9656,607.6406 537.9656,605.9375 L537.9656,604.8438 C537.9656,603.0625 539.2156,601.75 540.95,601.75 C541.5281,601.75 542.1375,601.9063 542.6063,602.1563 C543.0906,602.4375 543.2625,602.6563 543.3563,603.0625 C543.4188,603.4688 543.45,603.5938 543.5906,603.7188 C543.7313,603.8594 543.9656,603.9688 544.1844,603.9688 C544.45,603.9688 544.7156,603.8281 544.8875,603.6094 C544.9969,603.4531 545.0281,603.2656 545.0281,602.8438 L545.0281,601.4219 C545.0281,600.9844 545.0125,600.8594 544.9188,600.7031 C544.7625,600.4375 544.4813,600.2969 544.1844,600.2969 C543.8875,600.2969 543.6844,600.3906 543.4656,600.7031 L543.2938,600.625 Z " fill="#000000"/><text fill="#000000" font-family="sans-serif" font-size="12" lengthAdjust="spacing" textLength="50" x="559.05" y="609.1074">NavArea</text><line style="stroke:#A80036;stroke-width:1.5;" x1="508.5" x2="629.5" y1="620.9531" y2="620.9531"/><text fill="#000000" font-family="sans-serif" font-size="11" lengthAdjust="spacing" textLength="111" x="513.5" y="635.1636">navAreaNo: integer</text><line style="stroke:#A80036;stroke-width:1.5;" x1="508.5" x2="629.5" y1="641.7578" y2="641.7578"/><!--MD5=[3465795d537a068d04ef95ff9f5d3463]
class CoastalWarningArea--><rect codeLine="62" fill="#FEFECE" filter="url(#f1xie4v3d7ers6)" height="60.8047" id="CoastalWarningArea" style="stroke:#A80036;stroke-width:1.5;" width="153" x="319.5" y="588.9531"/><ellipse cx="334.5" cy="604.9531" fill="#ADD1B2" rx="11" ry="11" style="stroke:#A80036;stroke-width:1.0;"/><path d="M336.8438,600.625 C335.9063,600.1875 335.3125,600.0469 334.4375,600.0469 C331.8125,600.0469 329.8125,602.125 329.8125,604.8438 L329.8125,605.9688 C329.8125,608.5469 331.9219,610.4375 334.8125,610.4375 C336.0313,610.4375 337.1875,610.1406 337.9375,609.5938 C338.5156,609.1875 338.8438,608.7344 338.8438,608.3438 C338.8438,607.8906 338.4531,607.5 337.9844,607.5 C337.7656,607.5 337.5625,607.5781 337.375,607.7656 C336.9219,608.25 336.9219,608.25 336.7344,608.3438 C336.3125,608.6094 335.625,608.7344 334.8594,608.7344 C332.8125,608.7344 331.5156,607.6406 331.5156,605.9375 L331.5156,604.8438 C331.5156,603.0625 332.7656,601.75 334.5,601.75 C335.0781,601.75 335.6875,601.9063 336.1563,602.1563 C336.6406,602.4375 336.8125,602.6563 336.9063,603.0625 C336.9688,603.4688 337,603.5938 337.1406,603.7188 C337.2813,603.8594 337.5156,603.9688 337.7344,603.9688 C338,603.9688 338.2656,603.8281 338.4375,603.6094 C338.5469,603.4531 338.5781,603.2656 338.5781,602.8438 L338.5781,601.4219 C338.5781,600.9844 338.5625,600.8594 338.4688,600.7031 C338.3125,600.4375 338.0313,600.2969 337.7344,600.2969 C337.4375,600.2969 337.2344,600.3906 337.0156,600.7031 L336.8438,600.625 Z " fill="#000000"/><text fill="#000000" font-family="sans-serif" font-size="12" lengthAdjust="spacing" textLength="121" x="348.5" y="609.1074">CoastalWarningArea</text><line style="stroke:#A80036;stroke-width:1.5;" x1="320.5" x2="471.5" y1="620.9531" y2="620.9531"/><text fill="#000000" font-family="sans-serif" font-size="11" lengthAdjust="spacing" textLength="62" x="325.5" y="635.1636">letter: char</text><line style="stroke:#A80036;stroke-width:1.5;" x1="320.5" x2="471.5" y1="641.7578" y2="641.7578"/><!--MD5=[a7f9118cae7621dd25d25149752faef0]
class Circle--><rect codeLine="65" fill="#FEFECE" filter="url(#f1xie4v3d7ers6)" height="86.4141" id="Circle" style="stroke:#A80036;stroke-width:1.5;" width="117" x="96.5" y="812.4531"/><ellipse cx="134.45" cy="828.4531" fill="#ADD1B2" rx="11" ry="11" style="stroke:#A80036;stroke-width:1.0;"/><path d="M136.7938,824.125 C135.8563,823.6875 135.2625,823.5469 134.3875,823.5469 C131.7625,823.5469 129.7625,825.625 129.7625,828.3438 L129.7625,829.4688 C129.7625,832.0469 131.8719,833.9375 134.7625,833.9375 C135.9813,833.9375 137.1375,833.6406 137.8875,833.0938 C138.4656,832.6875 138.7938,832.2344 138.7938,831.8438 C138.7938,831.3906 138.4031,831 137.9344,831 C137.7156,831 137.5125,831.0781 137.325,831.2656 C136.8719,831.75 136.8719,831.75 136.6844,831.8438 C136.2625,832.1094 135.575,832.2344 134.8094,832.2344 C132.7625,832.2344 131.4656,831.1406 131.4656,829.4375 L131.4656,828.3438 C131.4656,826.5625 132.7156,825.25 134.45,825.25 C135.0281,825.25 135.6375,825.4063 136.1063,825.6563 C136.5906,825.9375 136.7625,826.1563 136.8563,826.5625 C136.9188,826.9688 136.95,827.0938 137.0906,827.2188 C137.2313,827.3594 137.4656,827.4688 137.6844,827.4688 C137.95,827.4688 138.2156,827.3281 138.3875,827.1094 C138.4969,826.9531 138.5281,826.7656 138.5281,826.3438 L138.5281,824.9219 C138.5281,824.4844 138.5125,824.3594 138.4188,824.2031 C138.2625,823.9375 137.9813,823.7969 137.6844,823.7969 C137.3875,823.7969 137.1844,823.8906 136.9656,824.2031 L136.7938,824.125 Z " fill="#000000"/><text fill="#000000" font-family="sans-serif" font-size="12" lengthAdjust="spacing" textLength="34" x="153.55" y="832.6074">Circle</text><line style="stroke:#A80036;stroke-width:1.5;" x1="97.5" x2="212.5" y1="844.4531" y2="844.4531"/><text fill="#000000" font-family="sans-serif" font-size="11" lengthAdjust="spacing" textLength="66" x="102.5" y="858.6636">lat: decimal</text><text fill="#000000" font-family="sans-serif" font-size="11" lengthAdjust="spacing" textLength="69" x="102.5" y="871.4683">lon: decimal</text><text fill="#000000" font-family="sans-serif" font-size="11" lengthAdjust="spacing" textLength="105" x="102.5" y="884.2729">radiusNm: decimal</text><line style="stroke:#A80036;stroke-width:1.5;" x1="97.5" x2="212.5" y1="890.8672" y2="890.8672"/><!--MD5=[b5313cd49da22b0744b541f414f8445e]
class Rectangle--><rect codeLine="70" fill="#FEFECE" filter="url(#f1xie4v3d7ers6)" height="99.2188" id="Rectangle" style="stroke:#A80036;stroke-width:1.5;" width="150" x="249" y="805.9531"/><ellipse cx="290.55" cy="821.9531" fill="#ADD1B2" rx="11" ry="11" style="stroke:#A80036;stroke-width:1.0;"/><path d="M292.8938,817.625 C291.9563,817.1875 291.3625,817.0469 290.4875,817.0469 C287.8625,817.0469 285.8625,819.125 285.8625,821.8438 L285.8625,822.9688 C285.8625,825.5469 287.9719,827.4375 290.8625,827.4375 C292.0813,827.4375 293.2375,827.1406 293.9875,826.5938 C294.5656,826.1875 294.8938,825.7344 294.8938,825.3438 C294.8938,824.8906 294.5031,824.5 294.0344,824.5 C293.8156,824.5 293.6125,824.5781 293.425,824.7656 C292.9719,825.25 292.9719,825.25 292.7844,825.3438 C292.3625,825.6094 291.675,825.7344 290.9094,825.7344 C288.8625,825.7344 287.5656,824.6406 287.5656,822.9375 L287.5656,821.8438 C287.5656,820.0625 288.8156,818.75 290.55,818.75 C291.1281,818.75 291.7375,818.9063 292.2063,819.1563 C292.6906,819.4375 292.8625,819.6563 292.9563,820.0625 C293.0188,820.4688 293.05,820.5938 293.1906,820.7188 C293.3313,820.8594 293.5656,820.9688 293.7844,820.9688 C294.05,820.9688 294.3156,820.8281 294.4875,820.6094 C294.5969,820.4531 294.6281,820.2656 294.6281,819.8438 L294.6281,818.4219 C294.6281,817.9844 294.6125,817.8594 294.5188,817.7031 C294.3625,817.4375 294.0813,817.2969 293.7844,817.2969 C293.4875,817.2969 293.2844,817.3906 293.0656,817.7031 L292.8938,817.625 Z " fill="#000000"/><text fill="#000000" font-family="sans-serif" font-size="12" lengthAdjust="spacing" textLength="59" x="310.45" y="826.1074">Rectangle</text><line style="stroke:#A80036;stroke-width:1.5;" x1="250" x2="398" y1="837.9531" y2="837.9531"/><text fill="#000000" font-family="sans-serif" font-size="11" lengthAdjust="spacing" textLength="90" x="255" y="852.1636">minLat: decimal</text><text fill="#000000" font-family="sans-serif" font-size="11" lengthAdjust="spacing" textLength="91" x="255" y="864.9683">leftLon: decimal</text><text fill="#000000" font-family="sans-serif" font-size="11" lengthAdjust="spacing" textLength="138" x="255" y="877.7729">heightDegrees: decimal</text><text fill="#000000" font-family="sans-serif" font-size="11" lengthAdjust="spacing" textLength="132" x="255" y="890.5776">widthDegrees: decimal</text><line style="stroke:#A80036;stroke-width:1.5;" x1="250" x2="398" y1="897.1719" y2="897.1719"/><!--MD5=[0fdac03f5b0cf4737b65737ce60d2db0]
class Geometry--><rect codeLine="76" fill="#FEFECE" filter="url(#f1xie4v3d7ers6)" height="48" id="Geometry" style="stroke:#A80036;stroke-width:1.5;" width="91" x="193.5" y="595.4531"/><ellipse cx="208.5" cy="611.4531" fill="#B4A7E5" rx="11" ry="11" style="stroke:#A80036;stroke-width:1.0;"/><path d="M209.4531,608.2344 L211.1719,608.2344 C211.5625,608.2344 211.75,608.2031 211.875,608.125 C212.1406,607.9688 212.2813,607.6875 212.2813,607.3906 C212.2813,607.125 212.1719,606.8594 211.9375,606.6875 C211.7656,606.5781 211.625,606.5469 211.1719,606.5469 L206.0313,606.5469 C205.5938,606.5469 205.4688,606.5625 205.3125,606.6563 C205.0625,606.8125 204.9063,607.1094 204.9063,607.3906 C204.9063,607.6719 205.0469,607.9219 205.2656,608.0938 C205.4219,608.2031 205.6094,608.2344 206.0313,608.2344 L207.75,608.2344 L207.75,614.75 L206.0313,614.75 C205.5938,614.75 205.4688,614.7656 205.3125,614.875 C205.0625,615.0313 204.9063,615.3125 204.9063,615.6094 C204.9063,615.8594 205.0469,616.125 205.2656,616.2813 C205.4219,616.4063 205.625,616.4531 206.0313,616.4531 L211.1719,616.4531 C211.9219,616.4531 212.2813,616.1719 212.2813,615.6094 C212.2813,615.3281 212.1719,615.0781 211.9375,614.9063 C211.7656,614.7813 211.625,614.75 211.1719,614.75 L209.4531,614.75 L209.4531,608.2344 Z " fill="#000000"/><text fill="#000000" font-family="sans-serif" font-size="12" font-style="italic" lengthAdjust="spacing" textLength="59" x="222.5" y="615.6074">Geometry</text><line style="stroke:#A80036;stroke-width:1.5;" x1="194.5" x2="283.5" y1="627.4531" y2="627.4531"/><line style="stroke:#A80036;stroke-width:1.5;" x1="194.5" x2="283.5" y1="635.4531" y2="635.4531"/><!--MD5=[a06e719365adc41d4546becc5217417e]
class NavWarningArea--><rect codeLine="77" fill="#FEFECE" filter="url(#f1xie4v3d7ers6)" height="48" id="NavWarningArea" style="stroke:#A80036;stroke-width:1.5;" width="133" x="338.5" y="384.9531"/><ellipse cx="353.5" cy="400.9531" fill="#B4A7E5" rx="11" ry="11" style="stroke:#A80036;stroke-width:1.0;"/><path d="M354.4531,397.7344 L356.1719,397.7344 C356.5625,397.7344 356.75,397.7031 356.875,397.625 C357.1406,397.4688 357.2813,397.1875 357.2813,396.8906 C357.2813,396.625 357.1719,396.3594 356.9375,396.1875 C356.7656,396.0781 356.625,396.0469 356.1719,396.0469 L351.0313,396.0469 C350.5938,396.0469 350.4688,396.0625 350.3125,396.1563 C350.0625,396.3125 349.9063,396.6094 349.9063,396.8906 C349.9063,397.1719 350.0469,397.4219 350.2656,397.5938 C350.4219,397.7031 350.6094,397.7344 351.0313,397.7344 L352.75,397.7344 L352.75,404.25 L351.0313,404.25 C350.5938,404.25 350.4688,404.2656 350.3125,404.375 C350.0625,404.5313 349.9063,404.8125 349.9063,405.1094 C349.9063,405.3594 350.0469,405.625 350.2656,405.7813 C350.4219,405.9063 350.625,405.9531 351.0313,405.9531 L356.1719,405.9531 C356.9219,405.9531 357.2813,405.6719 357.2813,405.1094 C357.2813,404.8281 357.1719,404.5781 356.9375,404.4063 C356.7656,404.2813 356.625,404.25 356.1719,404.25 L354.4531,404.25 L354.4531,397.7344 Z " fill="#000000"/><text fill="#000000" font-family="sans-serif" font-size="12" font-style="italic" lengthAdjust="spacing" textLength="101" x="367.5" y="405.1074">NavWarningArea</text><line style="stroke:#A80036;stroke-width:1.5;" x1="339.5" x2="470.5" y1="416.9531" y2="416.9531"/><line style="stroke:#A80036;stroke-width:1.5;" x1="339.5" x2="470.5" y1="424.9531" y2="424.9531"/><!--MD5=[86a2e65f32dc21e863b5d95996722836]
class MeteorologicalArea--><rect codeLine="78" fill="#FEFECE" filter="url(#f1xie4v3d7ers6)" height="48" id="MeteorologicalArea" style="stroke:#A80036;stroke-width:1.5;" width="145" x="158.5" y="384.9531"/><ellipse cx="173.5" cy="400.9531" fill="#B4A7E5" rx="11" ry="11" style="stroke:#A80036;stroke-width:1.0;"/><path d="M174.4531,397.7344 L176.1719,397.7344 C176.5625,397.7344 176.75,397.7031 176.875,397.625 C177.1406,397.4688 177.2813,397.1875 177.2813,396.8906 C177.2813,396.625 177.1719,396.3594 176.9375,396.1875 C176.7656,396.0781 176.625,396.0469 176.1719,396.0469 L171.0313,396.0469 C170.5938,396.0469 170.4688,396.0625 170.3125,396.1563 C170.0625,396.3125 169.9063,396.6094 169.9063,396.8906 C169.9063,397.1719 170.0469,397.4219 170.2656,397.5938 C170.4219,397.7031 170.6094,397.7344 171.0313,397.7344 L172.75,397.7344 L172.75,404.25 L171.0313,404.25 C170.5938,404.25 170.4688,404.2656 170.3125,404.375 C170.0625,404.5313 169.9063,404.8125 169.9063,405.1094 C169.9063,405.3594 170.0469,405.625 170.2656,405.7813 C170.4219,405.9063 170.625,405.9531 171.0313,405.9531 L176.1719,405.9531 C176.9219,405.9531 177.2813,405.6719 177.2813,405.1094 C177.2813,404.8281 177.1719,404.5781 176.9375,404.4063 C176.7656,404.2813 176.625,404.25 176.1719,404.25 L174.4531,404.25 L174.4531,397.7344 Z " fill="#000000"/><text fill="#000000" font-family="sans-serif" font-size="12" font-style="italic" lengthAdjust="spacing" textLength="113" x="187.5" y="405.1074">MeteorologicalArea</text><line style="stroke:#A80036;stroke-width:1.5;" x1="159.5" x2="302.5" y1="416.9531" y2="416.9531"/><line style="stroke:#A80036;stroke-width:1.5;" x1="159.5" x2="302.5" y1="424.9531" y2="424.9531"/><!--MD5=[055ddbfea4b1833aebdfb6fe95c0dcc8]
class PiracyArea--><rect codeLine="79" fill="#FEFECE" filter="url(#f1xie4v3d7ers6)" height="48" id="PiracyArea" style="stroke:#A80036;stroke-width:1.5;" width="95" x="509.5" y="384.9531"/><ellipse cx="524.5" cy="400.9531" fill="#B4A7E5" rx="11" ry="11" style="stroke:#A80036;stroke-width:1.0;"/><path d="M525.4531,397.7344 L527.1719,397.7344 C527.5625,397.7344 527.75,397.7031 527.875,397.625 C528.1406,397.4688 528.2813,397.1875 528.2813,396.8906 C528.2813,396.625 528.1719,396.3594 527.9375,396.1875 C527.7656,396.0781 527.625,396.0469 527.1719,396.0469 L522.0313,396.0469 C521.5938,396.0469 521.4688,396.0625 521.3125,396.1563 C521.0625,396.3125 520.9063,396.6094 520.9063,396.8906 C520.9063,397.1719 521.0469,397.4219 521.2656,397.5938 C521.4219,397.7031 521.6094,397.7344 522.0313,397.7344 L523.75,397.7344 L523.75,404.25 L522.0313,404.25 C521.5938,404.25 521.4688,404.2656 521.3125,404.375 C521.0625,404.5313 520.9063,404.8125 520.9063,405.1094 C520.9063,405.3594 521.0469,405.625 521.2656,405.7813 C521.4219,405.9063 521.625,405.9531 522.0313,405.9531 L527.1719,405.9531 C527.9219,405.9531 528.2813,405.6719 528.2813,405.1094 C528.2813,404.8281 528.1719,404.5781 527.9375,404.4063 C527.7656,404.2813 527.625,404.25 527.1719,404.25 L525.4531,404.25 L525.4531,397.7344 Z " fill="#000000"/><text fill="#000000" font-family="sans-serif" font-size="12" font-style="italic" lengthAdjust="spacing" textLength="63" x="538.5" y="405.1074">PiracyArea</text><line style="stroke:#A80036;stroke-width:1.5;" x1="510.5" x2="603.5" y1="416.9531" y2="416.9531"/><line style="stroke:#A80036;stroke-width:1.5;" x1="510.5" x2="603.5" y1="424.9531" y2="424.9531"/><!--MD5=[a06e37e8998cee1ea2e06784e3a12df1]
link Broadcast to Repetition--><path codeLine="50" d="M663.292,119.1951 C726.226,140.1821 810.135,172.3141 878,212.9531 C892.838,221.8391 907.691,234.0901 919.445,244.7761 " fill="none" id="Broadcast-Repetition" style="stroke:#A80036;stroke-width:1.0;"/><text fill="#000000" font-family="sans-serif" font-size="13" lengthAdjust="spacing" textLength="24" x="886.334" y="233.7428">0..1</text><!--MD5=[ff8766b725239d50b340b4a2f87dfc04]
reverse link Repetition to Twice--><path codeLine="51" d="M921.624,310.9241 C909.042,335.0381 893.59,364.6551 883.09,384.7801 " fill="none" id="Repetition-backto-Twice" style="stroke:#A80036;stroke-width:1.0;"/><polygon fill="none" points="915.491,307.5451,930.949,293.0511,927.904,314.0211,915.491,307.5451" style="stroke:#A80036;stroke-width:1.0;"/><!--MD5=[c4aa100a13e262c74a559aea2ac46557]
reverse link Repetition to RepeatTillCancelled--><path codeLine="52" d="M964.079,310.9241 C976.486,335.0381 991.724,364.6551 1002.077,384.7801 " fill="none" id="Repetition-backto-RepeatTillCancelled" style="stroke:#A80036;stroke-width:1.0;"/><polygon fill="none" points="957.809,314.0381,954.884,293.0511,970.258,307.6331,957.809,314.0381" style="stroke:#A80036;stroke-width:1.0;"/><!--MD5=[392970163f86d4837750809b65b1f32f]
link Twice to IntervalHours--><path codeLine="53" d="M878.87,433.0631 C884.105,448.4371 891.438,469.9721 899.261,492.9451 " fill="none" id="Twice-IntervalHours" style="stroke:#A80036;stroke-width:1.0;"/><text fill="#000000" font-family="sans-serif" font-size="13" lengthAdjust="spacing" textLength="8" x="888.4128" y="481.8538">1</text><!--MD5=[a8e660f3ff581e8ae2bbb1e0f37eb4fb]
link RepeatTillCancelled to IntervalHours--><path codeLine="54" d="M1006.02,433.0631 C1000.711,448.4371 993.274,469.9721 985.341,492.9451 " fill="none" id="RepeatTillCancelled-IntervalHours" style="stroke:#A80036;stroke-width:1.0;"/><text fill="#000000" font-family="sans-serif" font-size="13" lengthAdjust="spacing" textLength="8" x="979.7383" y="481.8538">1</text><!--MD5=[f39eadd4855fdcbb82e8bd0cd4f0eba6]
reverse link Geometry to Circle--><path codeLine="81" d="M223.787,662.8331 C208.562,705.2441 185.279,770.1041 170.096,812.3991 " fill="none" id="Geometry-backto-Circle" style="stroke:#A80036;stroke-width:1.0;"/><polygon fill="none" points="217.293,660.2041,230.639,643.7451,230.47,664.9341,217.293,660.2041" style="stroke:#A80036;stroke-width:1.0;"/><!--MD5=[d84596a069ebff60e908a9a07554cf04]
reverse link Geometry to Rectangle--><path codeLine="82" d="M254.357,662.7311 C268.97,702.9591 290.944,763.4531 306.29,805.6972 " fill="none" id="Geometry-backto-Rectangle" style="stroke:#A80036;stroke-width:1.0;"/><polygon fill="none" points="247.71,664.9331,247.461,643.7451,260.869,660.1541,247.71,664.9331" style="stroke:#A80036;stroke-width:1.0;"/><!--MD5=[57d8e39296350b64ee86f15e9e67f1c6]
reverse link NavWarningArea to NavArea--><path codeLine="84" d="M446.837,447.0321 C461.272,460.7761 477.054,476.9301 490,492.9531 C514.755,523.5931 538.138,562.4361 552.947,588.7331 " fill="none" id="NavWarningArea-backto-NavArea" style="stroke:#A80036;stroke-width:1.0;"/><polygon fill="none" points="441.808,451.9151,431.901,433.1851,451.326,441.6481,441.808,451.9151" style="stroke:#A80036;stroke-width:1.0;"/><!--MD5=[32794669c7bc6d3073cad72b04d59458]
reverse link NavWarningArea to CoastalWarningArea--><path codeLine="85" d="M403.137,453.1161 C401.384,493.7201 398.807,553.4261 397.277,588.8791 " fill="none" id="NavWarningArea-backto-CoastalWarningArea" style="stroke:#A80036;stroke-width:1.0;"/><polygon fill="none" points="396.146,452.7421,404.002,433.0631,410.133,453.3461,396.146,452.7421" style="stroke:#A80036;stroke-width:1.0;"/><!--MD5=[09ecf36fec88a76aff1a3838a070139a]
reverse link NavWarningArea to Geometry--><path codeLine="86" d="M352.551,445.2381 C335.017,458.7461 316.316,475.2091 302,492.9531 C276.435,524.6391 257.415,568.3921 247.279,594.9841 " fill="none" id="NavWarningArea-backto-Geometry" style="stroke:#A80036;stroke-width:1.0;"/><polygon fill="none" points="348.569,439.4771,368.822,433.2471,356.874,450.7471,348.569,439.4771" style="stroke:#A80036;stroke-width:1.0;"/><!--MD5=[0565048e001d0c7cf4b748a21429e91d]
reverse link MeteorologicalArea to Geometry--><path codeLine="88" d="M232.656,453.1081 C234.311,496.2521 236.794,560.9711 238.109,595.2401 " fill="none" id="MeteorologicalArea-backto-Geometry" style="stroke:#A80036;stroke-width:1.0;"/><polygon fill="none" points="225.659,453.3161,231.887,433.0631,239.648,452.7801,225.659,453.3161" style="stroke:#A80036;stroke-width:1.0;"/><!--MD5=[21ee1635963be7fb7862cac567bd5642]
reverse link MeteorologicalArea to CoastalWarningArea--><path codeLine="89" d="M264.791,448.4031 C276.745,462.2791 290.158,478.1661 302,492.9531 C327.78,525.1441 355.968,563.1871 374.685,588.8821 " fill="none" id="MeteorologicalArea-backto-CoastalWarningArea" style="stroke:#A80036;stroke-width:1.0;"/><polygon fill="none" points="259.439,452.9151,251.611,433.2241,270.009,443.7361,259.439,452.9151" style="stroke:#A80036;stroke-width:1.0;"/><!--MD5=[2c1863a9b2b3f470c967154d26f0654e]
reverse link MeteorologicalArea to MetArea--><path codeLine="90" d="M204.376,449.8201 C195.319,463.4641 185.17,478.8441 176,492.9531 C154.737,525.6661 130.725,563.4511 114.604,588.9441 " fill="none" id="MeteorologicalArea-backto-MetArea" style="stroke:#A80036;stroke-width:1.0;"/><polygon fill="none" points="198.572,445.9071,215.48,433.1351,210.227,453.6641,198.572,445.9071" style="stroke:#A80036;stroke-width:1.0;"/><!--MD5=[0aefb5a2eb7e0fbdde90d233e1f7208a]
reverse link PiracyArea to Geometry--><path codeLine="92" d="M490.247,432.5421 C489.83,432.6791 489.414,432.8161 489,432.9531 C406.1,460.2701 368.306,436.1891 302,492.9531 C270.331,520.0641 252.86,566.9531 244.75,595.1001 " fill="none" id="PiracyArea-backto-Geometry" style="stroke:#A80036;stroke-width:1.0;"/><polygon fill="none" points="488.288,425.8161,509.475,426.1331,492.715,439.0981,488.288,425.8161" style="stroke:#A80036;stroke-width:1.0;"/><!--MD5=[728e772a94ab6d5e712abe62516d7079]
reverse link PiracyArea to CoastalWarningArea--><path codeLine="93" d="M525.189,448.7641 C513.96,462.6211 501.315,478.4031 490,492.9531 C464.765,525.4011 436.595,563.2341 417.733,588.8101 " fill="none" id="PiracyArea-backto-CoastalWarningArea" style="stroke:#A80036;stroke-width:1.0;"/><polygon fill="none" points="519.945,444.1181,538.001,433.0281,530.802,452.9571,519.945,444.1181" style="stroke:#A80036;stroke-width:1.0;"/><!--MD5=[698e6b055fcce6ce8179d73af3e6a297]
reverse link PiracyArea to NavArea--><path codeLine="94" d="M559.484,453.1161 C561.821,493.7201 565.257,553.4261 567.298,588.8791 " fill="none" id="PiracyArea-backto-NavArea" style="stroke:#A80036;stroke-width:1.0;"/><polygon fill="none" points="552.491,453.4321,558.33,433.0631,566.468,452.6271,552.491,453.4321" style="stroke:#A80036;stroke-width:1.0;"/><!--MD5=[96c1a08896d4d12a89253ac7bae99037]
reverse link Broadcast to SARBroadcast--><path codeLine="96" d="M458.668,95.8981 C362.928,105.4301 227.338,133.3341 140,212.9531 C89.2041,259.2601 72.5139,343.8601 67.2705,384.6881 " fill="none" id="Broadcast-backto-SARBroadcast" style="stroke:#A80036;stroke-width:1.0;"/><polygon fill="none" points="458.22,88.9101,478.763,94.1071,459.463,102.8551,458.22,88.9101" style="stroke:#A80036;stroke-width:1.0;"/><!--MD5=[6c02c0956757dbf633185e7dc2815c7f]
reverse link Broadcast to MetBroadcast--><path codeLine="97" d="M460.356,132.5841 C407.447,153.9231 344.022,181.9911 290,212.9531 C273.89,222.1861 257.119,234.2231 243.532,244.6811 " fill="none" id="Broadcast-backto-MetBroadcast" style="stroke:#A80036;stroke-width:1.0;"/><polygon fill="none" points="457.796,126.0691,478.967,125.1781,462.972,139.0771,457.796,126.0691" style="stroke:#A80036;stroke-width:1.0;"/><!--MD5=[f1df5e9071dd3422e1c93b9689c96ec7]
reverse link Broadcast to PiracyBroadcast--><path codeLine="98" d="M571,173.2981 C571,199.3831 571,226.2181 571,244.6231 " fill="none" id="Broadcast-backto-PiracyBroadcast" style="stroke:#A80036;stroke-width:1.0;"/><polygon fill="none" points="564,173.1841,571,153.1841,578,173.1841,564,173.1841" style="stroke:#A80036;stroke-width:1.0;"/><!--MD5=[7bd39685d352537638f5264ab11cdcce]
reverse link Broadcast to NavWarningBroadcast--><path codeLine="99" d="M493.374,167.1491 C464.71,195.1011 434.286,224.7681 413.924,244.6231 " fill="none" id="Broadcast-backto-NavWarningBroadcast" style="stroke:#A80036;stroke-width:1.0;"/><polygon fill="none" points="488.489,162.1361,507.695,153.1841,498.263,172.1591,488.489,162.1361" style="stroke:#A80036;stroke-width:1.0;"/><!--MD5=[e40a19e6692d2ee0e96c1bef5a351046]
link SARBroadcast to Geometry--><path codeLine="101" d="M104.6064,433.0491 C127.61,447.9381 155.92,468.9671 176,492.9531 C202.291,524.3581 221.207,568.5921 231.105,595.2921 " fill="none" id="SARBroadcast-Geometry" style="stroke:#A80036;stroke-width:1.0;"/><text fill="#000000" font-family="sans-serif" font-size="13" lengthAdjust="spacing" textLength="24" x="202.0069" y="584.2629">0..1</text><!--MD5=[c601aa00e3e5ffcefa28cd25e3f99f59]
link MetBroadcast to MeteorologicalArea--><path codeLine="102" d="M217.678,293.0511 C220.632,318.5251 225.356,359.2751 228.313,384.7801 " fill="none" id="MetBroadcast-MeteorologicalArea" style="stroke:#A80036;stroke-width:1.0;"/><text fill="#000000" font-family="sans-serif" font-size="13" lengthAdjust="spacing" textLength="8" x="218.5995" y="373.7478">1</text><!--MD5=[f076b2a5d0c1a0b5afdfb865f3773092]
link NavWarningBroadcast to NavWarningArea--><path codeLine="103" d="M392.511,293.0511 C395.28,318.5251 399.709,359.2751 402.481,384.7801 " fill="none" id="NavWarningBroadcast-NavWarningArea" style="stroke:#A80036;stroke-width:1.0;"/><text fill="#000000" font-family="sans-serif" font-size="13" lengthAdjust="spacing" textLength="8" x="392.8105" y="373.7478">1</text><!--MD5=[efab2a9bc19153a1db00c8519ef3b69c]
link PiracyBroadcast to PiracyArea--><path codeLine="104" d="M568.657,293.0511 C566.072,318.5251 561.938,359.2751 559.351,384.7801 " fill="none" id="PiracyBroadcast-PiracyArea" style="stroke:#A80036;stroke-width:1.0;"/><text fill="#000000" font-family="sans-serif" font-size="13" lengthAdjust="spacing" textLength="8" x="550.9284" y="373.7478">1</text><!--MD5=[2f1074c9e04f2b54e1d72c1773aea458]
link Broadcast to Priority--><path codeLine="106" d="M618.566,153.1841 C637.103,177.2411 657.873,204.1971 674.624,225.9361 " fill="none" id="Broadcast-Priority" style="stroke:#A80036;stroke-width:1.0;"/><text fill="#000000" font-family="sans-serif" font-size="13" lengthAdjust="spacing" textLength="8" x="660.8266" y="214.9295">1</text><!--MD5=[92c65f22e65b7c95b9ee91ed06746ac2]
link Broadcast to Status--><path codeLine="107" d="M663.171,145.6921 C695.015,165.6461 730.369,189.1981 761,212.9531 C766.976,217.5871 773.055,222.7131 778.929,227.9181 " fill="none" id="Broadcast-Status" style="stroke:#A80036;stroke-width:1.0;"/><text fill="#000000" font-family="sans-serif" font-size="13" lengthAdjust="spacing" textLength="8" x="762.9007" y="216.3495">1</text><!--MD5=[b41f0eb9de4db7271707037e7d69cc29]
@startuml
title MSI Broadcasts - Class Diagram

class Broadcast {
  id: string
  payload: string
  startDateInclusive: timestamp
  endDateExclusive: timestamp
  send()
  cancel()
}
class SARBroadcast
class MetBroadcast
class NavWarningBroadcast
class PiracyBroadcast
enum Priority {
  SAFETY
  URGENCY
  DISTRESS
}
enum Status {
  CREATED
  SCHEDULED
  ACTIVE
  FINISHED
  CANCELLED
}
enum IntervalHours {
  1
  2
  3
  4
  5
  6
  12
  18
  24
  30
  36
  48
  60
  72
  96
  120
}

interface Repetition 
class Twice
class RepeatTillCancelled

Broadcast - - "0..1" Repetition
Repetition <|- - Twice
Repetition <|- - RepeatTillCancelled
Twice - - "1" IntervalHours
RepeatTillCancelled  - - "1" IntervalHours

class MetArea {
  metAreaNo: integer
}
class NavArea {
  navAreaNo: integer
}
class CoastalWarningArea {
  letter: char
}
class Circle {
  lat: decimal
  lon: decimal
  radiusNm: decimal
}
class Rectangle {
  minLat: decimal
  leftLon: decimal
  heightDegrees: decimal
  widthDegrees: decimal
}
interface Geometry
interface NavWarningArea
interface MeteorologicalArea
interface PiracyArea

Geometry <|- - Circle
Geometry <|- - Rectangle

NavWarningArea <|- - NavArea
NavWarningArea <|- - CoastalWarningArea
NavWarningArea <|- - Geometry

MeteorologicalArea <|- - Geometry
MeteorologicalArea <|- - CoastalWarningArea
MeteorologicalArea <|- - MetArea

PiracyArea <|- - Geometry
PiracyArea <|- - CoastalWarningArea
PiracyArea <|- - NavArea

Broadcast <|- - SARBroadcast
Broadcast <|- - MetBroadcast
Broadcast <|- - PiracyBroadcast
Broadcast <|- - NavWarningBroadcast

SARBroadcast  - - "0..1" Geometry
MetBroadcast  - - "1" MeteorologicalArea
NavWarningBroadcast  - - "1" NavWarningArea
PiracyBroadcast - - "1" PiracyArea

Broadcast - - "1" Priority
Broadcast - - "1" Status
@enduml

PlantUML version 1.2021.16beta1(Unknown compile time)
(GPL source distribution)
Java Runtime: Java(TM) SE Runtime Environment
JVM: Java HotSpot(TM) 64-Bit Server VM
Default Encoding: UTF-8
Language: en
Country: US
--></g></svg>