<?xml version="1.0" encoding="UTF-8" standalone="no"?><svg xmlns="http://www.w3.org/2000/svg" xmlns:xlink="http://www.w3.org/1999/xlink" contentScriptType="application/ecmascript" contentStyleType="text/css" height="1245px" preserveAspectRatio="none" style="width:1124px;height:1245px;background:#FFFFFF;" version="1.1" viewBox="0 0 1124 1245" width="1124px" zoomAndPan="magnify"><defs><filter height="300%" id="fd9f9b7llfq37" width="300%" x="-1" y="-1"><feGaussianBlur result="blurOut" stdDeviation="2.0"/><feColorMatrix in="blurOut" result="blurOut2" type="matrix" values="0 0 0 0 0 0 0 0 0 0 0 0 0 0 0 0 0 0 .4 0"/><feOffset dx="4.0" dy="4.0" in="blurOut2" result="blurOut3"/><feBlend in="SourceGraphic" in2="blurOut3" mode="normal"/></filter></defs><g><text fill="#000000" font-family="sans-serif" font-size="18" lengthAdjust="spacing" textLength="293" x="409" y="16.708">MSI Broadcasts - Class Diagram</text><!--MD5=[d0e13ed213eb83238e6841a7b0b939cb]
class MSI--><rect codeLine="3" fill="#FEFECE" filter="url(#fd9f9b7llfq37)" height="124.8281" id="MSI" style="stroke:#A80036;stroke-width:1.5;" width="133" x="575" y="27.9531"/><ellipse cx="626.75" cy="43.9531" fill="#ADD1B2" rx="11" ry="11" style="stroke:#A80036;stroke-width:1.0;"/><path d="M629.0938,39.625 C628.1563,39.1875 627.5625,39.0469 626.6875,39.0469 C624.0625,39.0469 622.0625,41.125 622.0625,43.8438 L622.0625,44.9688 C622.0625,47.5469 624.1719,49.4375 627.0625,49.4375 C628.2813,49.4375 629.4375,49.1406 630.1875,48.5938 C630.7656,48.1875 631.0938,47.7344 631.0938,47.3438 C631.0938,46.8906 630.7031,46.5 630.2344,46.5 C630.0156,46.5 629.8125,46.5781 629.625,46.7656 C629.1719,47.25 629.1719,47.25 628.9844,47.3438 C628.5625,47.6094 627.875,47.7344 627.1094,47.7344 C625.0625,47.7344 623.7656,46.6406 623.7656,44.9375 L623.7656,43.8438 C623.7656,42.0625 625.0156,40.75 626.75,40.75 C627.3281,40.75 627.9375,40.9063 628.4063,41.1563 C628.8906,41.4375 629.0625,41.6563 629.1563,42.0625 C629.2188,42.4688 629.25,42.5938 629.3906,42.7188 C629.5313,42.8594 629.7656,42.9688 629.9844,42.9688 C630.25,42.9688 630.5156,42.8281 630.6875,42.6094 C630.7969,42.4531 630.8281,42.2656 630.8281,41.8438 L630.8281,40.4219 C630.8281,39.9844 630.8125,39.8594 630.7188,39.7031 C630.5625,39.4375 630.2813,39.2969 629.9844,39.2969 C629.6875,39.2969 629.4844,39.3906 629.2656,39.7031 L629.0938,39.625 Z " fill="#000000"/><text fill="#000000" font-family="sans-serif" font-size="12" lengthAdjust="spacing" textLength="21" x="647.25" y="48.1074">MSI</text><line style="stroke:#A80036;stroke-width:1.5;" x1="576" x2="707" y1="59.9531" y2="59.9531"/><text fill="#000000" font-family="sans-serif" font-size="11" lengthAdjust="spacing" textLength="48" x="581" y="74.1636">id: string</text><text fill="#000000" font-family="sans-serif" font-size="11" lengthAdjust="spacing" textLength="83" x="581" y="86.9683">payload: string</text><text fill="#000000" font-family="sans-serif" font-size="11" lengthAdjust="spacing" textLength="121" x="581" y="99.7729">startDate: timestamp</text><text fill="#000000" font-family="sans-serif" font-size="11" lengthAdjust="spacing" textLength="118" x="581" y="112.5776">endDate: timestamp</text><line style="stroke:#A80036;stroke-width:1.5;" x1="576" x2="707" y1="119.1719" y2="119.1719"/><text fill="#000000" font-family="sans-serif" font-size="11" lengthAdjust="spacing" textLength="36" x="581" y="133.3823">send()</text><text fill="#000000" font-family="sans-serif" font-size="11" lengthAdjust="spacing" textLength="45" x="581" y="146.187">cancel()</text><!--MD5=[6a4bf54674a26136bd95edad553eae04]
class SARBroadcast--><rect codeLine="12" fill="#FEFECE" filter="url(#fd9f9b7llfq37)" height="48" id="SARBroadcast" style="stroke:#A80036;stroke-width:1.5;" width="116" x="157.5" y="397.9531"/><ellipse cx="172.5" cy="413.9531" fill="#ADD1B2" rx="11" ry="11" style="stroke:#A80036;stroke-width:1.0;"/><path d="M174.8438,409.625 C173.9063,409.1875 173.3125,409.0469 172.4375,409.0469 C169.8125,409.0469 167.8125,411.125 167.8125,413.8438 L167.8125,414.9688 C167.8125,417.5469 169.9219,419.4375 172.8125,419.4375 C174.0313,419.4375 175.1875,419.1406 175.9375,418.5938 C176.5156,418.1875 176.8438,417.7344 176.8438,417.3438 C176.8438,416.8906 176.4531,416.5 175.9844,416.5 C175.7656,416.5 175.5625,416.5781 175.375,416.7656 C174.9219,417.25 174.9219,417.25 174.7344,417.3438 C174.3125,417.6094 173.625,417.7344 172.8594,417.7344 C170.8125,417.7344 169.5156,416.6406 169.5156,414.9375 L169.5156,413.8438 C169.5156,412.0625 170.7656,410.75 172.5,410.75 C173.0781,410.75 173.6875,410.9063 174.1563,411.1563 C174.6406,411.4375 174.8125,411.6563 174.9063,412.0625 C174.9688,412.4688 175,412.5938 175.1406,412.7188 C175.2813,412.8594 175.5156,412.9688 175.7344,412.9688 C176,412.9688 176.2656,412.8281 176.4375,412.6094 C176.5469,412.4531 176.5781,412.2656 176.5781,411.8438 L176.5781,410.4219 C176.5781,409.9844 176.5625,409.8594 176.4688,409.7031 C176.3125,409.4375 176.0313,409.2969 175.7344,409.2969 C175.4375,409.2969 175.2344,409.3906 175.0156,409.7031 L174.8438,409.625 Z " fill="#000000"/><text fill="#000000" font-family="sans-serif" font-size="12" lengthAdjust="spacing" textLength="84" x="186.5" y="418.1074">SARBroadcast</text><line style="stroke:#A80036;stroke-width:1.5;" x1="158.5" x2="272.5" y1="429.9531" y2="429.9531"/><line style="stroke:#A80036;stroke-width:1.5;" x1="158.5" x2="272.5" y1="437.9531" y2="437.9531"/><!--MD5=[61d1eab05324eee6ada7fcfd560616ce]
class NonSARBroadcast--><rect codeLine="13" fill="#FEFECE" filter="url(#fd9f9b7llfq37)" height="48" id="NonSARBroadcast" style="stroke:#A80036;stroke-width:1.5;" width="140" x="498.5" y="244.9531"/><ellipse cx="513.5" cy="260.9531" fill="#B4A7E5" rx="11" ry="11" style="stroke:#A80036;stroke-width:1.0;"/><path d="M514.4531,257.7344 L516.1719,257.7344 C516.5625,257.7344 516.75,257.7031 516.875,257.625 C517.1406,257.4688 517.2813,257.1875 517.2813,256.8906 C517.2813,256.625 517.1719,256.3594 516.9375,256.1875 C516.7656,256.0781 516.625,256.0469 516.1719,256.0469 L511.0313,256.0469 C510.5938,256.0469 510.4688,256.0625 510.3125,256.1563 C510.0625,256.3125 509.9063,256.6094 509.9063,256.8906 C509.9063,257.1719 510.0469,257.4219 510.2656,257.5938 C510.4219,257.7031 510.6094,257.7344 511.0313,257.7344 L512.75,257.7344 L512.75,264.25 L511.0313,264.25 C510.5938,264.25 510.4688,264.2656 510.3125,264.375 C510.0625,264.5313 509.9063,264.8125 509.9063,265.1094 C509.9063,265.3594 510.0469,265.625 510.2656,265.7813 C510.4219,265.9063 510.625,265.9531 511.0313,265.9531 L516.1719,265.9531 C516.9219,265.9531 517.2813,265.6719 517.2813,265.1094 C517.2813,264.8281 517.1719,264.5781 516.9375,264.4063 C516.7656,264.2813 516.625,264.25 516.1719,264.25 L514.4531,264.25 L514.4531,257.7344 Z " fill="#000000"/><text fill="#000000" font-family="sans-serif" font-size="12" font-style="italic" lengthAdjust="spacing" textLength="108" x="527.5" y="265.1074">NonSARBroadcast</text><line style="stroke:#A80036;stroke-width:1.5;" x1="499.5" x2="637.5" y1="276.9531" y2="276.9531"/><line style="stroke:#A80036;stroke-width:1.5;" x1="499.5" x2="637.5" y1="284.9531" y2="284.9531"/><!--MD5=[59982b7b7c2f6d277251daf1f7ffe2c4]
class MetBroadcast--><rect codeLine="14" fill="#FEFECE" filter="url(#fd9f9b7llfq37)" height="60.8047" id="MetBroadcast" style="stroke:#A80036;stroke-width:1.5;" width="122" x="507.5" y="391.4531"/><ellipse cx="525.65" cy="407.4531" fill="#ADD1B2" rx="11" ry="11" style="stroke:#A80036;stroke-width:1.0;"/><path d="M527.9938,403.125 C527.0563,402.6875 526.4625,402.5469 525.5875,402.5469 C522.9625,402.5469 520.9625,404.625 520.9625,407.3438 L520.9625,408.4688 C520.9625,411.0469 523.0719,412.9375 525.9625,412.9375 C527.1813,412.9375 528.3375,412.6406 529.0875,412.0938 C529.6656,411.6875 529.9938,411.2344 529.9938,410.8438 C529.9938,410.3906 529.6031,410 529.1344,410 C528.9156,410 528.7125,410.0781 528.525,410.2656 C528.0719,410.75 528.0719,410.75 527.8844,410.8438 C527.4625,411.1094 526.775,411.2344 526.0094,411.2344 C523.9625,411.2344 522.6656,410.1406 522.6656,408.4375 L522.6656,407.3438 C522.6656,405.5625 523.9156,404.25 525.65,404.25 C526.2281,404.25 526.8375,404.4063 527.3063,404.6563 C527.7906,404.9375 527.9625,405.1563 528.0563,405.5625 C528.1188,405.9688 528.15,406.0938 528.2906,406.2188 C528.4313,406.3594 528.6656,406.4688 528.8844,406.4688 C529.15,406.4688 529.4156,406.3281 529.5875,406.1094 C529.6969,405.9531 529.7281,405.7656 529.7281,405.3438 L529.7281,403.9219 C529.7281,403.4844 529.7125,403.3594 529.6188,403.2031 C529.4625,402.9375 529.1813,402.7969 528.8844,402.7969 C528.5875,402.7969 528.3844,402.8906 528.1656,403.2031 L527.9938,403.125 Z " fill="#000000"/><text fill="#000000" font-family="sans-serif" font-size="12" lengthAdjust="spacing" textLength="83" x="540.35" y="411.6074">MetBroadcast</text><line style="stroke:#A80036;stroke-width:1.5;" x1="508.5" x2="628.5" y1="423.4531" y2="423.4531"/><text fill="#000000" font-family="sans-serif" font-size="11" lengthAdjust="spacing" textLength="110" x="513.5" y="437.6636">isForecast: boolean</text><line style="stroke:#A80036;stroke-width:1.5;" x1="508.5" x2="628.5" y1="444.2578" y2="444.2578"/><!--MD5=[a58030872057f2eaffea5a541be2457b]
class NavWarningBroadcast--><rect codeLine="17" fill="#FEFECE" filter="url(#fd9f9b7llfq37)" height="60.8047" id="NavWarningBroadcast" style="stroke:#A80036;stroke-width:1.5;" width="164" x="308.5" y="391.4531"/><ellipse cx="323.5" cy="407.4531" fill="#ADD1B2" rx="11" ry="11" style="stroke:#A80036;stroke-width:1.0;"/><path d="M325.8438,403.125 C324.9063,402.6875 324.3125,402.5469 323.4375,402.5469 C320.8125,402.5469 318.8125,404.625 318.8125,407.3438 L318.8125,408.4688 C318.8125,411.0469 320.9219,412.9375 323.8125,412.9375 C325.0313,412.9375 326.1875,412.6406 326.9375,412.0938 C327.5156,411.6875 327.8438,411.2344 327.8438,410.8438 C327.8438,410.3906 327.4531,410 326.9844,410 C326.7656,410 326.5625,410.0781 326.375,410.2656 C325.9219,410.75 325.9219,410.75 325.7344,410.8438 C325.3125,411.1094 324.625,411.2344 323.8594,411.2344 C321.8125,411.2344 320.5156,410.1406 320.5156,408.4375 L320.5156,407.3438 C320.5156,405.5625 321.7656,404.25 323.5,404.25 C324.0781,404.25 324.6875,404.4063 325.1563,404.6563 C325.6406,404.9375 325.8125,405.1563 325.9063,405.5625 C325.9688,405.9688 326,406.0938 326.1406,406.2188 C326.2813,406.3594 326.5156,406.4688 326.7344,406.4688 C327,406.4688 327.2656,406.3281 327.4375,406.1094 C327.5469,405.9531 327.5781,405.7656 327.5781,405.3438 L327.5781,403.9219 C327.5781,403.4844 327.5625,403.3594 327.4688,403.2031 C327.3125,402.9375 327.0313,402.7969 326.7344,402.7969 C326.4375,402.7969 326.2344,402.8906 326.0156,403.2031 L325.8438,403.125 Z " fill="#000000"/><text fill="#000000" font-family="sans-serif" font-size="12" lengthAdjust="spacing" textLength="132" x="337.5" y="411.6074">NavWarningBroadcast</text><line style="stroke:#A80036;stroke-width:1.5;" x1="309.5" x2="471.5" y1="423.4531" y2="423.4531"/><text fill="#000000" font-family="sans-serif" font-size="11" lengthAdjust="spacing" textLength="141" x="314.5" y="437.6636">isPiracyWarning: boolean</text><line style="stroke:#A80036;stroke-width:1.5;" x1="309.5" x2="471.5" y1="444.2578" y2="444.2578"/><!--MD5=[45e2a1f16a26aa8b66315c9b64a987d7]
class SARPriority--><rect codeLine="21" fill="#FEFECE" filter="url(#fd9f9b7llfq37)" height="86.4141" id="SARPriority" style="stroke:#A80036;stroke-width:1.5;" width="96" x="193.5" y="602.4531"/><ellipse cx="208.5" cy="618.4531" fill="#EB937F" rx="11" ry="11" style="stroke:#A80036;stroke-width:1.0;"/><path d="M207.2969,619.3281 L208.75,619.3281 L208.75,619.4375 C208.75,619.8438 208.7813,620 208.8594,620.1563 C209.0156,620.4063 209.2969,620.5625 209.5938,620.5625 C209.8438,620.5625 210.1094,620.4219 210.2656,620.2031 C210.3906,620.0469 210.4219,619.8906 210.4219,619.4375 L210.4219,617.5156 C210.4219,617.3594 210.4219,617.3125 210.4063,617.1563 C210.3438,616.6875 210.0313,616.375 209.5781,616.375 C209.3281,616.375 209.0625,616.5156 208.8906,616.7344 C208.7813,616.9063 208.75,617.0625 208.75,617.5156 L208.75,617.6406 L207.2969,617.6406 L207.2969,615.2344 L211.2813,615.2344 L211.2813,616.0938 C211.2813,616.5 211.3125,616.6719 211.3906,616.8281 C211.5625,617.0781 211.8438,617.2344 212.125,617.2344 C212.3906,617.2344 212.6563,617.0938 212.8281,616.875 C212.9375,616.7031 212.9688,616.5625 212.9688,616.0938 L212.9688,613.5469 L205.3438,613.5469 C204.9063,613.5469 204.7813,613.5625 204.625,613.6563 C204.375,613.8125 204.2188,614.1094 204.2188,614.3906 C204.2188,614.6719 204.3594,614.9219 204.5781,615.0938 C204.7344,615.2031 204.9219,615.2344 205.3438,615.2344 L205.5938,615.2344 L205.5938,621.75 L205.3438,621.75 C204.9375,621.75 204.7813,621.7656 204.625,621.875 C204.375,622.0469 204.2188,622.3125 204.2188,622.6094 C204.2188,622.875 204.3594,623.125 204.5781,623.2813 C204.7188,623.4063 204.9531,623.4531 205.3438,623.4531 L213.3438,623.4531 L213.3438,620.875 C213.3438,620.4375 213.3125,620.2969 213.2344,620.1406 C213.0625,619.8906 212.7813,619.7344 212.5,619.7344 C212.2344,619.7344 211.9688,619.8438 211.7969,620.0938 C211.6875,620.25 211.6563,620.3906 211.6563,620.875 L211.6563,621.75 L207.2969,621.75 L207.2969,619.3281 Z " fill="#000000"/><text fill="#000000" font-family="sans-serif" font-size="12" lengthAdjust="spacing" textLength="64" x="222.5" y="622.6074">SARPriority</text><line style="stroke:#A80036;stroke-width:1.5;" x1="194.5" x2="288.5" y1="634.4531" y2="634.4531"/><text fill="#000000" font-family="sans-serif" font-size="11" lengthAdjust="spacing" textLength="43" x="199.5" y="648.6636">SAFETY</text><text fill="#000000" font-family="sans-serif" font-size="11" lengthAdjust="spacing" textLength="54" x="199.5" y="661.4683">URGENCY</text><text fill="#000000" font-family="sans-serif" font-size="11" lengthAdjust="spacing" textLength="57" x="199.5" y="674.2729">DISTRESS</text><line style="stroke:#A80036;stroke-width:1.5;" x1="194.5" x2="288.5" y1="680.8672" y2="680.8672"/><!--MD5=[78bcfbe4e3cad7ad24ae0d54bbfae700]
class NonSARPriority--><rect codeLine="26" fill="#FEFECE" filter="url(#fd9f9b7llfq37)" height="73.6094" id="NonSARPriority" style="stroke:#A80036;stroke-width:1.5;" width="119" x="665" y="384.9531"/><ellipse cx="680" cy="400.9531" fill="#EB937F" rx="11" ry="11" style="stroke:#A80036;stroke-width:1.0;"/><path d="M678.7969,401.8281 L680.25,401.8281 L680.25,401.9375 C680.25,402.3438 680.2813,402.5 680.3594,402.6563 C680.5156,402.9063 680.7969,403.0625 681.0938,403.0625 C681.3438,403.0625 681.6094,402.9219 681.7656,402.7031 C681.8906,402.5469 681.9219,402.3906 681.9219,401.9375 L681.9219,400.0156 C681.9219,399.8594 681.9219,399.8125 681.9063,399.6563 C681.8438,399.1875 681.5313,398.875 681.0781,398.875 C680.8281,398.875 680.5625,399.0156 680.3906,399.2344 C680.2813,399.4063 680.25,399.5625 680.25,400.0156 L680.25,400.1406 L678.7969,400.1406 L678.7969,397.7344 L682.7813,397.7344 L682.7813,398.5938 C682.7813,399 682.8125,399.1719 682.8906,399.3281 C683.0625,399.5781 683.3438,399.7344 683.625,399.7344 C683.8906,399.7344 684.1563,399.5938 684.3281,399.375 C684.4375,399.2031 684.4688,399.0625 684.4688,398.5938 L684.4688,396.0469 L676.8438,396.0469 C676.4063,396.0469 676.2813,396.0625 676.125,396.1563 C675.875,396.3125 675.7188,396.6094 675.7188,396.8906 C675.7188,397.1719 675.8594,397.4219 676.0781,397.5938 C676.2344,397.7031 676.4219,397.7344 676.8438,397.7344 L677.0938,397.7344 L677.0938,404.25 L676.8438,404.25 C676.4375,404.25 676.2813,404.2656 676.125,404.375 C675.875,404.5469 675.7188,404.8125 675.7188,405.1094 C675.7188,405.375 675.8594,405.625 676.0781,405.7813 C676.2188,405.9063 676.4531,405.9531 676.8438,405.9531 L684.8438,405.9531 L684.8438,403.375 C684.8438,402.9375 684.8125,402.7969 684.7344,402.6406 C684.5625,402.3906 684.2813,402.2344 684,402.2344 C683.7344,402.2344 683.4688,402.3438 683.2969,402.5938 C683.1875,402.75 683.1563,402.8906 683.1563,403.375 L683.1563,404.25 L678.7969,404.25 L678.7969,401.8281 Z " fill="#000000"/><text fill="#000000" font-family="sans-serif" font-size="12" lengthAdjust="spacing" textLength="87" x="694" y="405.1074">NonSARPriority</text><line style="stroke:#A80036;stroke-width:1.5;" x1="666" x2="783" y1="416.9531" y2="416.9531"/><text fill="#000000" font-family="sans-serif" font-size="11" lengthAdjust="spacing" textLength="43" x="671" y="431.1636">SAFETY</text><text fill="#000000" font-family="sans-serif" font-size="11" lengthAdjust="spacing" textLength="54" x="671" y="443.9683">URGENCY</text><line style="stroke:#A80036;stroke-width:1.5;" x1="666" x2="783" y1="450.5625" y2="450.5625"/><!--MD5=[e3d83ec5fd90ea9f3f2bfe265cb53458]
class Status--><rect codeLine="30" fill="#FEFECE" filter="url(#fd9f9b7llfq37)" height="112.0234" id="Status" style="stroke:#A80036;stroke-width:1.5;" width="82" x="673.5" y="212.9531"/><ellipse cx="694.35" cy="228.9531" fill="#EB937F" rx="11" ry="11" style="stroke:#A80036;stroke-width:1.0;"/><path d="M693.1469,229.8281 L694.6,229.8281 L694.6,229.9375 C694.6,230.3438 694.6313,230.5 694.7094,230.6563 C694.8656,230.9063 695.1469,231.0625 695.4438,231.0625 C695.6938,231.0625 695.9594,230.9219 696.1156,230.7031 C696.2406,230.5469 696.2719,230.3906 696.2719,229.9375 L696.2719,228.0156 C696.2719,227.8594 696.2719,227.8125 696.2563,227.6563 C696.1938,227.1875 695.8813,226.875 695.4281,226.875 C695.1781,226.875 694.9125,227.0156 694.7406,227.2344 C694.6313,227.4063 694.6,227.5625 694.6,228.0156 L694.6,228.1406 L693.1469,228.1406 L693.1469,225.7344 L697.1313,225.7344 L697.1313,226.5938 C697.1313,227 697.1625,227.1719 697.2406,227.3281 C697.4125,227.5781 697.6938,227.7344 697.975,227.7344 C698.2406,227.7344 698.5063,227.5938 698.6781,227.375 C698.7875,227.2031 698.8188,227.0625 698.8188,226.5938 L698.8188,224.0469 L691.1938,224.0469 C690.7563,224.0469 690.6313,224.0625 690.475,224.1563 C690.225,224.3125 690.0688,224.6094 690.0688,224.8906 C690.0688,225.1719 690.2094,225.4219 690.4281,225.5938 C690.5844,225.7031 690.7719,225.7344 691.1938,225.7344 L691.4438,225.7344 L691.4438,232.25 L691.1938,232.25 C690.7875,232.25 690.6313,232.2656 690.475,232.375 C690.225,232.5469 690.0688,232.8125 690.0688,233.1094 C690.0688,233.375 690.2094,233.625 690.4281,233.7813 C690.5688,233.9063 690.8031,233.9531 691.1938,233.9531 L699.1938,233.9531 L699.1938,231.375 C699.1938,230.9375 699.1625,230.7969 699.0844,230.6406 C698.9125,230.3906 698.6313,230.2344 698.35,230.2344 C698.0844,230.2344 697.8188,230.3438 697.6469,230.5938 C697.5375,230.75 697.5063,230.8906 697.5063,231.375 L697.5063,232.25 L693.1469,232.25 L693.1469,229.8281 Z " fill="#000000"/><text fill="#000000" font-family="sans-serif" font-size="12" lengthAdjust="spacing" textLength="37" x="709.65" y="233.1074">Status</text><line style="stroke:#A80036;stroke-width:1.5;" x1="674.5" x2="754.5" y1="244.9531" y2="244.9531"/><text fill="#000000" font-family="sans-serif" font-size="11" lengthAdjust="spacing" textLength="53" x="679.5" y="259.1636">CREATED</text><text fill="#000000" font-family="sans-serif" font-size="11" lengthAdjust="spacing" textLength="70" x="679.5" y="271.9683">SCHEDULED</text><text fill="#000000" font-family="sans-serif" font-size="11" lengthAdjust="spacing" textLength="41" x="679.5" y="284.7729">ACTIVE</text><text fill="#000000" font-family="sans-serif" font-size="11" lengthAdjust="spacing" textLength="52" x="679.5" y="297.5776">FINISHED</text><text fill="#000000" font-family="sans-serif" font-size="11" lengthAdjust="spacing" textLength="67" x="679.5" y="310.3823">CANCELLED</text><line style="stroke:#A80036;stroke-width:1.5;" x1="674.5" x2="754.5" y1="316.9766" y2="316.9766"/><!--MD5=[670ba5afd3835a69cbf81964ee5af7db]
class IntervalHours--><rect codeLine="37" fill="#FEFECE" filter="url(#fd9f9b7llfq37)" height="252.875" id="IntervalHours" style="stroke:#A80036;stroke-width:1.5;" width="112" x="897.5" y="518.9531"/><ellipse cx="912.5" cy="534.9531" fill="#EB937F" rx="11" ry="11" style="stroke:#A80036;stroke-width:1.0;"/><path d="M911.2969,535.8281 L912.75,535.8281 L912.75,535.9375 C912.75,536.3438 912.7813,536.5 912.8594,536.6563 C913.0156,536.9063 913.2969,537.0625 913.5938,537.0625 C913.8438,537.0625 914.1094,536.9219 914.2656,536.7031 C914.3906,536.5469 914.4219,536.3906 914.4219,535.9375 L914.4219,534.0156 C914.4219,533.8594 914.4219,533.8125 914.4063,533.6563 C914.3438,533.1875 914.0313,532.875 913.5781,532.875 C913.3281,532.875 913.0625,533.0156 912.8906,533.2344 C912.7813,533.4063 912.75,533.5625 912.75,534.0156 L912.75,534.1406 L911.2969,534.1406 L911.2969,531.7344 L915.2813,531.7344 L915.2813,532.5938 C915.2813,533 915.3125,533.1719 915.3906,533.3281 C915.5625,533.5781 915.8438,533.7344 916.125,533.7344 C916.3906,533.7344 916.6563,533.5938 916.8281,533.375 C916.9375,533.2031 916.9688,533.0625 916.9688,532.5938 L916.9688,530.0469 L909.3438,530.0469 C908.9063,530.0469 908.7813,530.0625 908.625,530.1563 C908.375,530.3125 908.2188,530.6094 908.2188,530.8906 C908.2188,531.1719 908.3594,531.4219 908.5781,531.5938 C908.7344,531.7031 908.9219,531.7344 909.3438,531.7344 L909.5938,531.7344 L909.5938,538.25 L909.3438,538.25 C908.9375,538.25 908.7813,538.2656 908.625,538.375 C908.375,538.5469 908.2188,538.8125 908.2188,539.1094 C908.2188,539.375 908.3594,539.625 908.5781,539.7813 C908.7188,539.9063 908.9531,539.9531 909.3438,539.9531 L917.3438,539.9531 L917.3438,537.375 C917.3438,536.9375 917.3125,536.7969 917.2344,536.6406 C917.0625,536.3906 916.7813,536.2344 916.5,536.2344 C916.2344,536.2344 915.9688,536.3438 915.7969,536.5938 C915.6875,536.75 915.6563,536.8906 915.6563,537.375 L915.6563,538.25 L911.2969,538.25 L911.2969,535.8281 Z " fill="#000000"/><text fill="#000000" font-family="sans-serif" font-size="12" lengthAdjust="spacing" textLength="80" x="926.5" y="539.1074">IntervalHours</text><line style="stroke:#A80036;stroke-width:1.5;" x1="898.5" x2="1008.5" y1="550.9531" y2="550.9531"/><text fill="#000000" font-family="sans-serif" font-size="11" lengthAdjust="spacing" textLength="7" x="903.5" y="565.1636">1</text><text fill="#000000" font-family="sans-serif" font-size="11" lengthAdjust="spacing" textLength="7" x="903.5" y="577.9683">2</text><text fill="#000000" font-family="sans-serif" font-size="11" lengthAdjust="spacing" textLength="7" x="903.5" y="590.7729">3</text><text fill="#000000" font-family="sans-serif" font-size="11" lengthAdjust="spacing" textLength="7" x="903.5" y="603.5776">4</text><text fill="#000000" font-family="sans-serif" font-size="11" lengthAdjust="spacing" textLength="7" x="903.5" y="616.3823">5</text><text fill="#000000" font-family="sans-serif" font-size="11" lengthAdjust="spacing" textLength="7" x="903.5" y="629.187">6</text><text fill="#000000" font-family="sans-serif" font-size="11" lengthAdjust="spacing" textLength="14" x="903.5" y="641.9917">12</text><text fill="#000000" font-family="sans-serif" font-size="11" lengthAdjust="spacing" textLength="14" x="903.5" y="654.7964">18</text><text fill="#000000" font-family="sans-serif" font-size="11" lengthAdjust="spacing" textLength="14" x="903.5" y="667.6011">24</text><text fill="#000000" font-family="sans-serif" font-size="11" lengthAdjust="spacing" textLength="14" x="903.5" y="680.4058">30</text><text fill="#000000" font-family="sans-serif" font-size="11" lengthAdjust="spacing" textLength="14" x="903.5" y="693.2104">36</text><text fill="#000000" font-family="sans-serif" font-size="11" lengthAdjust="spacing" textLength="14" x="903.5" y="706.0151">48</text><text fill="#000000" font-family="sans-serif" font-size="11" lengthAdjust="spacing" textLength="14" x="903.5" y="718.8198">60</text><text fill="#000000" font-family="sans-serif" font-size="11" lengthAdjust="spacing" textLength="14" x="903.5" y="731.6245">72</text><text fill="#000000" font-family="sans-serif" font-size="11" lengthAdjust="spacing" textLength="14" x="903.5" y="744.4292">96</text><text fill="#000000" font-family="sans-serif" font-size="11" lengthAdjust="spacing" textLength="21" x="903.5" y="757.2339">120</text><line style="stroke:#A80036;stroke-width:1.5;" x1="898.5" x2="1008.5" y1="763.8281" y2="763.8281"/><!--MD5=[88c59876449025d50fa0788b08f620b9]
class Repetition--><rect codeLine="56" fill="#FEFECE" filter="url(#fd9f9b7llfq37)" height="48" id="Repetition" style="stroke:#A80036;stroke-width:1.5;" width="93" x="826" y="244.9531"/><ellipse cx="841" cy="260.9531" fill="#B4A7E5" rx="11" ry="11" style="stroke:#A80036;stroke-width:1.0;"/><path d="M841.9531,257.7344 L843.6719,257.7344 C844.0625,257.7344 844.25,257.7031 844.375,257.625 C844.6406,257.4688 844.7813,257.1875 844.7813,256.8906 C844.7813,256.625 844.6719,256.3594 844.4375,256.1875 C844.2656,256.0781 844.125,256.0469 843.6719,256.0469 L838.5313,256.0469 C838.0938,256.0469 837.9688,256.0625 837.8125,256.1563 C837.5625,256.3125 837.4063,256.6094 837.4063,256.8906 C837.4063,257.1719 837.5469,257.4219 837.7656,257.5938 C837.9219,257.7031 838.1094,257.7344 838.5313,257.7344 L840.25,257.7344 L840.25,264.25 L838.5313,264.25 C838.0938,264.25 837.9688,264.2656 837.8125,264.375 C837.5625,264.5313 837.4063,264.8125 837.4063,265.1094 C837.4063,265.3594 837.5469,265.625 837.7656,265.7813 C837.9219,265.9063 838.125,265.9531 838.5313,265.9531 L843.6719,265.9531 C844.4219,265.9531 844.7813,265.6719 844.7813,265.1094 C844.7813,264.8281 844.6719,264.5781 844.4375,264.4063 C844.2656,264.2813 844.125,264.25 843.6719,264.25 L841.9531,264.25 L841.9531,257.7344 Z " fill="#000000"/><text fill="#000000" font-family="sans-serif" font-size="12" font-style="italic" lengthAdjust="spacing" textLength="61" x="855" y="265.1074">Repetition</text><line style="stroke:#A80036;stroke-width:1.5;" x1="827" x2="918" y1="276.9531" y2="276.9531"/><line style="stroke:#A80036;stroke-width:1.5;" x1="827" x2="918" y1="284.9531" y2="284.9531"/><!--MD5=[5cb67dfb29d802bd2827aaf3e983051d]
class RepeatOnce--><rect codeLine="57" fill="#FEFECE" filter="url(#fd9f9b7llfq37)" height="48" id="RepeatOnce" style="stroke:#A80036;stroke-width:1.5;" width="106" x="819.5" y="397.9531"/><ellipse cx="834.5" cy="413.9531" fill="#ADD1B2" rx="11" ry="11" style="stroke:#A80036;stroke-width:1.0;"/><path d="M836.8438,409.625 C835.9063,409.1875 835.3125,409.0469 834.4375,409.0469 C831.8125,409.0469 829.8125,411.125 829.8125,413.8438 L829.8125,414.9688 C829.8125,417.5469 831.9219,419.4375 834.8125,419.4375 C836.0313,419.4375 837.1875,419.1406 837.9375,418.5938 C838.5156,418.1875 838.8438,417.7344 838.8438,417.3438 C838.8438,416.8906 838.4531,416.5 837.9844,416.5 C837.7656,416.5 837.5625,416.5781 837.375,416.7656 C836.9219,417.25 836.9219,417.25 836.7344,417.3438 C836.3125,417.6094 835.625,417.7344 834.8594,417.7344 C832.8125,417.7344 831.5156,416.6406 831.5156,414.9375 L831.5156,413.8438 C831.5156,412.0625 832.7656,410.75 834.5,410.75 C835.0781,410.75 835.6875,410.9063 836.1563,411.1563 C836.6406,411.4375 836.8125,411.6563 836.9063,412.0625 C836.9688,412.4688 837,412.5938 837.1406,412.7188 C837.2813,412.8594 837.5156,412.9688 837.7344,412.9688 C838,412.9688 838.2656,412.8281 838.4375,412.6094 C838.5469,412.4531 838.5781,412.2656 838.5781,411.8438 L838.5781,410.4219 C838.5781,409.9844 838.5625,409.8594 838.4688,409.7031 C838.3125,409.4375 838.0313,409.2969 837.7344,409.2969 C837.4375,409.2969 837.2344,409.3906 837.0156,409.7031 L836.8438,409.625 Z " fill="#000000"/><text fill="#000000" font-family="sans-serif" font-size="12" lengthAdjust="spacing" textLength="74" x="848.5" y="418.1074">RepeatOnce</text><line style="stroke:#A80036;stroke-width:1.5;" x1="820.5" x2="924.5" y1="429.9531" y2="429.9531"/><line style="stroke:#A80036;stroke-width:1.5;" x1="820.5" x2="924.5" y1="437.9531" y2="437.9531"/><!--MD5=[e991e8ea54c6943cd026340d8b1572eb]
class RepeatTillCancelled--><rect codeLine="58" fill="#FEFECE" filter="url(#fd9f9b7llfq37)" height="48" id="RepeatTillCancelled" style="stroke:#A80036;stroke-width:1.5;" width="149" x="961" y="397.9531"/><ellipse cx="976" cy="413.9531" fill="#ADD1B2" rx="11" ry="11" style="stroke:#A80036;stroke-width:1.0;"/><path d="M978.3438,409.625 C977.4063,409.1875 976.8125,409.0469 975.9375,409.0469 C973.3125,409.0469 971.3125,411.125 971.3125,413.8438 L971.3125,414.9688 C971.3125,417.5469 973.4219,419.4375 976.3125,419.4375 C977.5313,419.4375 978.6875,419.1406 979.4375,418.5938 C980.0156,418.1875 980.3438,417.7344 980.3438,417.3438 C980.3438,416.8906 979.9531,416.5 979.4844,416.5 C979.2656,416.5 979.0625,416.5781 978.875,416.7656 C978.4219,417.25 978.4219,417.25 978.2344,417.3438 C977.8125,417.6094 977.125,417.7344 976.3594,417.7344 C974.3125,417.7344 973.0156,416.6406 973.0156,414.9375 L973.0156,413.8438 C973.0156,412.0625 974.2656,410.75 976,410.75 C976.5781,410.75 977.1875,410.9063 977.6563,411.1563 C978.1406,411.4375 978.3125,411.6563 978.4063,412.0625 C978.4688,412.4688 978.5,412.5938 978.6406,412.7188 C978.7813,412.8594 979.0156,412.9688 979.2344,412.9688 C979.5,412.9688 979.7656,412.8281 979.9375,412.6094 C980.0469,412.4531 980.0781,412.2656 980.0781,411.8438 L980.0781,410.4219 C980.0781,409.9844 980.0625,409.8594 979.9688,409.7031 C979.8125,409.4375 979.5313,409.2969 979.2344,409.2969 C978.9375,409.2969 978.7344,409.3906 978.5156,409.7031 L978.3438,409.625 Z " fill="#000000"/><text fill="#000000" font-family="sans-serif" font-size="12" lengthAdjust="spacing" textLength="117" x="990" y="418.1074">RepeatTillCancelled</text><line style="stroke:#A80036;stroke-width:1.5;" x1="962" x2="1109" y1="429.9531" y2="429.9531"/><line style="stroke:#A80036;stroke-width:1.5;" x1="962" x2="1109" y1="437.9531" y2="437.9531"/><!--MD5=[19c58e1c195e071f65e647eea3a11eda]
class MetArea--><rect codeLine="66" fill="#FEFECE" filter="url(#fd9f9b7llfq37)" height="60.8047" id="MetArea" style="stroke:#A80036;stroke-width:1.5;" width="125" x="504" y="838.4531"/><ellipse cx="538.35" cy="854.4531" fill="#ADD1B2" rx="11" ry="11" style="stroke:#A80036;stroke-width:1.0;"/><path d="M540.6938,850.125 C539.7563,849.6875 539.1625,849.5469 538.2875,849.5469 C535.6625,849.5469 533.6625,851.625 533.6625,854.3438 L533.6625,855.4688 C533.6625,858.0469 535.7719,859.9375 538.6625,859.9375 C539.8813,859.9375 541.0375,859.6406 541.7875,859.0938 C542.3656,858.6875 542.6938,858.2344 542.6938,857.8438 C542.6938,857.3906 542.3031,857 541.8344,857 C541.6156,857 541.4125,857.0781 541.225,857.2656 C540.7719,857.75 540.7719,857.75 540.5844,857.8438 C540.1625,858.1094 539.475,858.2344 538.7094,858.2344 C536.6625,858.2344 535.3656,857.1406 535.3656,855.4375 L535.3656,854.3438 C535.3656,852.5625 536.6156,851.25 538.35,851.25 C538.9281,851.25 539.5375,851.4063 540.0063,851.6563 C540.4906,851.9375 540.6625,852.1563 540.7563,852.5625 C540.8188,852.9688 540.85,853.0938 540.9906,853.2188 C541.1313,853.3594 541.3656,853.4688 541.5844,853.4688 C541.85,853.4688 542.1156,853.3281 542.2875,853.1094 C542.3969,852.9531 542.4281,852.7656 542.4281,852.3438 L542.4281,850.9219 C542.4281,850.4844 542.4125,850.3594 542.3188,850.2031 C542.1625,849.9375 541.8813,849.7969 541.5844,849.7969 C541.2875,849.7969 541.0844,849.8906 540.8656,850.2031 L540.6938,850.125 Z " fill="#000000"/><text fill="#000000" font-family="sans-serif" font-size="12" lengthAdjust="spacing" textLength="50" x="556.65" y="858.6074">MetArea</text><line style="stroke:#A80036;stroke-width:1.5;" x1="505" x2="628" y1="870.4531" y2="870.4531"/><text fill="#000000" font-family="sans-serif" font-size="11" lengthAdjust="spacing" textLength="113" x="510" y="884.6636">metAreaNo: integer</text><line style="stroke:#A80036;stroke-width:1.5;" x1="505" x2="628" y1="891.2578" y2="891.2578"/><!--MD5=[9affa659e72119d3471adf0766b1bab5]
class NavArea--><rect codeLine="69" fill="#FEFECE" filter="url(#fd9f9b7llfq37)" height="60.8047" id="NavArea" style="stroke:#A80036;stroke-width:1.5;" width="123" x="28" y="838.4531"/><ellipse cx="61.45" cy="854.4531" fill="#ADD1B2" rx="11" ry="11" style="stroke:#A80036;stroke-width:1.0;"/><path d="M63.7938,850.125 C62.8563,849.6875 62.2625,849.5469 61.3875,849.5469 C58.7625,849.5469 56.7625,851.625 56.7625,854.3438 L56.7625,855.4688 C56.7625,858.0469 58.8719,859.9375 61.7625,859.9375 C62.9813,859.9375 64.1375,859.6406 64.8875,859.0938 C65.4656,858.6875 65.7938,858.2344 65.7938,857.8438 C65.7938,857.3906 65.4031,857 64.9344,857 C64.7156,857 64.5125,857.0781 64.325,857.2656 C63.8719,857.75 63.8719,857.75 63.6844,857.8438 C63.2625,858.1094 62.575,858.2344 61.8094,858.2344 C59.7625,858.2344 58.4656,857.1406 58.4656,855.4375 L58.4656,854.3438 C58.4656,852.5625 59.7156,851.25 61.45,851.25 C62.0281,851.25 62.6375,851.4063 63.1063,851.6563 C63.5906,851.9375 63.7625,852.1563 63.8563,852.5625 C63.9188,852.9688 63.95,853.0938 64.0906,853.2188 C64.2313,853.3594 64.4656,853.4688 64.6844,853.4688 C64.95,853.4688 65.2156,853.3281 65.3875,853.1094 C65.4969,852.9531 65.5281,852.7656 65.5281,852.3438 L65.5281,850.9219 C65.5281,850.4844 65.5125,850.3594 65.4188,850.2031 C65.2625,849.9375 64.9813,849.7969 64.6844,849.7969 C64.3875,849.7969 64.1844,849.8906 63.9656,850.2031 L63.7938,850.125 Z " fill="#000000"/><text fill="#000000" font-family="sans-serif" font-size="12" lengthAdjust="spacing" textLength="50" x="79.55" y="858.6074">NavArea</text><line style="stroke:#A80036;stroke-width:1.5;" x1="29" x2="150" y1="870.4531" y2="870.4531"/><text fill="#000000" font-family="sans-serif" font-size="11" lengthAdjust="spacing" textLength="111" x="34" y="884.6636">navAreaNo: integer</text><line style="stroke:#A80036;stroke-width:1.5;" x1="29" x2="150" y1="891.2578" y2="891.2578"/><!--MD5=[3465795d537a068d04ef95ff9f5d3463]
class CoastalWarningArea--><rect codeLine="72" fill="#FEFECE" filter="url(#fd9f9b7llfq37)" height="73.6094" id="CoastalWarningArea" style="stroke:#A80036;stroke-width:1.5;" width="153" x="316" y="831.9531"/><ellipse cx="331" cy="847.9531" fill="#ADD1B2" rx="11" ry="11" style="stroke:#A80036;stroke-width:1.0;"/><path d="M333.3438,843.625 C332.4063,843.1875 331.8125,843.0469 330.9375,843.0469 C328.3125,843.0469 326.3125,845.125 326.3125,847.8438 L326.3125,848.9688 C326.3125,851.5469 328.4219,853.4375 331.3125,853.4375 C332.5313,853.4375 333.6875,853.1406 334.4375,852.5938 C335.0156,852.1875 335.3438,851.7344 335.3438,851.3438 C335.3438,850.8906 334.9531,850.5 334.4844,850.5 C334.2656,850.5 334.0625,850.5781 333.875,850.7656 C333.4219,851.25 333.4219,851.25 333.2344,851.3438 C332.8125,851.6094 332.125,851.7344 331.3594,851.7344 C329.3125,851.7344 328.0156,850.6406 328.0156,848.9375 L328.0156,847.8438 C328.0156,846.0625 329.2656,844.75 331,844.75 C331.5781,844.75 332.1875,844.9063 332.6563,845.1563 C333.1406,845.4375 333.3125,845.6563 333.4063,846.0625 C333.4688,846.4688 333.5,846.5938 333.6406,846.7188 C333.7813,846.8594 334.0156,846.9688 334.2344,846.9688 C334.5,846.9688 334.7656,846.8281 334.9375,846.6094 C335.0469,846.4531 335.0781,846.2656 335.0781,845.8438 L335.0781,844.4219 C335.0781,843.9844 335.0625,843.8594 334.9688,843.7031 C334.8125,843.4375 334.5313,843.2969 334.2344,843.2969 C333.9375,843.2969 333.7344,843.3906 333.5156,843.7031 L333.3438,843.625 Z " fill="#000000"/><text fill="#000000" font-family="sans-serif" font-size="12" lengthAdjust="spacing" textLength="121" x="345" y="852.1074">CoastalWarningArea</text><line style="stroke:#A80036;stroke-width:1.5;" x1="317" x2="468" y1="863.9531" y2="863.9531"/><text fill="#000000" font-family="sans-serif" font-size="11" lengthAdjust="spacing" textLength="111" x="322" y="878.1636">navAreaNo: integer</text><text fill="#000000" font-family="sans-serif" font-size="11" lengthAdjust="spacing" textLength="62" x="322" y="890.9683">letter: char</text><line style="stroke:#A80036;stroke-width:1.5;" x1="317" x2="468" y1="897.5625" y2="897.5625"/><!--MD5=[93bb61fe5a88b9a94b2d06480bc0ec5a]
class SubjectIndicator--><rect codeLine="77" fill="#FEFECE" filter="url(#fd9f9b7llfq37)" height="265.6797" id="SubjectIndicator" style="stroke:#A80036;stroke-width:1.5;" width="246" x="344.5" y="965.9531"/><ellipse cx="414.75" cy="981.9531" fill="#EB937F" rx="11" ry="11" style="stroke:#A80036;stroke-width:1.0;"/><path d="M413.5469,982.8281 L415,982.8281 L415,982.9375 C415,983.3438 415.0313,983.5 415.1094,983.6563 C415.2656,983.9063 415.5469,984.0625 415.8438,984.0625 C416.0938,984.0625 416.3594,983.9219 416.5156,983.7031 C416.6406,983.5469 416.6719,983.3906 416.6719,982.9375 L416.6719,981.0156 C416.6719,980.8594 416.6719,980.8125 416.6563,980.6563 C416.5938,980.1875 416.2813,979.875 415.8281,979.875 C415.5781,979.875 415.3125,980.0156 415.1406,980.2344 C415.0313,980.4063 415,980.5625 415,981.0156 L415,981.1406 L413.5469,981.1406 L413.5469,978.7344 L417.5313,978.7344 L417.5313,979.5938 C417.5313,980 417.5625,980.1719 417.6406,980.3281 C417.8125,980.5781 418.0938,980.7344 418.375,980.7344 C418.6406,980.7344 418.9063,980.5938 419.0781,980.375 C419.1875,980.2031 419.2188,980.0625 419.2188,979.5938 L419.2188,977.0469 L411.5938,977.0469 C411.1563,977.0469 411.0313,977.0625 410.875,977.1563 C410.625,977.3125 410.4688,977.6094 410.4688,977.8906 C410.4688,978.1719 410.6094,978.4219 410.8281,978.5938 C410.9844,978.7031 411.1719,978.7344 411.5938,978.7344 L411.8438,978.7344 L411.8438,985.25 L411.5938,985.25 C411.1875,985.25 411.0313,985.2656 410.875,985.375 C410.625,985.5469 410.4688,985.8125 410.4688,986.1094 C410.4688,986.375 410.6094,986.625 410.8281,986.7813 C410.9688,986.9063 411.2031,986.9531 411.5938,986.9531 L419.5938,986.9531 L419.5938,984.375 C419.5938,983.9375 419.5625,983.7969 419.4844,983.6406 C419.3125,983.3906 419.0313,983.2344 418.75,983.2344 C418.4844,983.2344 418.2188,983.3438 418.0469,983.5938 C417.9375,983.75 417.9063,983.8906 417.9063,984.375 L417.9063,985.25 L413.5469,985.25 L413.5469,982.8281 Z " fill="#000000"/><text fill="#000000" font-family="sans-serif" font-size="12" lengthAdjust="spacing" textLength="97" x="435.25" y="986.1074">SubjectIndicator</text><line style="stroke:#A80036;stroke-width:1.5;" x1="345.5" x2="589.5" y1="997.9531" y2="997.9531"/><text fill="#000000" font-family="sans-serif" font-size="11" lengthAdjust="spacing" textLength="153" x="350.5" y="1012.1636">NAVIGATIONAL_WARNINGS</text><text fill="#000000" font-family="sans-serif" font-size="11" lengthAdjust="spacing" textLength="172" x="350.5" y="1024.9683">METEOROLOGICAL_WARNINGS</text><text fill="#000000" font-family="sans-serif" font-size="11" lengthAdjust="spacing" textLength="75" x="350.5" y="1037.7729">ICE_REPORTS</text><text fill="#000000" font-family="sans-serif" font-size="11" lengthAdjust="spacing" textLength="199" x="350.5" y="1050.5776">SAR_INFO_AND_PIRACY_WARNINGS</text><text fill="#000000" font-family="sans-serif" font-size="11" lengthAdjust="spacing" textLength="178" x="350.5" y="1063.3823">METEOROLOGICAL_FORECASTS</text><text fill="#000000" font-family="sans-serif" font-size="11" lengthAdjust="spacing" textLength="62" x="350.5" y="1076.187">NOT_USED</text><text fill="#000000" font-family="sans-serif" font-size="11" lengthAdjust="spacing" textLength="117" x="350.5" y="1088.9917">SATNAV_MESSAGES</text><text fill="#000000" font-family="sans-serif" font-size="11" lengthAdjust="spacing" textLength="234" x="350.5" y="1101.7964">OTHER_ELECTRONIC_NAVAID_MESSAGES</text><text fill="#000000" font-family="sans-serif" font-size="11" lengthAdjust="spacing" textLength="197" x="350.5" y="1114.6011">OTHER_NAVIGATIONAL_WARNINGS</text><text fill="#000000" font-family="sans-serif" font-size="11" lengthAdjust="spacing" textLength="155" x="350.5" y="1127.4058">PILOT_SERVICE_MESSAGES</text><text fill="#000000" font-family="sans-serif" font-size="11" lengthAdjust="spacing" textLength="19" x="350.5" y="1140.2104">AIS</text><text fill="#000000" font-family="sans-serif" font-size="11" lengthAdjust="spacing" textLength="108" x="350.5" y="1153.0151">LORAN_MESSAGES</text><text fill="#000000" font-family="sans-serif" font-size="11" lengthAdjust="spacing" textLength="122" x="350.5" y="1165.8198">SPECIAL_SERVICES_V</text><text fill="#000000" font-family="sans-serif" font-size="11" lengthAdjust="spacing" textLength="125" x="350.5" y="1178.6245">SPECIAL_SERVICES_W</text><text fill="#000000" font-family="sans-serif" font-size="11" lengthAdjust="spacing" textLength="122" x="350.5" y="1191.4292">SPECIAL_SERVICES_X</text><text fill="#000000" font-family="sans-serif" font-size="11" lengthAdjust="spacing" textLength="121" x="350.5" y="1204.2339">SPECIAL_SERVICES_Y</text><text fill="#000000" font-family="sans-serif" font-size="11" lengthAdjust="spacing" textLength="149" x="350.5" y="1217.0386">NO_MESSAGES_ON_HAND</text><line style="stroke:#A80036;stroke-width:1.5;" x1="345.5" x2="589.5" y1="1223.6328" y2="1223.6328"/><!--MD5=[51f8f994229af8ae2211a1c190bfc9b4]
class SARBroadcastArea--><rect codeLine="98" fill="#FEFECE" filter="url(#fd9f9b7llfq37)" height="48" id="SARBroadcastArea" style="stroke:#A80036;stroke-width:1.5;" width="143" x="15" y="621.4531"/><ellipse cx="30" cy="637.4531" fill="#B4A7E5" rx="11" ry="11" style="stroke:#A80036;stroke-width:1.0;"/><path d="M30.9531,634.2344 L32.6719,634.2344 C33.0625,634.2344 33.25,634.2031 33.375,634.125 C33.6406,633.9688 33.7813,633.6875 33.7813,633.3906 C33.7813,633.125 33.6719,632.8594 33.4375,632.6875 C33.2656,632.5781 33.125,632.5469 32.6719,632.5469 L27.5313,632.5469 C27.0938,632.5469 26.9688,632.5625 26.8125,632.6563 C26.5625,632.8125 26.4063,633.1094 26.4063,633.3906 C26.4063,633.6719 26.5469,633.9219 26.7656,634.0938 C26.9219,634.2031 27.1094,634.2344 27.5313,634.2344 L29.25,634.2344 L29.25,640.75 L27.5313,640.75 C27.0938,640.75 26.9688,640.7656 26.8125,640.875 C26.5625,641.0313 26.4063,641.3125 26.4063,641.6094 C26.4063,641.8594 26.5469,642.125 26.7656,642.2813 C26.9219,642.4063 27.125,642.4531 27.5313,642.4531 L32.6719,642.4531 C33.4219,642.4531 33.7813,642.1719 33.7813,641.6094 C33.7813,641.3281 33.6719,641.0781 33.4375,640.9063 C33.2656,640.7813 33.125,640.75 32.6719,640.75 L30.9531,640.75 L30.9531,634.2344 Z " fill="#000000"/><text fill="#000000" font-family="sans-serif" font-size="12" font-style="italic" lengthAdjust="spacing" textLength="111" x="44" y="641.6074">SARBroadcastArea</text><line style="stroke:#A80036;stroke-width:1.5;" x1="16" x2="157" y1="653.4531" y2="653.4531"/><line style="stroke:#A80036;stroke-width:1.5;" x1="16" x2="157" y1="661.4531" y2="661.4531"/><!--MD5=[a7f9118cae7621dd25d25149752faef0]
class Circle--><rect codeLine="100" fill="#FEFECE" filter="url(#fd9f9b7llfq37)" height="86.4141" id="Circle" style="stroke:#A80036;stroke-width:1.5;" width="117" x="7" y="1055.9531"/><ellipse cx="44.95" cy="1071.9531" fill="#ADD1B2" rx="11" ry="11" style="stroke:#A80036;stroke-width:1.0;"/><path d="M47.2938,1067.625 C46.3563,1067.1875 45.7625,1067.0469 44.8875,1067.0469 C42.2625,1067.0469 40.2625,1069.125 40.2625,1071.8438 L40.2625,1072.9688 C40.2625,1075.5469 42.3719,1077.4375 45.2625,1077.4375 C46.4813,1077.4375 47.6375,1077.1406 48.3875,1076.5938 C48.9656,1076.1875 49.2938,1075.7344 49.2938,1075.3438 C49.2938,1074.8906 48.9031,1074.5 48.4344,1074.5 C48.2156,1074.5 48.0125,1074.5781 47.825,1074.7656 C47.3719,1075.25 47.3719,1075.25 47.1844,1075.3438 C46.7625,1075.6094 46.075,1075.7344 45.3094,1075.7344 C43.2625,1075.7344 41.9656,1074.6406 41.9656,1072.9375 L41.9656,1071.8438 C41.9656,1070.0625 43.2156,1068.75 44.95,1068.75 C45.5281,1068.75 46.1375,1068.9063 46.6063,1069.1563 C47.0906,1069.4375 47.2625,1069.6563 47.3563,1070.0625 C47.4188,1070.4688 47.45,1070.5938 47.5906,1070.7188 C47.7313,1070.8594 47.9656,1070.9688 48.1844,1070.9688 C48.45,1070.9688 48.7156,1070.8281 48.8875,1070.6094 C48.9969,1070.4531 49.0281,1070.2656 49.0281,1069.8438 L49.0281,1068.4219 C49.0281,1067.9844 49.0125,1067.8594 48.9188,1067.7031 C48.7625,1067.4375 48.4813,1067.2969 48.1844,1067.2969 C47.8875,1067.2969 47.6844,1067.3906 47.4656,1067.7031 L47.2938,1067.625 Z " fill="#000000"/><text fill="#000000" font-family="sans-serif" font-size="12" lengthAdjust="spacing" textLength="34" x="64.05" y="1076.1074">Circle</text><line style="stroke:#A80036;stroke-width:1.5;" x1="8" x2="123" y1="1087.9531" y2="1087.9531"/><text fill="#000000" font-family="sans-serif" font-size="11" lengthAdjust="spacing" textLength="66" x="13" y="1102.1636">lat: decimal</text><text fill="#000000" font-family="sans-serif" font-size="11" lengthAdjust="spacing" textLength="69" x="13" y="1114.9683">lon: decimal</text><text fill="#000000" font-family="sans-serif" font-size="11" lengthAdjust="spacing" textLength="105" x="13" y="1127.7729">radiusNm: decimal</text><line style="stroke:#A80036;stroke-width:1.5;" x1="8" x2="123" y1="1134.3672" y2="1134.3672"/><!--MD5=[b5313cd49da22b0744b541f414f8445e]
class Rectangle--><rect codeLine="105" fill="#FEFECE" filter="url(#fd9f9b7llfq37)" height="99.2188" id="Rectangle" style="stroke:#A80036;stroke-width:1.5;" width="150" x="159.5" y="1049.4531"/><ellipse cx="201.05" cy="1065.4531" fill="#ADD1B2" rx="11" ry="11" style="stroke:#A80036;stroke-width:1.0;"/><path d="M203.3938,1061.125 C202.4563,1060.6875 201.8625,1060.5469 200.9875,1060.5469 C198.3625,1060.5469 196.3625,1062.625 196.3625,1065.3438 L196.3625,1066.4688 C196.3625,1069.0469 198.4719,1070.9375 201.3625,1070.9375 C202.5813,1070.9375 203.7375,1070.6406 204.4875,1070.0938 C205.0656,1069.6875 205.3938,1069.2344 205.3938,1068.8438 C205.3938,1068.3906 205.0031,1068 204.5344,1068 C204.3156,1068 204.1125,1068.0781 203.925,1068.2656 C203.4719,1068.75 203.4719,1068.75 203.2844,1068.8438 C202.8625,1069.1094 202.175,1069.2344 201.4094,1069.2344 C199.3625,1069.2344 198.0656,1068.1406 198.0656,1066.4375 L198.0656,1065.3438 C198.0656,1063.5625 199.3156,1062.25 201.05,1062.25 C201.6281,1062.25 202.2375,1062.4063 202.7063,1062.6563 C203.1906,1062.9375 203.3625,1063.1563 203.4563,1063.5625 C203.5188,1063.9688 203.55,1064.0938 203.6906,1064.2188 C203.8313,1064.3594 204.0656,1064.4688 204.2844,1064.4688 C204.55,1064.4688 204.8156,1064.3281 204.9875,1064.1094 C205.0969,1063.9531 205.1281,1063.7656 205.1281,1063.3438 L205.1281,1061.9219 C205.1281,1061.4844 205.1125,1061.3594 205.0188,1061.2031 C204.8625,1060.9375 204.5813,1060.7969 204.2844,1060.7969 C203.9875,1060.7969 203.7844,1060.8906 203.5656,1061.2031 L203.3938,1061.125 Z " fill="#000000"/><text fill="#000000" font-family="sans-serif" font-size="12" lengthAdjust="spacing" textLength="59" x="220.95" y="1069.6074">Rectangle</text><line style="stroke:#A80036;stroke-width:1.5;" x1="160.5" x2="308.5" y1="1081.4531" y2="1081.4531"/><text fill="#000000" font-family="sans-serif" font-size="11" lengthAdjust="spacing" textLength="90" x="165.5" y="1095.6636">minLat: decimal</text><text fill="#000000" font-family="sans-serif" font-size="11" lengthAdjust="spacing" textLength="91" x="165.5" y="1108.4683">leftLon: decimal</text><text fill="#000000" font-family="sans-serif" font-size="11" lengthAdjust="spacing" textLength="138" x="165.5" y="1121.2729">heightDegrees: decimal</text><text fill="#000000" font-family="sans-serif" font-size="11" lengthAdjust="spacing" textLength="132" x="165.5" y="1134.0776">widthDegrees: decimal</text><line style="stroke:#A80036;stroke-width:1.5;" x1="160.5" x2="308.5" y1="1140.6719" y2="1140.6719"/><!--MD5=[0fdac03f5b0cf4737b65737ce60d2db0]
class Geometry--><rect codeLine="111" fill="#FEFECE" filter="url(#fd9f9b7llfq37)" height="48" id="Geometry" style="stroke:#A80036;stroke-width:1.5;" width="91" x="189" y="844.9531"/><ellipse cx="204" cy="860.9531" fill="#B4A7E5" rx="11" ry="11" style="stroke:#A80036;stroke-width:1.0;"/><path d="M204.9531,857.7344 L206.6719,857.7344 C207.0625,857.7344 207.25,857.7031 207.375,857.625 C207.6406,857.4688 207.7813,857.1875 207.7813,856.8906 C207.7813,856.625 207.6719,856.3594 207.4375,856.1875 C207.2656,856.0781 207.125,856.0469 206.6719,856.0469 L201.5313,856.0469 C201.0938,856.0469 200.9688,856.0625 200.8125,856.1563 C200.5625,856.3125 200.4063,856.6094 200.4063,856.8906 C200.4063,857.1719 200.5469,857.4219 200.7656,857.5938 C200.9219,857.7031 201.1094,857.7344 201.5313,857.7344 L203.25,857.7344 L203.25,864.25 L201.5313,864.25 C201.0938,864.25 200.9688,864.2656 200.8125,864.375 C200.5625,864.5313 200.4063,864.8125 200.4063,865.1094 C200.4063,865.3594 200.5469,865.625 200.7656,865.7813 C200.9219,865.9063 201.125,865.9531 201.5313,865.9531 L206.6719,865.9531 C207.4219,865.9531 207.7813,865.6719 207.7813,865.1094 C207.7813,864.8281 207.6719,864.5781 207.4375,864.4063 C207.2656,864.2813 207.125,864.25 206.6719,864.25 L204.9531,864.25 L204.9531,857.7344 Z " fill="#000000"/><text fill="#000000" font-family="sans-serif" font-size="12" font-style="italic" lengthAdjust="spacing" textLength="59" x="218" y="865.1074">Geometry</text><line style="stroke:#A80036;stroke-width:1.5;" x1="190" x2="279" y1="876.9531" y2="876.9531"/><line style="stroke:#A80036;stroke-width:1.5;" x1="190" x2="279" y1="884.9531" y2="884.9531"/><!--MD5=[a06e719365adc41d4546becc5217417e]
class NavWarningArea--><rect codeLine="112" fill="#FEFECE" filter="url(#fd9f9b7llfq37)" height="48" id="NavWarningArea" style="stroke:#A80036;stroke-width:1.5;" width="133" x="325" y="621.4531"/><ellipse cx="340" cy="637.4531" fill="#B4A7E5" rx="11" ry="11" style="stroke:#A80036;stroke-width:1.0;"/><path d="M340.9531,634.2344 L342.6719,634.2344 C343.0625,634.2344 343.25,634.2031 343.375,634.125 C343.6406,633.9688 343.7813,633.6875 343.7813,633.3906 C343.7813,633.125 343.6719,632.8594 343.4375,632.6875 C343.2656,632.5781 343.125,632.5469 342.6719,632.5469 L337.5313,632.5469 C337.0938,632.5469 336.9688,632.5625 336.8125,632.6563 C336.5625,632.8125 336.4063,633.1094 336.4063,633.3906 C336.4063,633.6719 336.5469,633.9219 336.7656,634.0938 C336.9219,634.2031 337.1094,634.2344 337.5313,634.2344 L339.25,634.2344 L339.25,640.75 L337.5313,640.75 C337.0938,640.75 336.9688,640.7656 336.8125,640.875 C336.5625,641.0313 336.4063,641.3125 336.4063,641.6094 C336.4063,641.8594 336.5469,642.125 336.7656,642.2813 C336.9219,642.4063 337.125,642.4531 337.5313,642.4531 L342.6719,642.4531 C343.4219,642.4531 343.7813,642.1719 343.7813,641.6094 C343.7813,641.3281 343.6719,641.0781 343.4375,640.9063 C343.2656,640.7813 343.125,640.75 342.6719,640.75 L340.9531,640.75 L340.9531,634.2344 Z " fill="#000000"/><text fill="#000000" font-family="sans-serif" font-size="12" font-style="italic" lengthAdjust="spacing" textLength="101" x="354" y="641.6074">NavWarningArea</text><line style="stroke:#A80036;stroke-width:1.5;" x1="326" x2="457" y1="653.4531" y2="653.4531"/><line style="stroke:#A80036;stroke-width:1.5;" x1="326" x2="457" y1="661.4531" y2="661.4531"/><!--MD5=[86a2e65f32dc21e863b5d95996722836]
class MeteorologicalArea--><rect codeLine="113" fill="#FEFECE" filter="url(#fd9f9b7llfq37)" height="48" id="MeteorologicalArea" style="stroke:#A80036;stroke-width:1.5;" width="145" x="494" y="621.4531"/><ellipse cx="509" cy="637.4531" fill="#B4A7E5" rx="11" ry="11" style="stroke:#A80036;stroke-width:1.0;"/><path d="M509.9531,634.2344 L511.6719,634.2344 C512.0625,634.2344 512.25,634.2031 512.375,634.125 C512.6406,633.9688 512.7813,633.6875 512.7813,633.3906 C512.7813,633.125 512.6719,632.8594 512.4375,632.6875 C512.2656,632.5781 512.125,632.5469 511.6719,632.5469 L506.5313,632.5469 C506.0938,632.5469 505.9688,632.5625 505.8125,632.6563 C505.5625,632.8125 505.4063,633.1094 505.4063,633.3906 C505.4063,633.6719 505.5469,633.9219 505.7656,634.0938 C505.9219,634.2031 506.1094,634.2344 506.5313,634.2344 L508.25,634.2344 L508.25,640.75 L506.5313,640.75 C506.0938,640.75 505.9688,640.7656 505.8125,640.875 C505.5625,641.0313 505.4063,641.3125 505.4063,641.6094 C505.4063,641.8594 505.5469,642.125 505.7656,642.2813 C505.9219,642.4063 506.125,642.4531 506.5313,642.4531 L511.6719,642.4531 C512.4219,642.4531 512.7813,642.1719 512.7813,641.6094 C512.7813,641.3281 512.6719,641.0781 512.4375,640.9063 C512.2656,640.7813 512.125,640.75 511.6719,640.75 L509.9531,640.75 L509.9531,634.2344 Z " fill="#000000"/><text fill="#000000" font-family="sans-serif" font-size="12" font-style="italic" lengthAdjust="spacing" textLength="113" x="523" y="641.6074">MeteorologicalArea</text><line style="stroke:#A80036;stroke-width:1.5;" x1="495" x2="638" y1="653.4531" y2="653.4531"/><line style="stroke:#A80036;stroke-width:1.5;" x1="495" x2="638" y1="661.4531" y2="661.4531"/><!--MD5=[dc02eab49d64f78f93a9f0cf45333858]
link MSI to Repetition--><path codeLine="60" d="M708.005,142.2631 C752.256,176.0731 808.284,218.8831 842.21,244.8091 " fill="none" id="MSI-Repetition" style="stroke:#A80036;stroke-width:1.0;"/><text fill="#000000" font-family="sans-serif" font-size="13" lengthAdjust="spacing" textLength="24" x="807.3732" y="233.7893">0..1</text><!--MD5=[68eac3220d6a798a1b9122ea5c12b509]
reverse link Repetition to RepeatOnce--><path codeLine="61" d="M872.5,313.4521 C872.5,341.0051 872.5,375.5361 872.5,397.9121 " fill="none" id="Repetition-backto-RepeatOnce" style="stroke:#A80036;stroke-width:1.0;"/><polygon fill="none" points="865.5,313.2161,872.5,293.2161,879.5,313.2161,865.5,313.2161" style="stroke:#A80036;stroke-width:1.0;"/><!--MD5=[c4aa100a13e262c74a559aea2ac46557]
reverse link Repetition to RepeatTillCancelled--><path codeLine="62" d="M912.54,307.0451 C943.211,335.4581 984.56,373.7641 1010.63,397.9121 " fill="none" id="Repetition-backto-RepeatTillCancelled" style="stroke:#A80036;stroke-width:1.0;"/><polygon fill="none" points="907.526,311.9431,897.612,293.2161,917.041,301.6721,907.526,311.9431" style="stroke:#A80036;stroke-width:1.0;"/><!--MD5=[13ea0c9280f4470953279b5924882ff1]
link RepeatOnce to IntervalHours--><path codeLine="63" d="M881.015,446.2391 C887.636,464.3441 897.388,491.0101 907.606,518.9521 " fill="none" id="RepeatOnce-IntervalHours" style="stroke:#A80036;stroke-width:1.0;"/><text fill="#000000" font-family="sans-serif" font-size="13" lengthAdjust="spacing" textLength="8" x="896.5656" y="507.8612">1</text><!--MD5=[a8e660f3ff581e8ae2bbb1e0f37eb4fb]
link RepeatTillCancelled to IntervalHours--><path codeLine="64" d="M1026.88,446.2391 C1020.18,464.3441 1010.3,491.0101 999.961,518.9521 " fill="none" id="RepeatTillCancelled-IntervalHours" style="stroke:#A80036;stroke-width:1.0;"/><text fill="#000000" font-family="sans-serif" font-size="13" lengthAdjust="spacing" textLength="8" x="994.5485" y="507.8612">1</text><!--MD5=[fab4c7b744660b1021fb1342bc906395]
link CoastalWarningArea to SubjectIndicator--><path codeLine="96" d="M404.384,906.0801 C409.877,922.7811 416.776,943.7521 423.979,965.6481 " fill="none" id="CoastalWarningArea-SubjectIndicator" style="stroke:#A80036;stroke-width:1.0;"/><text fill="#000000" font-family="sans-serif" font-size="13" lengthAdjust="spacing" textLength="8" x="413.3802" y="955.0271">1</text><!--MD5=[f39eadd4855fdcbb82e8bd0cd4f0eba6]
reverse link Geometry to Circle--><path codeLine="115" d="M193.984,907.3981 C176.754,924.3871 157.086,945.2771 141.5,965.9531 C120.17,994.2481 100.3464,1029.0881 86.2969,1055.8691 " fill="none" id="Geometry-backto-Circle" style="stroke:#A80036;stroke-width:1.0;"/><polygon fill="none" points="189.37,902.1221,208.633,893.2931,199.081,912.2071,189.37,902.1221" style="stroke:#A80036;stroke-width:1.0;"/><!--MD5=[d84596a069ebff60e908a9a07554cf04]
reverse link Geometry to Rectangle--><path codeLine="116" d="M234.5,913.3221 C234.5,952.1331 234.5,1008.9671 234.5,1049.3101 " fill="none" id="Geometry-backto-Rectangle" style="stroke:#A80036;stroke-width:1.0;"/><polygon fill="none" points="227.5,913.0701,234.5,893.0701,241.5,913.0701,227.5,913.0701" style="stroke:#A80036;stroke-width:1.0;"/><!--MD5=[57d8e39296350b64ee86f15e9e67f1c6]
reverse link NavWarningArea to NavArea--><path codeLine="118" d="M371.344,687.7321 C356.498,714.6231 334.126,748.8731 306.5,771.9531 C305.681,772.6371 214.955,812.6791 151.088,840.8271 " fill="none" id="NavWarningArea-backto-NavArea" style="stroke:#A80036;stroke-width:1.0;"/><polygon fill="none" points="365.303,684.1781,380.79,669.7161,377.702,690.6791,365.303,684.1781" style="stroke:#A80036;stroke-width:1.0;"/><!--MD5=[32794669c7bc6d3073cad72b04d59458]
reverse link NavWarningArea to CoastalWarningArea--><path codeLine="119" d="M391.696,689.8711 C391.883,731.3201 392.162,793.0481 392.337,831.8681 " fill="none" id="NavWarningArea-backto-CoastalWarningArea" style="stroke:#A80036;stroke-width:1.0;"/><polygon fill="none" points="384.696,689.7701,391.605,669.7391,398.695,689.7071,384.696,689.7701" style="stroke:#A80036;stroke-width:1.0;"/><!--MD5=[09ecf36fec88a76aff1a3838a070139a]
reverse link NavWarningArea to Geometry--><path codeLine="120" d="M364.933,686.7351 C348.411,711.5181 326.564,743.8141 306.5,771.9531 C288.479,797.2281 267.044,825.6021 252.275,844.9061 " fill="none" id="NavWarningArea-backto-Geometry" style="stroke:#A80036;stroke-width:1.0;"/><polygon fill="none" points="359.272,682.6061,376.165,669.8141,370.936,690.3481,359.272,682.6061" style="stroke:#A80036;stroke-width:1.0;"/><!--MD5=[0565048e001d0c7cf4b748a21429e91d]
reverse link MeteorologicalArea to Geometry--><path codeLine="122" d="M545.471,687.6601 C529.6,715.0351 505.456,749.8751 475.5,771.9531 C408.634,821.2331 374.358,798.1131 298.5,831.9531 C290.001,835.7441 281.145,840.3011 272.827,844.8781 " fill="none" id="MeteorologicalArea-backto-Geometry" style="stroke:#A80036;stroke-width:1.0;"/><polygon fill="none" points="539.551,683.8981,555.318,669.7421,551.82,690.6411,539.551,683.8981" style="stroke:#A80036;stroke-width:1.0;"/><!--MD5=[21ee1635963be7fb7862cac567bd5642]
reverse link MeteorologicalArea to CoastalWarningArea--><path codeLine="123" d="M538.971,686.2281 C521.345,711.2331 497.694,743.9471 475.5,771.9531 C459.49,792.1561 440.777,813.9441 425.176,831.6491 " fill="none" id="MeteorologicalArea-backto-CoastalWarningArea" style="stroke:#A80036;stroke-width:1.0;"/><polygon fill="none" points="533.432,681.9331,550.634,669.5601,544.903,689.9601,533.432,681.9331" style="stroke:#A80036;stroke-width:1.0;"/><!--MD5=[2c1863a9b2b3f470c967154d26f0654e]
reverse link MeteorologicalArea to MetArea--><path codeLine="124" d="M566.5,689.7611 C566.5,733.5971 566.5,800.1981 566.5,838.3441 " fill="none" id="MeteorologicalArea-backto-MetArea" style="stroke:#A80036;stroke-width:1.0;"/><polygon fill="none" points="559.5,689.7391,566.5,669.7391,573.5,689.7391,559.5,689.7391" style="stroke:#A80036;stroke-width:1.0;"/><!--MD5=[45e69262132f29a6673b584ee32daa9e]
reverse link SARBroadcastArea to Geometry--><path codeLine="126" d="M113.251,686.4901 C144.115,732.6801 193.825,807.0781 218.928,844.6471 " fill="none" id="SARBroadcastArea-backto-Geometry" style="stroke:#A80036;stroke-width:1.0;"/><polygon fill="none" points="107.35,690.2571,102.0589,669.7391,118.991,682.4791,107.35,690.2571" style="stroke:#A80036;stroke-width:1.0;"/><!--MD5=[7f0ef054806ca6871a7cfee4a734c37e]
reverse link SARBroadcastArea to NavArea--><path codeLine="127" d="M87.0866,689.7611 C87.6803,733.5971 88.5823,800.1981 89.099,838.3441 " fill="none" id="SARBroadcastArea-backto-NavArea" style="stroke:#A80036;stroke-width:1.0;"/><polygon fill="none" points="80.087,689.8321,86.8154,669.7391,94.0857,689.6421,80.087,689.8321" style="stroke:#A80036;stroke-width:1.0;"/><!--MD5=[faf15ea1ffad2e2c15f81db67920c38c]
reverse link MSI to SARBroadcast--><path codeLine="129" d="M558.584,153.5531 C533.429,172.5231 505.768,193.5031 480.5,212.9531 C394.293,279.3041 293.464,359.0401 244.769,397.6851 " fill="none" id="MSI-backto-SARBroadcast" style="stroke:#A80036;stroke-width:1.0;"/><polygon fill="none" points="554.515,147.8531,574.703,141.4131,562.936,159.0431,554.515,147.8531" style="stroke:#A80036;stroke-width:1.0;"/><!--MD5=[86bee229c31cc690a2ab4d0c6d8b56dc]
reverse link MSI to NonSARBroadcast--><path codeLine="130" d="M608.286,171.7531 C597.299,198.3231 585.911,225.8531 578.149,244.6231 " fill="none" id="MSI-backto-NonSARBroadcast" style="stroke:#A80036;stroke-width:1.0;"/><polygon fill="none" points="601.856,168.9931,615.968,153.1831,614.793,174.3431,601.856,168.9931" style="stroke:#A80036;stroke-width:1.0;"/><!--MD5=[4791f9ebfebed84c5520711137402c3a]
reverse link NonSARBroadcast to MetBroadcast--><path codeLine="131" d="M568.5,313.3641 C568.5,338.3951 568.5,369.2081 568.5,391.4351 " fill="none" id="NonSARBroadcast-backto-MetBroadcast" style="stroke:#A80036;stroke-width:1.0;"/><polygon fill="none" points="561.5,313.2161,568.5,293.2161,575.5,313.2161,561.5,313.2161" style="stroke:#A80036;stroke-width:1.0;"/><!--MD5=[caf6e0f987d3df90b2e2b869c67b24b1]
reverse link NonSARBroadcast to NavWarningBroadcast--><path codeLine="132" d="M525.618,306.3301 C494.884,332.4021 454.011,367.0751 425.297,391.4351 " fill="none" id="NonSARBroadcast-backto-NavWarningBroadcast" style="stroke:#A80036;stroke-width:1.0;"/><polygon fill="none" points="521.298,300.8161,541.078,293.2161,530.354,311.4921,521.298,300.8161" style="stroke:#A80036;stroke-width:1.0;"/><!--MD5=[1a29621155987e86a6aca1a0dcb5a11b]
link SARBroadcast to SARBroadcastArea--><path codeLine="134" d="M201.939,446.2391 C177.163,488.7801 124.858,578.5911 100.0733,621.1471 " fill="none" id="SARBroadcast-SARBroadcastArea" style="stroke:#A80036;stroke-width:1.0;"/><text fill="#000000" font-family="sans-serif" font-size="13" lengthAdjust="spacing" textLength="24" x="76.4568" y="610.4775">0..1</text><!--MD5=[c601aa00e3e5ffcefa28cd25e3f99f59]
link MetBroadcast to MeteorologicalArea--><path codeLine="135" d="M568.23,452.8251 C567.826,497.5801 567.072,581.0791 566.708,621.4391 " fill="none" id="MetBroadcast-MeteorologicalArea" style="stroke:#A80036;stroke-width:1.0;"/><text fill="#000000" font-family="sans-serif" font-size="13" lengthAdjust="spacing" textLength="8" x="557.7363" y="610.4476">1</text><!--MD5=[f076b2a5d0c1a0b5afdfb865f3773092]
link NavWarningBroadcast to NavWarningArea--><path codeLine="136" d="M390.635,452.8251 C390.837,497.5801 391.214,581.0791 391.396,621.4391 " fill="none" id="NavWarningBroadcast-NavWarningArea" style="stroke:#A80036;stroke-width:1.0;"/><text fill="#000000" font-family="sans-serif" font-size="13" lengthAdjust="spacing" textLength="8" x="382.3444" y="610.4476">1</text><!--MD5=[ca28171ce46ff17b5f9e20c474450c88]
link NonSARBroadcast to NonSARPriority--><path codeLine="138" d="M592.533,293.2161 C617.746,317.6211 657.715,356.3081 687.065,384.7181 " fill="none" id="NonSARBroadcast-NonSARPriority" style="stroke:#A80036;stroke-width:1.0;"/><text fill="#000000" font-family="sans-serif" font-size="13" lengthAdjust="spacing" textLength="8" x="671.6844" y="373.8632">1</text><!--MD5=[030133b6067a8c3a70272a990e0db7b2]
link SARBroadcast to SARPriority--><path codeLine="139" d="M218.233,446.2391 C222.575,483.2261 231.111,555.9471 236.549,602.2741 " fill="none" id="SARBroadcast-SARPriority" style="stroke:#A80036;stroke-width:1.0;"/><text fill="#000000" font-family="sans-serif" font-size="13" lengthAdjust="spacing" textLength="8" x="227.1224" y="591.2416">1</text><!--MD5=[66d906ee9ccde799097e4cc339fce60e]
link MSI to Status--><path codeLine="140" d="M667.032,153.1831 C675.049,172.5731 683.845,193.8331 691.664,212.7431 " fill="none" id="MSI-Status" style="stroke:#A80036;stroke-width:1.0;"/><text fill="#000000" font-family="sans-serif" font-size="13" lengthAdjust="spacing" textLength="8" x="680.3934" y="202.052">1</text><!--MD5=[d8f5864dff14e3ca023ef84f0477c4de]
@startuml
title MSI Broadcasts - Class Diagram

class MSI {
  id: string
  payload: string
  startDate: timestamp
  endDate: timestamp
  send()
  cancel()
}

class SARBroadcast
interface NonSARBroadcast
class MetBroadcast {
  isForecast: boolean
}
class NavWarningBroadcast {
  isPiracyWarning: boolean
}

enum SARPriority {
  SAFETY
  URGENCY
  DISTRESS
}
enum NonSARPriority {
  SAFETY
  URGENCY
}
enum Status {
  CREATED
  SCHEDULED
  ACTIVE
  FINISHED
  CANCELLED
}
enum IntervalHours {
  1
  2
  3
  4
  5
  6
  12
  18
  24
  30
  36
  48
  60
  72
  96
  120
}

interface Repetition 
class RepeatOnce
class RepeatTillCancelled

MSI - - "0..1" Repetition
Repetition <|- - RepeatOnce
Repetition <|- - RepeatTillCancelled
RepeatOnce - - "1" IntervalHours
RepeatTillCancelled  - - "1" IntervalHours

class MetArea {
  metAreaNo: integer
}
class NavArea {
  navAreaNo: integer
}
class CoastalWarningArea {
  navAreaNo: integer
  letter: char
}

enum SubjectIndicator {
  NAVIGATIONAL_WARNINGS
  METEOROLOGICAL_WARNINGS
  ICE_REPORTS
  SAR_INFO_AND_PIRACY_WARNINGS
  METEOROLOGICAL_FORECASTS
  NOT_USED
  SATNAV_MESSAGES
  OTHER_ELECTRONIC_NAVAID_MESSAGES
  OTHER_NAVIGATIONAL_WARNINGS
  PILOT_SERVICE_MESSAGES
  AIS
  LORAN_MESSAGES
  SPECIAL_SERVICES_V
  SPECIAL_SERVICES_W
  SPECIAL_SERVICES_X
  SPECIAL_SERVICES_Y
  NO_MESSAGES_ON_HAND
}
CoastalWarningArea - - "1" SubjectIndicator
 
interface SARBroadcastArea

class Circle {
  lat: decimal
  lon: decimal
  radiusNm: decimal
}
class Rectangle {
  minLat: decimal
  leftLon: decimal
  heightDegrees: decimal
  widthDegrees: decimal
}
interface Geometry
interface NavWarningArea
interface MeteorologicalArea

Geometry <|- - Circle
Geometry <|- - Rectangle

NavWarningArea <|- - NavArea
NavWarningArea <|- - CoastalWarningArea
NavWarningArea <|- - Geometry

MeteorologicalArea <|- - Geometry
MeteorologicalArea <|- - CoastalWarningArea
MeteorologicalArea <|- - MetArea

SARBroadcastArea <|- - Geometry
SARBroadcastArea <|- - NavArea

MSI <|- - SARBroadcast
MSI <|- - NonSARBroadcast
NonSARBroadcast <|- - MetBroadcast
NonSARBroadcast <|- - NavWarningBroadcast

SARBroadcast  - - "0..1" SARBroadcastArea
MetBroadcast  - - "1" MeteorologicalArea
NavWarningBroadcast  - - "1" NavWarningArea

NonSARBroadcast - - "1" NonSARPriority
SARBroadcast - - "1" SARPriority
MSI - - "1" Status
@enduml

PlantUML version 1.2021.16beta3(Unknown compile time)
(GPL source distribution)
Java Runtime: Java(TM) SE Runtime Environment
JVM: Java HotSpot(TM) 64-Bit Server VM
Default Encoding: UTF-8
Language: en
Country: US
--></g></svg>