<?xml version="1.0" encoding="UTF-8" standalone="no"?><svg xmlns="http://www.w3.org/2000/svg" xmlns:xlink="http://www.w3.org/1999/xlink" contentScriptType="application/ecmascript" contentStyleType="text/css" height="1245px" preserveAspectRatio="none" style="width:1120px;height:1245px;background:#FFFFFF;" version="1.1" viewBox="0 0 1120 1245" width="1120px" zoomAndPan="magnify"><defs><filter height="300%" id="f1kz2tlkm3p6iz" width="300%" x="-1" y="-1"><feGaussianBlur result="blurOut" stdDeviation="2.0"/><feColorMatrix in="blurOut" result="blurOut2" type="matrix" values="0 0 0 0 0 0 0 0 0 0 0 0 0 0 0 0 0 0 .4 0"/><feOffset dx="4.0" dy="4.0" in="blurOut2" result="blurOut3"/><feBlend in="SourceGraphic" in2="blurOut3" mode="normal"/></filter></defs><g><text fill="#000000" font-family="sans-serif" font-size="18" lengthAdjust="spacing" textLength="293" x="407" y="16.708">MSI Broadcasts - Class Diagram</text><!--MD5=[d0e13ed213eb83238e6841a7b0b939cb]
class MSI--><rect codeLine="3" fill="#FEFECE" filter="url(#f1kz2tlkm3p6iz)" height="124.8281" id="MSI" style="stroke:#A80036;stroke-width:1.5;" width="133" x="571" y="27.9531"/><ellipse cx="622.75" cy="43.9531" fill="#ADD1B2" rx="11" ry="11" style="stroke:#A80036;stroke-width:1.0;"/><path d="M625.0938,39.625 C624.1563,39.1875 623.5625,39.0469 622.6875,39.0469 C620.0625,39.0469 618.0625,41.125 618.0625,43.8438 L618.0625,44.9688 C618.0625,47.5469 620.1719,49.4375 623.0625,49.4375 C624.2813,49.4375 625.4375,49.1406 626.1875,48.5938 C626.7656,48.1875 627.0938,47.7344 627.0938,47.3438 C627.0938,46.8906 626.7031,46.5 626.2344,46.5 C626.0156,46.5 625.8125,46.5781 625.625,46.7656 C625.1719,47.25 625.1719,47.25 624.9844,47.3438 C624.5625,47.6094 623.875,47.7344 623.1094,47.7344 C621.0625,47.7344 619.7656,46.6406 619.7656,44.9375 L619.7656,43.8438 C619.7656,42.0625 621.0156,40.75 622.75,40.75 C623.3281,40.75 623.9375,40.9063 624.4063,41.1563 C624.8906,41.4375 625.0625,41.6563 625.1563,42.0625 C625.2188,42.4688 625.25,42.5938 625.3906,42.7188 C625.5313,42.8594 625.7656,42.9688 625.9844,42.9688 C626.25,42.9688 626.5156,42.8281 626.6875,42.6094 C626.7969,42.4531 626.8281,42.2656 626.8281,41.8438 L626.8281,40.4219 C626.8281,39.9844 626.8125,39.8594 626.7188,39.7031 C626.5625,39.4375 626.2813,39.2969 625.9844,39.2969 C625.6875,39.2969 625.4844,39.3906 625.2656,39.7031 L625.0938,39.625 Z " fill="#000000"/><text fill="#000000" font-family="sans-serif" font-size="12" lengthAdjust="spacing" textLength="21" x="643.25" y="48.1074">MSI</text><line style="stroke:#A80036;stroke-width:1.5;" x1="572" x2="703" y1="59.9531" y2="59.9531"/><text fill="#000000" font-family="sans-serif" font-size="11" lengthAdjust="spacing" textLength="48" x="577" y="74.1636">id: string</text><text fill="#000000" font-family="sans-serif" font-size="11" lengthAdjust="spacing" textLength="83" x="577" y="86.9683">payload: string</text><text fill="#000000" font-family="sans-serif" font-size="11" lengthAdjust="spacing" textLength="121" x="577" y="99.7729">startDate: timestamp</text><text fill="#000000" font-family="sans-serif" font-size="11" lengthAdjust="spacing" textLength="118" x="577" y="112.5776">endDate: timestamp</text><line style="stroke:#A80036;stroke-width:1.5;" x1="572" x2="703" y1="119.1719" y2="119.1719"/><text fill="#000000" font-family="sans-serif" font-size="11" lengthAdjust="spacing" textLength="36" x="577" y="133.3823">send()</text><text fill="#000000" font-family="sans-serif" font-size="11" lengthAdjust="spacing" textLength="45" x="577" y="146.187">cancel()</text><!--MD5=[6a4bf54674a26136bd95edad553eae04]
class SARBroadcast--><rect codeLine="12" fill="#FEFECE" filter="url(#f1kz2tlkm3p6iz)" height="48" id="SARBroadcast" style="stroke:#A80036;stroke-width:1.5;" width="116" x="153.5" y="397.9531"/><ellipse cx="168.5" cy="413.9531" fill="#ADD1B2" rx="11" ry="11" style="stroke:#A80036;stroke-width:1.0;"/><path d="M170.8438,409.625 C169.9063,409.1875 169.3125,409.0469 168.4375,409.0469 C165.8125,409.0469 163.8125,411.125 163.8125,413.8438 L163.8125,414.9688 C163.8125,417.5469 165.9219,419.4375 168.8125,419.4375 C170.0313,419.4375 171.1875,419.1406 171.9375,418.5938 C172.5156,418.1875 172.8438,417.7344 172.8438,417.3438 C172.8438,416.8906 172.4531,416.5 171.9844,416.5 C171.7656,416.5 171.5625,416.5781 171.375,416.7656 C170.9219,417.25 170.9219,417.25 170.7344,417.3438 C170.3125,417.6094 169.625,417.7344 168.8594,417.7344 C166.8125,417.7344 165.5156,416.6406 165.5156,414.9375 L165.5156,413.8438 C165.5156,412.0625 166.7656,410.75 168.5,410.75 C169.0781,410.75 169.6875,410.9063 170.1563,411.1563 C170.6406,411.4375 170.8125,411.6563 170.9063,412.0625 C170.9688,412.4688 171,412.5938 171.1406,412.7188 C171.2813,412.8594 171.5156,412.9688 171.7344,412.9688 C172,412.9688 172.2656,412.8281 172.4375,412.6094 C172.5469,412.4531 172.5781,412.2656 172.5781,411.8438 L172.5781,410.4219 C172.5781,409.9844 172.5625,409.8594 172.4688,409.7031 C172.3125,409.4375 172.0313,409.2969 171.7344,409.2969 C171.4375,409.2969 171.2344,409.3906 171.0156,409.7031 L170.8438,409.625 Z " fill="#000000"/><text fill="#000000" font-family="sans-serif" font-size="12" lengthAdjust="spacing" textLength="84" x="182.5" y="418.1074">SARBroadcast</text><line style="stroke:#A80036;stroke-width:1.5;" x1="154.5" x2="268.5" y1="429.9531" y2="429.9531"/><line style="stroke:#A80036;stroke-width:1.5;" x1="154.5" x2="268.5" y1="437.9531" y2="437.9531"/><!--MD5=[61d1eab05324eee6ada7fcfd560616ce]
class NonSARBroadcast--><rect codeLine="13" fill="#FEFECE" filter="url(#f1kz2tlkm3p6iz)" height="48" id="NonSARBroadcast" style="stroke:#A80036;stroke-width:1.5;" width="140" x="494.5" y="244.9531"/><ellipse cx="509.5" cy="260.9531" fill="#B4A7E5" rx="11" ry="11" style="stroke:#A80036;stroke-width:1.0;"/><path d="M510.4531,257.7344 L512.1719,257.7344 C512.5625,257.7344 512.75,257.7031 512.875,257.625 C513.1406,257.4688 513.2813,257.1875 513.2813,256.8906 C513.2813,256.625 513.1719,256.3594 512.9375,256.1875 C512.7656,256.0781 512.625,256.0469 512.1719,256.0469 L507.0313,256.0469 C506.5938,256.0469 506.4688,256.0625 506.3125,256.1563 C506.0625,256.3125 505.9063,256.6094 505.9063,256.8906 C505.9063,257.1719 506.0469,257.4219 506.2656,257.5938 C506.4219,257.7031 506.6094,257.7344 507.0313,257.7344 L508.75,257.7344 L508.75,264.25 L507.0313,264.25 C506.5938,264.25 506.4688,264.2656 506.3125,264.375 C506.0625,264.5313 505.9063,264.8125 505.9063,265.1094 C505.9063,265.3594 506.0469,265.625 506.2656,265.7813 C506.4219,265.9063 506.625,265.9531 507.0313,265.9531 L512.1719,265.9531 C512.9219,265.9531 513.2813,265.6719 513.2813,265.1094 C513.2813,264.8281 513.1719,264.5781 512.9375,264.4063 C512.7656,264.2813 512.625,264.25 512.1719,264.25 L510.4531,264.25 L510.4531,257.7344 Z " fill="#000000"/><text fill="#000000" font-family="sans-serif" font-size="12" font-style="italic" lengthAdjust="spacing" textLength="108" x="523.5" y="265.1074">NonSARBroadcast</text><line style="stroke:#A80036;stroke-width:1.5;" x1="495.5" x2="633.5" y1="276.9531" y2="276.9531"/><line style="stroke:#A80036;stroke-width:1.5;" x1="495.5" x2="633.5" y1="284.9531" y2="284.9531"/><!--MD5=[59982b7b7c2f6d277251daf1f7ffe2c4]
class MetBroadcast--><rect codeLine="14" fill="#FEFECE" filter="url(#f1kz2tlkm3p6iz)" height="60.8047" id="MetBroadcast" style="stroke:#A80036;stroke-width:1.5;" width="122" x="503.5" y="391.4531"/><ellipse cx="521.65" cy="407.4531" fill="#ADD1B2" rx="11" ry="11" style="stroke:#A80036;stroke-width:1.0;"/><path d="M523.9938,403.125 C523.0563,402.6875 522.4625,402.5469 521.5875,402.5469 C518.9625,402.5469 516.9625,404.625 516.9625,407.3438 L516.9625,408.4688 C516.9625,411.0469 519.0719,412.9375 521.9625,412.9375 C523.1813,412.9375 524.3375,412.6406 525.0875,412.0938 C525.6656,411.6875 525.9938,411.2344 525.9938,410.8438 C525.9938,410.3906 525.6031,410 525.1344,410 C524.9156,410 524.7125,410.0781 524.525,410.2656 C524.0719,410.75 524.0719,410.75 523.8844,410.8438 C523.4625,411.1094 522.775,411.2344 522.0094,411.2344 C519.9625,411.2344 518.6656,410.1406 518.6656,408.4375 L518.6656,407.3438 C518.6656,405.5625 519.9156,404.25 521.65,404.25 C522.2281,404.25 522.8375,404.4063 523.3063,404.6563 C523.7906,404.9375 523.9625,405.1563 524.0563,405.5625 C524.1188,405.9688 524.15,406.0938 524.2906,406.2188 C524.4313,406.3594 524.6656,406.4688 524.8844,406.4688 C525.15,406.4688 525.4156,406.3281 525.5875,406.1094 C525.6969,405.9531 525.7281,405.7656 525.7281,405.3438 L525.7281,403.9219 C525.7281,403.4844 525.7125,403.3594 525.6188,403.2031 C525.4625,402.9375 525.1813,402.7969 524.8844,402.7969 C524.5875,402.7969 524.3844,402.8906 524.1656,403.2031 L523.9938,403.125 Z " fill="#000000"/><text fill="#000000" font-family="sans-serif" font-size="12" lengthAdjust="spacing" textLength="83" x="536.35" y="411.6074">MetBroadcast</text><line style="stroke:#A80036;stroke-width:1.5;" x1="504.5" x2="624.5" y1="423.4531" y2="423.4531"/><text fill="#000000" font-family="sans-serif" font-size="11" lengthAdjust="spacing" textLength="110" x="509.5" y="437.6636">isForecast: boolean</text><line style="stroke:#A80036;stroke-width:1.5;" x1="504.5" x2="624.5" y1="444.2578" y2="444.2578"/><!--MD5=[a58030872057f2eaffea5a541be2457b]
class NavWarningBroadcast--><rect codeLine="17" fill="#FEFECE" filter="url(#f1kz2tlkm3p6iz)" height="60.8047" id="NavWarningBroadcast" style="stroke:#A80036;stroke-width:1.5;" width="164" x="304.5" y="391.4531"/><ellipse cx="319.5" cy="407.4531" fill="#ADD1B2" rx="11" ry="11" style="stroke:#A80036;stroke-width:1.0;"/><path d="M321.8438,403.125 C320.9063,402.6875 320.3125,402.5469 319.4375,402.5469 C316.8125,402.5469 314.8125,404.625 314.8125,407.3438 L314.8125,408.4688 C314.8125,411.0469 316.9219,412.9375 319.8125,412.9375 C321.0313,412.9375 322.1875,412.6406 322.9375,412.0938 C323.5156,411.6875 323.8438,411.2344 323.8438,410.8438 C323.8438,410.3906 323.4531,410 322.9844,410 C322.7656,410 322.5625,410.0781 322.375,410.2656 C321.9219,410.75 321.9219,410.75 321.7344,410.8438 C321.3125,411.1094 320.625,411.2344 319.8594,411.2344 C317.8125,411.2344 316.5156,410.1406 316.5156,408.4375 L316.5156,407.3438 C316.5156,405.5625 317.7656,404.25 319.5,404.25 C320.0781,404.25 320.6875,404.4063 321.1563,404.6563 C321.6406,404.9375 321.8125,405.1563 321.9063,405.5625 C321.9688,405.9688 322,406.0938 322.1406,406.2188 C322.2813,406.3594 322.5156,406.4688 322.7344,406.4688 C323,406.4688 323.2656,406.3281 323.4375,406.1094 C323.5469,405.9531 323.5781,405.7656 323.5781,405.3438 L323.5781,403.9219 C323.5781,403.4844 323.5625,403.3594 323.4688,403.2031 C323.3125,402.9375 323.0313,402.7969 322.7344,402.7969 C322.4375,402.7969 322.2344,402.8906 322.0156,403.2031 L321.8438,403.125 Z " fill="#000000"/><text fill="#000000" font-family="sans-serif" font-size="12" lengthAdjust="spacing" textLength="132" x="333.5" y="411.6074">NavWarningBroadcast</text><line style="stroke:#A80036;stroke-width:1.5;" x1="305.5" x2="467.5" y1="423.4531" y2="423.4531"/><text fill="#000000" font-family="sans-serif" font-size="11" lengthAdjust="spacing" textLength="141" x="310.5" y="437.6636">isPiracyWarning: boolean</text><line style="stroke:#A80036;stroke-width:1.5;" x1="305.5" x2="467.5" y1="444.2578" y2="444.2578"/><!--MD5=[45e2a1f16a26aa8b66315c9b64a987d7]
class SARPriority--><rect codeLine="21" fill="#FEFECE" filter="url(#f1kz2tlkm3p6iz)" height="86.4141" id="SARPriority" style="stroke:#A80036;stroke-width:1.5;" width="96" x="185.5" y="602.4531"/><ellipse cx="200.5" cy="618.4531" fill="#EB937F" rx="11" ry="11" style="stroke:#A80036;stroke-width:1.0;"/><path d="M199.2969,619.3281 L200.75,619.3281 L200.75,619.4375 C200.75,619.8438 200.7813,620 200.8594,620.1563 C201.0156,620.4063 201.2969,620.5625 201.5938,620.5625 C201.8438,620.5625 202.1094,620.4219 202.2656,620.2031 C202.3906,620.0469 202.4219,619.8906 202.4219,619.4375 L202.4219,617.5156 C202.4219,617.3594 202.4219,617.3125 202.4063,617.1563 C202.3438,616.6875 202.0313,616.375 201.5781,616.375 C201.3281,616.375 201.0625,616.5156 200.8906,616.7344 C200.7813,616.9063 200.75,617.0625 200.75,617.5156 L200.75,617.6406 L199.2969,617.6406 L199.2969,615.2344 L203.2813,615.2344 L203.2813,616.0938 C203.2813,616.5 203.3125,616.6719 203.3906,616.8281 C203.5625,617.0781 203.8438,617.2344 204.125,617.2344 C204.3906,617.2344 204.6563,617.0938 204.8281,616.875 C204.9375,616.7031 204.9688,616.5625 204.9688,616.0938 L204.9688,613.5469 L197.3438,613.5469 C196.9063,613.5469 196.7813,613.5625 196.625,613.6563 C196.375,613.8125 196.2188,614.1094 196.2188,614.3906 C196.2188,614.6719 196.3594,614.9219 196.5781,615.0938 C196.7344,615.2031 196.9219,615.2344 197.3438,615.2344 L197.5938,615.2344 L197.5938,621.75 L197.3438,621.75 C196.9375,621.75 196.7813,621.7656 196.625,621.875 C196.375,622.0469 196.2188,622.3125 196.2188,622.6094 C196.2188,622.875 196.3594,623.125 196.5781,623.2813 C196.7188,623.4063 196.9531,623.4531 197.3438,623.4531 L205.3438,623.4531 L205.3438,620.875 C205.3438,620.4375 205.3125,620.2969 205.2344,620.1406 C205.0625,619.8906 204.7813,619.7344 204.5,619.7344 C204.2344,619.7344 203.9688,619.8438 203.7969,620.0938 C203.6875,620.25 203.6563,620.3906 203.6563,620.875 L203.6563,621.75 L199.2969,621.75 L199.2969,619.3281 Z " fill="#000000"/><text fill="#000000" font-family="sans-serif" font-size="12" lengthAdjust="spacing" textLength="64" x="214.5" y="622.6074">SARPriority</text><line style="stroke:#A80036;stroke-width:1.5;" x1="186.5" x2="280.5" y1="634.4531" y2="634.4531"/><text fill="#000000" font-family="sans-serif" font-size="11" lengthAdjust="spacing" textLength="43" x="191.5" y="648.6636">SAFETY</text><text fill="#000000" font-family="sans-serif" font-size="11" lengthAdjust="spacing" textLength="54" x="191.5" y="661.4683">URGENCY</text><text fill="#000000" font-family="sans-serif" font-size="11" lengthAdjust="spacing" textLength="57" x="191.5" y="674.2729">DISTRESS</text><line style="stroke:#A80036;stroke-width:1.5;" x1="186.5" x2="280.5" y1="680.8672" y2="680.8672"/><!--MD5=[78bcfbe4e3cad7ad24ae0d54bbfae700]
class NonSARPriority--><rect codeLine="26" fill="#FEFECE" filter="url(#f1kz2tlkm3p6iz)" height="73.6094" id="NonSARPriority" style="stroke:#A80036;stroke-width:1.5;" width="119" x="661" y="384.9531"/><ellipse cx="676" cy="400.9531" fill="#EB937F" rx="11" ry="11" style="stroke:#A80036;stroke-width:1.0;"/><path d="M674.7969,401.8281 L676.25,401.8281 L676.25,401.9375 C676.25,402.3438 676.2813,402.5 676.3594,402.6563 C676.5156,402.9063 676.7969,403.0625 677.0938,403.0625 C677.3438,403.0625 677.6094,402.9219 677.7656,402.7031 C677.8906,402.5469 677.9219,402.3906 677.9219,401.9375 L677.9219,400.0156 C677.9219,399.8594 677.9219,399.8125 677.9063,399.6563 C677.8438,399.1875 677.5313,398.875 677.0781,398.875 C676.8281,398.875 676.5625,399.0156 676.3906,399.2344 C676.2813,399.4063 676.25,399.5625 676.25,400.0156 L676.25,400.1406 L674.7969,400.1406 L674.7969,397.7344 L678.7813,397.7344 L678.7813,398.5938 C678.7813,399 678.8125,399.1719 678.8906,399.3281 C679.0625,399.5781 679.3438,399.7344 679.625,399.7344 C679.8906,399.7344 680.1563,399.5938 680.3281,399.375 C680.4375,399.2031 680.4688,399.0625 680.4688,398.5938 L680.4688,396.0469 L672.8438,396.0469 C672.4063,396.0469 672.2813,396.0625 672.125,396.1563 C671.875,396.3125 671.7188,396.6094 671.7188,396.8906 C671.7188,397.1719 671.8594,397.4219 672.0781,397.5938 C672.2344,397.7031 672.4219,397.7344 672.8438,397.7344 L673.0938,397.7344 L673.0938,404.25 L672.8438,404.25 C672.4375,404.25 672.2813,404.2656 672.125,404.375 C671.875,404.5469 671.7188,404.8125 671.7188,405.1094 C671.7188,405.375 671.8594,405.625 672.0781,405.7813 C672.2188,405.9063 672.4531,405.9531 672.8438,405.9531 L680.8438,405.9531 L680.8438,403.375 C680.8438,402.9375 680.8125,402.7969 680.7344,402.6406 C680.5625,402.3906 680.2813,402.2344 680,402.2344 C679.7344,402.2344 679.4688,402.3438 679.2969,402.5938 C679.1875,402.75 679.1563,402.8906 679.1563,403.375 L679.1563,404.25 L674.7969,404.25 L674.7969,401.8281 Z " fill="#000000"/><text fill="#000000" font-family="sans-serif" font-size="12" lengthAdjust="spacing" textLength="87" x="690" y="405.1074">NonSARPriority</text><line style="stroke:#A80036;stroke-width:1.5;" x1="662" x2="779" y1="416.9531" y2="416.9531"/><text fill="#000000" font-family="sans-serif" font-size="11" lengthAdjust="spacing" textLength="43" x="667" y="431.1636">SAFETY</text><text fill="#000000" font-family="sans-serif" font-size="11" lengthAdjust="spacing" textLength="54" x="667" y="443.9683">URGENCY</text><line style="stroke:#A80036;stroke-width:1.5;" x1="662" x2="779" y1="450.5625" y2="450.5625"/><!--MD5=[e3d83ec5fd90ea9f3f2bfe265cb53458]
class Status--><rect codeLine="30" fill="#FEFECE" filter="url(#f1kz2tlkm3p6iz)" height="112.0234" id="Status" style="stroke:#A80036;stroke-width:1.5;" width="82" x="669.5" y="212.9531"/><ellipse cx="690.35" cy="228.9531" fill="#EB937F" rx="11" ry="11" style="stroke:#A80036;stroke-width:1.0;"/><path d="M689.1469,229.8281 L690.6,229.8281 L690.6,229.9375 C690.6,230.3438 690.6313,230.5 690.7094,230.6563 C690.8656,230.9063 691.1469,231.0625 691.4438,231.0625 C691.6938,231.0625 691.9594,230.9219 692.1156,230.7031 C692.2406,230.5469 692.2719,230.3906 692.2719,229.9375 L692.2719,228.0156 C692.2719,227.8594 692.2719,227.8125 692.2563,227.6563 C692.1938,227.1875 691.8813,226.875 691.4281,226.875 C691.1781,226.875 690.9125,227.0156 690.7406,227.2344 C690.6313,227.4063 690.6,227.5625 690.6,228.0156 L690.6,228.1406 L689.1469,228.1406 L689.1469,225.7344 L693.1313,225.7344 L693.1313,226.5938 C693.1313,227 693.1625,227.1719 693.2406,227.3281 C693.4125,227.5781 693.6938,227.7344 693.975,227.7344 C694.2406,227.7344 694.5063,227.5938 694.6781,227.375 C694.7875,227.2031 694.8188,227.0625 694.8188,226.5938 L694.8188,224.0469 L687.1938,224.0469 C686.7563,224.0469 686.6313,224.0625 686.475,224.1563 C686.225,224.3125 686.0688,224.6094 686.0688,224.8906 C686.0688,225.1719 686.2094,225.4219 686.4281,225.5938 C686.5844,225.7031 686.7719,225.7344 687.1938,225.7344 L687.4438,225.7344 L687.4438,232.25 L687.1938,232.25 C686.7875,232.25 686.6313,232.2656 686.475,232.375 C686.225,232.5469 686.0688,232.8125 686.0688,233.1094 C686.0688,233.375 686.2094,233.625 686.4281,233.7813 C686.5688,233.9063 686.8031,233.9531 687.1938,233.9531 L695.1938,233.9531 L695.1938,231.375 C695.1938,230.9375 695.1625,230.7969 695.0844,230.6406 C694.9125,230.3906 694.6313,230.2344 694.35,230.2344 C694.0844,230.2344 693.8188,230.3438 693.6469,230.5938 C693.5375,230.75 693.5063,230.8906 693.5063,231.375 L693.5063,232.25 L689.1469,232.25 L689.1469,229.8281 Z " fill="#000000"/><text fill="#000000" font-family="sans-serif" font-size="12" lengthAdjust="spacing" textLength="37" x="705.65" y="233.1074">Status</text><line style="stroke:#A80036;stroke-width:1.5;" x1="670.5" x2="750.5" y1="244.9531" y2="244.9531"/><text fill="#000000" font-family="sans-serif" font-size="11" lengthAdjust="spacing" textLength="53" x="675.5" y="259.1636">CREATED</text><text fill="#000000" font-family="sans-serif" font-size="11" lengthAdjust="spacing" textLength="70" x="675.5" y="271.9683">SCHEDULED</text><text fill="#000000" font-family="sans-serif" font-size="11" lengthAdjust="spacing" textLength="41" x="675.5" y="284.7729">ACTIVE</text><text fill="#000000" font-family="sans-serif" font-size="11" lengthAdjust="spacing" textLength="52" x="675.5" y="297.5776">FINISHED</text><text fill="#000000" font-family="sans-serif" font-size="11" lengthAdjust="spacing" textLength="67" x="675.5" y="310.3823">CANCELLED</text><line style="stroke:#A80036;stroke-width:1.5;" x1="670.5" x2="750.5" y1="316.9766" y2="316.9766"/><!--MD5=[670ba5afd3835a69cbf81964ee5af7db]
class IntervalHours--><rect codeLine="37" fill="#FEFECE" filter="url(#f1kz2tlkm3p6iz)" height="252.875" id="IntervalHours" style="stroke:#A80036;stroke-width:1.5;" width="112" x="893.5" y="518.9531"/><ellipse cx="908.5" cy="534.9531" fill="#EB937F" rx="11" ry="11" style="stroke:#A80036;stroke-width:1.0;"/><path d="M907.2969,535.8281 L908.75,535.8281 L908.75,535.9375 C908.75,536.3438 908.7813,536.5 908.8594,536.6563 C909.0156,536.9063 909.2969,537.0625 909.5938,537.0625 C909.8438,537.0625 910.1094,536.9219 910.2656,536.7031 C910.3906,536.5469 910.4219,536.3906 910.4219,535.9375 L910.4219,534.0156 C910.4219,533.8594 910.4219,533.8125 910.4063,533.6563 C910.3438,533.1875 910.0313,532.875 909.5781,532.875 C909.3281,532.875 909.0625,533.0156 908.8906,533.2344 C908.7813,533.4063 908.75,533.5625 908.75,534.0156 L908.75,534.1406 L907.2969,534.1406 L907.2969,531.7344 L911.2813,531.7344 L911.2813,532.5938 C911.2813,533 911.3125,533.1719 911.3906,533.3281 C911.5625,533.5781 911.8438,533.7344 912.125,533.7344 C912.3906,533.7344 912.6563,533.5938 912.8281,533.375 C912.9375,533.2031 912.9688,533.0625 912.9688,532.5938 L912.9688,530.0469 L905.3438,530.0469 C904.9063,530.0469 904.7813,530.0625 904.625,530.1563 C904.375,530.3125 904.2188,530.6094 904.2188,530.8906 C904.2188,531.1719 904.3594,531.4219 904.5781,531.5938 C904.7344,531.7031 904.9219,531.7344 905.3438,531.7344 L905.5938,531.7344 L905.5938,538.25 L905.3438,538.25 C904.9375,538.25 904.7813,538.2656 904.625,538.375 C904.375,538.5469 904.2188,538.8125 904.2188,539.1094 C904.2188,539.375 904.3594,539.625 904.5781,539.7813 C904.7188,539.9063 904.9531,539.9531 905.3438,539.9531 L913.3438,539.9531 L913.3438,537.375 C913.3438,536.9375 913.3125,536.7969 913.2344,536.6406 C913.0625,536.3906 912.7813,536.2344 912.5,536.2344 C912.2344,536.2344 911.9688,536.3438 911.7969,536.5938 C911.6875,536.75 911.6563,536.8906 911.6563,537.375 L911.6563,538.25 L907.2969,538.25 L907.2969,535.8281 Z " fill="#000000"/><text fill="#000000" font-family="sans-serif" font-size="12" lengthAdjust="spacing" textLength="80" x="922.5" y="539.1074">IntervalHours</text><line style="stroke:#A80036;stroke-width:1.5;" x1="894.5" x2="1004.5" y1="550.9531" y2="550.9531"/><text fill="#000000" font-family="sans-serif" font-size="11" lengthAdjust="spacing" textLength="7" x="899.5" y="565.1636">1</text><text fill="#000000" font-family="sans-serif" font-size="11" lengthAdjust="spacing" textLength="7" x="899.5" y="577.9683">2</text><text fill="#000000" font-family="sans-serif" font-size="11" lengthAdjust="spacing" textLength="7" x="899.5" y="590.7729">3</text><text fill="#000000" font-family="sans-serif" font-size="11" lengthAdjust="spacing" textLength="7" x="899.5" y="603.5776">4</text><text fill="#000000" font-family="sans-serif" font-size="11" lengthAdjust="spacing" textLength="7" x="899.5" y="616.3823">5</text><text fill="#000000" font-family="sans-serif" font-size="11" lengthAdjust="spacing" textLength="7" x="899.5" y="629.187">6</text><text fill="#000000" font-family="sans-serif" font-size="11" lengthAdjust="spacing" textLength="14" x="899.5" y="641.9917">12</text><text fill="#000000" font-family="sans-serif" font-size="11" lengthAdjust="spacing" textLength="14" x="899.5" y="654.7964">18</text><text fill="#000000" font-family="sans-serif" font-size="11" lengthAdjust="spacing" textLength="14" x="899.5" y="667.6011">24</text><text fill="#000000" font-family="sans-serif" font-size="11" lengthAdjust="spacing" textLength="14" x="899.5" y="680.4058">30</text><text fill="#000000" font-family="sans-serif" font-size="11" lengthAdjust="spacing" textLength="14" x="899.5" y="693.2104">36</text><text fill="#000000" font-family="sans-serif" font-size="11" lengthAdjust="spacing" textLength="14" x="899.5" y="706.0151">48</text><text fill="#000000" font-family="sans-serif" font-size="11" lengthAdjust="spacing" textLength="14" x="899.5" y="718.8198">60</text><text fill="#000000" font-family="sans-serif" font-size="11" lengthAdjust="spacing" textLength="14" x="899.5" y="731.6245">72</text><text fill="#000000" font-family="sans-serif" font-size="11" lengthAdjust="spacing" textLength="14" x="899.5" y="744.4292">96</text><text fill="#000000" font-family="sans-serif" font-size="11" lengthAdjust="spacing" textLength="21" x="899.5" y="757.2339">120</text><line style="stroke:#A80036;stroke-width:1.5;" x1="894.5" x2="1004.5" y1="763.8281" y2="763.8281"/><!--MD5=[88c59876449025d50fa0788b08f620b9]
class Repetition--><rect codeLine="56" fill="#FEFECE" filter="url(#f1kz2tlkm3p6iz)" height="48" id="Repetition" style="stroke:#A80036;stroke-width:1.5;" width="93" x="822" y="244.9531"/><ellipse cx="837" cy="260.9531" fill="#B4A7E5" rx="11" ry="11" style="stroke:#A80036;stroke-width:1.0;"/><path d="M837.9531,257.7344 L839.6719,257.7344 C840.0625,257.7344 840.25,257.7031 840.375,257.625 C840.6406,257.4688 840.7813,257.1875 840.7813,256.8906 C840.7813,256.625 840.6719,256.3594 840.4375,256.1875 C840.2656,256.0781 840.125,256.0469 839.6719,256.0469 L834.5313,256.0469 C834.0938,256.0469 833.9688,256.0625 833.8125,256.1563 C833.5625,256.3125 833.4063,256.6094 833.4063,256.8906 C833.4063,257.1719 833.5469,257.4219 833.7656,257.5938 C833.9219,257.7031 834.1094,257.7344 834.5313,257.7344 L836.25,257.7344 L836.25,264.25 L834.5313,264.25 C834.0938,264.25 833.9688,264.2656 833.8125,264.375 C833.5625,264.5313 833.4063,264.8125 833.4063,265.1094 C833.4063,265.3594 833.5469,265.625 833.7656,265.7813 C833.9219,265.9063 834.125,265.9531 834.5313,265.9531 L839.6719,265.9531 C840.4219,265.9531 840.7813,265.6719 840.7813,265.1094 C840.7813,264.8281 840.6719,264.5781 840.4375,264.4063 C840.2656,264.2813 840.125,264.25 839.6719,264.25 L837.9531,264.25 L837.9531,257.7344 Z " fill="#000000"/><text fill="#000000" font-family="sans-serif" font-size="12" font-style="italic" lengthAdjust="spacing" textLength="61" x="851" y="265.1074">Repetition</text><line style="stroke:#A80036;stroke-width:1.5;" x1="823" x2="914" y1="276.9531" y2="276.9531"/><line style="stroke:#A80036;stroke-width:1.5;" x1="823" x2="914" y1="284.9531" y2="284.9531"/><!--MD5=[5cb67dfb29d802bd2827aaf3e983051d]
class RepeatOnce--><rect codeLine="57" fill="#FEFECE" filter="url(#f1kz2tlkm3p6iz)" height="48" id="RepeatOnce" style="stroke:#A80036;stroke-width:1.5;" width="106" x="815.5" y="397.9531"/><ellipse cx="830.5" cy="413.9531" fill="#ADD1B2" rx="11" ry="11" style="stroke:#A80036;stroke-width:1.0;"/><path d="M832.8438,409.625 C831.9063,409.1875 831.3125,409.0469 830.4375,409.0469 C827.8125,409.0469 825.8125,411.125 825.8125,413.8438 L825.8125,414.9688 C825.8125,417.5469 827.9219,419.4375 830.8125,419.4375 C832.0313,419.4375 833.1875,419.1406 833.9375,418.5938 C834.5156,418.1875 834.8438,417.7344 834.8438,417.3438 C834.8438,416.8906 834.4531,416.5 833.9844,416.5 C833.7656,416.5 833.5625,416.5781 833.375,416.7656 C832.9219,417.25 832.9219,417.25 832.7344,417.3438 C832.3125,417.6094 831.625,417.7344 830.8594,417.7344 C828.8125,417.7344 827.5156,416.6406 827.5156,414.9375 L827.5156,413.8438 C827.5156,412.0625 828.7656,410.75 830.5,410.75 C831.0781,410.75 831.6875,410.9063 832.1563,411.1563 C832.6406,411.4375 832.8125,411.6563 832.9063,412.0625 C832.9688,412.4688 833,412.5938 833.1406,412.7188 C833.2813,412.8594 833.5156,412.9688 833.7344,412.9688 C834,412.9688 834.2656,412.8281 834.4375,412.6094 C834.5469,412.4531 834.5781,412.2656 834.5781,411.8438 L834.5781,410.4219 C834.5781,409.9844 834.5625,409.8594 834.4688,409.7031 C834.3125,409.4375 834.0313,409.2969 833.7344,409.2969 C833.4375,409.2969 833.2344,409.3906 833.0156,409.7031 L832.8438,409.625 Z " fill="#000000"/><text fill="#000000" font-family="sans-serif" font-size="12" lengthAdjust="spacing" textLength="74" x="844.5" y="418.1074">RepeatOnce</text><line style="stroke:#A80036;stroke-width:1.5;" x1="816.5" x2="920.5" y1="429.9531" y2="429.9531"/><line style="stroke:#A80036;stroke-width:1.5;" x1="816.5" x2="920.5" y1="437.9531" y2="437.9531"/><!--MD5=[e991e8ea54c6943cd026340d8b1572eb]
class RepeatTillCancelled--><rect codeLine="58" fill="#FEFECE" filter="url(#f1kz2tlkm3p6iz)" height="48" id="RepeatTillCancelled" style="stroke:#A80036;stroke-width:1.5;" width="149" x="957" y="397.9531"/><ellipse cx="972" cy="413.9531" fill="#ADD1B2" rx="11" ry="11" style="stroke:#A80036;stroke-width:1.0;"/><path d="M974.3438,409.625 C973.4063,409.1875 972.8125,409.0469 971.9375,409.0469 C969.3125,409.0469 967.3125,411.125 967.3125,413.8438 L967.3125,414.9688 C967.3125,417.5469 969.4219,419.4375 972.3125,419.4375 C973.5313,419.4375 974.6875,419.1406 975.4375,418.5938 C976.0156,418.1875 976.3438,417.7344 976.3438,417.3438 C976.3438,416.8906 975.9531,416.5 975.4844,416.5 C975.2656,416.5 975.0625,416.5781 974.875,416.7656 C974.4219,417.25 974.4219,417.25 974.2344,417.3438 C973.8125,417.6094 973.125,417.7344 972.3594,417.7344 C970.3125,417.7344 969.0156,416.6406 969.0156,414.9375 L969.0156,413.8438 C969.0156,412.0625 970.2656,410.75 972,410.75 C972.5781,410.75 973.1875,410.9063 973.6563,411.1563 C974.1406,411.4375 974.3125,411.6563 974.4063,412.0625 C974.4688,412.4688 974.5,412.5938 974.6406,412.7188 C974.7813,412.8594 975.0156,412.9688 975.2344,412.9688 C975.5,412.9688 975.7656,412.8281 975.9375,412.6094 C976.0469,412.4531 976.0781,412.2656 976.0781,411.8438 L976.0781,410.4219 C976.0781,409.9844 976.0625,409.8594 975.9688,409.7031 C975.8125,409.4375 975.5313,409.2969 975.2344,409.2969 C974.9375,409.2969 974.7344,409.3906 974.5156,409.7031 L974.3438,409.625 Z " fill="#000000"/><text fill="#000000" font-family="sans-serif" font-size="12" lengthAdjust="spacing" textLength="117" x="986" y="418.1074">RepeatTillCancelled</text><line style="stroke:#A80036;stroke-width:1.5;" x1="958" x2="1105" y1="429.9531" y2="429.9531"/><line style="stroke:#A80036;stroke-width:1.5;" x1="958" x2="1105" y1="437.9531" y2="437.9531"/><!--MD5=[19c58e1c195e071f65e647eea3a11eda]
class MetArea--><rect codeLine="66" fill="#FEFECE" filter="url(#f1kz2tlkm3p6iz)" height="60.8047" id="MetArea" style="stroke:#A80036;stroke-width:1.5;" width="125" x="580" y="838.4531"/><ellipse cx="614.35" cy="854.4531" fill="#ADD1B2" rx="11" ry="11" style="stroke:#A80036;stroke-width:1.0;"/><path d="M616.6938,850.125 C615.7563,849.6875 615.1625,849.5469 614.2875,849.5469 C611.6625,849.5469 609.6625,851.625 609.6625,854.3438 L609.6625,855.4688 C609.6625,858.0469 611.7719,859.9375 614.6625,859.9375 C615.8813,859.9375 617.0375,859.6406 617.7875,859.0938 C618.3656,858.6875 618.6938,858.2344 618.6938,857.8438 C618.6938,857.3906 618.3031,857 617.8344,857 C617.6156,857 617.4125,857.0781 617.225,857.2656 C616.7719,857.75 616.7719,857.75 616.5844,857.8438 C616.1625,858.1094 615.475,858.2344 614.7094,858.2344 C612.6625,858.2344 611.3656,857.1406 611.3656,855.4375 L611.3656,854.3438 C611.3656,852.5625 612.6156,851.25 614.35,851.25 C614.9281,851.25 615.5375,851.4063 616.0063,851.6563 C616.4906,851.9375 616.6625,852.1563 616.7563,852.5625 C616.8188,852.9688 616.85,853.0938 616.9906,853.2188 C617.1313,853.3594 617.3656,853.4688 617.5844,853.4688 C617.85,853.4688 618.1156,853.3281 618.2875,853.1094 C618.3969,852.9531 618.4281,852.7656 618.4281,852.3438 L618.4281,850.9219 C618.4281,850.4844 618.4125,850.3594 618.3188,850.2031 C618.1625,849.9375 617.8813,849.7969 617.5844,849.7969 C617.2875,849.7969 617.0844,849.8906 616.8656,850.2031 L616.6938,850.125 Z " fill="#000000"/><text fill="#000000" font-family="sans-serif" font-size="12" lengthAdjust="spacing" textLength="50" x="632.65" y="858.6074">MetArea</text><line style="stroke:#A80036;stroke-width:1.5;" x1="581" x2="704" y1="870.4531" y2="870.4531"/><text fill="#000000" font-family="sans-serif" font-size="11" lengthAdjust="spacing" textLength="113" x="586" y="884.6636">metAreaNo: integer</text><line style="stroke:#A80036;stroke-width:1.5;" x1="581" x2="704" y1="891.2578" y2="891.2578"/><!--MD5=[9affa659e72119d3471adf0766b1bab5]
class NavArea--><rect codeLine="69" fill="#FEFECE" filter="url(#f1kz2tlkm3p6iz)" height="60.8047" id="NavArea" style="stroke:#A80036;stroke-width:1.5;" width="123" x="99" y="838.4531"/><ellipse cx="132.45" cy="854.4531" fill="#ADD1B2" rx="11" ry="11" style="stroke:#A80036;stroke-width:1.0;"/><path d="M134.7938,850.125 C133.8563,849.6875 133.2625,849.5469 132.3875,849.5469 C129.7625,849.5469 127.7625,851.625 127.7625,854.3438 L127.7625,855.4688 C127.7625,858.0469 129.8719,859.9375 132.7625,859.9375 C133.9813,859.9375 135.1375,859.6406 135.8875,859.0938 C136.4656,858.6875 136.7938,858.2344 136.7938,857.8438 C136.7938,857.3906 136.4031,857 135.9344,857 C135.7156,857 135.5125,857.0781 135.325,857.2656 C134.8719,857.75 134.8719,857.75 134.6844,857.8438 C134.2625,858.1094 133.575,858.2344 132.8094,858.2344 C130.7625,858.2344 129.4656,857.1406 129.4656,855.4375 L129.4656,854.3438 C129.4656,852.5625 130.7156,851.25 132.45,851.25 C133.0281,851.25 133.6375,851.4063 134.1063,851.6563 C134.5906,851.9375 134.7625,852.1563 134.8563,852.5625 C134.9188,852.9688 134.95,853.0938 135.0906,853.2188 C135.2313,853.3594 135.4656,853.4688 135.6844,853.4688 C135.95,853.4688 136.2156,853.3281 136.3875,853.1094 C136.4969,852.9531 136.5281,852.7656 136.5281,852.3438 L136.5281,850.9219 C136.5281,850.4844 136.5125,850.3594 136.4188,850.2031 C136.2625,849.9375 135.9813,849.7969 135.6844,849.7969 C135.3875,849.7969 135.1844,849.8906 134.9656,850.2031 L134.7938,850.125 Z " fill="#000000"/><text fill="#000000" font-family="sans-serif" font-size="12" lengthAdjust="spacing" textLength="50" x="150.55" y="858.6074">NavArea</text><line style="stroke:#A80036;stroke-width:1.5;" x1="100" x2="221" y1="870.4531" y2="870.4531"/><text fill="#000000" font-family="sans-serif" font-size="11" lengthAdjust="spacing" textLength="111" x="105" y="884.6636">navAreaNo: integer</text><line style="stroke:#A80036;stroke-width:1.5;" x1="100" x2="221" y1="891.2578" y2="891.2578"/><!--MD5=[3465795d537a068d04ef95ff9f5d3463]
class CoastalWarningArea--><rect codeLine="72" fill="#FEFECE" filter="url(#f1kz2tlkm3p6iz)" height="73.6094" id="CoastalWarningArea" style="stroke:#A80036;stroke-width:1.5;" width="153" x="392" y="831.9531"/><ellipse cx="407" cy="847.9531" fill="#ADD1B2" rx="11" ry="11" style="stroke:#A80036;stroke-width:1.0;"/><path d="M409.3438,843.625 C408.4063,843.1875 407.8125,843.0469 406.9375,843.0469 C404.3125,843.0469 402.3125,845.125 402.3125,847.8438 L402.3125,848.9688 C402.3125,851.5469 404.4219,853.4375 407.3125,853.4375 C408.5313,853.4375 409.6875,853.1406 410.4375,852.5938 C411.0156,852.1875 411.3438,851.7344 411.3438,851.3438 C411.3438,850.8906 410.9531,850.5 410.4844,850.5 C410.2656,850.5 410.0625,850.5781 409.875,850.7656 C409.4219,851.25 409.4219,851.25 409.2344,851.3438 C408.8125,851.6094 408.125,851.7344 407.3594,851.7344 C405.3125,851.7344 404.0156,850.6406 404.0156,848.9375 L404.0156,847.8438 C404.0156,846.0625 405.2656,844.75 407,844.75 C407.5781,844.75 408.1875,844.9063 408.6563,845.1563 C409.1406,845.4375 409.3125,845.6563 409.4063,846.0625 C409.4688,846.4688 409.5,846.5938 409.6406,846.7188 C409.7813,846.8594 410.0156,846.9688 410.2344,846.9688 C410.5,846.9688 410.7656,846.8281 410.9375,846.6094 C411.0469,846.4531 411.0781,846.2656 411.0781,845.8438 L411.0781,844.4219 C411.0781,843.9844 411.0625,843.8594 410.9688,843.7031 C410.8125,843.4375 410.5313,843.2969 410.2344,843.2969 C409.9375,843.2969 409.7344,843.3906 409.5156,843.7031 L409.3438,843.625 Z " fill="#000000"/><text fill="#000000" font-family="sans-serif" font-size="12" lengthAdjust="spacing" textLength="121" x="421" y="852.1074">CoastalWarningArea</text><line style="stroke:#A80036;stroke-width:1.5;" x1="393" x2="544" y1="863.9531" y2="863.9531"/><text fill="#000000" font-family="sans-serif" font-size="11" lengthAdjust="spacing" textLength="111" x="398" y="878.1636">navAreaNo: integer</text><text fill="#000000" font-family="sans-serif" font-size="11" lengthAdjust="spacing" textLength="62" x="398" y="890.9683">letter: char</text><line style="stroke:#A80036;stroke-width:1.5;" x1="393" x2="544" y1="897.5625" y2="897.5625"/><!--MD5=[93bb61fe5a88b9a94b2d06480bc0ec5a]
class SubjectIndicator--><rect codeLine="77" fill="#FEFECE" filter="url(#f1kz2tlkm3p6iz)" height="265.6797" id="SubjectIndicator" style="stroke:#A80036;stroke-width:1.5;" width="246" x="418.5" y="965.9531"/><ellipse cx="488.75" cy="981.9531" fill="#EB937F" rx="11" ry="11" style="stroke:#A80036;stroke-width:1.0;"/><path d="M487.5469,982.8281 L489,982.8281 L489,982.9375 C489,983.3438 489.0313,983.5 489.1094,983.6563 C489.2656,983.9063 489.5469,984.0625 489.8438,984.0625 C490.0938,984.0625 490.3594,983.9219 490.5156,983.7031 C490.6406,983.5469 490.6719,983.3906 490.6719,982.9375 L490.6719,981.0156 C490.6719,980.8594 490.6719,980.8125 490.6563,980.6563 C490.5938,980.1875 490.2813,979.875 489.8281,979.875 C489.5781,979.875 489.3125,980.0156 489.1406,980.2344 C489.0313,980.4063 489,980.5625 489,981.0156 L489,981.1406 L487.5469,981.1406 L487.5469,978.7344 L491.5313,978.7344 L491.5313,979.5938 C491.5313,980 491.5625,980.1719 491.6406,980.3281 C491.8125,980.5781 492.0938,980.7344 492.375,980.7344 C492.6406,980.7344 492.9063,980.5938 493.0781,980.375 C493.1875,980.2031 493.2188,980.0625 493.2188,979.5938 L493.2188,977.0469 L485.5938,977.0469 C485.1563,977.0469 485.0313,977.0625 484.875,977.1563 C484.625,977.3125 484.4688,977.6094 484.4688,977.8906 C484.4688,978.1719 484.6094,978.4219 484.8281,978.5938 C484.9844,978.7031 485.1719,978.7344 485.5938,978.7344 L485.8438,978.7344 L485.8438,985.25 L485.5938,985.25 C485.1875,985.25 485.0313,985.2656 484.875,985.375 C484.625,985.5469 484.4688,985.8125 484.4688,986.1094 C484.4688,986.375 484.6094,986.625 484.8281,986.7813 C484.9688,986.9063 485.2031,986.9531 485.5938,986.9531 L493.5938,986.9531 L493.5938,984.375 C493.5938,983.9375 493.5625,983.7969 493.4844,983.6406 C493.3125,983.3906 493.0313,983.2344 492.75,983.2344 C492.4844,983.2344 492.2188,983.3438 492.0469,983.5938 C491.9375,983.75 491.9063,983.8906 491.9063,984.375 L491.9063,985.25 L487.5469,985.25 L487.5469,982.8281 Z " fill="#000000"/><text fill="#000000" font-family="sans-serif" font-size="12" lengthAdjust="spacing" textLength="97" x="509.25" y="986.1074">SubjectIndicator</text><line style="stroke:#A80036;stroke-width:1.5;" x1="419.5" x2="663.5" y1="997.9531" y2="997.9531"/><text fill="#000000" font-family="sans-serif" font-size="11" lengthAdjust="spacing" textLength="153" x="424.5" y="1012.1636">NAVIGATIONAL_WARNINGS</text><text fill="#000000" font-family="sans-serif" font-size="11" lengthAdjust="spacing" textLength="172" x="424.5" y="1024.9683">METEOROLOGICAL_WARNINGS</text><text fill="#000000" font-family="sans-serif" font-size="11" lengthAdjust="spacing" textLength="75" x="424.5" y="1037.7729">ICE_REPORTS</text><text fill="#000000" font-family="sans-serif" font-size="11" lengthAdjust="spacing" textLength="199" x="424.5" y="1050.5776">SAR_INFO_AND_PIRACY_WARNINGS</text><text fill="#000000" font-family="sans-serif" font-size="11" lengthAdjust="spacing" textLength="178" x="424.5" y="1063.3823">METEOROLOGICAL_FORECASTS</text><text fill="#000000" font-family="sans-serif" font-size="11" lengthAdjust="spacing" textLength="62" x="424.5" y="1076.187">NOT_USED</text><text fill="#000000" font-family="sans-serif" font-size="11" lengthAdjust="spacing" textLength="117" x="424.5" y="1088.9917">SATNAV_MESSAGES</text><text fill="#000000" font-family="sans-serif" font-size="11" lengthAdjust="spacing" textLength="234" x="424.5" y="1101.7964">OTHER_ELECTRONIC_NAVAID_MESSAGES</text><text fill="#000000" font-family="sans-serif" font-size="11" lengthAdjust="spacing" textLength="197" x="424.5" y="1114.6011">OTHER_NAVIGATIONAL_WARNINGS</text><text fill="#000000" font-family="sans-serif" font-size="11" lengthAdjust="spacing" textLength="155" x="424.5" y="1127.4058">PILOT_SERVICE_MESSAGES</text><text fill="#000000" font-family="sans-serif" font-size="11" lengthAdjust="spacing" textLength="19" x="424.5" y="1140.2104">AIS</text><text fill="#000000" font-family="sans-serif" font-size="11" lengthAdjust="spacing" textLength="108" x="424.5" y="1153.0151">LORAN_MESSAGES</text><text fill="#000000" font-family="sans-serif" font-size="11" lengthAdjust="spacing" textLength="122" x="424.5" y="1165.8198">SPECIAL_SERVICES_V</text><text fill="#000000" font-family="sans-serif" font-size="11" lengthAdjust="spacing" textLength="125" x="424.5" y="1178.6245">SPECIAL_SERVICES_W</text><text fill="#000000" font-family="sans-serif" font-size="11" lengthAdjust="spacing" textLength="122" x="424.5" y="1191.4292">SPECIAL_SERVICES_X</text><text fill="#000000" font-family="sans-serif" font-size="11" lengthAdjust="spacing" textLength="121" x="424.5" y="1204.2339">SPECIAL_SERVICES_Y</text><text fill="#000000" font-family="sans-serif" font-size="11" lengthAdjust="spacing" textLength="149" x="424.5" y="1217.0386">NO_MESSAGES_ON_HAND</text><line style="stroke:#A80036;stroke-width:1.5;" x1="419.5" x2="663.5" y1="1223.6328" y2="1223.6328"/><!--MD5=[51f8f994229af8ae2211a1c190bfc9b4]
class SARBroadcastArea--><rect codeLine="98" fill="#FEFECE" filter="url(#f1kz2tlkm3p6iz)" height="48" id="SARBroadcastArea" style="stroke:#A80036;stroke-width:1.5;" width="143" x="7" y="621.4531"/><ellipse cx="22" cy="637.4531" fill="#B4A7E5" rx="11" ry="11" style="stroke:#A80036;stroke-width:1.0;"/><path d="M22.9531,634.2344 L24.6719,634.2344 C25.0625,634.2344 25.25,634.2031 25.375,634.125 C25.6406,633.9688 25.7813,633.6875 25.7813,633.3906 C25.7813,633.125 25.6719,632.8594 25.4375,632.6875 C25.2656,632.5781 25.125,632.5469 24.6719,632.5469 L19.5313,632.5469 C19.0938,632.5469 18.9688,632.5625 18.8125,632.6563 C18.5625,632.8125 18.4063,633.1094 18.4063,633.3906 C18.4063,633.6719 18.5469,633.9219 18.7656,634.0938 C18.9219,634.2031 19.1094,634.2344 19.5313,634.2344 L21.25,634.2344 L21.25,640.75 L19.5313,640.75 C19.0938,640.75 18.9688,640.7656 18.8125,640.875 C18.5625,641.0313 18.4063,641.3125 18.4063,641.6094 C18.4063,641.8594 18.5469,642.125 18.7656,642.2813 C18.9219,642.4063 19.125,642.4531 19.5313,642.4531 L24.6719,642.4531 C25.4219,642.4531 25.7813,642.1719 25.7813,641.6094 C25.7813,641.3281 25.6719,641.0781 25.4375,640.9063 C25.2656,640.7813 25.125,640.75 24.6719,640.75 L22.9531,640.75 L22.9531,634.2344 Z " fill="#000000"/><text fill="#000000" font-family="sans-serif" font-size="12" font-style="italic" lengthAdjust="spacing" textLength="111" x="36" y="641.6074">SARBroadcastArea</text><line style="stroke:#A80036;stroke-width:1.5;" x1="8" x2="149" y1="653.4531" y2="653.4531"/><line style="stroke:#A80036;stroke-width:1.5;" x1="8" x2="149" y1="661.4531" y2="661.4531"/><!--MD5=[a7f9118cae7621dd25d25149752faef0]
class Circle--><rect codeLine="100" fill="#FEFECE" filter="url(#f1kz2tlkm3p6iz)" height="86.4141" id="Circle" style="stroke:#A80036;stroke-width:1.5;" width="117" x="81" y="1055.9531"/><ellipse cx="118.95" cy="1071.9531" fill="#ADD1B2" rx="11" ry="11" style="stroke:#A80036;stroke-width:1.0;"/><path d="M121.2938,1067.625 C120.3563,1067.1875 119.7625,1067.0469 118.8875,1067.0469 C116.2625,1067.0469 114.2625,1069.125 114.2625,1071.8438 L114.2625,1072.9688 C114.2625,1075.5469 116.3719,1077.4375 119.2625,1077.4375 C120.4813,1077.4375 121.6375,1077.1406 122.3875,1076.5938 C122.9656,1076.1875 123.2938,1075.7344 123.2938,1075.3438 C123.2938,1074.8906 122.9031,1074.5 122.4344,1074.5 C122.2156,1074.5 122.0125,1074.5781 121.825,1074.7656 C121.3719,1075.25 121.3719,1075.25 121.1844,1075.3438 C120.7625,1075.6094 120.075,1075.7344 119.3094,1075.7344 C117.2625,1075.7344 115.9656,1074.6406 115.9656,1072.9375 L115.9656,1071.8438 C115.9656,1070.0625 117.2156,1068.75 118.95,1068.75 C119.5281,1068.75 120.1375,1068.9063 120.6063,1069.1563 C121.0906,1069.4375 121.2625,1069.6563 121.3563,1070.0625 C121.4188,1070.4688 121.45,1070.5938 121.5906,1070.7188 C121.7313,1070.8594 121.9656,1070.9688 122.1844,1070.9688 C122.45,1070.9688 122.7156,1070.8281 122.8875,1070.6094 C122.9969,1070.4531 123.0281,1070.2656 123.0281,1069.8438 L123.0281,1068.4219 C123.0281,1067.9844 123.0125,1067.8594 122.9188,1067.7031 C122.7625,1067.4375 122.4813,1067.2969 122.1844,1067.2969 C121.8875,1067.2969 121.6844,1067.3906 121.4656,1067.7031 L121.2938,1067.625 Z " fill="#000000"/><text fill="#000000" font-family="sans-serif" font-size="12" lengthAdjust="spacing" textLength="34" x="138.05" y="1076.1074">Circle</text><line style="stroke:#A80036;stroke-width:1.5;" x1="82" x2="197" y1="1087.9531" y2="1087.9531"/><text fill="#000000" font-family="sans-serif" font-size="11" lengthAdjust="spacing" textLength="66" x="87" y="1102.1636">lat: decimal</text><text fill="#000000" font-family="sans-serif" font-size="11" lengthAdjust="spacing" textLength="69" x="87" y="1114.9683">lon: decimal</text><text fill="#000000" font-family="sans-serif" font-size="11" lengthAdjust="spacing" textLength="105" x="87" y="1127.7729">radiusNm: decimal</text><line style="stroke:#A80036;stroke-width:1.5;" x1="82" x2="197" y1="1134.3672" y2="1134.3672"/><!--MD5=[b5313cd49da22b0744b541f414f8445e]
class Rectangle--><rect codeLine="105" fill="#FEFECE" filter="url(#f1kz2tlkm3p6iz)" height="99.2188" id="Rectangle" style="stroke:#A80036;stroke-width:1.5;" width="150" x="233.5" y="1049.4531"/><ellipse cx="275.05" cy="1065.4531" fill="#ADD1B2" rx="11" ry="11" style="stroke:#A80036;stroke-width:1.0;"/><path d="M277.3938,1061.125 C276.4563,1060.6875 275.8625,1060.5469 274.9875,1060.5469 C272.3625,1060.5469 270.3625,1062.625 270.3625,1065.3438 L270.3625,1066.4688 C270.3625,1069.0469 272.4719,1070.9375 275.3625,1070.9375 C276.5813,1070.9375 277.7375,1070.6406 278.4875,1070.0938 C279.0656,1069.6875 279.3938,1069.2344 279.3938,1068.8438 C279.3938,1068.3906 279.0031,1068 278.5344,1068 C278.3156,1068 278.1125,1068.0781 277.925,1068.2656 C277.4719,1068.75 277.4719,1068.75 277.2844,1068.8438 C276.8625,1069.1094 276.175,1069.2344 275.4094,1069.2344 C273.3625,1069.2344 272.0656,1068.1406 272.0656,1066.4375 L272.0656,1065.3438 C272.0656,1063.5625 273.3156,1062.25 275.05,1062.25 C275.6281,1062.25 276.2375,1062.4063 276.7063,1062.6563 C277.1906,1062.9375 277.3625,1063.1563 277.4563,1063.5625 C277.5188,1063.9688 277.55,1064.0938 277.6906,1064.2188 C277.8313,1064.3594 278.0656,1064.4688 278.2844,1064.4688 C278.55,1064.4688 278.8156,1064.3281 278.9875,1064.1094 C279.0969,1063.9531 279.1281,1063.7656 279.1281,1063.3438 L279.1281,1061.9219 C279.1281,1061.4844 279.1125,1061.3594 279.0188,1061.2031 C278.8625,1060.9375 278.5813,1060.7969 278.2844,1060.7969 C277.9875,1060.7969 277.7844,1060.8906 277.5656,1061.2031 L277.3938,1061.125 Z " fill="#000000"/><text fill="#000000" font-family="sans-serif" font-size="12" lengthAdjust="spacing" textLength="59" x="294.95" y="1069.6074">Rectangle</text><line style="stroke:#A80036;stroke-width:1.5;" x1="234.5" x2="382.5" y1="1081.4531" y2="1081.4531"/><text fill="#000000" font-family="sans-serif" font-size="11" lengthAdjust="spacing" textLength="90" x="239.5" y="1095.6636">minLat: decimal</text><text fill="#000000" font-family="sans-serif" font-size="11" lengthAdjust="spacing" textLength="91" x="239.5" y="1108.4683">leftLon: decimal</text><text fill="#000000" font-family="sans-serif" font-size="11" lengthAdjust="spacing" textLength="138" x="239.5" y="1121.2729">heightDegrees: decimal</text><text fill="#000000" font-family="sans-serif" font-size="11" lengthAdjust="spacing" textLength="132" x="239.5" y="1134.0776">widthDegrees: decimal</text><line style="stroke:#A80036;stroke-width:1.5;" x1="234.5" x2="382.5" y1="1140.6719" y2="1140.6719"/><!--MD5=[0fdac03f5b0cf4737b65737ce60d2db0]
class Geometry--><rect codeLine="111" fill="#FEFECE" filter="url(#f1kz2tlkm3p6iz)" height="48" id="Geometry" style="stroke:#A80036;stroke-width:1.5;" width="91" x="263" y="844.9531"/><ellipse cx="278" cy="860.9531" fill="#B4A7E5" rx="11" ry="11" style="stroke:#A80036;stroke-width:1.0;"/><path d="M278.9531,857.7344 L280.6719,857.7344 C281.0625,857.7344 281.25,857.7031 281.375,857.625 C281.6406,857.4688 281.7813,857.1875 281.7813,856.8906 C281.7813,856.625 281.6719,856.3594 281.4375,856.1875 C281.2656,856.0781 281.125,856.0469 280.6719,856.0469 L275.5313,856.0469 C275.0938,856.0469 274.9688,856.0625 274.8125,856.1563 C274.5625,856.3125 274.4063,856.6094 274.4063,856.8906 C274.4063,857.1719 274.5469,857.4219 274.7656,857.5938 C274.9219,857.7031 275.1094,857.7344 275.5313,857.7344 L277.25,857.7344 L277.25,864.25 L275.5313,864.25 C275.0938,864.25 274.9688,864.2656 274.8125,864.375 C274.5625,864.5313 274.4063,864.8125 274.4063,865.1094 C274.4063,865.3594 274.5469,865.625 274.7656,865.7813 C274.9219,865.9063 275.125,865.9531 275.5313,865.9531 L280.6719,865.9531 C281.4219,865.9531 281.7813,865.6719 281.7813,865.1094 C281.7813,864.8281 281.6719,864.5781 281.4375,864.4063 C281.2656,864.2813 281.125,864.25 280.6719,864.25 L278.9531,864.25 L278.9531,857.7344 Z " fill="#000000"/><text fill="#000000" font-family="sans-serif" font-size="12" font-style="italic" lengthAdjust="spacing" textLength="59" x="292" y="865.1074">Geometry</text><line style="stroke:#A80036;stroke-width:1.5;" x1="264" x2="353" y1="876.9531" y2="876.9531"/><line style="stroke:#A80036;stroke-width:1.5;" x1="264" x2="353" y1="884.9531" y2="884.9531"/><!--MD5=[2e0d7da74bc4b857304e4e9df78afa01]
class NavBroadcastArea--><rect codeLine="112" fill="#FEFECE" filter="url(#f1kz2tlkm3p6iz)" height="48" id="NavBroadcastArea" style="stroke:#A80036;stroke-width:1.5;" width="142" x="316.5" y="621.4531"/><ellipse cx="331.5" cy="637.4531" fill="#B4A7E5" rx="11" ry="11" style="stroke:#A80036;stroke-width:1.0;"/><path d="M332.4531,634.2344 L334.1719,634.2344 C334.5625,634.2344 334.75,634.2031 334.875,634.125 C335.1406,633.9688 335.2813,633.6875 335.2813,633.3906 C335.2813,633.125 335.1719,632.8594 334.9375,632.6875 C334.7656,632.5781 334.625,632.5469 334.1719,632.5469 L329.0313,632.5469 C328.5938,632.5469 328.4688,632.5625 328.3125,632.6563 C328.0625,632.8125 327.9063,633.1094 327.9063,633.3906 C327.9063,633.6719 328.0469,633.9219 328.2656,634.0938 C328.4219,634.2031 328.6094,634.2344 329.0313,634.2344 L330.75,634.2344 L330.75,640.75 L329.0313,640.75 C328.5938,640.75 328.4688,640.7656 328.3125,640.875 C328.0625,641.0313 327.9063,641.3125 327.9063,641.6094 C327.9063,641.8594 328.0469,642.125 328.2656,642.2813 C328.4219,642.4063 328.625,642.4531 329.0313,642.4531 L334.1719,642.4531 C334.9219,642.4531 335.2813,642.1719 335.2813,641.6094 C335.2813,641.3281 335.1719,641.0781 334.9375,640.9063 C334.7656,640.7813 334.625,640.75 334.1719,640.75 L332.4531,640.75 L332.4531,634.2344 Z " fill="#000000"/><text fill="#000000" font-family="sans-serif" font-size="12" font-style="italic" lengthAdjust="spacing" textLength="110" x="345.5" y="641.6074">NavBroadcastArea</text><line style="stroke:#A80036;stroke-width:1.5;" x1="317.5" x2="457.5" y1="653.4531" y2="653.4531"/><line style="stroke:#A80036;stroke-width:1.5;" x1="317.5" x2="457.5" y1="661.4531" y2="661.4531"/><!--MD5=[97f15dd6c6d936f9115489fc3dbb757d]
class MetBroadcastArea--><rect codeLine="113" fill="#FEFECE" filter="url(#f1kz2tlkm3p6iz)" height="48" id="MetBroadcastArea" style="stroke:#A80036;stroke-width:1.5;" width="141" x="494" y="621.4531"/><ellipse cx="509" cy="637.4531" fill="#B4A7E5" rx="11" ry="11" style="stroke:#A80036;stroke-width:1.0;"/><path d="M509.9531,634.2344 L511.6719,634.2344 C512.0625,634.2344 512.25,634.2031 512.375,634.125 C512.6406,633.9688 512.7813,633.6875 512.7813,633.3906 C512.7813,633.125 512.6719,632.8594 512.4375,632.6875 C512.2656,632.5781 512.125,632.5469 511.6719,632.5469 L506.5313,632.5469 C506.0938,632.5469 505.9688,632.5625 505.8125,632.6563 C505.5625,632.8125 505.4063,633.1094 505.4063,633.3906 C505.4063,633.6719 505.5469,633.9219 505.7656,634.0938 C505.9219,634.2031 506.1094,634.2344 506.5313,634.2344 L508.25,634.2344 L508.25,640.75 L506.5313,640.75 C506.0938,640.75 505.9688,640.7656 505.8125,640.875 C505.5625,641.0313 505.4063,641.3125 505.4063,641.6094 C505.4063,641.8594 505.5469,642.125 505.7656,642.2813 C505.9219,642.4063 506.125,642.4531 506.5313,642.4531 L511.6719,642.4531 C512.4219,642.4531 512.7813,642.1719 512.7813,641.6094 C512.7813,641.3281 512.6719,641.0781 512.4375,640.9063 C512.2656,640.7813 512.125,640.75 511.6719,640.75 L509.9531,640.75 L509.9531,634.2344 Z " fill="#000000"/><text fill="#000000" font-family="sans-serif" font-size="12" font-style="italic" lengthAdjust="spacing" textLength="109" x="523" y="641.6074">MetBroadcastArea</text><line style="stroke:#A80036;stroke-width:1.5;" x1="495" x2="634" y1="653.4531" y2="653.4531"/><line style="stroke:#A80036;stroke-width:1.5;" x1="495" x2="634" y1="661.4531" y2="661.4531"/><!--MD5=[dc02eab49d64f78f93a9f0cf45333858]
link MSI to Repetition--><path codeLine="60" d="M704.005,142.2631 C748.256,176.0731 804.284,218.8831 838.21,244.8091 " fill="none" id="MSI-Repetition" style="stroke:#A80036;stroke-width:1.0;"/><text fill="#000000" font-family="sans-serif" font-size="13" lengthAdjust="spacing" textLength="24" x="803.3732" y="233.7893">0..1</text><!--MD5=[68eac3220d6a798a1b9122ea5c12b509]
reverse link Repetition to RepeatOnce--><path codeLine="61" d="M868.5,313.4521 C868.5,341.0051 868.5,375.5361 868.5,397.9121 " fill="none" id="Repetition-backto-RepeatOnce" style="stroke:#A80036;stroke-width:1.0;"/><polygon fill="none" points="861.5,313.2161,868.5,293.2161,875.5,313.2161,861.5,313.2161" style="stroke:#A80036;stroke-width:1.0;"/><!--MD5=[c4aa100a13e262c74a559aea2ac46557]
reverse link Repetition to RepeatTillCancelled--><path codeLine="62" d="M908.54,307.0451 C939.211,335.4581 980.56,373.7641 1006.627,397.9121 " fill="none" id="Repetition-backto-RepeatTillCancelled" style="stroke:#A80036;stroke-width:1.0;"/><polygon fill="none" points="903.526,311.9431,893.612,293.2161,913.041,301.6721,903.526,311.9431" style="stroke:#A80036;stroke-width:1.0;"/><!--MD5=[13ea0c9280f4470953279b5924882ff1]
link RepeatOnce to IntervalHours--><path codeLine="63" d="M877.015,446.2391 C883.636,464.3441 893.388,491.0101 903.606,518.9521 " fill="none" id="RepeatOnce-IntervalHours" style="stroke:#A80036;stroke-width:1.0;"/><text fill="#000000" font-family="sans-serif" font-size="13" lengthAdjust="spacing" textLength="8" x="892.5656" y="507.8612">1</text><!--MD5=[a8e660f3ff581e8ae2bbb1e0f37eb4fb]
link RepeatTillCancelled to IntervalHours--><path codeLine="64" d="M1022.88,446.2391 C1016.18,464.3441 1006.305,491.0101 995.961,518.9521 " fill="none" id="RepeatTillCancelled-IntervalHours" style="stroke:#A80036;stroke-width:1.0;"/><text fill="#000000" font-family="sans-serif" font-size="13" lengthAdjust="spacing" textLength="8" x="990.5485" y="507.8612">1</text><!--MD5=[fab4c7b744660b1021fb1342bc906395]
link CoastalWarningArea to SubjectIndicator--><path codeLine="96" d="M480.067,906.0801 C485.414,922.7811 492.129,943.7521 499.139,965.6481 " fill="none" id="CoastalWarningArea-SubjectIndicator" style="stroke:#A80036;stroke-width:1.0;"/><text fill="#000000" font-family="sans-serif" font-size="13" lengthAdjust="spacing" textLength="8" x="488.6036" y="955.0271">1</text><!--MD5=[f39eadd4855fdcbb82e8bd0cd4f0eba6]
reverse link Geometry to Circle--><path codeLine="115" d="M267.984,907.3981 C250.754,924.3871 231.086,945.2771 215.5,965.9531 C194.17,994.2481 174.346,1029.0881 160.297,1055.8691 " fill="none" id="Geometry-backto-Circle" style="stroke:#A80036;stroke-width:1.0;"/><polygon fill="none" points="263.37,902.1221,282.633,893.2931,273.081,912.2071,263.37,902.1221" style="stroke:#A80036;stroke-width:1.0;"/><!--MD5=[d84596a069ebff60e908a9a07554cf04]
reverse link Geometry to Rectangle--><path codeLine="116" d="M308.5,913.3221 C308.5,952.1331 308.5,1008.9671 308.5,1049.3101 " fill="none" id="Geometry-backto-Rectangle" style="stroke:#A80036;stroke-width:1.0;"/><polygon fill="none" points="301.5,913.0701,308.5,893.0701,315.5,913.0701,301.5,913.0701" style="stroke:#A80036;stroke-width:1.0;"/><!--MD5=[2f326c64bc05f318a626e3435a895425]
reverse link NavBroadcastArea to NavArea--><path codeLine="118" d="M363.881,686.9411 C347.527,712.9651 324.149,746.5351 298.5,771.9531 C272.587,797.6321 239.078,821.1221 211.569,838.4391 " fill="none" id="NavBroadcastArea-backto-NavArea" style="stroke:#A80036;stroke-width:1.0;"/><polygon fill="none" points="358.094,682.9851,374.479,669.5491,370.049,690.2701,358.094,682.9851" style="stroke:#A80036;stroke-width:1.0;"/><!--MD5=[4d553def4a53a65593b03aa0c023699a]
reverse link NavBroadcastArea to CoastalWarningArea--><path codeLine="119" d="M402.96,688.7301 C418.118,730.1801 440.977,792.6901 455.304,831.8681 " fill="none" id="NavBroadcastArea-backto-CoastalWarningArea" style="stroke:#A80036;stroke-width:1.0;"/><polygon fill="none" points="396.31,690.9261,396.015,669.7391,409.458,686.1181,396.31,690.9261" style="stroke:#A80036;stroke-width:1.0;"/><!--MD5=[1fcadc21cea5c41392e10321747e7e29]
reverse link NavBroadcastArea to Geometry--><path codeLine="120" d="M372.448,688.6561 C355.928,734.9761 330.004,807.6601 316.812,844.6471 " fill="none" id="NavBroadcastArea-backto-Geometry" style="stroke:#A80036;stroke-width:1.0;"/><polygon fill="none" points="365.883,686.2251,379.195,669.7391,379.069,690.9281,365.883,686.2251" style="stroke:#A80036;stroke-width:1.0;"/><!--MD5=[7020778b9d1fce08ae11e5a604d934f8]
reverse link MetBroadcastArea to Geometry--><path codeLine="122" d="M542.115,686.8401 C526.042,713.2991 502.508,747.3991 475.5,771.9531 C465.138,781.3731 396.842,819.5641 350.861,844.8441 " fill="none" id="MetBroadcastArea-backto-Geometry" style="stroke:#A80036;stroke-width:1.0;"/><polygon fill="none" points="536.081,683.2921,552.223,669.5631,548.165,690.3611,536.081,683.2921" style="stroke:#A80036;stroke-width:1.0;"/><!--MD5=[d795090c7d9848a6af5ded26dba402ab]
reverse link MetBroadcastArea to CoastalWarningArea--><path codeLine="123" d="M546.422,688.1641 C528.46,729.6091 501.197,792.5111 484.139,831.8681 " fill="none" id="MetBroadcastArea-backto-CoastalWarningArea" style="stroke:#A80036;stroke-width:1.0;"/><polygon fill="none" points="540.032,685.3061,554.408,669.7391,552.877,690.8731,540.032,685.3061" style="stroke:#A80036;stroke-width:1.0;"/><!--MD5=[13bd0b3165112074f9ae4b0a1daa9289]
reverse link MetBroadcastArea to MetArea--><path codeLine="124" d="M579.435,688.8631 C594.866,732.6831 618.549,799.9371 632.073,838.3441 " fill="none" id="MetBroadcastArea-backto-MetArea" style="stroke:#A80036;stroke-width:1.0;"/><polygon fill="none" points="572.74,690.9281,572.7,669.7391,585.946,686.2781,572.74,690.9281" style="stroke:#A80036;stroke-width:1.0;"/><!--MD5=[45e69262132f29a6673b584ee32daa9e]
reverse link SARBroadcastArea to Geometry--><path codeLine="126" d="M102.0339,687.0271 C118.352,713.0871 141.724,746.6641 167.5,771.9531 C197.307,801.1961 237.053,827.3481 266.748,844.9441 " fill="none" id="SARBroadcastArea-backto-Geometry" style="stroke:#A80036;stroke-width:1.0;"/><polygon fill="none" points="95.8539,690.3361,91.4644,669.6061,107.823,683.0741,95.8539,690.3361" style="stroke:#A80036;stroke-width:1.0;"/><!--MD5=[7f0ef054806ca6871a7cfee4a734c37e]
reverse link SARBroadcastArea to NavArea--><path codeLine="127" d="M94.0902,688.5651 C110.31,732.3781 135.288,799.8501 149.538,838.3441 " fill="none" id="SARBroadcastArea-backto-NavArea" style="stroke:#A80036;stroke-width:1.0;"/><polygon fill="none" points="87.4994,690.9251,87.1205,669.7391,100.6286,686.0641,87.4994,690.9251" style="stroke:#A80036;stroke-width:1.0;"/><!--MD5=[faf15ea1ffad2e2c15f81db67920c38c]
reverse link MSI to SARBroadcast--><path codeLine="129" d="M554.584,153.5531 C529.429,172.5231 501.768,193.5031 476.5,212.9531 C390.293,279.3041 289.464,359.0401 240.769,397.6851 " fill="none" id="MSI-backto-SARBroadcast" style="stroke:#A80036;stroke-width:1.0;"/><polygon fill="none" points="550.515,147.8531,570.703,141.4131,558.936,159.0431,550.515,147.8531" style="stroke:#A80036;stroke-width:1.0;"/><!--MD5=[86bee229c31cc690a2ab4d0c6d8b56dc]
reverse link MSI to NonSARBroadcast--><path codeLine="130" d="M604.286,171.7531 C593.299,198.3231 581.911,225.8531 574.149,244.6231 " fill="none" id="MSI-backto-NonSARBroadcast" style="stroke:#A80036;stroke-width:1.0;"/><polygon fill="none" points="597.856,168.9931,611.968,153.1831,610.793,174.3431,597.856,168.9931" style="stroke:#A80036;stroke-width:1.0;"/><!--MD5=[4791f9ebfebed84c5520711137402c3a]
reverse link NonSARBroadcast to MetBroadcast--><path codeLine="131" d="M564.5,313.3641 C564.5,338.3951 564.5,369.2081 564.5,391.4351 " fill="none" id="NonSARBroadcast-backto-MetBroadcast" style="stroke:#A80036;stroke-width:1.0;"/><polygon fill="none" points="557.5,313.2161,564.5,293.2161,571.5,313.2161,557.5,313.2161" style="stroke:#A80036;stroke-width:1.0;"/><!--MD5=[caf6e0f987d3df90b2e2b869c67b24b1]
reverse link NonSARBroadcast to NavWarningBroadcast--><path codeLine="132" d="M521.618,306.3301 C490.884,332.4021 450.011,367.0751 421.297,391.4351 " fill="none" id="NonSARBroadcast-backto-NavWarningBroadcast" style="stroke:#A80036;stroke-width:1.0;"/><polygon fill="none" points="517.298,300.8161,537.078,293.2161,526.354,311.4921,517.298,300.8161" style="stroke:#A80036;stroke-width:1.0;"/><!--MD5=[1a29621155987e86a6aca1a0dcb5a11b]
link SARBroadcast to SARBroadcastArea--><path codeLine="134" d="M197.518,446.2391 C171.974,488.7801 118.047,578.5911 92.4942,621.1471 " fill="none" id="SARBroadcast-SARBroadcastArea" style="stroke:#A80036;stroke-width:1.0;"/><text fill="#000000" font-family="sans-serif" font-size="13" lengthAdjust="spacing" textLength="24" x="68.9803" y="610.4775">0..1</text><!--MD5=[039260e54bc7592a5d81e4f2d0d3ceed]
link MetBroadcast to MetBroadcastArea--><path codeLine="135" d="M564.5,452.8251 C564.5,497.5801 564.5,581.0791 564.5,621.4391 " fill="none" id="MetBroadcast-MetBroadcastArea" style="stroke:#A80036;stroke-width:1.0;"/><text fill="#000000" font-family="sans-serif" font-size="13" lengthAdjust="spacing" textLength="8" x="555.475" y="610.4476">1</text><!--MD5=[112b914d5b02b2b5046e3402e9c20705]
link NavWarningBroadcast to NavBroadcastArea--><path codeLine="136" d="M386.635,452.8251 C386.837,497.5801 387.214,581.0791 387.396,621.4391 " fill="none" id="NavWarningBroadcast-NavBroadcastArea" style="stroke:#A80036;stroke-width:1.0;"/><text fill="#000000" font-family="sans-serif" font-size="13" lengthAdjust="spacing" textLength="8" x="378.3444" y="610.4476">1</text><!--MD5=[ca28171ce46ff17b5f9e20c474450c88]
link NonSARBroadcast to NonSARPriority--><path codeLine="138" d="M588.533,293.2161 C613.746,317.6211 653.715,356.3081 683.065,384.7181 " fill="none" id="NonSARBroadcast-NonSARPriority" style="stroke:#A80036;stroke-width:1.0;"/><text fill="#000000" font-family="sans-serif" font-size="13" lengthAdjust="spacing" textLength="8" x="667.6844" y="373.8632">1</text><!--MD5=[030133b6067a8c3a70272a990e0db7b2]
link SARBroadcast to SARPriority--><path codeLine="139" d="M213.813,446.2391 C217.486,483.2261 224.709,555.9471 229.311,602.2741 " fill="none" id="SARBroadcast-SARPriority" style="stroke:#A80036;stroke-width:1.0;"/><text fill="#000000" font-family="sans-serif" font-size="13" lengthAdjust="spacing" textLength="8" x="220.0059" y="591.2416">1</text><!--MD5=[66d906ee9ccde799097e4cc339fce60e]
link MSI to Status--><path codeLine="140" d="M663.032,153.1831 C671.049,172.5731 679.845,193.8331 687.664,212.7431 " fill="none" id="MSI-Status" style="stroke:#A80036;stroke-width:1.0;"/><text fill="#000000" font-family="sans-serif" font-size="13" lengthAdjust="spacing" textLength="8" x="676.3934" y="202.052">1</text><!--MD5=[7ec6db9e3c8e0442ee4e2b3c9f8a5b40]
@startuml
title MSI Broadcasts - Class Diagram

class MSI {
  id: string
  payload: string
  startDate: timestamp
  endDate: timestamp
  send()
  cancel()
}

class SARBroadcast
interface NonSARBroadcast
class MetBroadcast {
  isForecast: boolean
}
class NavWarningBroadcast {
  isPiracyWarning: boolean
}

enum SARPriority {
  SAFETY
  URGENCY
  DISTRESS
}
enum NonSARPriority {
  SAFETY
  URGENCY
}
enum Status {
  CREATED
  SCHEDULED
  ACTIVE
  FINISHED
  CANCELLED
}
enum IntervalHours {
  1
  2
  3
  4
  5
  6
  12
  18
  24
  30
  36
  48
  60
  72
  96
  120
}

interface Repetition 
class RepeatOnce
class RepeatTillCancelled

MSI - - "0..1" Repetition
Repetition <|- - RepeatOnce
Repetition <|- - RepeatTillCancelled
RepeatOnce - - "1" IntervalHours
RepeatTillCancelled  - - "1" IntervalHours

class MetArea {
  metAreaNo: integer
}
class NavArea {
  navAreaNo: integer
}
class CoastalWarningArea {
  navAreaNo: integer
  letter: char
}

enum SubjectIndicator {
  NAVIGATIONAL_WARNINGS
  METEOROLOGICAL_WARNINGS
  ICE_REPORTS
  SAR_INFO_AND_PIRACY_WARNINGS
  METEOROLOGICAL_FORECASTS
  NOT_USED
  SATNAV_MESSAGES
  OTHER_ELECTRONIC_NAVAID_MESSAGES
  OTHER_NAVIGATIONAL_WARNINGS
  PILOT_SERVICE_MESSAGES
  AIS
  LORAN_MESSAGES
  SPECIAL_SERVICES_V
  SPECIAL_SERVICES_W
  SPECIAL_SERVICES_X
  SPECIAL_SERVICES_Y
  NO_MESSAGES_ON_HAND
}
CoastalWarningArea - - "1" SubjectIndicator
 
interface SARBroadcastArea

class Circle {
  lat: decimal
  lon: decimal
  radiusNm: decimal
}
class Rectangle {
  minLat: decimal
  leftLon: decimal
  heightDegrees: decimal
  widthDegrees: decimal
}
interface Geometry
interface NavBroadcastArea
interface MetBroadcastArea

Geometry <|- - Circle
Geometry <|- - Rectangle

NavBroadcastArea <|- - NavArea
NavBroadcastArea <|- - CoastalWarningArea
NavBroadcastArea <|- - Geometry

MetBroadcastArea <|- - Geometry
MetBroadcastArea <|- - CoastalWarningArea
MetBroadcastArea <|- - MetArea

SARBroadcastArea <|- - Geometry
SARBroadcastArea <|- - NavArea

MSI <|- - SARBroadcast
MSI <|- - NonSARBroadcast
NonSARBroadcast <|- - MetBroadcast
NonSARBroadcast <|- - NavWarningBroadcast

SARBroadcast  - - "0..1" SARBroadcastArea
MetBroadcast  - - "1" MetBroadcastArea
NavWarningBroadcast  - - "1" NavBroadcastArea

NonSARBroadcast - - "1" NonSARPriority
SARBroadcast - - "1" SARPriority
MSI - - "1" Status
@enduml

PlantUML version 1.2021.16beta3(Unknown compile time)
(GPL source distribution)
Java Runtime: Java(TM) SE Runtime Environment
JVM: Java HotSpot(TM) 64-Bit Server VM
Default Encoding: UTF-8
Language: en
Country: US
--></g></svg>