<?xml version="1.0" encoding="UTF-8" standalone="no"?><svg xmlns="http://www.w3.org/2000/svg" xmlns:xlink="http://www.w3.org/1999/xlink" contentScriptType="application/ecmascript" contentStyleType="text/css" height="1245px" preserveAspectRatio="none" style="width:1125px;height:1245px;background:#FFFFFF;" version="1.1" viewBox="0 0 1125 1245" width="1125px" zoomAndPan="magnify"><defs><filter height="300%" id="f1wenr465jgmkt" width="300%" x="-1" y="-1"><feGaussianBlur result="blurOut" stdDeviation="2.0"/><feColorMatrix in="blurOut" result="blurOut2" type="matrix" values="0 0 0 0 0 0 0 0 0 0 0 0 0 0 0 0 0 0 .4 0"/><feOffset dx="4.0" dy="4.0" in="blurOut2" result="blurOut3"/><feBlend in="SourceGraphic" in2="blurOut3" mode="normal"/></filter></defs><g><text fill="#000000" font-family="sans-serif" font-size="18" lengthAdjust="spacing" textLength="293" x="409.5" y="16.708">MSI Broadcasts - Class Diagram</text><!--MD5=[d0e13ed213eb83238e6841a7b0b939cb]
class MSI--><rect codeLine="3" fill="#FEFECE" filter="url(#f1wenr465jgmkt)" height="124.8281" id="MSI" style="stroke:#A80036;stroke-width:1.5;" width="133" x="499" y="27.9531"/><ellipse cx="550.75" cy="43.9531" fill="#ADD1B2" rx="11" ry="11" style="stroke:#A80036;stroke-width:1.0;"/><path d="M553.0938,39.625 C552.1563,39.1875 551.5625,39.0469 550.6875,39.0469 C548.0625,39.0469 546.0625,41.125 546.0625,43.8438 L546.0625,44.9688 C546.0625,47.5469 548.1719,49.4375 551.0625,49.4375 C552.2813,49.4375 553.4375,49.1406 554.1875,48.5938 C554.7656,48.1875 555.0938,47.7344 555.0938,47.3438 C555.0938,46.8906 554.7031,46.5 554.2344,46.5 C554.0156,46.5 553.8125,46.5781 553.625,46.7656 C553.1719,47.25 553.1719,47.25 552.9844,47.3438 C552.5625,47.6094 551.875,47.7344 551.1094,47.7344 C549.0625,47.7344 547.7656,46.6406 547.7656,44.9375 L547.7656,43.8438 C547.7656,42.0625 549.0156,40.75 550.75,40.75 C551.3281,40.75 551.9375,40.9063 552.4063,41.1563 C552.8906,41.4375 553.0625,41.6563 553.1563,42.0625 C553.2188,42.4688 553.25,42.5938 553.3906,42.7188 C553.5313,42.8594 553.7656,42.9688 553.9844,42.9688 C554.25,42.9688 554.5156,42.8281 554.6875,42.6094 C554.7969,42.4531 554.8281,42.2656 554.8281,41.8438 L554.8281,40.4219 C554.8281,39.9844 554.8125,39.8594 554.7188,39.7031 C554.5625,39.4375 554.2813,39.2969 553.9844,39.2969 C553.6875,39.2969 553.4844,39.3906 553.2656,39.7031 L553.0938,39.625 Z " fill="#000000"/><text fill="#000000" font-family="sans-serif" font-size="12" lengthAdjust="spacing" textLength="21" x="571.25" y="48.1074">MSI</text><line style="stroke:#A80036;stroke-width:1.5;" x1="500" x2="631" y1="59.9531" y2="59.9531"/><text fill="#000000" font-family="sans-serif" font-size="11" lengthAdjust="spacing" textLength="48" x="505" y="74.1636">id: string</text><text fill="#000000" font-family="sans-serif" font-size="11" lengthAdjust="spacing" textLength="83" x="505" y="86.9683">payload: string</text><text fill="#000000" font-family="sans-serif" font-size="11" lengthAdjust="spacing" textLength="121" x="505" y="99.7729">startDate: timestamp</text><text fill="#000000" font-family="sans-serif" font-size="11" lengthAdjust="spacing" textLength="118" x="505" y="112.5776">endDate: timestamp</text><line style="stroke:#A80036;stroke-width:1.5;" x1="500" x2="631" y1="119.1719" y2="119.1719"/><text fill="#000000" font-family="sans-serif" font-size="11" lengthAdjust="spacing" textLength="36" x="505" y="133.3823">send()</text><text fill="#000000" font-family="sans-serif" font-size="11" lengthAdjust="spacing" textLength="45" x="505" y="146.187">cancel()</text><!--MD5=[6a4bf54674a26136bd95edad553eae04]
class SARBroadcast--><rect codeLine="12" fill="#FEFECE" filter="url(#f1wenr465jgmkt)" height="48" id="SARBroadcast" style="stroke:#A80036;stroke-width:1.5;" width="116" x="44.5" y="397.9531"/><ellipse cx="59.5" cy="413.9531" fill="#ADD1B2" rx="11" ry="11" style="stroke:#A80036;stroke-width:1.0;"/><path d="M61.8438,409.625 C60.9063,409.1875 60.3125,409.0469 59.4375,409.0469 C56.8125,409.0469 54.8125,411.125 54.8125,413.8438 L54.8125,414.9688 C54.8125,417.5469 56.9219,419.4375 59.8125,419.4375 C61.0313,419.4375 62.1875,419.1406 62.9375,418.5938 C63.5156,418.1875 63.8438,417.7344 63.8438,417.3438 C63.8438,416.8906 63.4531,416.5 62.9844,416.5 C62.7656,416.5 62.5625,416.5781 62.375,416.7656 C61.9219,417.25 61.9219,417.25 61.7344,417.3438 C61.3125,417.6094 60.625,417.7344 59.8594,417.7344 C57.8125,417.7344 56.5156,416.6406 56.5156,414.9375 L56.5156,413.8438 C56.5156,412.0625 57.7656,410.75 59.5,410.75 C60.0781,410.75 60.6875,410.9063 61.1563,411.1563 C61.6406,411.4375 61.8125,411.6563 61.9063,412.0625 C61.9688,412.4688 62,412.5938 62.1406,412.7188 C62.2813,412.8594 62.5156,412.9688 62.7344,412.9688 C63,412.9688 63.2656,412.8281 63.4375,412.6094 C63.5469,412.4531 63.5781,412.2656 63.5781,411.8438 L63.5781,410.4219 C63.5781,409.9844 63.5625,409.8594 63.4688,409.7031 C63.3125,409.4375 63.0313,409.2969 62.7344,409.2969 C62.4375,409.2969 62.2344,409.3906 62.0156,409.7031 L61.8438,409.625 Z " fill="#000000"/><text fill="#000000" font-family="sans-serif" font-size="12" lengthAdjust="spacing" textLength="84" x="73.5" y="418.1074">SARBroadcast</text><line style="stroke:#A80036;stroke-width:1.5;" x1="45.5" x2="159.5" y1="429.9531" y2="429.9531"/><line style="stroke:#A80036;stroke-width:1.5;" x1="45.5" x2="159.5" y1="437.9531" y2="437.9531"/><!--MD5=[61d1eab05324eee6ada7fcfd560616ce]
class NonSARBroadcast--><rect codeLine="13" fill="#FEFECE" filter="url(#f1wenr465jgmkt)" height="48" id="NonSARBroadcast" style="stroke:#A80036;stroke-width:1.5;" width="140" x="422.5" y="244.9531"/><ellipse cx="437.5" cy="260.9531" fill="#B4A7E5" rx="11" ry="11" style="stroke:#A80036;stroke-width:1.0;"/><path d="M438.4531,257.7344 L440.1719,257.7344 C440.5625,257.7344 440.75,257.7031 440.875,257.625 C441.1406,257.4688 441.2813,257.1875 441.2813,256.8906 C441.2813,256.625 441.1719,256.3594 440.9375,256.1875 C440.7656,256.0781 440.625,256.0469 440.1719,256.0469 L435.0313,256.0469 C434.5938,256.0469 434.4688,256.0625 434.3125,256.1563 C434.0625,256.3125 433.9063,256.6094 433.9063,256.8906 C433.9063,257.1719 434.0469,257.4219 434.2656,257.5938 C434.4219,257.7031 434.6094,257.7344 435.0313,257.7344 L436.75,257.7344 L436.75,264.25 L435.0313,264.25 C434.5938,264.25 434.4688,264.2656 434.3125,264.375 C434.0625,264.5313 433.9063,264.8125 433.9063,265.1094 C433.9063,265.3594 434.0469,265.625 434.2656,265.7813 C434.4219,265.9063 434.625,265.9531 435.0313,265.9531 L440.1719,265.9531 C440.9219,265.9531 441.2813,265.6719 441.2813,265.1094 C441.2813,264.8281 441.1719,264.5781 440.9375,264.4063 C440.7656,264.2813 440.625,264.25 440.1719,264.25 L438.4531,264.25 L438.4531,257.7344 Z " fill="#000000"/><text fill="#000000" font-family="sans-serif" font-size="12" font-style="italic" lengthAdjust="spacing" textLength="108" x="451.5" y="265.1074">NonSARBroadcast</text><line style="stroke:#A80036;stroke-width:1.5;" x1="423.5" x2="561.5" y1="276.9531" y2="276.9531"/><line style="stroke:#A80036;stroke-width:1.5;" x1="423.5" x2="561.5" y1="284.9531" y2="284.9531"/><!--MD5=[59982b7b7c2f6d277251daf1f7ffe2c4]
class MetBroadcast--><rect codeLine="14" fill="#FEFECE" filter="url(#f1wenr465jgmkt)" height="60.8047" id="MetBroadcast" style="stroke:#A80036;stroke-width:1.5;" width="122" x="663.5" y="391.4531"/><ellipse cx="681.65" cy="407.4531" fill="#ADD1B2" rx="11" ry="11" style="stroke:#A80036;stroke-width:1.0;"/><path d="M683.9938,403.125 C683.0563,402.6875 682.4625,402.5469 681.5875,402.5469 C678.9625,402.5469 676.9625,404.625 676.9625,407.3438 L676.9625,408.4688 C676.9625,411.0469 679.0719,412.9375 681.9625,412.9375 C683.1813,412.9375 684.3375,412.6406 685.0875,412.0938 C685.6656,411.6875 685.9938,411.2344 685.9938,410.8438 C685.9938,410.3906 685.6031,410 685.1344,410 C684.9156,410 684.7125,410.0781 684.525,410.2656 C684.0719,410.75 684.0719,410.75 683.8844,410.8438 C683.4625,411.1094 682.775,411.2344 682.0094,411.2344 C679.9625,411.2344 678.6656,410.1406 678.6656,408.4375 L678.6656,407.3438 C678.6656,405.5625 679.9156,404.25 681.65,404.25 C682.2281,404.25 682.8375,404.4063 683.3063,404.6563 C683.7906,404.9375 683.9625,405.1563 684.0563,405.5625 C684.1188,405.9688 684.15,406.0938 684.2906,406.2188 C684.4313,406.3594 684.6656,406.4688 684.8844,406.4688 C685.15,406.4688 685.4156,406.3281 685.5875,406.1094 C685.6969,405.9531 685.7281,405.7656 685.7281,405.3438 L685.7281,403.9219 C685.7281,403.4844 685.7125,403.3594 685.6188,403.2031 C685.4625,402.9375 685.1813,402.7969 684.8844,402.7969 C684.5875,402.7969 684.3844,402.8906 684.1656,403.2031 L683.9938,403.125 Z " fill="#000000"/><text fill="#000000" font-family="sans-serif" font-size="12" lengthAdjust="spacing" textLength="83" x="696.35" y="411.6074">MetBroadcast</text><line style="stroke:#A80036;stroke-width:1.5;" x1="664.5" x2="784.5" y1="423.4531" y2="423.4531"/><text fill="#000000" font-family="sans-serif" font-size="11" lengthAdjust="spacing" textLength="110" x="669.5" y="437.6636">isForecast: boolean</text><line style="stroke:#A80036;stroke-width:1.5;" x1="664.5" x2="784.5" y1="444.2578" y2="444.2578"/><!--MD5=[c9986fe56483cfb5d6084bfba3089276]
class NavBroadcast--><rect codeLine="17" fill="#FEFECE" filter="url(#f1wenr465jgmkt)" height="48" id="NavBroadcast" style="stroke:#A80036;stroke-width:1.5;" width="115" x="359" y="397.9531"/><ellipse cx="374" cy="413.9531" fill="#ADD1B2" rx="11" ry="11" style="stroke:#A80036;stroke-width:1.0;"/><path d="M376.3438,409.625 C375.4063,409.1875 374.8125,409.0469 373.9375,409.0469 C371.3125,409.0469 369.3125,411.125 369.3125,413.8438 L369.3125,414.9688 C369.3125,417.5469 371.4219,419.4375 374.3125,419.4375 C375.5313,419.4375 376.6875,419.1406 377.4375,418.5938 C378.0156,418.1875 378.3438,417.7344 378.3438,417.3438 C378.3438,416.8906 377.9531,416.5 377.4844,416.5 C377.2656,416.5 377.0625,416.5781 376.875,416.7656 C376.4219,417.25 376.4219,417.25 376.2344,417.3438 C375.8125,417.6094 375.125,417.7344 374.3594,417.7344 C372.3125,417.7344 371.0156,416.6406 371.0156,414.9375 L371.0156,413.8438 C371.0156,412.0625 372.2656,410.75 374,410.75 C374.5781,410.75 375.1875,410.9063 375.6563,411.1563 C376.1406,411.4375 376.3125,411.6563 376.4063,412.0625 C376.4688,412.4688 376.5,412.5938 376.6406,412.7188 C376.7813,412.8594 377.0156,412.9688 377.2344,412.9688 C377.5,412.9688 377.7656,412.8281 377.9375,412.6094 C378.0469,412.4531 378.0781,412.2656 378.0781,411.8438 L378.0781,410.4219 C378.0781,409.9844 378.0625,409.8594 377.9688,409.7031 C377.8125,409.4375 377.5313,409.2969 377.2344,409.2969 C376.9375,409.2969 376.7344,409.3906 376.5156,409.7031 L376.3438,409.625 Z " fill="#000000"/><text fill="#000000" font-family="sans-serif" font-size="12" lengthAdjust="spacing" textLength="83" x="388" y="418.1074">NavBroadcast</text><line style="stroke:#A80036;stroke-width:1.5;" x1="360" x2="473" y1="429.9531" y2="429.9531"/><line style="stroke:#A80036;stroke-width:1.5;" x1="360" x2="473" y1="437.9531" y2="437.9531"/><!--MD5=[b0f80f349ef201573babf084af14ed5c]
class PiracyBroadcast--><rect codeLine="18" fill="#FEFECE" filter="url(#f1wenr465jgmkt)" height="48" id="PiracyBroadcast" style="stroke:#A80036;stroke-width:1.5;" width="128" x="195.5" y="397.9531"/><ellipse cx="210.5" cy="413.9531" fill="#ADD1B2" rx="11" ry="11" style="stroke:#A80036;stroke-width:1.0;"/><path d="M212.8438,409.625 C211.9063,409.1875 211.3125,409.0469 210.4375,409.0469 C207.8125,409.0469 205.8125,411.125 205.8125,413.8438 L205.8125,414.9688 C205.8125,417.5469 207.9219,419.4375 210.8125,419.4375 C212.0313,419.4375 213.1875,419.1406 213.9375,418.5938 C214.5156,418.1875 214.8438,417.7344 214.8438,417.3438 C214.8438,416.8906 214.4531,416.5 213.9844,416.5 C213.7656,416.5 213.5625,416.5781 213.375,416.7656 C212.9219,417.25 212.9219,417.25 212.7344,417.3438 C212.3125,417.6094 211.625,417.7344 210.8594,417.7344 C208.8125,417.7344 207.5156,416.6406 207.5156,414.9375 L207.5156,413.8438 C207.5156,412.0625 208.7656,410.75 210.5,410.75 C211.0781,410.75 211.6875,410.9063 212.1563,411.1563 C212.6406,411.4375 212.8125,411.6563 212.9063,412.0625 C212.9688,412.4688 213,412.5938 213.1406,412.7188 C213.2813,412.8594 213.5156,412.9688 213.7344,412.9688 C214,412.9688 214.2656,412.8281 214.4375,412.6094 C214.5469,412.4531 214.5781,412.2656 214.5781,411.8438 L214.5781,410.4219 C214.5781,409.9844 214.5625,409.8594 214.4688,409.7031 C214.3125,409.4375 214.0313,409.2969 213.7344,409.2969 C213.4375,409.2969 213.2344,409.3906 213.0156,409.7031 L212.8438,409.625 Z " fill="#000000"/><text fill="#000000" font-family="sans-serif" font-size="12" lengthAdjust="spacing" textLength="96" x="224.5" y="418.1074">PiracyBroadcast</text><line style="stroke:#A80036;stroke-width:1.5;" x1="196.5" x2="322.5" y1="429.9531" y2="429.9531"/><line style="stroke:#A80036;stroke-width:1.5;" x1="196.5" x2="322.5" y1="437.9531" y2="437.9531"/><!--MD5=[45e2a1f16a26aa8b66315c9b64a987d7]
class SARPriority--><rect codeLine="20" fill="#FEFECE" filter="url(#f1wenr465jgmkt)" height="86.4141" id="SARPriority" style="stroke:#A80036;stroke-width:1.5;" width="96" x="185.5" y="602.4531"/><ellipse cx="200.5" cy="618.4531" fill="#EB937F" rx="11" ry="11" style="stroke:#A80036;stroke-width:1.0;"/><path d="M199.2969,619.3281 L200.75,619.3281 L200.75,619.4375 C200.75,619.8438 200.7813,620 200.8594,620.1563 C201.0156,620.4063 201.2969,620.5625 201.5938,620.5625 C201.8438,620.5625 202.1094,620.4219 202.2656,620.2031 C202.3906,620.0469 202.4219,619.8906 202.4219,619.4375 L202.4219,617.5156 C202.4219,617.3594 202.4219,617.3125 202.4063,617.1563 C202.3438,616.6875 202.0313,616.375 201.5781,616.375 C201.3281,616.375 201.0625,616.5156 200.8906,616.7344 C200.7813,616.9063 200.75,617.0625 200.75,617.5156 L200.75,617.6406 L199.2969,617.6406 L199.2969,615.2344 L203.2813,615.2344 L203.2813,616.0938 C203.2813,616.5 203.3125,616.6719 203.3906,616.8281 C203.5625,617.0781 203.8438,617.2344 204.125,617.2344 C204.3906,617.2344 204.6563,617.0938 204.8281,616.875 C204.9375,616.7031 204.9688,616.5625 204.9688,616.0938 L204.9688,613.5469 L197.3438,613.5469 C196.9063,613.5469 196.7813,613.5625 196.625,613.6563 C196.375,613.8125 196.2188,614.1094 196.2188,614.3906 C196.2188,614.6719 196.3594,614.9219 196.5781,615.0938 C196.7344,615.2031 196.9219,615.2344 197.3438,615.2344 L197.5938,615.2344 L197.5938,621.75 L197.3438,621.75 C196.9375,621.75 196.7813,621.7656 196.625,621.875 C196.375,622.0469 196.2188,622.3125 196.2188,622.6094 C196.2188,622.875 196.3594,623.125 196.5781,623.2813 C196.7188,623.4063 196.9531,623.4531 197.3438,623.4531 L205.3438,623.4531 L205.3438,620.875 C205.3438,620.4375 205.3125,620.2969 205.2344,620.1406 C205.0625,619.8906 204.7813,619.7344 204.5,619.7344 C204.2344,619.7344 203.9688,619.8438 203.7969,620.0938 C203.6875,620.25 203.6563,620.3906 203.6563,620.875 L203.6563,621.75 L199.2969,621.75 L199.2969,619.3281 Z " fill="#000000"/><text fill="#000000" font-family="sans-serif" font-size="12" lengthAdjust="spacing" textLength="64" x="214.5" y="622.6074">SARPriority</text><line style="stroke:#A80036;stroke-width:1.5;" x1="186.5" x2="280.5" y1="634.4531" y2="634.4531"/><text fill="#000000" font-family="sans-serif" font-size="11" lengthAdjust="spacing" textLength="43" x="191.5" y="648.6636">SAFETY</text><text fill="#000000" font-family="sans-serif" font-size="11" lengthAdjust="spacing" textLength="54" x="191.5" y="661.4683">URGENCY</text><text fill="#000000" font-family="sans-serif" font-size="11" lengthAdjust="spacing" textLength="57" x="191.5" y="674.2729">DISTRESS</text><line style="stroke:#A80036;stroke-width:1.5;" x1="186.5" x2="280.5" y1="680.8672" y2="680.8672"/><!--MD5=[78bcfbe4e3cad7ad24ae0d54bbfae700]
class NonSARPriority--><rect codeLine="25" fill="#FEFECE" filter="url(#f1wenr465jgmkt)" height="73.6094" id="NonSARPriority" style="stroke:#A80036;stroke-width:1.5;" width="119" x="509" y="384.9531"/><ellipse cx="524" cy="400.9531" fill="#EB937F" rx="11" ry="11" style="stroke:#A80036;stroke-width:1.0;"/><path d="M522.7969,401.8281 L524.25,401.8281 L524.25,401.9375 C524.25,402.3438 524.2813,402.5 524.3594,402.6563 C524.5156,402.9063 524.7969,403.0625 525.0938,403.0625 C525.3438,403.0625 525.6094,402.9219 525.7656,402.7031 C525.8906,402.5469 525.9219,402.3906 525.9219,401.9375 L525.9219,400.0156 C525.9219,399.8594 525.9219,399.8125 525.9063,399.6563 C525.8438,399.1875 525.5313,398.875 525.0781,398.875 C524.8281,398.875 524.5625,399.0156 524.3906,399.2344 C524.2813,399.4063 524.25,399.5625 524.25,400.0156 L524.25,400.1406 L522.7969,400.1406 L522.7969,397.7344 L526.7813,397.7344 L526.7813,398.5938 C526.7813,399 526.8125,399.1719 526.8906,399.3281 C527.0625,399.5781 527.3438,399.7344 527.625,399.7344 C527.8906,399.7344 528.1563,399.5938 528.3281,399.375 C528.4375,399.2031 528.4688,399.0625 528.4688,398.5938 L528.4688,396.0469 L520.8438,396.0469 C520.4063,396.0469 520.2813,396.0625 520.125,396.1563 C519.875,396.3125 519.7188,396.6094 519.7188,396.8906 C519.7188,397.1719 519.8594,397.4219 520.0781,397.5938 C520.2344,397.7031 520.4219,397.7344 520.8438,397.7344 L521.0938,397.7344 L521.0938,404.25 L520.8438,404.25 C520.4375,404.25 520.2813,404.2656 520.125,404.375 C519.875,404.5469 519.7188,404.8125 519.7188,405.1094 C519.7188,405.375 519.8594,405.625 520.0781,405.7813 C520.2188,405.9063 520.4531,405.9531 520.8438,405.9531 L528.8438,405.9531 L528.8438,403.375 C528.8438,402.9375 528.8125,402.7969 528.7344,402.6406 C528.5625,402.3906 528.2813,402.2344 528,402.2344 C527.7344,402.2344 527.4688,402.3438 527.2969,402.5938 C527.1875,402.75 527.1563,402.8906 527.1563,403.375 L527.1563,404.25 L522.7969,404.25 L522.7969,401.8281 Z " fill="#000000"/><text fill="#000000" font-family="sans-serif" font-size="12" lengthAdjust="spacing" textLength="87" x="538" y="405.1074">NonSARPriority</text><line style="stroke:#A80036;stroke-width:1.5;" x1="510" x2="627" y1="416.9531" y2="416.9531"/><text fill="#000000" font-family="sans-serif" font-size="11" lengthAdjust="spacing" textLength="43" x="515" y="431.1636">SAFETY</text><text fill="#000000" font-family="sans-serif" font-size="11" lengthAdjust="spacing" textLength="54" x="515" y="443.9683">URGENCY</text><line style="stroke:#A80036;stroke-width:1.5;" x1="510" x2="627" y1="450.5625" y2="450.5625"/><!--MD5=[e3d83ec5fd90ea9f3f2bfe265cb53458]
class Status--><rect codeLine="29" fill="#FEFECE" filter="url(#f1wenr465jgmkt)" height="112.0234" id="Status" style="stroke:#A80036;stroke-width:1.5;" width="82" x="597.5" y="212.9531"/><ellipse cx="618.35" cy="228.9531" fill="#EB937F" rx="11" ry="11" style="stroke:#A80036;stroke-width:1.0;"/><path d="M617.1469,229.8281 L618.6,229.8281 L618.6,229.9375 C618.6,230.3438 618.6313,230.5 618.7094,230.6563 C618.8656,230.9063 619.1469,231.0625 619.4438,231.0625 C619.6938,231.0625 619.9594,230.9219 620.1156,230.7031 C620.2406,230.5469 620.2719,230.3906 620.2719,229.9375 L620.2719,228.0156 C620.2719,227.8594 620.2719,227.8125 620.2563,227.6563 C620.1938,227.1875 619.8813,226.875 619.4281,226.875 C619.1781,226.875 618.9125,227.0156 618.7406,227.2344 C618.6313,227.4063 618.6,227.5625 618.6,228.0156 L618.6,228.1406 L617.1469,228.1406 L617.1469,225.7344 L621.1313,225.7344 L621.1313,226.5938 C621.1313,227 621.1625,227.1719 621.2406,227.3281 C621.4125,227.5781 621.6938,227.7344 621.975,227.7344 C622.2406,227.7344 622.5063,227.5938 622.6781,227.375 C622.7875,227.2031 622.8188,227.0625 622.8188,226.5938 L622.8188,224.0469 L615.1938,224.0469 C614.7563,224.0469 614.6313,224.0625 614.475,224.1563 C614.225,224.3125 614.0688,224.6094 614.0688,224.8906 C614.0688,225.1719 614.2094,225.4219 614.4281,225.5938 C614.5844,225.7031 614.7719,225.7344 615.1938,225.7344 L615.4438,225.7344 L615.4438,232.25 L615.1938,232.25 C614.7875,232.25 614.6313,232.2656 614.475,232.375 C614.225,232.5469 614.0688,232.8125 614.0688,233.1094 C614.0688,233.375 614.2094,233.625 614.4281,233.7813 C614.5688,233.9063 614.8031,233.9531 615.1938,233.9531 L623.1938,233.9531 L623.1938,231.375 C623.1938,230.9375 623.1625,230.7969 623.0844,230.6406 C622.9125,230.3906 622.6313,230.2344 622.35,230.2344 C622.0844,230.2344 621.8188,230.3438 621.6469,230.5938 C621.5375,230.75 621.5063,230.8906 621.5063,231.375 L621.5063,232.25 L617.1469,232.25 L617.1469,229.8281 Z " fill="#000000"/><text fill="#000000" font-family="sans-serif" font-size="12" lengthAdjust="spacing" textLength="37" x="633.65" y="233.1074">Status</text><line style="stroke:#A80036;stroke-width:1.5;" x1="598.5" x2="678.5" y1="244.9531" y2="244.9531"/><text fill="#000000" font-family="sans-serif" font-size="11" lengthAdjust="spacing" textLength="53" x="603.5" y="259.1636">CREATED</text><text fill="#000000" font-family="sans-serif" font-size="11" lengthAdjust="spacing" textLength="70" x="603.5" y="271.9683">SCHEDULED</text><text fill="#000000" font-family="sans-serif" font-size="11" lengthAdjust="spacing" textLength="41" x="603.5" y="284.7729">ACTIVE</text><text fill="#000000" font-family="sans-serif" font-size="11" lengthAdjust="spacing" textLength="52" x="603.5" y="297.5776">FINISHED</text><text fill="#000000" font-family="sans-serif" font-size="11" lengthAdjust="spacing" textLength="67" x="603.5" y="310.3823">CANCELLED</text><line style="stroke:#A80036;stroke-width:1.5;" x1="598.5" x2="678.5" y1="316.9766" y2="316.9766"/><!--MD5=[670ba5afd3835a69cbf81964ee5af7db]
class IntervalHours--><rect codeLine="36" fill="#FEFECE" filter="url(#f1wenr465jgmkt)" height="252.875" id="IntervalHours" style="stroke:#A80036;stroke-width:1.5;" width="112" x="898.5" y="518.9531"/><ellipse cx="913.5" cy="534.9531" fill="#EB937F" rx="11" ry="11" style="stroke:#A80036;stroke-width:1.0;"/><path d="M912.2969,535.8281 L913.75,535.8281 L913.75,535.9375 C913.75,536.3438 913.7813,536.5 913.8594,536.6563 C914.0156,536.9063 914.2969,537.0625 914.5938,537.0625 C914.8438,537.0625 915.1094,536.9219 915.2656,536.7031 C915.3906,536.5469 915.4219,536.3906 915.4219,535.9375 L915.4219,534.0156 C915.4219,533.8594 915.4219,533.8125 915.4063,533.6563 C915.3438,533.1875 915.0313,532.875 914.5781,532.875 C914.3281,532.875 914.0625,533.0156 913.8906,533.2344 C913.7813,533.4063 913.75,533.5625 913.75,534.0156 L913.75,534.1406 L912.2969,534.1406 L912.2969,531.7344 L916.2813,531.7344 L916.2813,532.5938 C916.2813,533 916.3125,533.1719 916.3906,533.3281 C916.5625,533.5781 916.8438,533.7344 917.125,533.7344 C917.3906,533.7344 917.6563,533.5938 917.8281,533.375 C917.9375,533.2031 917.9688,533.0625 917.9688,532.5938 L917.9688,530.0469 L910.3438,530.0469 C909.9063,530.0469 909.7813,530.0625 909.625,530.1563 C909.375,530.3125 909.2188,530.6094 909.2188,530.8906 C909.2188,531.1719 909.3594,531.4219 909.5781,531.5938 C909.7344,531.7031 909.9219,531.7344 910.3438,531.7344 L910.5938,531.7344 L910.5938,538.25 L910.3438,538.25 C909.9375,538.25 909.7813,538.2656 909.625,538.375 C909.375,538.5469 909.2188,538.8125 909.2188,539.1094 C909.2188,539.375 909.3594,539.625 909.5781,539.7813 C909.7188,539.9063 909.9531,539.9531 910.3438,539.9531 L918.3438,539.9531 L918.3438,537.375 C918.3438,536.9375 918.3125,536.7969 918.2344,536.6406 C918.0625,536.3906 917.7813,536.2344 917.5,536.2344 C917.2344,536.2344 916.9688,536.3438 916.7969,536.5938 C916.6875,536.75 916.6563,536.8906 916.6563,537.375 L916.6563,538.25 L912.2969,538.25 L912.2969,535.8281 Z " fill="#000000"/><text fill="#000000" font-family="sans-serif" font-size="12" lengthAdjust="spacing" textLength="80" x="927.5" y="539.1074">IntervalHours</text><line style="stroke:#A80036;stroke-width:1.5;" x1="899.5" x2="1009.5" y1="550.9531" y2="550.9531"/><text fill="#000000" font-family="sans-serif" font-size="11" lengthAdjust="spacing" textLength="7" x="904.5" y="565.1636">1</text><text fill="#000000" font-family="sans-serif" font-size="11" lengthAdjust="spacing" textLength="7" x="904.5" y="577.9683">2</text><text fill="#000000" font-family="sans-serif" font-size="11" lengthAdjust="spacing" textLength="7" x="904.5" y="590.7729">3</text><text fill="#000000" font-family="sans-serif" font-size="11" lengthAdjust="spacing" textLength="7" x="904.5" y="603.5776">4</text><text fill="#000000" font-family="sans-serif" font-size="11" lengthAdjust="spacing" textLength="7" x="904.5" y="616.3823">5</text><text fill="#000000" font-family="sans-serif" font-size="11" lengthAdjust="spacing" textLength="7" x="904.5" y="629.187">6</text><text fill="#000000" font-family="sans-serif" font-size="11" lengthAdjust="spacing" textLength="14" x="904.5" y="641.9917">12</text><text fill="#000000" font-family="sans-serif" font-size="11" lengthAdjust="spacing" textLength="14" x="904.5" y="654.7964">18</text><text fill="#000000" font-family="sans-serif" font-size="11" lengthAdjust="spacing" textLength="14" x="904.5" y="667.6011">24</text><text fill="#000000" font-family="sans-serif" font-size="11" lengthAdjust="spacing" textLength="14" x="904.5" y="680.4058">30</text><text fill="#000000" font-family="sans-serif" font-size="11" lengthAdjust="spacing" textLength="14" x="904.5" y="693.2104">36</text><text fill="#000000" font-family="sans-serif" font-size="11" lengthAdjust="spacing" textLength="14" x="904.5" y="706.0151">48</text><text fill="#000000" font-family="sans-serif" font-size="11" lengthAdjust="spacing" textLength="14" x="904.5" y="718.8198">60</text><text fill="#000000" font-family="sans-serif" font-size="11" lengthAdjust="spacing" textLength="14" x="904.5" y="731.6245">72</text><text fill="#000000" font-family="sans-serif" font-size="11" lengthAdjust="spacing" textLength="14" x="904.5" y="744.4292">96</text><text fill="#000000" font-family="sans-serif" font-size="11" lengthAdjust="spacing" textLength="21" x="904.5" y="757.2339">120</text><line style="stroke:#A80036;stroke-width:1.5;" x1="899.5" x2="1009.5" y1="763.8281" y2="763.8281"/><!--MD5=[88c59876449025d50fa0788b08f620b9]
class Repetition--><rect codeLine="55" fill="#FEFECE" filter="url(#f1wenr465jgmkt)" height="48" id="Repetition" style="stroke:#A80036;stroke-width:1.5;" width="93" x="827" y="244.9531"/><ellipse cx="842" cy="260.9531" fill="#B4A7E5" rx="11" ry="11" style="stroke:#A80036;stroke-width:1.0;"/><path d="M842.9531,257.7344 L844.6719,257.7344 C845.0625,257.7344 845.25,257.7031 845.375,257.625 C845.6406,257.4688 845.7813,257.1875 845.7813,256.8906 C845.7813,256.625 845.6719,256.3594 845.4375,256.1875 C845.2656,256.0781 845.125,256.0469 844.6719,256.0469 L839.5313,256.0469 C839.0938,256.0469 838.9688,256.0625 838.8125,256.1563 C838.5625,256.3125 838.4063,256.6094 838.4063,256.8906 C838.4063,257.1719 838.5469,257.4219 838.7656,257.5938 C838.9219,257.7031 839.1094,257.7344 839.5313,257.7344 L841.25,257.7344 L841.25,264.25 L839.5313,264.25 C839.0938,264.25 838.9688,264.2656 838.8125,264.375 C838.5625,264.5313 838.4063,264.8125 838.4063,265.1094 C838.4063,265.3594 838.5469,265.625 838.7656,265.7813 C838.9219,265.9063 839.125,265.9531 839.5313,265.9531 L844.6719,265.9531 C845.4219,265.9531 845.7813,265.6719 845.7813,265.1094 C845.7813,264.8281 845.6719,264.5781 845.4375,264.4063 C845.2656,264.2813 845.125,264.25 844.6719,264.25 L842.9531,264.25 L842.9531,257.7344 Z " fill="#000000"/><text fill="#000000" font-family="sans-serif" font-size="12" font-style="italic" lengthAdjust="spacing" textLength="61" x="856" y="265.1074">Repetition</text><line style="stroke:#A80036;stroke-width:1.5;" x1="828" x2="919" y1="276.9531" y2="276.9531"/><line style="stroke:#A80036;stroke-width:1.5;" x1="828" x2="919" y1="284.9531" y2="284.9531"/><!--MD5=[5cb67dfb29d802bd2827aaf3e983051d]
class RepeatOnce--><rect codeLine="56" fill="#FEFECE" filter="url(#f1wenr465jgmkt)" height="48" id="RepeatOnce" style="stroke:#A80036;stroke-width:1.5;" width="106" x="820.5" y="397.9531"/><ellipse cx="835.5" cy="413.9531" fill="#ADD1B2" rx="11" ry="11" style="stroke:#A80036;stroke-width:1.0;"/><path d="M837.8438,409.625 C836.9063,409.1875 836.3125,409.0469 835.4375,409.0469 C832.8125,409.0469 830.8125,411.125 830.8125,413.8438 L830.8125,414.9688 C830.8125,417.5469 832.9219,419.4375 835.8125,419.4375 C837.0313,419.4375 838.1875,419.1406 838.9375,418.5938 C839.5156,418.1875 839.8438,417.7344 839.8438,417.3438 C839.8438,416.8906 839.4531,416.5 838.9844,416.5 C838.7656,416.5 838.5625,416.5781 838.375,416.7656 C837.9219,417.25 837.9219,417.25 837.7344,417.3438 C837.3125,417.6094 836.625,417.7344 835.8594,417.7344 C833.8125,417.7344 832.5156,416.6406 832.5156,414.9375 L832.5156,413.8438 C832.5156,412.0625 833.7656,410.75 835.5,410.75 C836.0781,410.75 836.6875,410.9063 837.1563,411.1563 C837.6406,411.4375 837.8125,411.6563 837.9063,412.0625 C837.9688,412.4688 838,412.5938 838.1406,412.7188 C838.2813,412.8594 838.5156,412.9688 838.7344,412.9688 C839,412.9688 839.2656,412.8281 839.4375,412.6094 C839.5469,412.4531 839.5781,412.2656 839.5781,411.8438 L839.5781,410.4219 C839.5781,409.9844 839.5625,409.8594 839.4688,409.7031 C839.3125,409.4375 839.0313,409.2969 838.7344,409.2969 C838.4375,409.2969 838.2344,409.3906 838.0156,409.7031 L837.8438,409.625 Z " fill="#000000"/><text fill="#000000" font-family="sans-serif" font-size="12" lengthAdjust="spacing" textLength="74" x="849.5" y="418.1074">RepeatOnce</text><line style="stroke:#A80036;stroke-width:1.5;" x1="821.5" x2="925.5" y1="429.9531" y2="429.9531"/><line style="stroke:#A80036;stroke-width:1.5;" x1="821.5" x2="925.5" y1="437.9531" y2="437.9531"/><!--MD5=[e991e8ea54c6943cd026340d8b1572eb]
class RepeatTillCancelled--><rect codeLine="57" fill="#FEFECE" filter="url(#f1wenr465jgmkt)" height="48" id="RepeatTillCancelled" style="stroke:#A80036;stroke-width:1.5;" width="149" x="962" y="397.9531"/><ellipse cx="977" cy="413.9531" fill="#ADD1B2" rx="11" ry="11" style="stroke:#A80036;stroke-width:1.0;"/><path d="M979.3438,409.625 C978.4063,409.1875 977.8125,409.0469 976.9375,409.0469 C974.3125,409.0469 972.3125,411.125 972.3125,413.8438 L972.3125,414.9688 C972.3125,417.5469 974.4219,419.4375 977.3125,419.4375 C978.5313,419.4375 979.6875,419.1406 980.4375,418.5938 C981.0156,418.1875 981.3438,417.7344 981.3438,417.3438 C981.3438,416.8906 980.9531,416.5 980.4844,416.5 C980.2656,416.5 980.0625,416.5781 979.875,416.7656 C979.4219,417.25 979.4219,417.25 979.2344,417.3438 C978.8125,417.6094 978.125,417.7344 977.3594,417.7344 C975.3125,417.7344 974.0156,416.6406 974.0156,414.9375 L974.0156,413.8438 C974.0156,412.0625 975.2656,410.75 977,410.75 C977.5781,410.75 978.1875,410.9063 978.6563,411.1563 C979.1406,411.4375 979.3125,411.6563 979.4063,412.0625 C979.4688,412.4688 979.5,412.5938 979.6406,412.7188 C979.7813,412.8594 980.0156,412.9688 980.2344,412.9688 C980.5,412.9688 980.7656,412.8281 980.9375,412.6094 C981.0469,412.4531 981.0781,412.2656 981.0781,411.8438 L981.0781,410.4219 C981.0781,409.9844 981.0625,409.8594 980.9688,409.7031 C980.8125,409.4375 980.5313,409.2969 980.2344,409.2969 C979.9375,409.2969 979.7344,409.3906 979.5156,409.7031 L979.3438,409.625 Z " fill="#000000"/><text fill="#000000" font-family="sans-serif" font-size="12" lengthAdjust="spacing" textLength="117" x="991" y="418.1074">RepeatTillCancelled</text><line style="stroke:#A80036;stroke-width:1.5;" x1="963" x2="1110" y1="429.9531" y2="429.9531"/><line style="stroke:#A80036;stroke-width:1.5;" x1="963" x2="1110" y1="437.9531" y2="437.9531"/><!--MD5=[19c58e1c195e071f65e647eea3a11eda]
class MetArea--><rect codeLine="65" fill="#FEFECE" filter="url(#f1wenr465jgmkt)" height="60.8047" id="MetArea" style="stroke:#A80036;stroke-width:1.5;" width="125" x="659" y="838.4531"/><ellipse cx="693.35" cy="854.4531" fill="#ADD1B2" rx="11" ry="11" style="stroke:#A80036;stroke-width:1.0;"/><path d="M695.6938,850.125 C694.7563,849.6875 694.1625,849.5469 693.2875,849.5469 C690.6625,849.5469 688.6625,851.625 688.6625,854.3438 L688.6625,855.4688 C688.6625,858.0469 690.7719,859.9375 693.6625,859.9375 C694.8813,859.9375 696.0375,859.6406 696.7875,859.0938 C697.3656,858.6875 697.6938,858.2344 697.6938,857.8438 C697.6938,857.3906 697.3031,857 696.8344,857 C696.6156,857 696.4125,857.0781 696.225,857.2656 C695.7719,857.75 695.7719,857.75 695.5844,857.8438 C695.1625,858.1094 694.475,858.2344 693.7094,858.2344 C691.6625,858.2344 690.3656,857.1406 690.3656,855.4375 L690.3656,854.3438 C690.3656,852.5625 691.6156,851.25 693.35,851.25 C693.9281,851.25 694.5375,851.4063 695.0063,851.6563 C695.4906,851.9375 695.6625,852.1563 695.7563,852.5625 C695.8188,852.9688 695.85,853.0938 695.9906,853.2188 C696.1313,853.3594 696.3656,853.4688 696.5844,853.4688 C696.85,853.4688 697.1156,853.3281 697.2875,853.1094 C697.3969,852.9531 697.4281,852.7656 697.4281,852.3438 L697.4281,850.9219 C697.4281,850.4844 697.4125,850.3594 697.3188,850.2031 C697.1625,849.9375 696.8813,849.7969 696.5844,849.7969 C696.2875,849.7969 696.0844,849.8906 695.8656,850.2031 L695.6938,850.125 Z " fill="#000000"/><text fill="#000000" font-family="sans-serif" font-size="12" lengthAdjust="spacing" textLength="50" x="711.65" y="858.6074">MetArea</text><line style="stroke:#A80036;stroke-width:1.5;" x1="660" x2="783" y1="870.4531" y2="870.4531"/><text fill="#000000" font-family="sans-serif" font-size="11" lengthAdjust="spacing" textLength="113" x="665" y="884.6636">metAreaNo: integer</text><line style="stroke:#A80036;stroke-width:1.5;" x1="660" x2="783" y1="891.2578" y2="891.2578"/><!--MD5=[9affa659e72119d3471adf0766b1bab5]
class NavArea--><rect codeLine="68" fill="#FEFECE" filter="url(#f1wenr465jgmkt)" height="60.8047" id="NavArea" style="stroke:#A80036;stroke-width:1.5;" width="123" x="101" y="838.4531"/><ellipse cx="134.45" cy="854.4531" fill="#ADD1B2" rx="11" ry="11" style="stroke:#A80036;stroke-width:1.0;"/><path d="M136.7938,850.125 C135.8563,849.6875 135.2625,849.5469 134.3875,849.5469 C131.7625,849.5469 129.7625,851.625 129.7625,854.3438 L129.7625,855.4688 C129.7625,858.0469 131.8719,859.9375 134.7625,859.9375 C135.9813,859.9375 137.1375,859.6406 137.8875,859.0938 C138.4656,858.6875 138.7938,858.2344 138.7938,857.8438 C138.7938,857.3906 138.4031,857 137.9344,857 C137.7156,857 137.5125,857.0781 137.325,857.2656 C136.8719,857.75 136.8719,857.75 136.6844,857.8438 C136.2625,858.1094 135.575,858.2344 134.8094,858.2344 C132.7625,858.2344 131.4656,857.1406 131.4656,855.4375 L131.4656,854.3438 C131.4656,852.5625 132.7156,851.25 134.45,851.25 C135.0281,851.25 135.6375,851.4063 136.1063,851.6563 C136.5906,851.9375 136.7625,852.1563 136.8563,852.5625 C136.9188,852.9688 136.95,853.0938 137.0906,853.2188 C137.2313,853.3594 137.4656,853.4688 137.6844,853.4688 C137.95,853.4688 138.2156,853.3281 138.3875,853.1094 C138.4969,852.9531 138.5281,852.7656 138.5281,852.3438 L138.5281,850.9219 C138.5281,850.4844 138.5125,850.3594 138.4188,850.2031 C138.2625,849.9375 137.9813,849.7969 137.6844,849.7969 C137.3875,849.7969 137.1844,849.8906 136.9656,850.2031 L136.7938,850.125 Z " fill="#000000"/><text fill="#000000" font-family="sans-serif" font-size="12" lengthAdjust="spacing" textLength="50" x="152.55" y="858.6074">NavArea</text><line style="stroke:#A80036;stroke-width:1.5;" x1="102" x2="223" y1="870.4531" y2="870.4531"/><text fill="#000000" font-family="sans-serif" font-size="11" lengthAdjust="spacing" textLength="111" x="107" y="884.6636">navAreaNo: integer</text><line style="stroke:#A80036;stroke-width:1.5;" x1="102" x2="223" y1="891.2578" y2="891.2578"/><!--MD5=[3465795d537a068d04ef95ff9f5d3463]
class CoastalWarningArea--><rect codeLine="71" fill="#FEFECE" filter="url(#f1wenr465jgmkt)" height="73.6094" id="CoastalWarningArea" style="stroke:#A80036;stroke-width:1.5;" width="153" x="471" y="831.9531"/><ellipse cx="486" cy="847.9531" fill="#ADD1B2" rx="11" ry="11" style="stroke:#A80036;stroke-width:1.0;"/><path d="M488.3438,843.625 C487.4063,843.1875 486.8125,843.0469 485.9375,843.0469 C483.3125,843.0469 481.3125,845.125 481.3125,847.8438 L481.3125,848.9688 C481.3125,851.5469 483.4219,853.4375 486.3125,853.4375 C487.5313,853.4375 488.6875,853.1406 489.4375,852.5938 C490.0156,852.1875 490.3438,851.7344 490.3438,851.3438 C490.3438,850.8906 489.9531,850.5 489.4844,850.5 C489.2656,850.5 489.0625,850.5781 488.875,850.7656 C488.4219,851.25 488.4219,851.25 488.2344,851.3438 C487.8125,851.6094 487.125,851.7344 486.3594,851.7344 C484.3125,851.7344 483.0156,850.6406 483.0156,848.9375 L483.0156,847.8438 C483.0156,846.0625 484.2656,844.75 486,844.75 C486.5781,844.75 487.1875,844.9063 487.6563,845.1563 C488.1406,845.4375 488.3125,845.6563 488.4063,846.0625 C488.4688,846.4688 488.5,846.5938 488.6406,846.7188 C488.7813,846.8594 489.0156,846.9688 489.2344,846.9688 C489.5,846.9688 489.7656,846.8281 489.9375,846.6094 C490.0469,846.4531 490.0781,846.2656 490.0781,845.8438 L490.0781,844.4219 C490.0781,843.9844 490.0625,843.8594 489.9688,843.7031 C489.8125,843.4375 489.5313,843.2969 489.2344,843.2969 C488.9375,843.2969 488.7344,843.3906 488.5156,843.7031 L488.3438,843.625 Z " fill="#000000"/><text fill="#000000" font-family="sans-serif" font-size="12" lengthAdjust="spacing" textLength="121" x="500" y="852.1074">CoastalWarningArea</text><line style="stroke:#A80036;stroke-width:1.5;" x1="472" x2="623" y1="863.9531" y2="863.9531"/><text fill="#000000" font-family="sans-serif" font-size="11" lengthAdjust="spacing" textLength="111" x="477" y="878.1636">navAreaNo: integer</text><text fill="#000000" font-family="sans-serif" font-size="11" lengthAdjust="spacing" textLength="62" x="477" y="890.9683">letter: char</text><line style="stroke:#A80036;stroke-width:1.5;" x1="472" x2="623" y1="897.5625" y2="897.5625"/><!--MD5=[93bb61fe5a88b9a94b2d06480bc0ec5a]
class SubjectIndicator--><rect codeLine="76" fill="#FEFECE" filter="url(#f1wenr465jgmkt)" height="265.6797" id="SubjectIndicator" style="stroke:#A80036;stroke-width:1.5;" width="246" x="471.5" y="965.9531"/><ellipse cx="541.75" cy="981.9531" fill="#EB937F" rx="11" ry="11" style="stroke:#A80036;stroke-width:1.0;"/><path d="M540.5469,982.8281 L542,982.8281 L542,982.9375 C542,983.3438 542.0313,983.5 542.1094,983.6563 C542.2656,983.9063 542.5469,984.0625 542.8438,984.0625 C543.0938,984.0625 543.3594,983.9219 543.5156,983.7031 C543.6406,983.5469 543.6719,983.3906 543.6719,982.9375 L543.6719,981.0156 C543.6719,980.8594 543.6719,980.8125 543.6563,980.6563 C543.5938,980.1875 543.2813,979.875 542.8281,979.875 C542.5781,979.875 542.3125,980.0156 542.1406,980.2344 C542.0313,980.4063 542,980.5625 542,981.0156 L542,981.1406 L540.5469,981.1406 L540.5469,978.7344 L544.5313,978.7344 L544.5313,979.5938 C544.5313,980 544.5625,980.1719 544.6406,980.3281 C544.8125,980.5781 545.0938,980.7344 545.375,980.7344 C545.6406,980.7344 545.9063,980.5938 546.0781,980.375 C546.1875,980.2031 546.2188,980.0625 546.2188,979.5938 L546.2188,977.0469 L538.5938,977.0469 C538.1563,977.0469 538.0313,977.0625 537.875,977.1563 C537.625,977.3125 537.4688,977.6094 537.4688,977.8906 C537.4688,978.1719 537.6094,978.4219 537.8281,978.5938 C537.9844,978.7031 538.1719,978.7344 538.5938,978.7344 L538.8438,978.7344 L538.8438,985.25 L538.5938,985.25 C538.1875,985.25 538.0313,985.2656 537.875,985.375 C537.625,985.5469 537.4688,985.8125 537.4688,986.1094 C537.4688,986.375 537.6094,986.625 537.8281,986.7813 C537.9688,986.9063 538.2031,986.9531 538.5938,986.9531 L546.5938,986.9531 L546.5938,984.375 C546.5938,983.9375 546.5625,983.7969 546.4844,983.6406 C546.3125,983.3906 546.0313,983.2344 545.75,983.2344 C545.4844,983.2344 545.2188,983.3438 545.0469,983.5938 C544.9375,983.75 544.9063,983.8906 544.9063,984.375 L544.9063,985.25 L540.5469,985.25 L540.5469,982.8281 Z " fill="#000000"/><text fill="#000000" font-family="sans-serif" font-size="12" lengthAdjust="spacing" textLength="97" x="562.25" y="986.1074">SubjectIndicator</text><line style="stroke:#A80036;stroke-width:1.5;" x1="472.5" x2="716.5" y1="997.9531" y2="997.9531"/><text fill="#000000" font-family="sans-serif" font-size="11" lengthAdjust="spacing" textLength="153" x="477.5" y="1012.1636">NAVIGATIONAL_WARNINGS</text><text fill="#000000" font-family="sans-serif" font-size="11" lengthAdjust="spacing" textLength="172" x="477.5" y="1024.9683">METEOROLOGICAL_WARNINGS</text><text fill="#000000" font-family="sans-serif" font-size="11" lengthAdjust="spacing" textLength="75" x="477.5" y="1037.7729">ICE_REPORTS</text><text fill="#000000" font-family="sans-serif" font-size="11" lengthAdjust="spacing" textLength="199" x="477.5" y="1050.5776">SAR_INFO_AND_PIRACY_WARNINGS</text><text fill="#000000" font-family="sans-serif" font-size="11" lengthAdjust="spacing" textLength="178" x="477.5" y="1063.3823">METEOROLOGICAL_FORECASTS</text><text fill="#000000" font-family="sans-serif" font-size="11" lengthAdjust="spacing" textLength="62" x="477.5" y="1076.187">NOT_USED</text><text fill="#000000" font-family="sans-serif" font-size="11" lengthAdjust="spacing" textLength="117" x="477.5" y="1088.9917">SATNAV_MESSAGES</text><text fill="#000000" font-family="sans-serif" font-size="11" lengthAdjust="spacing" textLength="234" x="477.5" y="1101.7964">OTHER_ELECTRONIC_NAVAID_MESSAGES</text><text fill="#000000" font-family="sans-serif" font-size="11" lengthAdjust="spacing" textLength="197" x="477.5" y="1114.6011">OTHER_NAVIGATIONAL_WARNINGS</text><text fill="#000000" font-family="sans-serif" font-size="11" lengthAdjust="spacing" textLength="155" x="477.5" y="1127.4058">PILOT_SERVICE_MESSAGES</text><text fill="#000000" font-family="sans-serif" font-size="11" lengthAdjust="spacing" textLength="19" x="477.5" y="1140.2104">AIS</text><text fill="#000000" font-family="sans-serif" font-size="11" lengthAdjust="spacing" textLength="108" x="477.5" y="1153.0151">LORAN_MESSAGES</text><text fill="#000000" font-family="sans-serif" font-size="11" lengthAdjust="spacing" textLength="122" x="477.5" y="1165.8198">SPECIAL_SERVICES_V</text><text fill="#000000" font-family="sans-serif" font-size="11" lengthAdjust="spacing" textLength="125" x="477.5" y="1178.6245">SPECIAL_SERVICES_W</text><text fill="#000000" font-family="sans-serif" font-size="11" lengthAdjust="spacing" textLength="122" x="477.5" y="1191.4292">SPECIAL_SERVICES_X</text><text fill="#000000" font-family="sans-serif" font-size="11" lengthAdjust="spacing" textLength="121" x="477.5" y="1204.2339">SPECIAL_SERVICES_Y</text><text fill="#000000" font-family="sans-serif" font-size="11" lengthAdjust="spacing" textLength="149" x="477.5" y="1217.0386">NO_MESSAGES_ON_HAND</text><line style="stroke:#A80036;stroke-width:1.5;" x1="472.5" x2="716.5" y1="1223.6328" y2="1223.6328"/><!--MD5=[51f8f994229af8ae2211a1c190bfc9b4]
class SARBroadcastArea--><rect codeLine="97" fill="#FEFECE" filter="url(#f1wenr465jgmkt)" height="48" id="SARBroadcastArea" style="stroke:#A80036;stroke-width:1.5;" width="143" x="7" y="621.4531"/><ellipse cx="22" cy="637.4531" fill="#B4A7E5" rx="11" ry="11" style="stroke:#A80036;stroke-width:1.0;"/><path d="M22.9531,634.2344 L24.6719,634.2344 C25.0625,634.2344 25.25,634.2031 25.375,634.125 C25.6406,633.9688 25.7813,633.6875 25.7813,633.3906 C25.7813,633.125 25.6719,632.8594 25.4375,632.6875 C25.2656,632.5781 25.125,632.5469 24.6719,632.5469 L19.5313,632.5469 C19.0938,632.5469 18.9688,632.5625 18.8125,632.6563 C18.5625,632.8125 18.4063,633.1094 18.4063,633.3906 C18.4063,633.6719 18.5469,633.9219 18.7656,634.0938 C18.9219,634.2031 19.1094,634.2344 19.5313,634.2344 L21.25,634.2344 L21.25,640.75 L19.5313,640.75 C19.0938,640.75 18.9688,640.7656 18.8125,640.875 C18.5625,641.0313 18.4063,641.3125 18.4063,641.6094 C18.4063,641.8594 18.5469,642.125 18.7656,642.2813 C18.9219,642.4063 19.125,642.4531 19.5313,642.4531 L24.6719,642.4531 C25.4219,642.4531 25.7813,642.1719 25.7813,641.6094 C25.7813,641.3281 25.6719,641.0781 25.4375,640.9063 C25.2656,640.7813 25.125,640.75 24.6719,640.75 L22.9531,640.75 L22.9531,634.2344 Z " fill="#000000"/><text fill="#000000" font-family="sans-serif" font-size="12" font-style="italic" lengthAdjust="spacing" textLength="111" x="36" y="641.6074">SARBroadcastArea</text><line style="stroke:#A80036;stroke-width:1.5;" x1="8" x2="149" y1="653.4531" y2="653.4531"/><line style="stroke:#A80036;stroke-width:1.5;" x1="8" x2="149" y1="661.4531" y2="661.4531"/><!--MD5=[a7f9118cae7621dd25d25149752faef0]
class Circle--><rect codeLine="99" fill="#FEFECE" filter="url(#f1wenr465jgmkt)" height="86.4141" id="Circle" style="stroke:#A80036;stroke-width:1.5;" width="117" x="134" y="1055.9531"/><ellipse cx="171.95" cy="1071.9531" fill="#ADD1B2" rx="11" ry="11" style="stroke:#A80036;stroke-width:1.0;"/><path d="M174.2938,1067.625 C173.3563,1067.1875 172.7625,1067.0469 171.8875,1067.0469 C169.2625,1067.0469 167.2625,1069.125 167.2625,1071.8438 L167.2625,1072.9688 C167.2625,1075.5469 169.3719,1077.4375 172.2625,1077.4375 C173.4813,1077.4375 174.6375,1077.1406 175.3875,1076.5938 C175.9656,1076.1875 176.2938,1075.7344 176.2938,1075.3438 C176.2938,1074.8906 175.9031,1074.5 175.4344,1074.5 C175.2156,1074.5 175.0125,1074.5781 174.825,1074.7656 C174.3719,1075.25 174.3719,1075.25 174.1844,1075.3438 C173.7625,1075.6094 173.075,1075.7344 172.3094,1075.7344 C170.2625,1075.7344 168.9656,1074.6406 168.9656,1072.9375 L168.9656,1071.8438 C168.9656,1070.0625 170.2156,1068.75 171.95,1068.75 C172.5281,1068.75 173.1375,1068.9063 173.6063,1069.1563 C174.0906,1069.4375 174.2625,1069.6563 174.3563,1070.0625 C174.4188,1070.4688 174.45,1070.5938 174.5906,1070.7188 C174.7313,1070.8594 174.9656,1070.9688 175.1844,1070.9688 C175.45,1070.9688 175.7156,1070.8281 175.8875,1070.6094 C175.9969,1070.4531 176.0281,1070.2656 176.0281,1069.8438 L176.0281,1068.4219 C176.0281,1067.9844 176.0125,1067.8594 175.9188,1067.7031 C175.7625,1067.4375 175.4813,1067.2969 175.1844,1067.2969 C174.8875,1067.2969 174.6844,1067.3906 174.4656,1067.7031 L174.2938,1067.625 Z " fill="#000000"/><text fill="#000000" font-family="sans-serif" font-size="12" lengthAdjust="spacing" textLength="34" x="191.05" y="1076.1074">Circle</text><line style="stroke:#A80036;stroke-width:1.5;" x1="135" x2="250" y1="1087.9531" y2="1087.9531"/><text fill="#000000" font-family="sans-serif" font-size="11" lengthAdjust="spacing" textLength="66" x="140" y="1102.1636">lat: decimal</text><text fill="#000000" font-family="sans-serif" font-size="11" lengthAdjust="spacing" textLength="69" x="140" y="1114.9683">lon: decimal</text><text fill="#000000" font-family="sans-serif" font-size="11" lengthAdjust="spacing" textLength="105" x="140" y="1127.7729">radiusNm: decimal</text><line style="stroke:#A80036;stroke-width:1.5;" x1="135" x2="250" y1="1134.3672" y2="1134.3672"/><!--MD5=[b5313cd49da22b0744b541f414f8445e]
class Rectangle--><rect codeLine="104" fill="#FEFECE" filter="url(#f1wenr465jgmkt)" height="99.2188" id="Rectangle" style="stroke:#A80036;stroke-width:1.5;" width="150" x="286.5" y="1049.4531"/><ellipse cx="328.05" cy="1065.4531" fill="#ADD1B2" rx="11" ry="11" style="stroke:#A80036;stroke-width:1.0;"/><path d="M330.3938,1061.125 C329.4563,1060.6875 328.8625,1060.5469 327.9875,1060.5469 C325.3625,1060.5469 323.3625,1062.625 323.3625,1065.3438 L323.3625,1066.4688 C323.3625,1069.0469 325.4719,1070.9375 328.3625,1070.9375 C329.5813,1070.9375 330.7375,1070.6406 331.4875,1070.0938 C332.0656,1069.6875 332.3938,1069.2344 332.3938,1068.8438 C332.3938,1068.3906 332.0031,1068 331.5344,1068 C331.3156,1068 331.1125,1068.0781 330.925,1068.2656 C330.4719,1068.75 330.4719,1068.75 330.2844,1068.8438 C329.8625,1069.1094 329.175,1069.2344 328.4094,1069.2344 C326.3625,1069.2344 325.0656,1068.1406 325.0656,1066.4375 L325.0656,1065.3438 C325.0656,1063.5625 326.3156,1062.25 328.05,1062.25 C328.6281,1062.25 329.2375,1062.4063 329.7063,1062.6563 C330.1906,1062.9375 330.3625,1063.1563 330.4563,1063.5625 C330.5188,1063.9688 330.55,1064.0938 330.6906,1064.2188 C330.8313,1064.3594 331.0656,1064.4688 331.2844,1064.4688 C331.55,1064.4688 331.8156,1064.3281 331.9875,1064.1094 C332.0969,1063.9531 332.1281,1063.7656 332.1281,1063.3438 L332.1281,1061.9219 C332.1281,1061.4844 332.1125,1061.3594 332.0188,1061.2031 C331.8625,1060.9375 331.5813,1060.7969 331.2844,1060.7969 C330.9875,1060.7969 330.7844,1060.8906 330.5656,1061.2031 L330.3938,1061.125 Z " fill="#000000"/><text fill="#000000" font-family="sans-serif" font-size="12" lengthAdjust="spacing" textLength="59" x="347.95" y="1069.6074">Rectangle</text><line style="stroke:#A80036;stroke-width:1.5;" x1="287.5" x2="435.5" y1="1081.4531" y2="1081.4531"/><text fill="#000000" font-family="sans-serif" font-size="11" lengthAdjust="spacing" textLength="90" x="292.5" y="1095.6636">minLat: decimal</text><text fill="#000000" font-family="sans-serif" font-size="11" lengthAdjust="spacing" textLength="91" x="292.5" y="1108.4683">leftLon: decimal</text><text fill="#000000" font-family="sans-serif" font-size="11" lengthAdjust="spacing" textLength="138" x="292.5" y="1121.2729">heightDegrees: decimal</text><text fill="#000000" font-family="sans-serif" font-size="11" lengthAdjust="spacing" textLength="132" x="292.5" y="1134.0776">widthDegrees: decimal</text><line style="stroke:#A80036;stroke-width:1.5;" x1="287.5" x2="435.5" y1="1140.6719" y2="1140.6719"/><!--MD5=[0fdac03f5b0cf4737b65737ce60d2db0]
class Geometry--><rect codeLine="110" fill="#FEFECE" filter="url(#f1wenr465jgmkt)" height="48" id="Geometry" style="stroke:#A80036;stroke-width:1.5;" width="91" x="316" y="844.9531"/><ellipse cx="331" cy="860.9531" fill="#B4A7E5" rx="11" ry="11" style="stroke:#A80036;stroke-width:1.0;"/><path d="M331.9531,857.7344 L333.6719,857.7344 C334.0625,857.7344 334.25,857.7031 334.375,857.625 C334.6406,857.4688 334.7813,857.1875 334.7813,856.8906 C334.7813,856.625 334.6719,856.3594 334.4375,856.1875 C334.2656,856.0781 334.125,856.0469 333.6719,856.0469 L328.5313,856.0469 C328.0938,856.0469 327.9688,856.0625 327.8125,856.1563 C327.5625,856.3125 327.4063,856.6094 327.4063,856.8906 C327.4063,857.1719 327.5469,857.4219 327.7656,857.5938 C327.9219,857.7031 328.1094,857.7344 328.5313,857.7344 L330.25,857.7344 L330.25,864.25 L328.5313,864.25 C328.0938,864.25 327.9688,864.2656 327.8125,864.375 C327.5625,864.5313 327.4063,864.8125 327.4063,865.1094 C327.4063,865.3594 327.5469,865.625 327.7656,865.7813 C327.9219,865.9063 328.125,865.9531 328.5313,865.9531 L333.6719,865.9531 C334.4219,865.9531 334.7813,865.6719 334.7813,865.1094 C334.7813,864.8281 334.6719,864.5781 334.4375,864.4063 C334.2656,864.2813 334.125,864.25 333.6719,864.25 L331.9531,864.25 L331.9531,857.7344 Z " fill="#000000"/><text fill="#000000" font-family="sans-serif" font-size="12" font-style="italic" lengthAdjust="spacing" textLength="59" x="345" y="865.1074">Geometry</text><line style="stroke:#A80036;stroke-width:1.5;" x1="317" x2="406" y1="876.9531" y2="876.9531"/><line style="stroke:#A80036;stroke-width:1.5;" x1="317" x2="406" y1="884.9531" y2="884.9531"/><!--MD5=[5eb23bc1c22dcd670b73c2f5589a3746]
class NavOrPrivacyBroadcastArea--><rect codeLine="111" fill="#FEFECE" filter="url(#f1wenr465jgmkt)" height="48" id="NavOrPrivacyBroadcastArea" style="stroke:#A80036;stroke-width:1.5;" width="199" x="317" y="621.4531"/><ellipse cx="332" cy="637.4531" fill="#B4A7E5" rx="11" ry="11" style="stroke:#A80036;stroke-width:1.0;"/><path d="M332.9531,634.2344 L334.6719,634.2344 C335.0625,634.2344 335.25,634.2031 335.375,634.125 C335.6406,633.9688 335.7813,633.6875 335.7813,633.3906 C335.7813,633.125 335.6719,632.8594 335.4375,632.6875 C335.2656,632.5781 335.125,632.5469 334.6719,632.5469 L329.5313,632.5469 C329.0938,632.5469 328.9688,632.5625 328.8125,632.6563 C328.5625,632.8125 328.4063,633.1094 328.4063,633.3906 C328.4063,633.6719 328.5469,633.9219 328.7656,634.0938 C328.9219,634.2031 329.1094,634.2344 329.5313,634.2344 L331.25,634.2344 L331.25,640.75 L329.5313,640.75 C329.0938,640.75 328.9688,640.7656 328.8125,640.875 C328.5625,641.0313 328.4063,641.3125 328.4063,641.6094 C328.4063,641.8594 328.5469,642.125 328.7656,642.2813 C328.9219,642.4063 329.125,642.4531 329.5313,642.4531 L334.6719,642.4531 C335.4219,642.4531 335.7813,642.1719 335.7813,641.6094 C335.7813,641.3281 335.6719,641.0781 335.4375,640.9063 C335.2656,640.7813 335.125,640.75 334.6719,640.75 L332.9531,640.75 L332.9531,634.2344 Z " fill="#000000"/><text fill="#000000" font-family="sans-serif" font-size="12" font-style="italic" lengthAdjust="spacing" textLength="167" x="346" y="641.6074">NavOrPrivacyBroadcastArea</text><line style="stroke:#A80036;stroke-width:1.5;" x1="318" x2="515" y1="653.4531" y2="653.4531"/><line style="stroke:#A80036;stroke-width:1.5;" x1="318" x2="515" y1="661.4531" y2="661.4531"/><!--MD5=[97f15dd6c6d936f9115489fc3dbb757d]
class MetBroadcastArea--><rect codeLine="112" fill="#FEFECE" filter="url(#f1wenr465jgmkt)" height="48" id="MetBroadcastArea" style="stroke:#A80036;stroke-width:1.5;" width="141" x="596" y="621.4531"/><ellipse cx="611" cy="637.4531" fill="#B4A7E5" rx="11" ry="11" style="stroke:#A80036;stroke-width:1.0;"/><path d="M611.9531,634.2344 L613.6719,634.2344 C614.0625,634.2344 614.25,634.2031 614.375,634.125 C614.6406,633.9688 614.7813,633.6875 614.7813,633.3906 C614.7813,633.125 614.6719,632.8594 614.4375,632.6875 C614.2656,632.5781 614.125,632.5469 613.6719,632.5469 L608.5313,632.5469 C608.0938,632.5469 607.9688,632.5625 607.8125,632.6563 C607.5625,632.8125 607.4063,633.1094 607.4063,633.3906 C607.4063,633.6719 607.5469,633.9219 607.7656,634.0938 C607.9219,634.2031 608.1094,634.2344 608.5313,634.2344 L610.25,634.2344 L610.25,640.75 L608.5313,640.75 C608.0938,640.75 607.9688,640.7656 607.8125,640.875 C607.5625,641.0313 607.4063,641.3125 607.4063,641.6094 C607.4063,641.8594 607.5469,642.125 607.7656,642.2813 C607.9219,642.4063 608.125,642.4531 608.5313,642.4531 L613.6719,642.4531 C614.4219,642.4531 614.7813,642.1719 614.7813,641.6094 C614.7813,641.3281 614.6719,641.0781 614.4375,640.9063 C614.2656,640.7813 614.125,640.75 613.6719,640.75 L611.9531,640.75 L611.9531,634.2344 Z " fill="#000000"/><text fill="#000000" font-family="sans-serif" font-size="12" font-style="italic" lengthAdjust="spacing" textLength="109" x="625" y="641.6074">MetBroadcastArea</text><line style="stroke:#A80036;stroke-width:1.5;" x1="597" x2="736" y1="653.4531" y2="653.4531"/><line style="stroke:#A80036;stroke-width:1.5;" x1="597" x2="736" y1="661.4531" y2="661.4531"/><!--MD5=[dc02eab49d64f78f93a9f0cf45333858]
link MSI to Repetition--><path codeLine="59" d="M632.331,129.7531 C693.547,164.8331 782.163,215.6131 833.19,244.8531 " fill="none" id="MSI-Repetition" style="stroke:#A80036;stroke-width:1.0;"/><text fill="#000000" font-family="sans-serif" font-size="13" lengthAdjust="spacing" textLength="24" x="795.7856" y="233.8395">0..1</text><!--MD5=[68eac3220d6a798a1b9122ea5c12b509]
reverse link Repetition to RepeatOnce--><path codeLine="60" d="M873.5,313.4521 C873.5,341.0051 873.5,375.5361 873.5,397.9121 " fill="none" id="Repetition-backto-RepeatOnce" style="stroke:#A80036;stroke-width:1.0;"/><polygon fill="none" points="866.5,313.2161,873.5,293.2161,880.5,313.2161,866.5,313.2161" style="stroke:#A80036;stroke-width:1.0;"/><!--MD5=[c4aa100a13e262c74a559aea2ac46557]
reverse link Repetition to RepeatTillCancelled--><path codeLine="61" d="M913.54,307.0451 C944.211,335.4581 985.56,373.7641 1011.63,397.9121 " fill="none" id="Repetition-backto-RepeatTillCancelled" style="stroke:#A80036;stroke-width:1.0;"/><polygon fill="none" points="908.526,311.9431,898.612,293.2161,918.041,301.6721,908.526,311.9431" style="stroke:#A80036;stroke-width:1.0;"/><!--MD5=[13ea0c9280f4470953279b5924882ff1]
link RepeatOnce to IntervalHours--><path codeLine="62" d="M882.015,446.2391 C888.636,464.3441 898.388,491.0101 908.606,518.9521 " fill="none" id="RepeatOnce-IntervalHours" style="stroke:#A80036;stroke-width:1.0;"/><text fill="#000000" font-family="sans-serif" font-size="13" lengthAdjust="spacing" textLength="8" x="897.5656" y="507.8612">1</text><!--MD5=[a8e660f3ff581e8ae2bbb1e0f37eb4fb]
link RepeatTillCancelled to IntervalHours--><path codeLine="63" d="M1027.88,446.2391 C1021.18,464.3441 1011.3,491.0101 1000.961,518.9521 " fill="none" id="RepeatTillCancelled-IntervalHours" style="stroke:#A80036;stroke-width:1.0;"/><text fill="#000000" font-family="sans-serif" font-size="13" lengthAdjust="spacing" textLength="8" x="995.5485" y="507.8612">1</text><!--MD5=[fab4c7b744660b1021fb1342bc906395]
link CoastalWarningArea to SubjectIndicator--><path codeLine="95" d="M554.947,906.0801 C558.39,922.7811 562.713,943.7521 567.227,965.6481 " fill="none" id="CoastalWarningArea-SubjectIndicator" style="stroke:#A80036;stroke-width:1.0;"/><text fill="#000000" font-family="sans-serif" font-size="13" lengthAdjust="spacing" textLength="8" x="557.5168" y="955.0271">1</text><!--MD5=[f39eadd4855fdcbb82e8bd0cd4f0eba6]
reverse link Geometry to Circle--><path codeLine="114" d="M320.984,907.3981 C303.754,924.3871 284.086,945.2771 268.5,965.9531 C247.17,994.2481 227.346,1029.0881 213.297,1055.8691 " fill="none" id="Geometry-backto-Circle" style="stroke:#A80036;stroke-width:1.0;"/><polygon fill="none" points="316.37,902.1221,335.633,893.2931,326.081,912.2071,316.37,902.1221" style="stroke:#A80036;stroke-width:1.0;"/><!--MD5=[d84596a069ebff60e908a9a07554cf04]
reverse link Geometry to Rectangle--><path codeLine="115" d="M361.5,913.3221 C361.5,952.1331 361.5,1008.9671 361.5,1049.3101 " fill="none" id="Geometry-backto-Rectangle" style="stroke:#A80036;stroke-width:1.0;"/><polygon fill="none" points="354.5,913.0701,361.5,893.0701,368.5,913.0701,354.5,913.0701" style="stroke:#A80036;stroke-width:1.0;"/><!--MD5=[86fd14643b01e194550750c3fc9b461b]
reverse link NavOrPrivacyBroadcastArea to NavArea--><path codeLine="117" d="M384.08,684.8101 C361.344,710.7051 329.572,744.9511 298.5,771.9531 C270.468,796.3131 236.311,820.4061 209.241,838.3621 " fill="none" id="NavOrPrivacyBroadcastArea-backto-NavArea" style="stroke:#A80036;stroke-width:1.0;"/><polygon fill="none" points="378.919,680.0761,397.3,669.5331,389.506,689.2371,378.919,680.0761" style="stroke:#A80036;stroke-width:1.0;"/><!--MD5=[9caa22a87e02a1397afac81daf6834c9]
reverse link NavOrPrivacyBroadcastArea to CoastalWarningArea--><path codeLine="118" d="M440.503,687.0391 C465.003,728.4631 502.671,792.1541 526.159,831.8681 " fill="none" id="NavOrPrivacyBroadcastArea-backto-CoastalWarningArea" style="stroke:#A80036;stroke-width:1.0;"/><polygon fill="none" points="434.428,690.5171,430.272,669.7391,446.478,683.3901,434.428,690.5171" style="stroke:#A80036;stroke-width:1.0;"/><!--MD5=[0022c157ffc1fba7fb5b7a5c5448c887]
reverse link NavOrPrivacyBroadcastArea to Geometry--><path codeLine="119" d="M405.865,689.2821 C394.357,735.6281 376.43,807.8261 367.287,844.6471 " fill="none" id="NavOrPrivacyBroadcastArea-backto-Geometry" style="stroke:#A80036;stroke-width:1.0;"/><polygon fill="none" points="399.104,687.4621,410.718,669.7391,412.692,690.8361,399.104,687.4621" style="stroke:#A80036;stroke-width:1.0;"/><!--MD5=[7020778b9d1fce08ae11e5a604d934f8]
reverse link MetBroadcastArea to Geometry--><path codeLine="121" d="M631.281,684.3391 C605.645,710.7101 569.286,745.7111 533.5,771.9531 C493.237,801.4781 442.955,828.5511 407.178,846.3651 " fill="none" id="MetBroadcastArea-backto-Geometry" style="stroke:#A80036;stroke-width:1.0;"/><polygon fill="none" points="626.524,679.1851,645.404,669.5661,636.644,688.8601,626.524,679.1851" style="stroke:#A80036;stroke-width:1.0;"/><!--MD5=[d795090c7d9848a6af5ded26dba402ab]
reverse link MetBroadcastArea to CoastalWarningArea--><path codeLine="122" d="M644.394,687.6001 C622.132,729.0361 588.127,792.3321 566.886,831.8681 " fill="none" id="MetBroadcastArea-backto-CoastalWarningArea" style="stroke:#A80036;stroke-width:1.0;"/><polygon fill="none" points="638.358,684.0441,653.99,669.7391,650.691,690.6701,638.358,684.0441" style="stroke:#A80036;stroke-width:1.0;"/><!--MD5=[13bd0b3165112074f9ae4b0a1daa9289]
reverse link MetBroadcastArea to MetArea--><path codeLine="123" d="M677.105,689.1621 C687.987,732.9881 704.633,800.0241 714.148,838.3441 " fill="none" id="MetBroadcastArea-backto-MetArea" style="stroke:#A80036;stroke-width:1.0;"/><polygon fill="none" points="670.308,690.8361,672.282,669.7391,683.896,687.4621,670.308,690.8361" style="stroke:#A80036;stroke-width:1.0;"/><!--MD5=[45e69262132f29a6673b584ee32daa9e]
reverse link SARBroadcastArea to Geometry--><path codeLine="125" d="M100.3953,687.3961 C116.258,714.0931 139.741,748.2511 167.5,771.9531 C211.939,809.8981 273.97,837.1661 315.825,852.7281 " fill="none" id="SARBroadcastArea-backto-Geometry" style="stroke:#A80036;stroke-width:1.0;"/><polygon fill="none" points="94.2633,690.7731,90.4558,669.9281,106.4312,683.8491,94.2633,690.7731" style="stroke:#A80036;stroke-width:1.0;"/><!--MD5=[7f0ef054806ca6871a7cfee4a734c37e]
reverse link SARBroadcastArea to NavArea--><path codeLine="126" d="M94.4704,688.5651 C111.086,732.3781 136.673,799.8501 151.271,838.3441 " fill="none" id="SARBroadcastArea-backto-NavArea" style="stroke:#A80036;stroke-width:1.0;"/><polygon fill="none" points="87.8774,690.9211,87.3307,669.7391,100.9677,685.9571,87.8774,690.9211" style="stroke:#A80036;stroke-width:1.0;"/><!--MD5=[faf15ea1ffad2e2c15f81db67920c38c]
reverse link MSI to SARBroadcast--><path codeLine="128" d="M482.332,150.6431 C378.64,224.4331 206.361,347.0391 134.999,397.8251 " fill="none" id="MSI-backto-SARBroadcast" style="stroke:#A80036;stroke-width:1.0;"/><polygon fill="none" points="478.317,144.9031,498.67,139.0131,486.434,156.3131,478.317,144.9031" style="stroke:#A80036;stroke-width:1.0;"/><!--MD5=[86bee229c31cc690a2ab4d0c6d8b56dc]
reverse link MSI to NonSARBroadcast--><path codeLine="129" d="M532.286,171.7531 C521.299,198.3231 509.911,225.8531 502.149,244.6231 " fill="none" id="MSI-backto-NonSARBroadcast" style="stroke:#A80036;stroke-width:1.0;"/><polygon fill="none" points="525.856,168.9931,539.968,153.1831,538.793,174.3431,525.856,168.9931" style="stroke:#A80036;stroke-width:1.0;"/><!--MD5=[4791f9ebfebed84c5520711137402c3a]
reverse link NonSARBroadcast to MetBroadcast--><path codeLine="130" d="M544.832,304.0141 C585.211,330.2951 640.502,366.2821 679.043,391.3671 " fill="none" id="NonSARBroadcast-backto-MetBroadcast" style="stroke:#A80036;stroke-width:1.0;"/><polygon fill="none" points="540.932,309.8281,527.988,293.0511,548.569,298.0941,540.932,309.8281" style="stroke:#A80036;stroke-width:1.0;"/><!--MD5=[5811f2273cce2a2b34b521595d393375]
reverse link NonSARBroadcast to NavBroadcast--><path codeLine="131" d="M471.63,311.4191 C457.603,339.2881 439.638,374.9821 428.097,397.9121 " fill="none" id="NonSARBroadcast-backto-NavBroadcast" style="stroke:#A80036;stroke-width:1.0;"/><polygon fill="none" points="465.547,307.9341,480.792,293.2161,478.053,314.2281,465.547,307.9341" style="stroke:#A80036;stroke-width:1.0;"/><!--MD5=[af8208c9b1f4ab71462747600e920018]
reverse link NonSARBroadcast to PiracyBroadcast--><path codeLine="132" d="M440.002,303.9751 C395.797,332.6231 333.764,372.8251 295.137,397.8581 " fill="none" id="NonSARBroadcast-backto-PiracyBroadcast" style="stroke:#A80036;stroke-width:1.0;"/><polygon fill="none" points="436.268,298.0541,456.859,293.0511,443.882,309.8021,436.268,298.0541" style="stroke:#A80036;stroke-width:1.0;"/><!--MD5=[1a29621155987e86a6aca1a0dcb5a11b]
link SARBroadcast to SARBroadcastArea--><path codeLine="134" d="M99.9769,446.2391 C95.3675,488.7801 85.6363,578.5911 81.0253,621.1471 " fill="none" id="SARBroadcast-SARBroadcastArea" style="stroke:#A80036;stroke-width:1.0;"/><text fill="#000000" font-family="sans-serif" font-size="13" lengthAdjust="spacing" textLength="24" x="54.7158" y="610.4775">0..1</text><!--MD5=[039260e54bc7592a5d81e4f2d0d3ceed]
link MetBroadcast to MetBroadcastArea--><path codeLine="135" d="M716.678,452.8251 C704.959,497.5801 683.095,581.0791 672.526,621.4391 " fill="none" id="MetBroadcast-MetBroadcastArea" style="stroke:#A80036;stroke-width:1.0;"/><text fill="#000000" font-family="sans-serif" font-size="13" lengthAdjust="spacing" textLength="8" x="665.0452" y="610.4476">1</text><!--MD5=[55e104ecbf37fc585c06ad7525d60faa]
link NavBroadcast to NavOrPrivacyBroadcastArea--><path codeLine="136" d="M416.5,446.2391 C416.5,488.7801 416.5,578.5911 416.5,621.1471 " fill="none" id="NavBroadcast-NavOrPrivacyBroadcastArea" style="stroke:#A80036;stroke-width:1.0;"/><text fill="#000000" font-family="sans-serif" font-size="13" lengthAdjust="spacing" textLength="8" x="407.525" y="610.4775">1</text><!--MD5=[28c287a3ea752b8ac253651cb838c3a5]
link PiracyBroadcast to NavOrPrivacyBroadcastArea--><path codeLine="137" d="M276.005,446.2391 C306.158,488.7801 369.817,578.5911 399.981,621.1471 " fill="none" id="PiracyBroadcast-NavOrPrivacyBroadcastArea" style="stroke:#A80036;stroke-width:1.0;"/><text fill="#000000" font-family="sans-serif" font-size="13" lengthAdjust="spacing" textLength="8" x="386.9795" y="610.4775">1</text><!--MD5=[ca28171ce46ff17b5f9e20c474450c88]
link NonSARBroadcast to NonSARPriority--><path codeLine="139" d="M504.208,293.2161 C516.492,317.6211 535.963,356.3081 550.263,384.7181 " fill="none" id="NonSARBroadcast-NonSARPriority" style="stroke:#A80036;stroke-width:1.0;"/><text fill="#000000" font-family="sans-serif" font-size="13" lengthAdjust="spacing" textLength="8" x="538.302" y="373.8632">1</text><!--MD5=[030133b6067a8c3a70272a990e0db7b2]
link SARBroadcast to SARPriority--><path codeLine="140" d="M119.272,446.1501 C132.86,465.3051 152.193,493.3981 167.5,518.9531 C183.755,546.0911 200.32,577.6051 212.789,602.2651 " fill="none" id="SARBroadcast-SARPriority" style="stroke:#A80036;stroke-width:1.0;"/><text fill="#000000" font-family="sans-serif" font-size="13" lengthAdjust="spacing" textLength="8" x="200.8507" y="591.2312">1</text><!--MD5=[66d906ee9ccde799097e4cc339fce60e]
link MSI to Status--><path codeLine="141" d="M591.032,153.1831 C599.049,172.5731 607.845,193.8331 615.664,212.7431 " fill="none" id="MSI-Status" style="stroke:#A80036;stroke-width:1.0;"/><text fill="#000000" font-family="sans-serif" font-size="13" lengthAdjust="spacing" textLength="8" x="604.3934" y="202.052">1</text><!--MD5=[4c20aa881a069245bb28224d8b3ecf9e]
@startuml
title MSI Broadcasts - Class Diagram

class MSI {
  id: string
  payload: string
  startDate: timestamp
  endDate: timestamp
  send()
  cancel()
}

class SARBroadcast
interface NonSARBroadcast
class MetBroadcast {
  isForecast: boolean
}
class NavBroadcast 
class PiracyBroadcast

enum SARPriority {
  SAFETY
  URGENCY
  DISTRESS
}
enum NonSARPriority {
  SAFETY
  URGENCY
}
enum Status {
  CREATED
  SCHEDULED
  ACTIVE
  FINISHED
  CANCELLED
}
enum IntervalHours {
  1
  2
  3
  4
  5
  6
  12
  18
  24
  30
  36
  48
  60
  72
  96
  120
}

interface Repetition 
class RepeatOnce
class RepeatTillCancelled

MSI - - "0..1" Repetition
Repetition <|- - RepeatOnce
Repetition <|- - RepeatTillCancelled
RepeatOnce - - "1" IntervalHours
RepeatTillCancelled  - - "1" IntervalHours

class MetArea {
  metAreaNo: integer
}
class NavArea {
  navAreaNo: integer
}
class CoastalWarningArea {
  navAreaNo: integer
  letter: char
}

enum SubjectIndicator {
  NAVIGATIONAL_WARNINGS
  METEOROLOGICAL_WARNINGS
  ICE_REPORTS
  SAR_INFO_AND_PIRACY_WARNINGS
  METEOROLOGICAL_FORECASTS
  NOT_USED
  SATNAV_MESSAGES
  OTHER_ELECTRONIC_NAVAID_MESSAGES
  OTHER_NAVIGATIONAL_WARNINGS
  PILOT_SERVICE_MESSAGES
  AIS
  LORAN_MESSAGES
  SPECIAL_SERVICES_V
  SPECIAL_SERVICES_W
  SPECIAL_SERVICES_X
  SPECIAL_SERVICES_Y
  NO_MESSAGES_ON_HAND
}
CoastalWarningArea - - "1" SubjectIndicator
 
interface SARBroadcastArea

class Circle {
  lat: decimal
  lon: decimal
  radiusNm: decimal
}
class Rectangle {
  minLat: decimal
  leftLon: decimal
  heightDegrees: decimal
  widthDegrees: decimal
}
interface Geometry
interface NavOrPrivacyBroadcastArea
interface MetBroadcastArea

Geometry <|- - Circle
Geometry <|- - Rectangle

NavOrPrivacyBroadcastArea <|- - NavArea
NavOrPrivacyBroadcastArea <|- - CoastalWarningArea
NavOrPrivacyBroadcastArea <|- - Geometry

MetBroadcastArea <|- - Geometry
MetBroadcastArea <|- - CoastalWarningArea
MetBroadcastArea <|- - MetArea

SARBroadcastArea <|- - Geometry
SARBroadcastArea <|- - NavArea

MSI <|- - SARBroadcast
MSI <|- - NonSARBroadcast
NonSARBroadcast <|- - MetBroadcast
NonSARBroadcast <|- - NavBroadcast
NonSARBroadcast <|- - PiracyBroadcast

SARBroadcast  - - "0..1" SARBroadcastArea
MetBroadcast  - - "1" MetBroadcastArea
NavBroadcast  - - "1" NavOrPrivacyBroadcastArea
PiracyBroadcast  - - "1" NavOrPrivacyBroadcastArea

NonSARBroadcast - - "1" NonSARPriority
SARBroadcast - - "1" SARPriority
MSI - - "1" Status
@enduml

PlantUML version 1.2021.16beta3(Unknown compile time)
(GPL source distribution)
Java Runtime: Java(TM) SE Runtime Environment
JVM: Java HotSpot(TM) 64-Bit Server VM
Default Encoding: UTF-8
Language: en
Country: US
--></g></svg>